<?xml version="1.0" encoding="UTF-8" standalone="no"?>
<svg width="290px" height="49px" viewBox="0 0 290 49" version="1.1" xmlns="http://www.w3.org/2000/svg" xmlns:xlink="http://www.w3.org/1999/xlink" xmlns:sketch="http://www.bohemiancoding.com/sketch/ns">
    <!-- Generator: Sketch 3.3.3 (12081) - http://www.bohemiancoding.com/sketch -->
    <title>Corey Malone + EMPATHETIC EXPERIENC Copy</title>
    <desc>Created with Sketch.</desc>
    <defs></defs>
    <g id="Page-1" stroke="none" stroke-width="1" fill="none" fill-rule="evenodd" sketch:type="MSPage">
        <g id="Artboard-26" sketch:type="MSArtboardGroup" transform="translate(-137.000000, -205.000000)" fill="#1FB7AF">
            <g id="Corey-Malone-+-EMPATHETIC-EXPERIENC-Copy" sketch:type="MSLayerGroup" transform="translate(137.000000, 205.000000)">
                <path d="M0.272177202,10.9969831 L0.272177202,18.0471544 C0.272177202,24.8231525 4.61978289,29.0140877 12.3358038,29.0140877 C18.3676171,29.0140877 22.1277085,26.5465277 23.7727485,22.1597544 C24.1644247,21.0238935 23.8902513,20.4363792 22.7152228,20.044703 L18.5242876,18.5563335 C17.349259,18.1254897 16.8792476,18.399663 16.4092362,19.6138592 C15.7825543,21.2980668 14.5291904,22.1597544 12.3358038,22.1597544 C9.24156191,22.1597544 8.02736573,20.8280554 8.02736573,18.0863221 L8.02736573,10.9578154 C8.02736573,8.21608212 9.24156191,6.88438308 12.3358038,6.88438308 C14.5291904,6.88438308 15.704219,7.66773546 16.4092362,9.4302783 C16.84008,10.6444745 17.3100914,10.8403126 18.5242876,10.487804 L22.7152228,8.9994345 C23.8902513,8.60775831 24.1644247,8.02024403 23.7727485,6.88438308 C22.1277085,2.49760977 18.3676171,0.0300497873 12.3358038,0.0300497873 C4.61978289,0.0300497873 0.272177202,4.220985 0.272177202,10.9969831 L0.272177202,10.9969831 Z M25.770297,10.9969831 L25.770297,18.0471544 C25.770297,24.8231525 30.0787351,29.0140877 37.8339236,29.0140877 C45.5499445,29.0140877 49.8583826,24.8231525 49.8583826,18.0471544 L49.8583826,10.9969831 C49.8583826,4.220985 45.5499445,0.0300497873 37.8339236,0.0300497873 C30.0787351,0.0300497873 25.770297,4.220985 25.770297,10.9969831 L25.770297,10.9969831 Z M42.1031941,10.6444745 L42.1031941,18.399663 C42.1031941,20.867223 40.5364893,22.1597544 37.8339236,22.1597544 C35.0921903,22.1597544 33.5254856,20.867223 33.5254856,18.399663 L33.5254856,10.6444745 C33.5254856,8.1769145 35.0921903,6.88438308 37.8339236,6.88438308 C40.5364893,6.88438308 42.1031941,8.1769145 42.1031941,10.6444745 L42.1031941,10.6444745 Z M65.9954416,0.61756407 L54.8326702,0.61756407 C53.5793064,0.61756407 53.1484626,1.04840788 53.1484626,2.26260406 L53.1484626,26.7815334 C53.1484626,27.9957296 53.5793064,28.4265734 54.8326702,28.4265734 L59.2586111,28.4265734 C60.5119749,28.4265734 60.9036511,27.9957296 60.9036511,26.7815334 L60.9036511,19.1830154 L61.8045064,19.1830154 C63.4103787,19.1830154 64.0762282,19.8488649 64.7420778,21.1805639 L67.2488054,26.5465277 C67.8754873,27.9173944 68.7763425,28.4265734 70.8522263,28.4265734 L75.0823291,28.4265734 C76.3748606,28.4265734 76.6490339,27.5648858 76.1006872,26.5073601 L72.5756015,19.8096973 C72.2622606,19.1830154 71.909752,18.6346687 71.5180758,18.1254897 C74.1814739,16.6371202 75.7481787,13.8953868 75.7481787,10.0569602 C75.7481787,3.98597929 71.909752,0.61756407 65.9954416,0.61756407 L65.9954416,0.61756407 Z M67.7188168,10.0177926 C67.7188168,11.623665 66.7787939,12.642023 65.133754,12.642023 L60.9036511,12.642023 L60.9036511,7.47189736 L65.133754,7.47189736 C66.8179616,7.47189736 67.7188168,8.45108783 67.7188168,10.0177926 L67.7188168,10.0177926 Z M97.1336985,0.61756407 L80.7224662,0.61756407 C79.4691024,0.61756407 79.0382586,1.04840788 79.0382586,2.26260406 L79.0382586,26.7815334 C79.0382586,27.9957296 79.4691024,28.4265734 80.7224662,28.4265734 L97.4862071,28.4265734 C98.7004033,28.4265734 99.1312471,27.9957296 99.1312471,26.7815334 L99.1312471,23.2172801 C99.1312471,21.9639163 98.7004033,21.5722401 97.4862071,21.5722401 L86.7934472,21.5722401 L86.7934472,17.8121487 L95.0578147,17.8121487 C96.3111785,17.8121487 96.7420223,17.3813049 96.7420223,16.1279411 L96.7420223,12.6028554 C96.7420223,11.3886592 96.3111785,10.9578154 95.0578147,10.9578154 L86.7934472,10.9578154 L86.7934472,7.47189736 L97.1336985,7.47189736 C98.3870623,7.47189736 98.8179061,7.04105355 98.8179061,5.78768975 L98.8179061,2.26260406 C98.8179061,1.04840788 98.3870623,0.61756407 97.1336985,0.61756407 L97.1336985,0.61756407 Z M125.412719,0.61756407 L120.908443,0.61756407 C118.98923,0.61756407 118.440883,0.695899307 117.696698,2.06676597 L113.38826,10.0569602 L109.197325,2.06676597 C108.45314,0.695899307 107.904794,0.61756407 105.946413,0.61756407 L101.246299,0.61756407 C100.032102,0.61756407 99.8754318,1.36174883 100.423779,2.26260406 L109.432331,17.6554783 L109.432331,26.7815334 C109.432331,27.9957296 109.863175,28.4265734 111.116538,28.4265734 L115.542479,28.4265734 C116.795843,28.4265734 117.187519,27.9957296 117.187519,26.7815334 L117.187519,17.6554783 L126.235239,2.26260406 C126.744418,1.36174883 126.587748,0.61756407 125.412719,0.61756407 L125.412719,0.61756407 Z M161.09442,0.578396451 L157.177658,0.578396451 C155.885127,0.578396451 155.532618,0.774234545 154.984272,1.83176025 L148.521614,14.4829011 L142.058957,1.79259263 C141.510611,0.813402164 141.118934,0.578396451 139.748068,0.578396451 L136.066312,0.578396451 C134.812948,0.578396451 134.382104,0.970072639 134.382104,2.22343644 L134.382104,26.8207011 C134.382104,28.0348972 134.812948,28.4265734 136.066312,28.4265734 L140.061409,28.4265734 C141.314773,28.4265734 141.745616,28.0348972 141.745616,26.8207011 L141.745616,21.2588992 C141.745616,18.5563335 141.549778,16.5979525 140.139744,10.9578154 L140.53142,10.9578154 C140.923096,12.3286821 142.137293,15.932103 142.959813,17.4204725 L145.270702,21.8464135 C145.701546,22.7081011 146.093222,22.9822744 147.150748,22.9822744 L149.774978,22.9822744 C150.832504,22.9822744 151.22418,22.6297658 151.655024,21.8464135 L153.848411,17.4204725 C154.670931,15.8146002 156.080965,12.2503469 156.472641,10.9578154 L156.903485,10.9578154 C155.415115,16.1671087 155.18011,18.6346687 155.18011,21.2197316 L155.18011,26.8207011 C155.18011,28.0348972 155.571786,28.4265734 156.82515,28.4265734 L161.09442,28.4265734 C162.347784,28.4265734 162.778628,28.0348972 162.778628,26.8207011 L162.778628,2.22343644 C162.778628,0.970072639 162.347784,0.578396451 161.09442,0.578396451 L161.09442,0.578396451 Z M191.52766,26.8207011 L182.47994,1.91009549 C182.088264,0.891737401 181.579085,0.61756407 180.443224,0.61756407 L175.978115,0.61756407 C174.842254,0.61756407 174.333075,0.852569782 173.941399,1.98843073 L164.932847,26.8207011 C164.541171,27.8782268 164.776176,28.4265734 165.990372,28.4265734 L170.102972,28.4265734 C172.061353,28.4265734 172.570532,27.9957296 172.962209,26.7815334 L173.863064,23.9614649 L182.323269,23.9614649 L183.224125,26.7815334 C183.537466,27.9957296 184.12498,28.4265734 186.161696,28.4265734 L190.391799,28.4265734 C191.566827,28.4265734 191.919336,27.8782268 191.52766,26.8207011 L191.52766,26.8207011 Z M179.111525,13.2295373 L180.560727,17.8121487 L175.664774,17.8121487 L177.113976,13.1903697 C177.897329,10.5661392 177.858161,7.74607069 177.858161,7.74607069 L178.249837,7.74607069 C178.249837,7.74607069 178.328172,10.5661392 179.111525,13.2295373 L179.111525,13.2295373 Z M199.75286,0.61756407 L195.326919,0.61756407 C194.073555,0.61756407 193.642711,1.04840788 193.642711,2.26260406 L193.642711,26.7815334 C193.642711,27.9957296 194.073555,28.4265734 195.326919,28.4265734 L210.837296,28.4265734 C212.051492,28.4265734 212.482336,27.9957296 212.482336,26.7815334 L212.482336,23.2172801 C212.482336,21.9639163 212.051492,21.5722401 210.837296,21.5722401 L201.3979,21.5722401 L201.3979,2.26260406 C201.3979,1.04840788 201.006224,0.61756407 199.75286,0.61756407 L199.75286,0.61756407 Z M213.774867,10.9969831 L213.774867,18.0471544 C213.774867,24.8231525 218.083305,29.0140877 225.838494,29.0140877 C233.554515,29.0140877 237.862953,24.8231525 237.862953,18.0471544 L237.862953,10.9969831 C237.862953,4.220985 233.554515,0.0300497873 225.838494,0.0300497873 C218.083305,0.0300497873 213.774867,4.220985 213.774867,10.9969831 L213.774867,10.9969831 Z M230.107764,10.6444745 L230.107764,18.399663 C230.107764,20.867223 228.54106,22.1597544 225.838494,22.1597544 C223.096761,22.1597544 221.530056,20.867223 221.530056,18.399663 L221.530056,10.6444745 C221.530056,8.1769145 223.096761,6.88438308 225.838494,6.88438308 C228.54106,6.88438308 230.107764,8.1769145 230.107764,10.6444745 L230.107764,10.6444745 Z M263.008564,0.61756407 L259.013467,0.61756407 C257.760103,0.61756407 257.368427,1.04840788 257.368427,2.26260406 L257.368427,8.68609354 C257.368427,12.6811907 257.877606,14.5612364 259.13097,18.5955011 L258.817629,18.5955011 C257.564265,15.6187621 257.250924,14.1303926 255.527549,11.4278269 L249.10406,1.40091645 C248.751551,0.852569782 248.359875,0.61756407 247.45902,0.61756407 L242.837241,0.61756407 C241.583877,0.61756407 241.153033,1.04840788 241.153033,2.26260406 L241.153033,26.7815334 C241.153033,27.9957296 241.583877,28.4265734 242.837241,28.4265734 L246.79317,28.4265734 C248.046534,28.4265734 248.477378,27.9957296 248.477378,26.7815334 L248.477378,20.3972116 C248.477378,16.0496059 248.007366,14.0520573 247.184846,10.2919659 L247.498187,10.2919659 C248.555713,13.8170516 249.221562,15.6579297 250.944938,18.3604954 L256.976751,27.6432211 C257.329259,28.1915677 257.760103,28.4265734 258.582623,28.4265734 L263.008564,28.4265734 C264.22276,28.4265734 264.653604,27.9957296 264.653604,26.7815334 L264.653604,2.26260406 C264.653604,1.04840788 264.22276,0.61756407 263.008564,0.61756407 L263.008564,0.61756407 Z M286.665806,0.61756407 L270.254574,0.61756407 C269.00121,0.61756407 268.570366,1.04840788 268.570366,2.26260406 L268.570366,26.7815334 C268.570366,27.9957296 269.00121,28.4265734 270.254574,28.4265734 L287.018315,28.4265734 C288.232511,28.4265734 288.663355,27.9957296 288.663355,26.7815334 L288.663355,23.2172801 C288.663355,21.9639163 288.232511,21.5722401 287.018315,21.5722401 L276.325555,21.5722401 L276.325555,17.8121487 L284.589922,17.8121487 C285.843286,17.8121487 286.27413,17.3813049 286.27413,16.1279411 L286.27413,12.6028554 C286.27413,11.3886592 285.843286,10.9578154 284.589922,10.9578154 L276.325555,10.9578154 L276.325555,7.47189736 L286.665806,7.47189736 C287.91917,7.47189736 288.350014,7.04105355 288.350014,5.78768975 L288.350014,2.26260406 C288.350014,1.04840788 287.91917,0.61756407 286.665806,0.61756407 L286.665806,0.61756407 Z" id="Corey-Malone" sketch:type="MSShapeGroup"></path>
                <path d="M2.62712929,48.0932401 L2.62712929,36.4254779 L9.58769119,36.4254779 L9.58769119,37.3075768 L3.54932355,37.3075768 L3.54932355,41.8383573 L8.56926797,41.8383573 L8.56926797,42.7204561 L3.54932355,42.7204561 L3.54932355,47.2111412 L9.93251166,47.2111412 L9.93251166,48.0932401 L2.62712929,48.0932401 Z M22.7446398,36.4254779 L23.6748532,36.4254779 L23.6748532,48.0932401 L22.7526589,48.0932401 L22.7526589,38.2778855 L22.7286017,38.2778855 L18.3742409,45.6714778 L17.7006382,45.6714778 L13.3462774,38.2778855 L13.3222202,38.2778855 L13.3222202,48.0932401 L12.4000259,48.0932401 L12.4000259,36.4254779 L13.3382584,36.4254779 L18.0294205,44.4766348 L18.0614968,44.4766348 L22.7446398,36.4254779 Z M26.8400274,48.0932401 L26.8400274,36.4254779 L30.7934341,36.4254779 C31.4403099,36.4254779 32.0069859,36.5123504 32.4934792,36.686098 C32.9799725,36.8598457 33.3702305,37.1044252 33.664265,37.4198439 C33.9582994,37.7352627 34.1761489,38.0974542 34.31782,38.5064293 C34.4594912,38.9154045 34.5303257,39.373824 34.5303257,39.8817016 C34.5303257,40.3575028 34.4661737,40.7891923 34.3378677,41.1767831 C34.2095618,41.564374 34.0304708,41.893153 33.8005893,42.16313 C33.5707079,42.4331071 33.2887064,42.6603121 32.9545763,42.8447519 C32.6204463,43.0291917 32.2515723,43.1641782 31.8479432,43.2497155 C31.4443142,43.3352527 31.0019326,43.3780207 30.5207854,43.3780207 L27.7622217,43.3780207 L27.7622217,48.0932401 L26.8400274,48.0932401 Z M27.7622217,42.4959219 L30.4887091,42.4959219 C31.0286632,42.4959219 31.5004477,42.4290969 31.9040768,42.2954449 C32.3077059,42.1617929 32.6271294,41.9746829 32.8623569,41.7341092 C33.0975845,41.4935356 33.2713295,41.2182166 33.3835972,40.9081439 C33.4958648,40.5980713 33.5519978,40.2532543 33.5519978,39.8736826 C33.5519978,39.0343479 33.3060818,38.3968374 32.8142424,37.9611318 C32.322403,37.5254263 31.646134,37.3075768 30.7854151,37.3075768 L27.7622217,37.3075768 L27.7622217,42.4959219 Z M43.7258485,48.0932401 L42.5550628,45.0058941 L36.9176491,45.0058941 L35.7548825,48.0932401 L34.7685356,48.0932401 L39.2351634,36.4254779 L40.2134912,36.4254779 L44.7202145,48.0932401 L43.7258485,48.0932401 Z M37.2464314,44.1237952 L42.2262805,44.1237952 L39.7323464,37.5481492 L39.7163082,37.5481492 L37.2464314,44.1237952 Z M48.4387053,48.0932401 L48.4387053,37.3075768 L44.7900237,37.3075768 L44.7900237,36.4254779 L53.0657148,36.4254779 L53.0657148,37.3075768 L49.3608996,37.3075768 L49.3608996,48.0932401 L48.4387053,48.0932401 Z M55.228504,48.0932401 L55.228504,36.4254779 L56.1506983,36.4254779 L56.1506983,42.1350633 L63.0150312,42.1350633 L63.0150312,36.4254779 L63.9372255,36.4254779 L63.9372255,48.0932401 L63.0150312,48.0932401 L63.0150312,43.0171621 L56.1506983,43.0171621 L56.1506983,48.0932401 L55.228504,48.0932401 Z M67.1023998,48.0932401 L67.1023998,36.4254779 L74.0629617,36.4254779 L74.0629617,37.3075768 L68.024594,37.3075768 L68.024594,41.8383573 L73.0445384,41.8383573 L73.0445384,42.7204561 L68.024594,42.7204561 L68.024594,47.2111412 L74.4077821,47.2111412 L74.4077821,48.0932401 L67.1023998,48.0932401 Z M79.5135739,48.0932401 L79.5135739,37.3075768 L75.8648923,37.3075768 L75.8648923,36.4254779 L84.1405834,36.4254779 L84.1405834,37.3075768 L80.4357682,37.3075768 L80.4357682,48.0932401 L79.5135739,48.0932401 Z M86.3996015,48.0932401 L86.3996015,36.4254779 L87.3298149,36.4254779 L87.3298149,48.0932401 L86.3996015,48.0932401 Z M95.859754,48.1573927 C95.2289166,48.1573927 94.628828,48.0772027 94.0594705,47.9168203 C93.4901129,47.7564379 92.9662049,47.5131949 92.4877307,47.187084 C92.0092565,46.8609731 91.593605,46.4680421 91.2407637,46.0082792 C90.8879224,45.5485162 90.6126033,45.0032242 90.4147984,44.3723867 C90.2169934,43.7415492 90.1180924,43.0545882 90.1180924,42.311483 C90.1180924,41.6485691 90.1969459,41.017741 90.3546553,40.41898 C90.5123646,39.820219 90.7515981,39.2735905 91.072363,38.7790781 C91.3931278,38.2845656 91.7807128,37.8555491 92.2351296,37.4920156 C92.6895465,37.1284822 93.225483,36.8464807 93.8429553,36.6460026 C94.4604276,36.4455246 95.1326871,36.3452871 95.859754,36.3452871 C96.4104003,36.3452871 96.9436639,36.4187946 97.4595606,36.5658118 C97.9754574,36.712829 98.4846639,36.9547356 98.9871955,37.2915386 C99.489727,37.6283417 99.944137,38.0506757 100.350439,38.5585533 L99.636741,39.1439462 C99.1395555,38.529147 98.5648605,38.061372 97.9126387,37.7406071 C97.2604169,37.4198423 96.5761288,37.2594623 95.859754,37.2594623 C95.1166489,37.2594623 94.4443893,37.3877663 93.8429553,37.6443782 C93.2415212,37.90099 92.7416702,38.253826 92.3433872,38.7028968 C91.9451042,39.1519675 91.6377092,39.6852311 91.421193,40.3027034 C91.2046767,40.9201756 91.0964202,41.5897622 91.0964202,42.311483 C91.0964202,43.0706265 91.2193782,43.7629335 91.4652979,44.3884249 C91.7112176,45.0139163 92.0480156,45.5338148 92.4757021,45.9481361 C92.9033885,46.3624573 93.407249,46.6818808 93.9872987,46.9064162 C94.5673485,47.1309516 95.191494,47.2432176 95.859754,47.2432176 C97.3566566,47.2432176 98.6156396,46.6204085 99.636741,45.3747718 L100.350439,45.9601647 C99.1796475,47.4249907 97.6827675,48.1573927 95.859754,48.1573927 L95.859754,48.1573927 Z M107.426562,48.0932401 L107.426562,36.4254779 L114.387124,36.4254779 L114.387124,37.3075768 L108.348756,37.3075768 L108.348756,41.8383573 L113.368701,41.8383573 L113.368701,42.7204561 L108.348756,42.7204561 L108.348756,47.2111412 L114.731945,47.2111412 L114.731945,48.0932401 L107.426562,48.0932401 Z M124.520879,48.0932401 L120.984465,43.0572575 L120.952389,43.0572575 L117.407955,48.0932401 L116.285284,48.0932401 L120.358977,42.2713876 L116.301322,36.4254779 L117.391917,36.4254779 L120.960408,41.5015559 L120.984465,41.5015559 L124.504841,36.4254779 L125.611474,36.4254779 L121.569858,42.2713876 L125.643551,48.0932401 L124.520879,48.0932401 Z M127.89455,48.0932401 L127.89455,36.4254779 L131.847956,36.4254779 C132.494832,36.4254779 133.061508,36.5123504 133.548002,36.686098 C134.034495,36.8598457 134.424753,37.1044252 134.718787,37.4198439 C135.012822,37.7352627 135.230671,38.0974542 135.372342,38.5064293 C135.514013,38.9154045 135.584848,39.373824 135.584848,39.8817016 C135.584848,40.3575028 135.520696,40.7891923 135.39239,41.1767831 C135.264084,41.564374 135.084993,41.893153 134.855112,42.16313 C134.62523,42.4331071 134.343229,42.6603121 134.009099,42.8447519 C133.674969,43.0291917 133.306095,43.1641782 132.902466,43.2497155 C132.498836,43.3352527 132.056455,43.3780207 131.575308,43.3780207 L128.816744,43.3780207 L128.816744,48.0932401 L127.89455,48.0932401 Z M128.816744,42.4959219 L131.543231,42.4959219 C132.083186,42.4959219 132.55497,42.4290969 132.958599,42.2954449 C133.362228,42.1617929 133.681652,41.9746829 133.916879,41.7341092 C134.152107,41.4935356 134.325852,41.2182166 134.438119,40.9081439 C134.550387,40.5980713 134.60652,40.2532543 134.60652,39.8736826 C134.60652,39.0343479 134.360604,38.3968374 133.868765,37.9611318 C133.376925,37.5254263 132.700656,37.3075768 131.839937,37.3075768 L128.816744,37.3075768 L128.816744,42.4959219 Z M137.980191,48.0932401 L137.980191,36.4254779 L144.940752,36.4254779 L144.940752,37.3075768 L138.902385,37.3075768 L138.902385,41.8383573 L143.922329,41.8383573 L143.922329,42.7204561 L138.902385,42.7204561 L138.902385,47.2111412 L145.285573,47.2111412 L145.285573,48.0932401 L137.980191,48.0932401 Z M155.699996,48.0932401 L154.537229,48.0932401 L151.313559,43.3780207 L148.675281,43.3780207 L148.675281,48.0932401 L147.753087,48.0932401 L147.753087,36.4254779 L151.73857,36.4254779 C152.374754,36.4254779 152.934747,36.5123504 153.418568,36.686098 C153.902388,36.8598457 154.292646,37.1030887 154.589353,37.4158344 C154.886061,37.7285801 155.10792,38.0921081 155.254937,38.5064293 C155.401954,38.9207506 155.475462,39.3791701 155.475462,39.8817016 C155.475462,40.8974569 155.202816,41.6926744 154.657516,42.2673781 C154.112215,42.8420817 153.363775,43.1935812 152.412173,43.3218872 L152.412173,43.3379253 L155.699996,48.0932401 Z M148.675281,37.3075768 L148.675281,42.4959219 L151.425826,42.4959219 C151.96578,42.4959219 152.436228,42.4304334 152.837184,42.2994544 C153.23814,42.1684754 153.557564,41.9827019 153.795464,41.7421283 C154.033365,41.5015547 154.209783,41.2262357 154.324724,40.916163 C154.439664,40.6060904 154.497134,40.2586003 154.497134,39.8736826 C154.497134,39.0290018 154.251218,38.3901548 153.759378,37.9571223 C153.267539,37.5240898 152.577905,37.3075768 151.690456,37.3075768 L148.675281,37.3075768 Z M158.367987,48.0932401 L158.367987,36.4254779 L159.298201,36.4254779 L159.298201,48.0932401 L158.367987,48.0932401 Z M162.567623,48.0932401 L162.567623,36.4254779 L169.528185,36.4254779 L169.528185,37.3075768 L163.489817,37.3075768 L163.489817,41.8383573 L168.509762,41.8383573 L168.509762,42.7204561 L163.489817,42.7204561 L163.489817,47.2111412 L169.873005,47.2111412 L169.873005,48.0932401 L162.567623,48.0932401 Z M180.648287,36.4254779 L181.570481,36.4254779 L181.570481,48.0932401 L180.632249,48.0932401 L173.286771,38.0613704 L173.262714,38.0613704 L173.262714,48.0932401 L172.34052,48.0932401 L172.34052,36.4254779 L173.246676,36.4254779 L180.616211,46.5054621 L180.648287,46.5054621 L180.648287,36.4254779 Z M190.004191,48.1573927 C189.373354,48.1573927 188.773265,48.0772027 188.203908,47.9168203 C187.63455,47.7564379 187.110642,47.5131949 186.632168,47.187084 C186.153694,46.8609731 185.738042,46.4680421 185.385201,46.0082792 C185.03236,45.5485162 184.757041,45.0032242 184.559236,44.3723867 C184.361431,43.7415492 184.26253,43.0545882 184.26253,42.311483 C184.26253,41.6485691 184.341383,41.017741 184.499093,40.41898 C184.656802,39.820219 184.896036,39.2735905 185.2168,38.7790781 C185.537565,38.2845656 185.92515,37.8555491 186.379567,37.4920156 C186.833984,37.1284822 187.36992,36.8464807 187.987393,36.6460026 C188.604865,36.4455246 189.277125,36.3452871 190.004191,36.3452871 C190.554838,36.3452871 191.088101,36.4187946 191.603998,36.5658118 C192.119895,36.712829 192.629101,36.9547356 193.131633,37.2915386 C193.634164,37.6283417 194.088574,38.0506757 194.494877,38.5585533 L193.781178,39.1439462 C193.283993,38.529147 192.709298,38.061372 192.057076,37.7406071 C191.404854,37.4198423 190.720566,37.2594623 190.004191,37.2594623 C189.261086,37.2594623 188.588827,37.3877663 187.987393,37.6443782 C187.385959,37.90099 186.886108,38.253826 186.487825,38.7028968 C186.089542,39.1519675 185.782147,39.6852311 185.56563,40.3027034 C185.349114,40.9201756 185.240858,41.5897622 185.240858,42.311483 C185.240858,43.0706265 185.363816,43.7629335 185.609735,44.3884249 C185.855655,45.0139163 186.192453,45.5338148 186.620139,45.9481361 C187.047826,46.3624573 187.551686,46.6818808 188.131736,46.9064162 C188.711786,47.1309516 189.335931,47.2432176 190.004191,47.2432176 C191.501094,47.2432176 192.760077,46.6204085 193.781178,45.3747718 L194.494877,45.9601647 C193.324085,47.4249907 191.827205,48.1573927 190.004191,48.1573927 L190.004191,48.1573927 Z M196.785971,48.0932401 L196.785971,36.4254779 L203.746533,36.4254779 L203.746533,37.3075768 L197.708165,37.3075768 L197.708165,41.8383573 L202.72811,41.8383573 L202.72811,42.7204561 L197.708165,42.7204561 L197.708165,47.2111412 L204.091353,47.2111412 L204.091353,48.0932401 L196.785971,48.0932401 Z M211.343896,48.0932401 L211.343896,36.4254779 L214.6237,36.4254779 C215.532534,36.4254779 216.36651,36.5698199 217.125653,36.8585083 C217.884797,37.1471966 218.523644,37.5481466 219.042214,38.0613704 C219.560783,38.5745941 219.96307,39.1920571 220.249085,39.913778 C220.5351,40.6354988 220.678106,41.4240338 220.678106,42.2794067 C220.678106,43.1347796 220.537773,43.9219781 220.257104,44.6410259 C219.976435,45.3600737 219.579495,45.9735273 219.066271,46.4814049 C218.553047,46.9892825 217.920883,47.3848866 217.169758,47.6682288 C216.418634,47.9515711 215.585994,48.0932401 214.671815,48.0932401 L211.343896,48.0932401 Z M212.266091,47.2111412 L214.615681,47.2111412 C215.369478,47.2111412 216.064458,47.0881832 216.700642,46.8422635 C217.336826,46.5963438 217.874099,46.2568728 218.312477,45.8238403 C218.750856,45.3908078 219.091663,44.8695728 219.33491,44.2601196 C219.578157,43.6506664 219.699778,42.9904354 219.699778,42.2794067 C219.699778,41.5576859 219.57682,40.8880993 219.3309,40.270627 C219.084981,39.6531547 218.744173,39.1279102 218.308468,38.6948777 C217.872762,38.2618452 217.339499,37.9223742 216.708661,37.6764545 C216.077824,37.4305348 215.38819,37.3075768 214.639738,37.3075768 L212.266091,37.3075768 L212.266091,47.2111412 Z M223.354116,48.0932401 L223.354116,36.4254779 L230.314678,36.4254779 L230.314678,37.3075768 L224.276311,37.3075768 L224.276311,41.8383573 L229.296255,41.8383573 L229.296255,42.7204561 L224.276311,42.7204561 L224.276311,47.2111412 L230.659499,47.2111412 L230.659499,48.0932401 L223.354116,48.0932401 Z M236.438893,48.1734309 C235.685096,48.1734309 234.955367,48.0264159 234.249684,47.7323815 C233.544002,47.438347 232.91852,46.991956 232.373219,46.393195 L232.97465,45.6714778 C233.402337,46.1847015 233.924908,46.578969 234.542381,46.8542922 C235.159853,47.1296153 235.792018,47.2672748 236.438893,47.2672748 C237.246151,47.2672748 237.910392,47.0734823 238.431635,46.6858915 C238.952878,46.2983006 239.213495,45.7864211 239.213495,45.1502375 C239.213495,44.9363943 239.188102,44.7385923 239.137314,44.5568256 C239.086526,44.3750588 239.026384,44.2173518 238.956885,44.0836998 C238.887385,43.9500478 238.779129,43.8177343 238.632112,43.6867553 C238.485095,43.5557764 238.355454,43.4501929 238.243186,43.3700017 C238.130919,43.2898105 237.961183,43.197592 237.733975,43.0933434 C237.506766,42.9890948 237.325002,42.9089048 237.188677,42.852771 C237.052352,42.7966371 236.845195,42.7151106 236.567199,42.608189 C236.438893,42.5600743 236.342665,42.5226523 236.278512,42.4959219 C236.241089,42.4798836 236.187629,42.4584996 236.11813,42.4317692 C235.909633,42.351578 235.750589,42.290099 235.640995,42.2473304 C235.5314,42.2045617 235.376366,42.1404097 235.175888,42.0548725 C234.97541,41.9693352 234.81904,41.8958277 234.706772,41.8343477 C234.594504,41.7728678 234.452835,41.6953508 234.281761,41.6017944 C234.110686,41.508238 233.9757,41.4186925 233.876797,41.3331552 C233.777895,41.2476179 233.664292,41.1473804 233.535986,41.0324397 C233.40768,40.917499 233.307443,40.7985505 233.235271,40.6755906 C233.163099,40.5526308 233.092264,40.4189807 233.022765,40.2746366 C232.953266,40.1302924 232.903815,39.9752584 232.874412,39.8095299 C232.845009,39.6438014 232.830307,39.4700564 232.830307,39.2882897 C232.830307,38.8766415 232.919853,38.48772 233.098946,38.1215135 C233.27804,37.7553069 233.521283,37.4425659 233.828683,37.183281 C234.136082,36.9239961 234.50362,36.7195116 234.931306,36.5698214 C235.358993,36.4201311 235.81073,36.3452871 236.286531,36.3452871 C236.890638,36.3452871 237.498745,36.4562166 238.110872,36.678079 C238.722998,36.8999413 239.299029,37.2220378 239.838983,37.6443782 L239.245571,38.3981717 C238.785809,38.0292922 238.29665,37.7459542 237.77808,37.5481492 C237.25951,37.3503442 236.759659,37.2514432 236.278512,37.2514432 C235.968439,37.2514432 235.669063,37.2942112 235.380375,37.3797485 C235.091686,37.4652858 234.832405,37.5882438 234.602524,37.7486262 C234.372642,37.9090086 234.186869,38.1175026 234.045198,38.3741145 C233.903527,38.6307264 233.832692,38.9167374 233.832692,39.2321561 C233.832692,39.4834219 233.878133,39.7119634 233.969016,39.9177875 C234.0599,40.1236116 234.164147,40.2933471 234.281761,40.4269991 C234.399374,40.5606511 234.585148,40.6983106 234.839087,40.8399818 C235.093026,40.9816529 235.305529,41.0899094 235.476604,41.1647545 C235.647678,41.2395996 235.909632,41.3438466 236.262473,41.4774987 C236.310588,41.498883 236.34801,41.514921 236.374741,41.5256131 C236.401471,41.5363053 236.43622,41.5496703 236.478989,41.5657085 C236.521757,41.5817468 236.561852,41.5977848 236.599275,41.613823 C236.67412,41.6458995 236.783713,41.6886675 236.928057,41.7421283 C237.26486,41.8757803 237.516122,41.9773543 237.681851,42.0468534 C237.847579,42.1163524 238.069438,42.2179264 238.347434,42.3515784 C238.625431,42.4852304 238.833925,42.604179 238.972923,42.7084275 C239.111921,42.8126761 239.274974,42.9489991 239.462087,43.1174006 C239.649199,43.2858022 239.786859,43.4595472 239.875069,43.6386409 C239.96328,43.8177346 240.03946,44.0275651 240.103613,44.2681387 C240.167766,44.5087123 240.199842,44.7706663 240.199842,45.0540086 C240.199842,45.6741539 240.031443,46.2247919 239.69464,46.7059392 C239.357837,47.1870864 238.904763,47.5519509 238.335406,47.8005437 C237.766048,48.0491364 237.133884,48.1734309 236.438893,48.1734309 L236.438893,48.1734309 Z M242.835757,48.0932401 L242.835757,36.4254779 L243.76597,36.4254779 L243.76597,48.0932401 L242.835757,48.0932401 Z M252.023261,42.2794067 L256.810652,42.2794067 L256.810652,46.6498056 C256.254659,47.1362989 255.589082,47.5105189 254.813901,47.7724769 C254.038719,48.0344348 253.20207,48.1654118 252.303929,48.1654118 C251.475286,48.1654118 250.706799,48.0237428 249.998443,47.7404005 C249.290087,47.4570583 248.68198,47.0627908 248.174102,46.5575862 C247.666224,46.0523816 247.269284,45.430909 246.983269,44.6931499 C246.697253,43.9553909 246.554248,43.1481448 246.554248,42.2713876 C246.554248,41.4106687 246.693244,40.6141146 246.97124,39.8817016 C247.249236,39.1492886 247.636821,38.5238066 248.134007,38.0052368 C248.631192,37.486667 249.23529,37.080371 249.946319,36.7863365 C250.657348,36.4923021 251.435191,36.3452871 252.279871,36.3452871 C254.033386,36.3452871 255.482152,36.9199821 256.626213,38.0693894 L255.960629,38.6628014 C254.976951,37.7272373 253.74737,37.2594623 252.271852,37.2594623 C251.726552,37.2594623 251.209327,37.3369793 250.72016,37.4920156 C250.230994,37.647052 249.793958,37.8702475 249.409041,38.1616089 C249.024123,38.4529702 248.689998,38.8017968 248.406655,39.2080989 C248.123313,39.614401 247.9068,40.0781665 247.75711,40.5994093 C247.60742,41.1206522 247.532576,41.6779727 247.532576,42.2713876 C247.532576,43.2336821 247.730378,44.0930516 248.125988,44.849522 C248.521598,45.6059924 249.082928,46.1953889 249.809995,46.6177293 C250.537061,47.0400696 251.368365,47.2512366 252.303929,47.2512366 C253.811523,47.2512366 255.006354,46.8850356 255.888458,46.1526226 L255.888458,43.1615056 L252.023261,43.1615056 L252.023261,42.2794067 Z M268.05104,36.4254779 L268.973234,36.4254779 L268.973234,48.0932401 L268.035002,48.0932401 L260.689524,38.0613704 L260.665467,38.0613704 L260.665467,48.0932401 L259.743273,48.0932401 L259.743273,36.4254779 L260.649429,36.4254779 L268.018964,46.5054621 L268.05104,46.5054621 L268.05104,36.4254779 Z M272.146428,48.0932401 L272.146428,36.4254779 L279.10699,36.4254779 L279.10699,37.3075768 L273.068622,37.3075768 L273.068622,41.8383573 L278.088567,41.8383573 L278.088567,42.7204561 L273.068622,42.7204561 L273.068622,47.2111412 L279.45181,47.2111412 L279.45181,48.0932401 L272.146428,48.0932401 Z M289.866233,48.0932401 L288.703467,48.0932401 L285.479796,43.3780207 L282.841519,43.3780207 L282.841519,48.0932401 L281.919324,48.0932401 L281.919324,36.4254779 L285.904808,36.4254779 C286.540991,36.4254779 287.100985,36.5123504 287.584805,36.686098 C288.068625,36.8598457 288.458883,37.1030887 288.755591,37.4158344 C289.052298,37.7285801 289.274157,38.0921081 289.421174,38.5064293 C289.568192,38.9207506 289.641699,39.3791701 289.641699,39.8817016 C289.641699,40.8974569 289.369053,41.6926744 288.823753,42.2673781 C288.278453,42.8420817 287.530013,43.1935812 286.57841,43.3218872 L286.57841,43.3379253 L289.866233,48.0932401 Z M282.841519,37.3075768 L282.841519,42.4959219 L285.592063,42.4959219 C286.132017,42.4959219 286.602466,42.4304334 287.003422,42.2994544 C287.404378,42.1684754 287.723801,41.9827019 287.961702,41.7421283 C288.199602,41.5015547 288.37602,41.2262357 288.490961,40.916163 C288.605902,40.6060904 288.663371,40.2586003 288.663371,39.8736826 C288.663371,39.0290018 288.417455,38.3901548 287.925616,37.9571223 C287.433776,37.5240898 286.744142,37.3075768 285.856693,37.3075768 L282.841519,37.3075768 Z" id="EMPATHETIC-EXPERIENC-Copy" sketch:type="MSShapeGroup"></path>
            </g>
        </g>
    </g>
</svg>