<?xml version="1.0" encoding="UTF-8"?>
<svg width="134px" height="92px" viewBox="0 0 134 92" version="1.1" xmlns="http://www.w3.org/2000/svg" xmlns:xlink="http://www.w3.org/1999/xlink">
    <!-- Generator: Sketch 48.2 (47327) - http://www.bohemiancoding.com/sketch -->
    <title>Artboard 3</title>
    <desc>Created with Sketch.</desc>
    <defs></defs>
    <g id="Icons" stroke="none" stroke-width="1" fill="none" fill-rule="evenodd">
        <g id="Artboard-3">
            <g id="icon-ux" transform="translate(1.000000, 1.000000)" fill="#FFFFFF" fill-rule="nonzero" opacity="0">
                <rect id="Rectangle-212-Copy-2" x="0" y="0" width="132" height="90"></rect>
            </g>
            <g id="Group-4" transform="translate(33.000000, 7.000000)">
                <g id="Group-2-Copy-4" opacity="0.748641304" transform="translate(47.000000, 6.000000)">
                    <g id="noun_13585-copy-2">
                        <g id="Group">
                            <path d="M19.1150972,2.12423957 C19.2258738,1.73662668 19.3650799,1.36927231 19.5346759,1.03163042 C19.0513762,1.19099739 18.5906238,1.15858377 18.0641898,0.892521964 C18.4631817,1.22341101 18.8151181,1.63938582 19.1150972,2.12423957 L19.1150972,2.12423957 Z" id="Shape"></path>
                            <path d="M12.2011732,3.02756148 C12.1373767,3.01945808 12.0776523,3.01675694 12.0057116,2.99514786 C11.7518831,2.91546438 11.5157004,2.87089565 11.2754456,2.81822351 C11.5659232,2.95868254 11.8496139,3.11534838 12.1197309,3.28957159 C12.149593,3.2017847 12.1672389,3.11129667 12.2011732,3.02756148 L12.2011732,3.02756148 Z" id="Shape"></path>
                            <path d="M1.0189935,9.49321318 C0.857466257,9.65528128 0.689152155,9.81059655 0.515408565,9.96321069 C0.69322427,9.91864196 0.872397347,9.8794755 1.05428517,9.84706188 C1.03528196,9.73091307 1.02442299,9.61341369 1.0189935,9.49321318 L1.0189935,9.49321318 Z" id="Shape"></path>
                            <path d="M2.98009411,6.7908314 C2.9610909,6.80028537 2.94344507,6.81108991 2.92308449,6.81919331 C2.9420877,6.81514161 2.95701879,6.80973934 2.97602199,6.80568764 C2.97737936,6.80163594 2.97873673,6.79623367 2.98009411,6.7908314 L2.98009411,6.7908314 Z" id="Shape"></path>
                        </g>
                    </g>
                </g>
                <g id="Group-2-Copy-2">
                    <g id="noun_13585-copy-2">
                        <g id="Group">
                            <path d="M43.122966,8.36602963 C43.3055235,8.12488772 43.5044151,7.90374836 43.7340533,7.72150286 C43.4458046,7.6970553 43.1931066,7.5692612 42.9077403,7.35701187 C42.7395953,7.23144028 42.5685677,7.13253876 42.3994618,7.03030348" id="Shape"></path>
                            <path d="M35.9849674,8.52946771 C36.0935411,8.1461143 36.2299788,7.78279679 36.3962023,7.44886525 C35.9225136,7.60648094 35.4709239,7.57442351 34.9549588,7.31128546 C35.3460162,7.63853837 35.6909538,8.04994202 35.9849674,8.52946771 L35.9849674,8.52946771 Z" id="Shape"></path>
                            <path d="M49.0712366,9.62781135 C48.9887531,9.55167496 48.9062697,9.46618848 48.8264469,9.36734475 C48.8650279,9.49023155 48.9102608,9.61044691 48.9408595,9.73600517 C48.9860924,9.70261201 49.0246734,9.65986878 49.0712366,9.62781135 L49.0712366,9.62781135 Z" id="Shape"></path>
                            <path d="M57.6277883,14.9558175 C57.6131542,14.899717 57.6011808,14.8422807 57.5865466,14.787516 C57.5745732,14.8422807 57.5519568,14.8917026 57.5373226,14.9464674 C57.5679213,14.9491388 57.59852,14.9504746 57.6277883,14.9558175 L57.6277883,14.9558175 Z" id="Shape"></path>
                            <path d="M53.1776719,10.8407534 C53.012705,10.7218738 52.8503988,10.598987 52.6947445,10.472093 C52.7732368,10.6176872 52.8424165,10.76996 52.8996228,10.9275756 C52.9887581,10.891511 53.0858758,10.8714751 53.1776719,10.8407534 L53.1776719,10.8407534 Z" id="Shape"></path>
                            <path d="M29.2085362,9.42286301 C29.1460084,9.41484865 29.0874717,9.4121772 29.0169617,9.39080558 C28.7681809,9.31199774 28.536695,9.26791877 28.301218,9.21582545 C28.585919,9.35474097 28.8639681,9.50968521 29.1287135,9.68199388 C29.1579818,9.59517168 29.1752767,9.50567803 29.2085362,9.42286301 L29.2085362,9.42286301 Z" id="Shape"></path>
                            <path d="M60.1291218,20.3174565 C60.1131573,20.022261 60.133113,19.7137083 60.1796762,19.3944697 C60.0679244,19.6375719 59.9402081,19.8686525 59.7885449,20.0863759 C59.9096094,20.1531622 60.0226916,20.2306343 60.1291218,20.3174565 L60.1291218,20.3174565 Z" id="Shape"></path>
                            <path d="M18.2487294,15.8174636 C18.0904144,15.9777507 17.9254474,16.1313592 17.755159,16.2822963 C17.9294386,16.2382173 18.1050485,16.1994813 18.2833193,16.1674238 C18.264694,16.0525514 18.2540509,15.9363432 18.2487294,15.8174636 L18.2487294,15.8174636 Z" id="Shape"></path>
                            <path d="M20.1708309,13.1447783 C20.1522056,13.1541284 20.1349106,13.1648142 20.114955,13.1728286 C20.1335803,13.1688214 20.1482144,13.1634785 20.1668397,13.1594713 C20.1681701,13.1554641 20.1695005,13.1501212 20.1708309,13.1447783 L20.1708309,13.1447783 Z" id="Shape"></path>
                            <path d="M61.2907641,23.0711758 C61.0739124,22.6784723 60.8597214,22.2924475 60.6588343,21.9050869 C60.6175925,22.0480096 60.5657078,22.1869251 60.5005192,22.3178263 C60.7812291,22.5489069 61.0406529,22.8053663 61.2907641,23.0711758 L61.2907641,23.0711758 Z" id="Shape"></path>
                            <path d="M47.7320627,1.50272617 C39.0884451,-0.397977894 30.4765348,-0.278105034 22.4065321,3.69496103 C13.5851611,8.0372355 9.4151633,15.9440493 7.33496853,25.1090487 C6.84974989,27.2466215 5.76785645,29.5510574 7.64147298,31.7173997 C8.04790365,32.1882603 7.26290636,32.8317378 6.93430284,33.3534245 C5.17790744,36.1392697 3.35425401,38.8867557 1.68721571,41.724386 C0.298817817,44.0873198 0.595713976,44.9542404 3.1217334,45.760745 C5.14043511,46.4051814 6.13681478,47.2586762 5.13563097,49.5026961 C4.39291016,51.1684494 5.75824816,51.6834232 7.11782118,52.0746882 C4.99919325,53.4517876 4.94346517,53.8046933 6.8036301,55.2681012 C7.60976562,55.9000709 7.81346137,56.4207986 7.38204915,57.3855354 C4.758986,63.2468387 7.49734863,66.6895873 13.9493153,65.9415806 C15.4827984,65.7632098 17.0085948,65.5244231 18.5343913,65.3000211 C21.2035742,64.9077971 22.1365392,65.5647004 22.3930805,68.3524636 C22.5919721,70.5207239 22.7774121,72.6813123 23.2952989,74.8006645 L58.7806353,74.8006645 C59.3340728,73.9385388 58.4760525,73.4158932 58.2022163,72.8261187 C55.3370242,66.6406791 55.113151,60.263443 56.5726503,53.71359 C57.1126362,51.2902402 58.4760525,49.398167 60.0854411,47.6019921 C64.3889941,42.7994058 67.3493083,37.3888244 68.1890728,30.861028 C69.9598806,17.0967467 61.3008898,4.48803987 47.7320627,1.50272617 L47.7320627,1.50272617 Z" id="Shape" stroke="#505050" stroke-width="2.48571429"></path>
                        </g>
                    </g>
                </g>
            </g>
            <path d="M93.6148579,28.9050869 C96.7394737,31.0714292 95.5922439,35.4827504 95.5922439,35.4827504 C95.4461979,37.5301789 94.4709565,39.4241701 92.658833,41.2145911 C92.3542502,41.5157117 92.3052479,41.7871039 92.3004438,42.0690449 C92.5665934,42.5773058 92.731856,43.1479006 92.731856,43.7616496 C92.731856,45.7918164 91.9305246,46.9080725 89.0480377,47.43839 C86.9860986,47.8181472 86.2059055,46.7987484 86.2059055,46.7987484 C86.2059055,49.4474591 83.8557178,52.5526457 81.2019081,52.5526457 C79.4628076,52.5526457 77.9543061,51.6214733 77.1106982,50.2414969 C76.9656131,50.124501 76.8234104,50.016136 76.6744819,49.8885912 C76.3583691,51.2407571 76.0047841,52.4567474 75.8106966,53.6976712 C75.6915538,54.4610216 75.4532682,54.8072144 74.6317594,54.7841988 C73.8486838,54.7631012 73.3730735,54.6384334 73.1309446,53.7264407 C72.6428434,51.9082092 71.9568115,50.1427217 71.3620584,48.3523007 C70.9114296,46.9953399 70.1581396,46.0229313 69.1627208,45.3487663 C68.3537028,45.7620879 67.4399544,45.9999157 66.4685563,45.9999157 C63.1959728,45.9999157 60.5431239,43.3521639 60.5431239,40.0858683 C60.5431239,39.4222521 60.6574626,38.7864465 60.8592367,38.1899591 C59.7244976,39.3570413 58.1381689,40.0858683 56.3798519,40.0858683 C52.9304758,40.0858683 50.1344634,37.2952281 50.1344634,33.8524796 C50.1344634,33.6261596 50.1488759,33.4017576 50.1719358,33.1821505 C48.1859022,32.4235951 46.771562,30.5085063 46.771562,28.2587324 C46.771562,25.7960644 48.4674251,23.7313743 50.755159,23.1521486 C50.8781451,23.0447425 50.9972879,22.9335005 51.1116265,22.8184226 C51.1077832,22.7666375 51.0952924,22.7177294 51.0952924,22.6640263 C51.0952924,21.4384462 51.9609993,20.4152115 53.114955,20.1668349 C53.1293674,20.160122 53.1418582,20.1524502 53.1553098,20.1466963 C53.7231597,17.5641554 56.025306,15.6308459 58.7819244,15.6308459 C59.6860645,15.6308459 60.5392806,15.8446991 61.301218,16.2148665 C61.4712847,16.2522668 61.6394298,16.2839132 61.818144,16.3404932 C61.8690679,16.3567959 61.9113444,16.3587139 61.9565034,16.3635088 C62.5618256,14.8137925 64.0616797,13.7109622 65.8286442,13.7109622 C66.6088373,13.7109622 67.3304199,13.9382411 67.9549588,14.3112855 C68.4709239,14.4992461 68.9225136,14.5232207 69.3962023,14.4100607 C70.0908816,13.4117595 71.2448372,12.7538973 72.5544472,12.7538973 C73.6872645,12.7538973 74.696135,13.2525684 75.398501,14.0303035 C75.5685677,14.1185299 75.7386344,14.2038794 75.9067795,14.3122444 C76.1921457,14.4954102 76.4458046,14.6056932 76.7330924,14.6267908 C77.275,14.2527875 77.9302854,14.0322214 78.6384163,14.0322214 C80.1363487,14.0322214 81.3902306,15.0161379 81.8254861,16.3673447 C81.8831359,16.4383095 81.9417464,16.5006434 82.0022786,16.5543464 C82.4125526,16.2752824 82.9083404,16.1112963 83.4425613,16.1112963 C84.4226069,16.1112963 85.2633322,16.6655884 85.6937836,17.472093 C85.8062006,17.5641554 85.9234218,17.6523818 86.0425646,17.7367723 C86.3855805,17.6255303 86.7449306,17.5497706 87.1254188,17.5497706 C89.0701367,17.5497706 90.6478179,19.1244205 90.6478179,21.0654019 C90.6478179,21.3137784 90.6209147,21.5544831 90.5719124,21.787516 C90.5834424,21.8268343 90.5920898,21.8680705 90.6016981,21.9083478 C92.1630452,22.121242 93.3708073,23.4436794 93.3708073,25.0605245 C93.3708073,25.538098 93.2593511,25.986902 93.0710286,26.3944697 C93.0719895,26.3944697 94.9734701,27.3783861 93.6148579,28.9050869 L93.6148579,28.9050869 Z" id="Path" stroke="#BEBEBE" stroke-width="2.48571429"></path>
            <path d="M84.3567093,23.7350379 C83.644238,22.4065716 79.1776987,17.9580581 73.999931,24.3986335 C68.562405,17.9580581 64.3543812,22.4065716 63.6431528,23.7350379 C62.3480895,26.1914893 63.1248789,29.91043 64.9382162,31.7032858 L74.0011739,41 L83.0641317,31.7032858 C84.8750143,29.91043 85.6518037,26.1927642 84.3567714,23.7350379 L84.3567093,23.7350379 Z" id="Page-1" fill="#E56566"></path>
        </g>
    </g>
</svg>