<?xml version="1.0" encoding="UTF-8"?>
<svg width="134px" height="92px" viewBox="0 0 134 92" version="1.1" xmlns="http://www.w3.org/2000/svg" xmlns:xlink="http://www.w3.org/1999/xlink">
    <!-- Generator: Sketch 48.2 (47327) - http://www.bohemiancoding.com/sketch -->
    <title>Artboard 2</title>
    <desc>Created with Sketch.</desc>
    <defs></defs>
    <g id="Icons" stroke="none" stroke-width="1" fill="none" fill-rule="evenodd">
        <g id="Artboard-2">
            <g id="icon-ask" transform="translate(1.000000, 1.000000)" fill="#FFFFFF" fill-rule="nonzero" opacity="0">
                <rect id="Rectangle-212-Copy" x="0" y="0" width="132" height="90"></rect>
            </g>
            <g id="Group-4" transform="translate(33.000000, 7.000000)">
                <g id="Group-2-Copy-4" opacity="0.748641304" transform="translate(47.000000, 6.000000)">
                    <g id="noun_13585-copy-2">
                        <g id="Group">
                            <path d="M19.1150972,2.12423957 C19.2258738,1.73662668 19.3650799,1.36927231 19.5346759,1.03163042 C19.0513762,1.19099739 18.5906238,1.15858377 18.0641898,0.892521964 C18.4631817,1.22341101 18.8151181,1.63938582 19.1150972,2.12423957 L19.1150972,2.12423957 Z" id="Shape"></path>
                            <path d="M12.2011732,3.02756148 C12.1373767,3.01945808 12.0776523,3.01675694 12.0057116,2.99514786 C11.7518831,2.91546438 11.5157004,2.87089565 11.2754456,2.81822351 C11.5659232,2.95868254 11.8496139,3.11534838 12.1197309,3.28957159 C12.149593,3.2017847 12.1672389,3.11129667 12.2011732,3.02756148 L12.2011732,3.02756148 Z" id="Shape"></path>
                            <path d="M1.0189935,9.49321318 C0.857466257,9.65528128 0.689152155,9.81059655 0.515408565,9.96321069 C0.69322427,9.91864196 0.872397347,9.8794755 1.05428517,9.84706188 C1.03528196,9.73091307 1.02442299,9.61341369 1.0189935,9.49321318 L1.0189935,9.49321318 Z" id="Shape"></path>
                            <path d="M2.98009411,6.7908314 C2.9610909,6.80028537 2.94344507,6.81108991 2.92308449,6.81919331 C2.9420877,6.81514161 2.95701879,6.80973934 2.97602199,6.80568764 C2.97737936,6.80163594 2.97873673,6.79623367 2.98009411,6.7908314 L2.98009411,6.7908314 Z" id="Shape"></path>
                        </g>
                    </g>
                </g>
                <g id="Group-2-Copy-2">
                    <g id="noun_13585-copy-2">
                        <g id="Group">
                            <path d="M43.122966,8.36602963 C43.3055235,8.12488772 43.5044151,7.90374836 43.7340533,7.72150286 C43.4458046,7.6970553 43.1931066,7.5692612 42.9077403,7.35701187 C42.7395953,7.23144028 42.5685677,7.13253876 42.3994618,7.03030348" id="Shape"></path>
                            <path d="M35.9849674,8.52946771 C36.0935411,8.1461143 36.2299788,7.78279679 36.3962023,7.44886525 C35.9225136,7.60648094 35.4709239,7.57442351 34.9549588,7.31128546 C35.3460162,7.63853837 35.6909538,8.04994202 35.9849674,8.52946771 L35.9849674,8.52946771 Z" id="Shape"></path>
                            <path d="M49.0712366,9.62781135 C48.9887531,9.55167496 48.9062697,9.46618848 48.8264469,9.36734475 C48.8650279,9.49023155 48.9102608,9.61044691 48.9408595,9.73600517 C48.9860924,9.70261201 49.0246734,9.65986878 49.0712366,9.62781135 L49.0712366,9.62781135 Z" id="Shape"></path>
                            <path d="M57.6277883,14.9558175 C57.6131542,14.899717 57.6011808,14.8422807 57.5865466,14.787516 C57.5745732,14.8422807 57.5519568,14.8917026 57.5373226,14.9464674 C57.5679213,14.9491388 57.59852,14.9504746 57.6277883,14.9558175 L57.6277883,14.9558175 Z" id="Shape"></path>
                            <path d="M53.1776719,10.8407534 C53.012705,10.7218738 52.8503988,10.598987 52.6947445,10.472093 C52.7732368,10.6176872 52.8424165,10.76996 52.8996228,10.9275756 C52.9887581,10.891511 53.0858758,10.8714751 53.1776719,10.8407534 L53.1776719,10.8407534 Z" id="Shape"></path>
                            <path d="M29.2085362,9.42286301 C29.1460084,9.41484865 29.0874717,9.4121772 29.0169617,9.39080558 C28.7681809,9.31199774 28.536695,9.26791877 28.301218,9.21582545 C28.585919,9.35474097 28.8639681,9.50968521 29.1287135,9.68199388 C29.1579818,9.59517168 29.1752767,9.50567803 29.2085362,9.42286301 L29.2085362,9.42286301 Z" id="Shape"></path>
                            <path d="M60.1291218,20.3174565 C60.1131573,20.022261 60.133113,19.7137083 60.1796762,19.3944697 C60.0679244,19.6375719 59.9402081,19.8686525 59.7885449,20.0863759 C59.9096094,20.1531622 60.0226916,20.2306343 60.1291218,20.3174565 L60.1291218,20.3174565 Z" id="Shape"></path>
                            <path d="M18.2487294,15.8174636 C18.0904144,15.9777507 17.9254474,16.1313592 17.755159,16.2822963 C17.9294386,16.2382173 18.1050485,16.1994813 18.2833193,16.1674238 C18.264694,16.0525514 18.2540509,15.9363432 18.2487294,15.8174636 L18.2487294,15.8174636 Z" id="Shape"></path>
                            <path d="M20.1708309,13.1447783 C20.1522056,13.1541284 20.1349106,13.1648142 20.114955,13.1728286 C20.1335803,13.1688214 20.1482144,13.1634785 20.1668397,13.1594713 C20.1681701,13.1554641 20.1695005,13.1501212 20.1708309,13.1447783 L20.1708309,13.1447783 Z" id="Shape"></path>
                            <path d="M61.2907641,23.0711758 C61.0739124,22.6784723 60.8597214,22.2924475 60.6588343,21.9050869 C60.6175925,22.0480096 60.5657078,22.1869251 60.5005192,22.3178263 C60.7812291,22.5489069 61.0406529,22.8053663 61.2907641,23.0711758 L61.2907641,23.0711758 Z" id="Shape"></path>
                            <path d="M57.9543224,33.2220438 C58.9603103,33.4896001 58.8267551,34.166642 59.299483,35.0690449 C59.3042871,34.7871039 59.3532894,34.5166707 59.6578722,34.2145911 C61.4699957,32.4251291 62.4442763,30.5301789 62.5912831,28.4827504 C61.9638618,31.0681683 60.6859592,33.0206574 57.9543224,33.2220438 L57.9543224,33.2220438 Z" id="Shape" fill="#787878"></path>
                            <path d="M47.7320627,1.50272617 C39.0884451,-0.397977894 30.4765348,-0.278105034 22.4065321,3.69496103 C13.5851611,8.0372355 9.4151633,15.9440493 7.33496853,25.1090487 C6.84974989,27.2466215 5.76785645,29.5510574 7.64147298,31.7173997 C8.04790365,32.1882603 7.26290636,32.8317378 6.93430284,33.3534245 C5.17790744,36.1392697 3.35425401,38.8867557 1.68721571,41.724386 C0.298817817,44.0873198 0.595713976,44.9542404 3.1217334,45.760745 C5.14043511,46.4051814 6.13681478,47.2586762 5.13563097,49.5026961 C4.39291016,51.1684494 5.75824816,51.6834232 7.11782118,52.0746882 C4.99919325,53.4517876 4.94346517,53.8046933 6.8036301,55.2681012 C7.60976562,55.9000709 7.81346137,56.4207986 7.38204915,57.3855354 C4.758986,63.2468387 7.49734863,66.6895873 13.9493153,65.9415806 C15.4827984,65.7632098 17.0085948,65.5244231 18.5343913,65.3000211 C21.2035742,64.9077971 22.1365392,65.5647004 22.3930805,68.3524636 C22.5919721,70.5207239 22.7774121,72.6813123 23.2952989,74.8006645 L58.7806353,74.8006645 C59.3340728,73.9385388 58.4760525,73.4158932 58.2022163,72.8261187 C55.3370242,66.6406791 55.113151,60.263443 56.5726503,53.71359 C57.1126362,51.2902402 58.4760525,49.398167 60.0854411,47.6019921 C64.3889941,42.7994058 67.3493083,37.3888244 68.1890728,30.861028 C69.9598806,17.0967467 61.3008898,4.48803987 47.7320627,1.50272617 L47.7320627,1.50272617 Z" id="Shape" stroke="#505050" stroke-width="2.48571429"></path>
                            <path d="M60.6148579,21.9050869 C63.7394737,24.0714292 62.5922439,28.4827504 62.5922439,28.4827504 C62.4461979,30.5301789 61.4709565,32.4241701 59.658833,34.2145911 C59.3542502,34.5157117 59.3052479,34.7871039 59.3004438,35.0690449 C59.5665934,35.5773058 59.731856,36.1479006 59.731856,36.7616496 C59.731856,38.7918164 58.9305246,39.9080725 56.0480377,40.43839 C53.9860986,40.8181472 53.2059055,39.7987484 53.2059055,39.7987484 C53.2059055,42.4474591 50.8557178,45.5526457 48.2019081,45.5526457 C46.4628076,45.5526457 44.9543061,44.6214733 44.1106982,43.2414969 C43.9656131,43.124501 43.8234104,43.016136 43.6744819,42.8885912 C43.3583691,44.2407571 43.0047841,45.4567474 42.8106966,46.6976712 C42.6915538,47.4610216 42.4532682,47.8072144 41.6317594,47.7841988 C40.8486838,47.7631012 40.3730735,47.6384334 40.1309446,46.7264407 C39.6428434,44.9082092 38.9568115,43.1427217 38.3620584,41.3523007 C37.9114296,39.9953399 37.1581396,39.0229313 36.1627208,38.3487663 C35.3537028,38.7620879 34.4399544,38.9999157 33.4685563,38.9999157 C30.1959728,38.9999157 27.5431239,36.3521639 27.5431239,33.0858683 C27.5431239,32.4222521 27.6574626,31.7864465 27.8592367,31.1899591 C26.7244976,32.3570413 25.1381689,33.0858683 23.3798519,33.0858683 C19.9304758,33.0858683 17.1344634,30.2952281 17.1344634,26.8524796 C17.1344634,26.6261596 17.1488759,26.4017576 17.1719358,26.1821505 C15.1859022,25.4235951 13.771562,23.5085063 13.771562,21.2587324 C13.771562,18.7960644 15.4674251,16.7313743 17.755159,16.1521486 C17.8781451,16.0447425 17.9972879,15.9335005 18.1116265,15.8184226 C18.1077832,15.7666375 18.0952924,15.7177294 18.0952924,15.6640263 C18.0952924,14.4384462 18.9609993,13.4152115 20.114955,13.1668349 C20.1293674,13.160122 20.1418582,13.1524502 20.1553098,13.1466963 C20.7231597,10.5641554 23.025306,8.6308459 25.7819244,8.6308459 C26.6860645,8.6308459 27.5392806,8.84469908 28.301218,9.21486647 C28.4712847,9.2522668 28.6394298,9.28391324 28.818144,9.34049323 C28.8690679,9.35679594 28.9113444,9.3587139 28.9565034,9.36350882 C29.5618256,7.81379249 31.0616797,6.71096218 32.8286442,6.71096218 C33.6088373,6.71096218 34.3304199,6.93824112 34.9549588,7.31128546 C35.4709239,7.4992461 35.9225136,7.52322067 36.3962023,7.4100607 C37.0908816,6.41175952 38.2448372,5.75389727 39.5544472,5.75389727 C40.6872645,5.75389727 41.696135,6.25256836 42.398501,7.03030348 C42.5685677,7.1185299 42.7386344,7.20387938 42.9067795,7.31224444 C43.1921457,7.49541017 43.4458046,7.6056932 43.7330924,7.62679083 C44.275,7.2527875 44.9302854,7.03222144 45.6384163,7.03222144 C47.1363487,7.03222144 48.3902306,8.01613787 48.8254861,9.36734475 C48.8831359,9.43830948 48.9417464,9.50064337 49.0022786,9.55434641 C49.4125526,9.27528239 49.9083404,9.11129632 50.4425613,9.11129632 C51.4226069,9.11129632 52.2633322,9.66558842 52.6937836,10.472093 C52.8062006,10.5641554 52.9234218,10.6523818 53.0425646,10.7367723 C53.3855805,10.6255303 53.7449306,10.5497706 54.1254188,10.5497706 C56.0701367,10.5497706 57.6478179,12.1244205 57.6478179,14.0654019 C57.6478179,14.3137784 57.6209147,14.5544831 57.5719124,14.787516 C57.5834424,14.8268343 57.5920898,14.8680705 57.6016981,14.9083478 C59.1630452,15.121242 60.3708073,16.4436794 60.3708073,18.0605245 C60.3708073,18.538098 60.2593511,18.986902 60.0710286,19.3944697 C60.0719895,19.3944697 61.9734701,20.3783861 60.6148579,21.9050869 L60.6148579,21.9050869 Z" id="Path" stroke="#BEBEBE" stroke-width="2.48571429"></path>
                            <path d="M34.4582102,18.4690512 C34.7599105,17.6922751 35.1845969,17.0190691 35.7293869,16.4503923 C36.274177,15.8797975 36.931384,15.4357884 37.701008,15.1164471 C38.4706321,14.7971058 39.330574,14.6369557 40.2827555,14.6369557 C41.510695,14.6369557 42.5358995,14.8057366 43.3564475,15.1413807 C44.1779563,15.4789426 44.8399674,15.8970592 45.3415202,16.3976482 C45.8421121,16.8982373 46.2014621,17.4381446 46.4176487,18.0164113 C46.6338352,18.595637 46.7424089,19.1345854 46.7424089,19.6351744 C46.7424089,20.4637356 46.6338352,21.1455725 46.4176487,21.6816439 C46.2005013,22.2167563 45.9333908,22.6741912 45.6134348,23.0539484 C45.2934787,23.4337056 44.9389328,23.7568828 44.5497971,24.025398 C44.1616222,24.2929543 43.7936247,24.5605105 43.4477262,24.8280667 C43.1018278,25.0956229 42.7943625,25.4024974 42.5272521,25.7467723 C42.2591808,26.0920061 42.0900749,26.5245074 42.021856,27.0423582 L42.021856,28.0253156 L38.5186735,28.0253156 L38.5186735,26.8601514 C38.5705583,26.1188577 38.712761,25.4964778 38.9462424,24.9968477 C39.1797238,24.4962586 39.4516385,24.0685523 39.7639079,23.7146876 C40.0761773,23.3608229 40.40382,23.0549074 40.7497184,22.795023 C41.094656,22.5360976 41.4146121,22.2771722 41.7095866,22.0182469 C42.0036003,21.7593215 42.2418859,21.4745036 42.4225217,21.1637931 C42.6041184,20.8530827 42.6857888,20.4646946 42.6694548,19.9976699 C42.6694548,19.2045911 42.4744065,18.6176936 42.0862316,18.2369774 C41.6970958,17.8572202 41.1561491,17.6673416 40.4643522,17.6673416 C39.9973893,17.6673416 39.5957628,17.7584449 39.257551,17.9387337 C38.9203,18.1199815 38.6435813,18.3616452 38.4273947,18.6646837 C38.2112082,18.9658044 38.0507498,19.320628 37.9479411,19.7253188 C37.8441715,20.1309686 37.7922868,20.5673058 37.7922868,21.0324125 L33.9787565,21.0324125 C33.9960514,20.1002811 34.1565099,19.2458274 34.4582102,18.4690512 L34.4582102,18.4690512 Z M42.2284342,29.5769499 L42.2284342,33.5644007 L38.1554801,33.5644007 L38.1554801,29.5769499 L42.2284342,29.5769499 L42.2284342,29.5769499 Z" id="Shape" fill="#59E3DC"></path>
                        </g>
                    </g>
                </g>
            </g>
        </g>
    </g>
</svg>