<?xml version="1.0" encoding="UTF-8"?>
<svg width="52px" height="59px" viewBox="0 0 52 59" version="1.1" xmlns="http://www.w3.org/2000/svg" xmlns:xlink="http://www.w3.org/1999/xlink">
    <!-- Generator: Sketch 48.2 (47327) - http://www.bohemiancoding.com/sketch -->
    <title>Oval 6 + Rectangle 10</title>
    <desc>Created with Sketch.</desc>
    <defs></defs>
    <g id="post-copy" stroke="none" stroke-width="1" fill="none" fill-rule="evenodd" transform="translate(-494.000000, -2120.000000)">
        <g id="Oval-6-+-Rectangle-10" transform="translate(494.664765, 2120.633707)" stroke="#000000" stroke-width="0.801815908">
            <path d="M13.6009745,41.101708 L15.1936921,35.5472418 C12.9865753,34.2172402 11.5088053,31.7853542 11.5088053,29.0056939 C11.5088053,27.1649021 12.1568914,25.4766291 13.2357005,24.1598898 L10.571748,20.6247054 C10.0862045,20.7799716 9.5690642,20.8637404 9.03250621,20.8637404 C6.22528169,20.8637404 3.94957657,18.5707437 3.94957657,15.742189 C3.94957657,12.9136343 6.22528169,10.6206376 9.03250621,10.6206376 C11.8397307,10.6206376 14.1154358,12.9136343 14.1154358,15.742189 C14.1154358,16.6886591 13.8606351,17.5751652 13.4163798,18.3358645 L16.1578654,21.9739387 C17.0536131,21.597132 18.0367041,21.3890277 19.068034,21.3890277 C20.2835842,21.3890277 21.4321233,21.6781167 22.4496256,22.1917827 L28.3072596,16.1260252 C27.9012005,15.3900878 27.6699149,14.5427788 27.6699149,13.6410397 C27.6699149,10.812485 29.94562,8.51948831 32.7528445,8.51948831 C35.560069,8.51948831 37.8357742,10.812485 37.8357742,13.6410397 C37.8357742,16.4695944 35.560069,18.7625911 32.7528445,18.7625911 C32.1746758,18.7625911 31.6190533,18.6653257 31.101215,18.4861486 L25.2190415,24.5773175 C25.6369747,25.1656314 25.9738388,25.8163997 26.2131811,26.5130447 L36.9611121,26.5130447 C37.5357835,24.3195082 39.5184758,22.702246 41.8760516,22.702246 C44.6832761,22.702246 46.9589812,24.9952427 46.9589812,27.8237974 C46.9589812,30.6523522 44.6832761,32.9453488 41.8760516,32.9453488 C39.9049781,32.9453488 38.1959464,31.81489 37.3527238,30.1623275 L26.5406645,30.1623275 C26.4362778,30.8527274 26.2399001,31.5126547 25.9645267,32.1290151 L33.3681829,38.3414204 C34.1092587,37.9159786 34.966861,37.6729347 35.8808012,37.6729347 C38.6880257,37.6729347 40.9637309,39.9659314 40.9637309,42.7944861 C40.9637309,45.6230409 38.6880257,47.9160375 35.8808012,47.9160375 C33.0735767,47.9160375 30.7978716,45.6230409 30.7978716,42.7944861 C30.7978716,42.225941 30.8898142,41.6790334 31.0595351,41.1680352 L23.7201517,35.0095613 C22.4373998,36.0200984 20.8225194,36.6223601 19.068034,36.6223601 C18.9394191,36.6223601 18.8115545,36.6191236 18.6845159,36.6127272 L17.0946648,42.1571968 C18.2951789,43.0939883 19.068034,44.5604802 19.068034,46.2088537 C19.068034,49.0374085 16.7923288,51.3304051 13.9851043,51.3304051 C11.1778798,51.3304051 8.90217468,49.0374085 8.90217468,46.2088537 C8.90217468,43.5105072 10.9731849,41.2995465 13.6009745,41.101708 Z" id="Oval-6"></path>
            <path d="M0.318336154,14.2170829 C-0.34371046,9.86237496 2.52566095,5.77017082 6.69844052,5.08164388 L36.3672561,0.186159137 C40.5529371,-0.504496585 44.4862598,2.48858318 45.1448434,6.82051253 L50.6969522,43.3403158 C51.3589988,47.6950238 48.4896274,51.7872279 44.3168478,52.4757549 L14.6480322,57.3712396 C10.4623512,58.0618953 6.52902852,55.0688156 5.87044494,50.7368862 L0.318336154,14.2170829 L0.318336154,14.2170829 Z" id="Rectangle-10"></path>
        </g>
    </g>
</svg>