<?xml version="1.0" encoding="UTF-8"?>
<svg width="54px" height="54px" viewBox="0 0 54 54" version="1.1" xmlns="http://www.w3.org/2000/svg" xmlns:xlink="http://www.w3.org/1999/xlink">
    <!-- Generator: Sketch 49.3 (51167) - http://www.bohemiancoding.com/sketch -->
    <title>Group 3</title>
    <desc>Created with Sketch.</desc>
    <defs></defs>
    <g id="Process-Page" stroke="none" stroke-width="1" fill="none" fill-rule="evenodd">
        <g id="post-copy" transform="translate(-968.000000, -2055.000000)" stroke="#000000">
            <g id="Group-3" transform="translate(969.000000, 2056.000000)">
                <g id="Group-2">
                    <path d="M51.9203226,37.7419355 L39.9638296,37.7419355 C39.156885,37.7440969 38.503163,38.3975257 38.5006397,39.2044693 L38.5006397,51.1612903 L51.9203226,37.7422636 L51.9203226,37.7419355 Z" id="Shape" stroke-width="0.838709677" fill-rule="nonzero"></path>
                    <rect id="Rectangle-24-Copy-3" stroke-width="0.672490762" x="0" y="0" width="52" height="52" rx="2.51612903"></rect>
                    <path d="M36.3015573,18.1728857 L36.3066823,33.7987538 C36.3066823,34.107957 36.0562447,34.3583946 35.7470415,34.3583946 L31.6939164,34.3583946 C31.54577,34.3590304 31.4034682,34.3006481 31.2984558,34.1961486 C31.1934434,34.091649 31.1343651,33.9496348 31.1342756,33.8014871 L31.1376922,26.0109318 L26.1316746,32.8817355 C25.7968467,32.4389428 21.2483132,26.060131 21.0023172,25.6521877 C21.0023172,25.9443079 20.9886508,31.9524175 20.9852342,33.8308699 C20.9839159,34.1391183 20.7331598,34.3880396 20.4249101,34.3870941 L16.5026412,34.3870941 C16.1938269,34.3869056 15.9435305,34.1366092 15.9433421,33.827795 L15.9354839,18.1763023 C15.9354839,17.8677824 16.1855798,17.6170032 16.4944413,17.6166615 L20.0969154,17.6132449 C20.2759458,17.6132449 20.4443847,17.6986601 20.549958,17.8438661 L26.084867,25.454366 L31.681275,17.8411328 C31.7871899,17.6976352 31.9546038,17.6129032 32.1322676,17.6129032 L35.7419165,17.6129032 C36.0511081,17.6132803 36.3015576,17.8640355 36.3015573,18.1732273 L36.3015573,18.1728857 Z" id="Path" stroke-width="0.838709677"></path>
                </g>
            </g>
        </g>
    </g>
</svg>