<?xml version="1.0" encoding="UTF-8"?>
<svg width="53px" height="54px" viewBox="0 0 53 54" version="1.1" xmlns="http://www.w3.org/2000/svg" xmlns:xlink="http://www.w3.org/1999/xlink">
    <!-- Generator: Sketch 48.2 (47327) - http://www.bohemiancoding.com/sketch -->
    <title>Group 3</title>
    <desc>Created with Sketch.</desc>
    <defs></defs>
    <g id="post-copy" stroke="none" stroke-width="1" fill="none" fill-rule="evenodd" transform="translate(-996.000000, -2055.000000)">
        <g id="Group-3" transform="translate(996.000000, 2055.000000)">
            <rect id="Rectangle-3" fill="#FFFFFF" x="0" y="0" width="53" height="54"></rect>
            <g id="Page-1" transform="translate(0.000000, 9.000000)">
                <g id="Group-2">
                    <path d="M18.0370226,19.7509786 C18.2326929,19.9828761 18.4914842,20.2727569 18.7187015,20.4953753 C19.2699264,21.0241054 19.5981622,21.3139802 19.8737746,21.5412353 C19.9011258,21.5644238 19.9726601,21.6224012 20.0757576,21.7058824 L17.6666667,19.2941176 C17.6877052,19.3219427 17.7045371,19.3451372 17.7087491,19.3497738 C17.7823894,19.4402127 17.8412984,19.5167421 18.0369687,19.7509608 L18.0370226,19.7509786 Z" id="Fill-1" fill="#000000"></path>
                    <path d="M51.865321,9.92770745 C51.7556004,9.84894108 51.6251789,9.80748844 51.4926852,9.80748844 L45.5760473,9.80748844 C42.0339081,6.98645952 34.6993758,1.14552243 34.2043794,0.755511091 C33.7096003,0.343032982 33.0243376,-0.0217523136 31.9561205,0.00101161331 C31.8691729,0.00101161331 31.40129,0.0466137549 31.3039866,0.0631958695 C30.6622402,0.162688557 22.1184645,1.54730839 21.7374127,1.61363685 C20.9031265,1.76080112 20.2468588,2.0116076 19.5471331,2.42613393 C19.3090579,2.5650098 14.6386661,5.33423885 14.6386661,5.33423885 C13.9637963,5.7363538 13.3861768,6.39549418 13.1667673,7.21632212 C13.0963813,7.48578015 13.0591188,7.75729702 13.0591188,8.0288192 C13.0591188,9.10456067 13.8085561,9.80934033 13.8085561,9.80934033 L5.4301855,9.80726558 C5.4301855,9.80726558 5.09481166,9.78861402 4.76978345,9.87151928 C4.44268834,9.95442986 4.18389638,10.0933057 4.18389638,10.0933057 C4.18389638,10.0933057 0.37056896,12.0417175 0.37056896,12.039648 C0.144916318,12.1453597 0,12.3733651 0,12.6241874 C0,12.8750098 0.144916318,13.1009246 0.37056896,13.2066574 L4.19009656,15.1571386 C4.19009656,15.1571386 4.47785694,15.2877208 4.79458574,15.3685619 C5.11133044,15.4473283 5.43633321,15.4411093 5.43633321,15.4411093 L13.3133477,15.4411093 C12.8268468,15.9282096 12.4480049,16.3137265 12.3341134,16.4256889 C11.733758,17.026784 11.4004569,17.8330727 11.4004569,18.59585 C11.4004569,18.6145068 11.4004569,18.6331637 11.4025238,18.6518153 C11.4294412,20.2312816 12.6902034,21.503939 14.2945959,21.60964 L13.9136766,21.9910286 C13.2905323,22.6149406 12.9510305,23.3175978 12.9468967,24.1819372 L12.9468967,24.2233951 C12.9696697,25.9355184 14.2283756,27.3159462 16.1516009,27.3159462 L16.1536731,27.3159462 L16.1743739,27.3159462 L16.2074973,27.3159462 C16.2385538,27.3159462 16.271672,27.3138715 16.2778833,27.3138715 L16.2778833,28.0289984 C16.2778833,29.0426034 16.5180254,29.6519762 17.0293874,30.1183448 C17.5407283,30.5847188 18.3771132,30.990962 19.2072656,30.990962 L19.2114047,30.990962 C19.9339193,30.990962 20.6460463,30.6966282 21.19881,30.1452477 C21.6790996,29.6602221 22.1097305,29.0591059 22.1097305,28.2590255 C22.1097305,28.0683285 22.1097305,26.1904266 22.1076636,24.022282 L24.9666124,26.0805336 C24.9666124,26.0805336 25.7698421,26.6422561 26.2170347,27.1148331 C27.154825,28.105621 27.5481723,28.7460886 28.0119002,30.000121 C28.4632055,31.2416836 29.0469938,32.8792006 30.616249,35.0825258 C33.7753754,39.5306714 37.5885966,40.7289348 38.7089632,40.9963712 C38.7586484,41.0046649 38.8787194,41.0046649 38.9698115,40.9300427 C39.0629704,40.8574953 39.0836713,40.7248384 39.0836713,40.7248384 L39.1747633,40.0967875 C39.1747633,40.0967875 39.1789024,39.9579116 39.1064443,39.8522 C39.0339861,39.7464883 38.868369,39.7071051 38.8414569,39.7008862 C37.7442502,39.4127713 34.5167571,38.2313129 31.7217763,34.2911371 C30.2374231,32.1955823 29.7736952,30.7757288 29.2892983,29.542444 C28.8297095,28.3775571 28.2624722,27.2106007 26.9354685,26.0353135 C26.3081904,25.4797994 25.7057681,25.0756203 25.7057681,25.0756203 C25.7057681,25.0756203 23.7763421,23.6785838 22.2754006,22.5903726 C22.2195042,22.5509947 22.16568,22.5095368 22.1097835,22.4701536 C21.9648673,22.3644419 21.8240954,22.2628798 21.6916017,22.1654566 C21.4990725,22.0265807 21.3251718,21.9001427 21.1699051,21.7882121 C21.0001489,21.6638436 20.8573049,21.5602067 20.7496511,21.4835151 C20.6482086,21.4088983 20.5778227,21.3570772 20.5509106,21.3363508 C20.2797119,21.1311465 19.9567559,20.8741264 19.4143797,20.4015441 C19.1887271,20.2046335 18.9361623,19.9434638 18.7436437,19.73619 C18.5511145,19.5268415 18.4931459,19.4584383 18.4227599,19.3776025 C18.4186208,19.3734583 18.4020591,19.352732 18.381353,19.3278561 C18.3689357,19.3154235 18.352374,19.2946919 18.3358123,19.2760403 C18.259215,19.1848414 18.1329326,19.0356023 17.9693824,18.8428306 C17.8700122,18.7246811 17.7602915,18.5961737 17.636076,18.4510788 C17.6112308,18.4220588 17.5822518,18.3888946 17.5574066,18.3578051 C17.5429118,18.341223 17.52635,18.3225661 17.5118605,18.305984 C17.5077214,18.299765 17.5015101,18.2935461 17.4973657,18.2873271 C17.1185186,17.8416848 16.673414,17.3172867 16.2428095,16.809423 C15.8122051,16.3015592 15.4043895,15.8227739 15.100078,15.4662982 C14.9116879,15.2465865 14.7626325,15.0704022 14.6777517,14.972979 C14.6280666,14.9128695 14.5887319,14.8569042 14.5473303,14.8009389 C14.4376096,14.6537746 14.3423784,14.5107492 14.2740647,14.3615155 C14.1477823,14.0837637 14.0877468,13.7832375 14.0877468,13.3769359 C14.089819,12.2348659 14.8185289,11.372596 15.8598763,11.1383239 C15.9302622,11.1217417 16.0027204,11.1113786 16.0751785,11.0989407 C16.1911105,11.0802891 16.3091147,11.0678512 16.431258,11.0678512 L16.4333302,11.0678512 L16.4209075,11.0678512 L16.431258,11.0678512 L16.4602423,11.0678512 C16.4664536,11.0678512 16.4747371,11.0678512 16.4809431,11.0657764 C16.4747371,11.0657764 16.4705927,11.0657764 16.4643814,11.0678512 C16.5761742,11.0699259 16.6838227,11.0823586 16.7914765,11.0989407 C16.851512,11.1093091 16.9115476,11.1175975 16.967444,11.1300354 C17.4083989,11.2316029 17.8037971,11.4492398 18.1184961,11.7560169 L22.2775788,15.9202236 C22.2900015,15.9326616 22.534288,16.1730996 22.8489446,16.423906 C23.136705,16.6498367 23.4865572,16.8716231 23.4948778,16.8778421 L31.0719266,21.5871626 C31.0719266,21.5871626 31.1837195,21.65971 31.3286358,21.6265458 C31.473552,21.5933816 31.521165,21.4876699 31.521165,21.4876699 L31.8793113,20.8948527 C31.8793113,20.8948527 31.9393468,20.79536 31.9124347,20.6564841 C31.8855226,20.5176083 31.7675184,20.461643 31.7675184,20.461643 L24.4867255,15.9368217 C24.4867255,15.9368217 24.1844756,15.7481995 24.1844756,15.7502742 C24.18862,15.7544184 23.9381222,15.5927415 23.7373095,15.441433 L46.8452731,15.441433 L48.820277,29.9031594 C48.820277,29.9031594 48.8389056,30.0295974 48.9444872,30.1083637 C49.0500687,30.1871301 49.1763511,30.1746922 49.1763511,30.1746922 L49.9526581,30.106289 C49.9526581,30.106289 50.0975744,30.0814131 50.1700325,29.9757068 C50.2424907,29.8699952 50.2217846,29.7435572 50.2217846,29.7435572 L48.2675027,15.4415497 L51.492876,15.4415497 C51.6377923,15.4415497 51.7764973,15.3918034 51.8924292,15.3026739 C51.9752378,15.2446338 52.9999969,14.3761449 52.9999969,12.5914849 C53.0020638,10.8047554 51.9586761,9.98392745 51.8655065,9.92799929 L51.865321,9.92770745 Z M12.7484158,14.1540507 L5.54181938,14.1540507 C5.54181938,14.1540507 5.23749781,14.1333244 4.99944376,14.0773591 C4.77379112,14.0234685 4.37216567,13.8224084 4.37216567,13.8224084 L1.80300714,12.6222878 L4.35971126,11.430445 C4.35971126,11.430445 4.81516095,11.2045143 4.99112316,11.160987 C5.24162102,11.0988027 5.54181938,11.0946585 5.54181938,11.0946585 L13.7007804,11.0946585 C13.7007804,11.0946585 12.6801551,11.7952462 12.6801551,13.3829903 C12.6780882,13.4037166 12.6780882,13.4265177 12.6801551,13.4493188 L12.6780882,13.4493188 C12.6780882,13.7146326 12.7050003,13.942638 12.7484741,14.1540454 L12.7484158,14.1540507 Z M16.1125364,27.3162699 C16.0980469,27.3141952 16.0835521,27.3121257 16.0732017,27.3121257 L16.0649235,27.3121257 L16.0669904,27.303832 L16.149799,27.3162699 C16.1353095,27.3183447 16.1228869,27.3183447 16.1125364,27.3162699 Z M20.7642837,24.0496199 C20.7663559,26.2219034 20.7663559,28.1080725 20.7663559,28.2987801 C20.7725619,28.5661687 20.6069501,28.9433866 20.3171175,29.2315174 C20.0086563,29.5382839 19.5904691,29.7061798 19.1888543,29.7082545 C18.7872341,29.7082545 18.3918253,29.5569408 18.0854469,29.2501743 C17.7542127,28.9040246 17.6403529,28.6656349 17.6279303,28.1723634 L17.6279303,26.98259 C17.9177629,26.8478584 18.1827609,26.6737488 18.4021704,26.4602508 C18.5698597,26.2902854 19.6028812,25.2497829 20.7642678,24.0496093 L20.7642837,24.0496199 Z M17.6278932,20.4969085 C17.8431954,20.735277 18.1868576,21.0751865 18.5118911,21.3840649 C18.7996514,21.6555977 19.1722926,21.9540651 19.4973261,22.2028234 C19.9072297,22.5178835 20.2425766,22.7521291 20.2425766,22.7521291 C19.1371023,23.8589654 18.0874873,24.9098735 17.6506821,25.3492862 C17.5616623,25.4404905 17.4892041,25.5109632 17.4560807,25.5441274 C17.2035159,25.811516 16.6466503,26.0250087 16.232581,26.045735 C16.2056689,26.045735 16.1766846,26.0498792 16.1497725,26.0498792 C15.1208795,26.0478098 14.2907271,25.2145652 14.2886602,24.1885435 L14.2886602,24.1553793 C14.2927993,23.674498 14.5288023,23.1707997 14.8103514,22.8951386 C14.9304225,22.776989 15.4956088,22.209037 16.2346585,21.4690767 C16.6010884,21.1021955 17.0088986,20.6959522 17.4291686,20.273095 C17.4664311,20.3186972 17.536817,20.3974636 17.6279091,20.4969562 L17.6278932,20.4969085 Z M14.1437333,16.4094305 C14.6944301,17.054037 15.5825087,18.0925284 16.2760337,18.9091644 C16.3836821,19.0356023 16.4871968,19.1578961 16.586567,19.2739709 C16.4727073,19.3879709 16.3671257,19.4936826 16.2760337,19.5848869 C16.0938548,19.7672901 15.959289,19.9020218 15.8992534,19.9621313 C15.4976333,20.3642463 15.0960237,20.4699579 14.6778206,20.4699579 C14.6695424,20.4699579 14.6591867,20.4699579 14.6509085,20.4678831 C14.1395677,20.4678831 13.5247122,20.175624 13.1914111,19.8460406 C12.8560378,19.5143983 12.7069824,19.1351056 12.7049102,18.6210336 L12.7049102,18.6189641 C12.702838,18.5277598 12.7173328,18.4407051 12.7276832,18.3515755 C12.7690848,18.0551722 12.8829499,17.7732975 13.0630565,17.5286781 C13.1210199,17.4519865 13.1769163,17.3752949 13.2473075,17.3048169 C13.354956,17.1991053 13.6965459,16.8550251 14.1437068,16.4093828 L14.1437333,16.4094305 Z M16.9882137,9.68956175 C16.9406008,9.71236282 16.8909156,9.73101438 16.8412305,9.74967125 C16.7729115,9.77454177 16.7004586,9.79112389 16.6280005,9.807706 C16.4913677,9.84087023 16.3505905,9.8636713 16.2077464,9.8636713 C16.0628301,9.8636713 15.9179138,9.84294498 15.7709306,9.807706 C15.7626524,9.80563125 15.7564411,9.80563125 15.7481576,9.8035618 C15.7419463,9.80148704 15.735735,9.80148704 15.729529,9.7994176 C14.8973097,9.57763115 14.3942577,8.86668028 14.3942577,8.04585235 C14.3942577,7.88831961 14.4149585,7.72664797 14.4584323,7.56289627 C14.5888538,7.07372124 14.9097376,6.67780933 15.3134405,6.43531248 C15.3155074,6.43323773 19.9879767,3.66400337 20.2157068,3.53134646 C20.8429849,3.16653994 21.2508005,3.00071879 21.9463923,2.88254801 C22.3355952,2.8182943 31.4509592,1.31141255 31.7344957,1.29273446 C31.8131652,1.2865155 31.9063241,1.27200284 31.9787823,1.27200284 C32.0885029,1.27407759 32.1837341,1.28029655 32.2727539,1.2865155 C32.8855107,1.33626185 33.005603,1.48757563 33.4092848,1.78397894 L43.5137831,9.80547736 L43.4496084,9.80547736 L35.7649748,9.80754681 C34.270287,8.53902831 32.7838669,7.27878761 32.5768588,7.10675812 C32.0013592,6.61965784 31.1856751,6.31288607 30.3306668,6.32323331 C30.2892599,6.32323331 30.2519974,6.32323331 30.2209462,6.32530806 C29.5232874,6.34396493 24.7245782,6.42894495 24.26721,6.44760182 C23.3935996,6.47662185 22.7600678,6.72535356 21.7353617,7.24768221 C20.9693892,7.6311456 16.9904449,9.68734903 16.988378,9.68941848 L16.9882137,9.68956175 Z M33.7650939,9.80772723 L19.1865489,9.80772723 C20.3417348,9.23978052 21.7059958,8.59724347 22.0869416,8.40653589 C23.2503952,7.82825786 23.6955209,7.74532076 24.3165453,7.71629542 C24.7285159,7.69971331 29.5521127,7.61265853 30.2538523,7.59607642 C30.2849035,7.59400167 30.3118156,7.59400167 30.3304495,7.59400167 C30.9225373,7.60436482 31.2309826,7.74116594 31.6719216,8.0914651 C31.8147657,8.21168411 32.7298042,8.92884862 33.7648978,9.80772723 L33.7650939,9.80772723 Z M51.3724445,13.9345619 C51.3186203,14.0236914 51.2647961,14.0962388 51.21925,14.1542735 L22.2985287,14.1521988 L19.1331486,11.0948814 L51.2337183,11.0948814 C51.4096858,11.2980109 51.7098688,11.7560965 51.7119357,12.5914106 C51.7119357,13.2277393 51.5359682,13.6568048 51.3724233,13.9345353 L51.3724445,13.9345619 Z" id="Fill-2" fill="#3F3F3F"></path>
                    <polygon id="Fill-3" fill="#000000" points="16.0794291 11.254902 16.1107955 11.254902 16.1013839 11.254902 16.0606061 11.254902"></polygon>
                </g>
            </g>
        </g>
    </g>
</svg>