<?xml version="1.0" encoding="UTF-8"?>
<svg width="25px" height="22px" viewBox="0 0 25 22" version="1.1" xmlns="http://www.w3.org/2000/svg" xmlns:xlink="http://www.w3.org/1999/xlink">
    <!-- Generator: Sketch 48.2 (47327) - http://www.bohemiancoding.com/sketch -->
    <title>Group</title>
    <desc>Created with Sketch.</desc>
    <defs></defs>
    <g id="Artboard-2" stroke="none" stroke-width="1" fill="none" fill-rule="evenodd" transform="translate(-418.000000, -73.000000)">
        <g id="Group-2-Copy" transform="translate(48.000000, 72.000000)" class="svg-icon-fill" fill="#444444">
            <g id="Group" transform="translate(370.810680, 1.000000)">
                <path d="M15.7623415,0.388311828 L16.0404936,1.6893871 L18.4011442,-1.78330108 L14.595385,-5.07573118 L14.8726177,-3.77650108 C10.0805819,-2.7508043 6.48679043,1.52029462 6.48679043,6.63399355 C6.48679043,11.7238 10.0475724,15.9790258 14.8054197,17.0295845 L15.7218341,12.8704022 C12.8676916,12.2392624 10.7307983,9.68797204 10.7307983,6.63399355 C10.7307983,3.56511183 12.8869078,1.00364946 15.7623886,0.38835914 L15.7623415,0.388311828 Z" id="Fill-1" transform="translate(12.443967, 5.976927) rotate(-270.000000) translate(-12.443967, -5.976927) "></path>
                <path d="M17.0914091,14.6564588 C17.0914091,9.56665235 13.5306276,5.31142654 8.77278023,4.2608674 L7.85544633,8.42005019 C10.710532,9.0502674 12.8474253,11.6024803 12.8474253,14.6564588 C12.8474253,17.7243943 10.6903962,20.2868029 7.81583493,20.9020932 L7.53768277,19.6010179 L5.17703222,23.0737061 L8.98373449,26.3661369 L8.70650188,25.0669068 C13.4975945,24.0412093 17.0913855,19.7701104 17.0913855,14.6564115 L17.0914091,14.6564588 Z" id="Fill-2" transform="translate(11.134221, 15.313502) rotate(-270.000000) translate(-11.134221, -15.313502) "></path>
            </g>
        </g>
    </g>
</svg>