<?xml version="1.0" encoding="UTF-8"?>
<svg width="54px" height="52px" viewBox="0 0 54 52" version="1.1" xmlns="http://www.w3.org/2000/svg" xmlns:xlink="http://www.w3.org/1999/xlink">
    <!-- Generator: Sketch 49.3 (51167) - http://www.bohemiancoding.com/sketch -->
    <title>Group 6</title>
    <desc>Created with Sketch.</desc>
    <defs></defs>
    <g id="Process-Page" stroke="none" stroke-width="1" fill="none" fill-rule="evenodd">
        <g id="post-copy" transform="translate(-969.000000, -2124.000000)">
            <g id="Group" transform="translate(494.664765, 2053.513355)">
                <g id="Group-6" transform="translate(475.000000, 71.000000)">
                    <rect id="Rectangle-24-Copy-4" stroke="#000000" stroke-width="0.801815908" x="0.400907954" y="0.400907954" width="51.7567652" height="49.7172575"></rect>
                    <g id="Group-5" transform="translate(7.000000, 6.000000)" fill-rule="nonzero" stroke="#252525">
                        <path d="M11.5440597,17.6473134 C11.3204284,17.3546764 10.9601161,17.2002 10.5939674,17.2399811 C10.2278188,17.2797622 9.90908898,17.5080148 9.75352239,17.8418507 L0.680597015,35.9820299 C0.512544557,36.3181703 0.530508644,36.7173563 0.728074519,37.0370433 C0.925640393,37.3567303 1.27463923,37.5513376 1.65044776,37.5513731 L14.2840299,37.5513731 C14.6974344,37.560971 15.0776363,37.3259573 15.2538806,36.9518806 C17.9791045,31.3205075 16.3275224,22.7580299 11.5440597,17.6473134 Z" id="Shape"></path>
                        <path d="M18.198597,1.1479403 C13.5993993,8.22463304 13.0685819,17.2009003 16.8016716,24.7703284 L22.8924478,36.9518806 C23.0761148,37.3192536 23.4515717,37.5513343 23.8622985,37.5513731 L36.4936119,37.5513731 C36.8694205,37.5513376 37.2184193,37.3567303 37.4159852,37.0370433 C37.6135511,36.7173563 37.6315151,36.3181703 37.4634627,35.9820299 C37.4634627,35.9820299 20.4700896,1.99131343 20.0430149,1.14113433 C19.8707139,0.788003222 19.5115924,0.564557918 19.1186712,0.566007812 C18.7257499,0.567457706 18.3682873,0.793547232 18.198597,1.1479403 Z" id="Shape"></path>
                    </g>
                </g>
            </g>
        </g>
    </g>
</svg>