<?xml version="1.0" encoding="UTF-8"?>
<svg width="53px" height="54px" viewBox="0 0 53 54" version="1.1" xmlns="http://www.w3.org/2000/svg" xmlns:xlink="http://www.w3.org/1999/xlink">
    <!-- Generator: Sketch 48.2 (47327) - http://www.bohemiancoding.com/sketch -->
    <title>Group</title>
    <desc>Created with Sketch.</desc>
    <defs></defs>
    <g id="post-copy" stroke="none" stroke-width="1" fill="none" fill-rule="evenodd" transform="translate(-678.000000, -2125.000000)">
        <g id="Group" transform="translate(678.495007, 2126.048580)" stroke="#000000" stroke-width="0.801815908">
            <path d="M26.0034827,0.232530438 C30.49225,0.232530438 34.9816125,0.194736389 39.4697845,0.24919553 C41.6306901,0.275085941 43.7642161,0.562856371 45.7242388,1.61573308 C48.9127724,3.32896407 50.8067268,5.97871372 51.3885435,9.52540243 C51.6117468,10.8856906 51.6926952,12.28288 51.6968616,13.6634043 C51.7215628,22.0950482 51.7325742,30.5269896 51.683767,38.9586334 C51.6721605,40.9825493 51.4968715,43.0159882 50.6775665,44.9259268 C49.4496507,47.7887515 47.397966,49.7757661 44.4606105,50.8354875 C43.1693049,51.3015148 41.8410965,51.5586334 40.4628905,51.5744057 C37.3416154,51.6107118 34.220638,51.6946325 31.0990654,51.7053457 C25.0975749,51.7258795 19.0954892,51.742247 13.0942963,51.689871 C11.1696886,51.6729083 9.23853362,51.5220297 7.39695755,50.8194175 C5.37324758,50.0474667 3.69743716,48.835974 2.43857052,47.0685815 C1.08923213,45.1735224 0.419027006,43.0389027 0.378255202,40.7322754 C0.296711594,36.1237822 0.251475724,31.5146939 0.228560185,26.9056055 C0.204454228,22.119153 0.193740469,17.3324029 0.24105957,12.5468431 C0.25861823,10.7913542 0.432419204,9.02872316 1.09488662,7.3705465 C2.61653795,3.56287054 5.43098283,1.28302642 9.44090462,0.551250324 C10.7947071,0.303952261 12.1973166,0.254849757 13.5784987,0.242053347 C17.7199616,0.203961708 21.8617222,0.228364165 26.0034827,0.228364165 L26.0034827,0.232530438" id="Fill-3"></path>
            <path d="M23.6241355,36.8222281 C23.5646146,37.0945238 23.5431871,37.3733665 23.4425968,37.6197718 C22.9661321,38.7878162 22.4899651,39.9564558 21.9703478,41.1054544 C21.5983423,41.9279957 20.7715972,42.3964038 20.0138964,42.2981988 C19.1853657,42.1910661 18.4574254,41.5316046 18.3080279,40.6611511 C18.2526735,40.3388601 18.2970166,39.9618124 18.4136775,39.6541034 C18.8529416,38.4982602 19.3249422,37.3540231 19.8159895,36.2193089 C20.1692459,35.4027194 20.7974888,34.9066353 21.7132176,34.9134799 C22.5354985,34.9197293 23.1116607,35.3586759 23.4378351,36.1044388 C23.5348541,36.3255489 23.562829,36.5770132 23.6241355,36.8222281" id="Fill-4"></path>
            <path d="M33.9992203,40.060315 C33.9956491,41.0539712 33.3260392,41.8604426 32.4115008,42.1000033 C31.669573,42.2946277 30.6663486,41.8110425 30.2839269,40.9638011 C29.7348468,39.7484397 29.2551085,38.5015337 28.7622756,37.2617699 C28.4250898,36.4136358 28.8426288,35.3714723 29.9669782,34.8578304 C30.7529514,34.4986381 31.9320601,34.9393703 32.3121009,35.7729225 C32.8754661,37.00852 33.369787,38.2762574 33.8810714,39.5353646 C33.9629126,39.7371313 33.9789832,39.9656811 33.9992203,40.060315" id="Fill-5"></path>
            <path d="M36.8178317,28.4527808 C37.0571056,28.5179532 37.3264376,28.5634846 37.5734493,28.6637728 C38.626076,29.0902206 39.6739412,29.5294648 40.7203183,29.9716849 C41.2801122,30.2082697 41.7491367,30.5412739 41.9997196,31.1343727 C42.3169659,31.8854922 42.1523907,32.5488224 41.6390231,33.1243632 C41.107204,33.7204379 40.4483078,34.0135649 39.6474544,33.6880004 C38.3894805,33.1767392 37.1213882,32.6854166 35.8901987,32.1158276 C35.1762458,31.7855016 34.7161493,31.1584775 34.7682301,30.341888 C34.8206085,29.5238106 35.2568966,28.8970841 36.0607261,28.6021714 C36.2875006,28.5191436 36.5395715,28.5054544 36.8178317,28.4527808" id="Fill-6"></path>
            <path d="M9.74059226,32.0932106 C9.82868316,31.3462574 10.1721186,30.7323273 10.8390501,30.42194 C12.0955359,29.8371738 13.3799966,29.3104379 14.6686236,28.7991766 C15.6911924,28.3935602 16.7453072,29.1598568 17.0851714,30.101137 C17.4021201,30.9796254 16.9283339,31.9926249 15.9703453,32.4080618 C14.8337941,32.9005748 13.6972429,33.3963613 12.5422401,33.8427477 C11.3214669,34.3144294 10.248603,33.7716235 9.83701609,32.5250151 C9.7908874,32.3854449 9.77213832,32.2372447 9.74059226,32.0932106" id="Fill-7"></path>
            <path d="M30.8169364,17.2089027 C29.4336711,17.2216991 28.495622,15.9840184 28.9705987,14.6847364 C29.4295046,13.4294978 29.9494195,12.1936027 30.5026661,10.9764558 C30.914253,10.0708866 32.0451498,9.66021112 32.8906439,10.0235696 C33.9197599,10.4660874 34.394439,11.4258181 34.0138029,12.4459598 C33.5635275,13.652691 33.0686113,14.8439475 32.557327,16.0265739 C32.2275813,16.7892995 31.5686851,17.2020581 30.8169364,17.2089027" id="Fill-8"></path>
            <path d="M14.9831915,23.4556339 C14.8796252,23.4339097 14.6251734,23.4181374 14.4010773,23.3270746 C13.208874,22.8417038 12.0273845,22.3292522 10.8354789,21.8423935 C9.98581829,21.4954024 9.59684933,20.6639334 9.74803237,19.6289121 C9.85070589,18.9271927 10.6000738,18.2820156 11.4330685,18.1576225 C11.5747282,18.1364936 11.7404939,18.1314345 11.8687614,18.1838106 C13.2892272,18.7626249 14.7293349,19.3027524 16.112005,19.9625115 C16.9250603,20.3505701 17.1833809,21.2231067 16.9325004,22.0626107 C16.6789414,22.9113401 15.9870112,23.444623 14.9831915,23.4556339" id="Fill-9"></path>
            <path d="M40.1527867,18.3689121 C41.2345787,18.3567109 41.955079,18.8849348 42.1660805,19.7419967 C42.3970215,20.6782177 42.0651926,21.528435 41.2060087,21.9248261 C39.9947587,22.4837019 38.7602956,22.9958559 37.5169044,23.4809291 C36.7609892,23.7758417 36.040489,23.6074053 35.4640292,23.0297813 C34.9342934,22.498879 34.7625756,21.8513212 34.9997663,21.1186523 C35.1705913,20.5916188 35.5360495,20.2053457 36.0145974,19.9907827 C37.232097,19.4452985 38.4716194,18.9483217 39.7078681,18.4459882 C39.8855379,18.3736736 40.0944562,18.3781374 40.1527867,18.3689121" id="Fill-10"></path>
            <path d="M23.5833637,15.0192286 C23.5649122,15.9866967 22.945895,16.7598379 22.0709381,16.9779721 C21.239729,17.185393 20.3207265,16.7672777 19.920151,15.8914676 C19.3746421,14.6987232 18.8460967,13.4913968 18.4157607,12.2540137 C17.9083452,10.7946277 19.1401299,9.46320592 20.6528531,9.76228481 C21.2319912,9.87685732 21.6718506,10.2562858 21.8983275,10.7458228 C22.4905603,12.0254638 23.0015471,13.3431965 23.5345565,14.6496207 C23.5887205,14.7820486 23.5741379,14.9421525 23.5833637,15.0192286" id="Fill-11"></path>
            <path d="M25.98146,28.6581185 C24.5282577,28.7926296 23.0932092,27.2302772 23.1202912,25.9193892 C23.1524325,24.3698332 24.3898716,23.0449584 25.9261056,23.0122234 C27.4049019,22.9803812 28.8089995,24.3725115 28.7947144,25.8562999 C28.7804294,27.3484208 27.4718629,28.6521667 25.98146,28.6581185" id="Fill-12"></path>
        </g>
    </g>
</svg>