<?xml version="1.0" encoding="UTF-8"?>
<svg width="54px" height="52px" viewBox="0 0 54 52" version="1.1" xmlns="http://www.w3.org/2000/svg" xmlns:xlink="http://www.w3.org/1999/xlink">
    <!-- Generator: Sketch 48.2 (47327) - http://www.bohemiancoding.com/sketch -->
    <title>Group</title>
    <desc>Created with Sketch.</desc>
    <defs></defs>
    <g id="post-copy" stroke="none" stroke-width="1" fill="none" fill-rule="evenodd" transform="translate(-494.000000, -2053.000000)">
        <g id="Group" transform="translate(494.664765, 2053.513355)">
            <path d="M15.8287026,10.6001287 C16.7534333,10.6001287 17.681768,10.5475294 18.6019936,10.6105297 C21.0632369,10.7781341 23.3136452,11.4931276 25.0907259,13.2913095 C26.0178593,14.228884 26.6230338,15.3477329 27.0053599,16.6074409 C27.4967076,18.2249427 27.5465631,19.8680013 27.2393207,21.4962013 C26.7206426,24.2465191 25.2138631,26.3380087 22.6880479,27.6651745 C20.6974292,28.7112165 18.5575441,29.031864 16.3335653,28.9358778 C16.0341315,28.9228023 15.7349981,28.9028918 15.4370661,28.8716889 C15.1430383,28.8410802 15.0153961,28.9144815 15.0171981,29.2514734 C15.0313138,31.7468185 15.0238054,34.2421635 15.0235051,36.7375086 C15.0235051,36.8210136 15.0186997,36.9042215 15.0238054,36.9871322 C15.0385218,37.2388361 14.9186883,37.3675111 14.6664071,37.3678083 C13.1292938,37.3686998 11.5921806,37.3678083 10.054767,37.3686998 C9.84903771,37.368997 9.73911519,37.2801429 9.7409172,37.0706373 C9.74181821,36.9752454 9.73911519,36.8804478 9.73911519,36.7853531 C9.73641218,28.3005262 9.73370917,19.8159964 9.73130649,11.3314666 C9.73130649,10.7932899 9.73100616,10.771002 10.2884275,10.7481199 C12.1342848,10.6723413 13.9810432,10.6143929 15.8272009,10.5496096 C15.8278016,10.5665484 15.8284022,10.58319 15.8287026,10.6001287 L15.8287026,10.6001287 Z M15.0487332,14.7715183 L15.0487332,24.5956951 C15.4397691,24.6218461 15.8109828,24.6346245 16.1791932,24.6741482 C17.1931233,24.78321 18.1848287,24.7160493 19.1455995,24.3537978 C20.448752,23.8619798 21.2986994,22.9401553 21.6930389,21.6308198 C22.0444305,20.4647207 22.081672,19.2760366 21.8140738,18.0802204 C21.4554741,16.4793602 20.5553708,15.3753698 18.9257545,14.9025707 C17.9748947,14.626796 17.0063151,14.6764236 16.0383362,14.694551 C15.7085687,14.7007916 15.3797021,14.7447729 15.0487332,14.7715183 L15.0487332,14.7715183 Z" id="Fill-4" stroke="#000000" stroke-width="0.801815908"></path>
            <rect id="Rectangle-24" stroke="#000000" stroke-width="0.801815908" x="0.438910417" y="0.629768067" width="51.7567652" height="49.7172575"></rect>
            <path d="M29.1701728,33.6186987 C29.1701728,33.0243567 29.1668691,32.4300146 29.1710738,31.8356726 C29.1740771,31.4003171 29.3308519,31.3025478 29.7221881,31.488874 C30.4826356,31.852017 31.2244625,32.2591413 32.0050325,32.5735483 C33.311789,33.099541 34.6789128,33.3993865 36.0979945,33.2787351 C37.0999112,33.1937442 37.8294243,32.5806804 37.6879666,31.5355299 C37.6023712,30.9019613 37.1533708,30.507021 36.6283856,30.2348123 C35.7429988,29.7759803 34.8188688,29.3902523 33.9277756,28.9409297 C32.758272,28.3513424 31.6263104,27.7052926 30.6808566,26.7757417 C29.7936677,25.9032475 29.3110298,24.8530452 29.1990049,23.6376157 C29.0590489,22.1238265 29.3002177,20.6852216 30.2042253,19.412141 C30.9971091,18.2959666 32.0678025,17.5619542 33.3598425,17.0817258 C34.7113489,16.579804 36.0997965,16.5173981 37.5026601,16.6050635 C38.8619751,16.6903516 40.1525136,17.08024 41.3763777,17.674582 C41.7322743,17.8472384 41.9028645,18.1265791 41.8914518,18.5316232 C41.8632203,19.5758822 41.8593159,20.6210327 41.8319855,21.6655888 C41.8169687,22.2373458 41.6680027,22.3253085 41.1511266,22.0548828 C39.9801214,21.4427105 38.753254,20.9874445 37.4326821,20.8650101 C36.8082861,20.8073589 36.1583617,20.8260807 35.5414742,20.9312792 C34.8669223,21.0465816 34.3545512,21.4774795 34.2284106,22.1761286 C34.100468,22.8842871 34.514029,23.394827 35.08917,23.716366 C35.9382164,24.190651 36.8305109,24.5894545 37.703584,25.0221355 C39.112154,25.719893 40.525229,26.4087354 41.6268568,27.5709713 C42.5173494,28.5109232 42.928808,29.6327438 42.9822676,30.9076075 C43.0285191,32.0008997 42.8765497,33.0537766 42.4086282,34.0519741 C41.810061,35.3289179 40.8219597,36.2323178 39.5662601,36.8435986 C37.7723607,37.7163899 35.8658357,37.9003388 33.8998444,37.6623048 C32.4600396,37.4878654 31.1121373,37.0471608 29.8387179,36.364559 C29.4002292,36.1294967 29.1419413,35.8192501 29.1659681,35.2947433 C29.1914966,34.7369533 29.1716745,34.1773802 29.1716745,33.6186987 L29.1701728,33.6186987" id="Fill-5" stroke="#000000" stroke-width="0.801815908"></path>
            <path d="M15.0487332,14.7715183 C15.3797021,14.7447729 15.7085687,14.7007916 16.0383362,14.694551 C17.0063151,14.6764236 17.9748947,14.626796 18.9257545,14.9025707 C20.5553708,15.3753698 21.4554741,16.4793602 21.8140738,18.0802204 C22.081672,19.2760366 22.0444305,20.4647207 21.6930389,21.6308198 C21.2986994,22.9401553 20.448752,23.8619798 19.1455995,24.3537978 C18.1848287,24.7160493 17.1931233,24.78321 16.1791932,24.6741482 C15.8109828,24.6346245 15.4397691,24.6218461 15.0487332,24.5956951 L15.0487332,14.7715183" id="Fill-6"></path>
        </g>
    </g>
</svg>