<?xml version="1.0" encoding="UTF-8"?>
<svg width="54px" height="53px" viewBox="0 0 54 53" version="1.1" xmlns="http://www.w3.org/2000/svg" xmlns:xlink="http://www.w3.org/1999/xlink">
    <!-- Generator: Sketch 48.2 (47327) - http://www.bohemiancoding.com/sketch -->
    <title>Fill 1 + Rectangle 9</title>
    <desc>Created with Sketch.</desc>
    <defs></defs>
    <g id="post-copy" stroke="none" stroke-width="1" fill="none" fill-rule="evenodd" transform="translate(-678.000000, -2056.000000)">
        <g id="Fill-1-+-Rectangle-9" transform="translate(679.358060, 2055.907680)" stroke="#000000" stroke-width="0.801815908">
            <path d="M46.9710376,0.511148617 C49.5549537,0.511148617 51.6497302,2.61459751 51.6497302,5.20921105 L51.6497302,47.6386119 C51.6497302,50.2332255 49.5549537,52.3366744 46.9710376,52.3366744 L4.71657048,52.3366744 C2.13265437,52.3366744 0.0378778644,50.2332255 0.0378778644,47.6386119 L0.0378778644,5.20921105 C0.0378778644,2.61459751 2.13265437,0.511148617 4.71657048,0.511148617 L46.9710376,0.511148617 Z M17.286598,16.816951 C19.0023011,16.816951 20.4394175,15.4665427 20.4394175,13.6968187 C20.4394175,11.9282727 19.0023011,10.578257 17.286598,10.578257 C15.5708949,10.578257 14.133974,11.9282727 14.133974,13.6968187 C14.133974,15.4665427 15.5708949,16.816951 17.286598,16.816951 Z M10.7490967,33.5226344 C10.5639587,34.3141515 10.470901,35.16888 10.470901,35.8661689 C10.470901,38.6135107 11.9545463,40.4374159 15.1075612,40.4374159 C17.7225618,40.4374159 19.8423622,38.8779387 21.3686263,36.3602782 L20.4366805,40.1162547 L25.6291456,40.1162547 L28.5968272,28.1641891 C29.338552,25.1378925 30.7758639,23.5672257 32.9552917,23.5672257 C34.6707993,23.5672257 35.7372487,24.6384829 35.7372487,26.4070289 C35.7372487,26.9195912 35.6907199,27.4776972 35.5053864,28.0831135 L33.9750168,33.5768156 C33.7431544,34.3683327 33.6508787,35.1604388 33.6508787,35.9046455 C33.6508787,38.5128043 35.1804663,40.4205333 38.3798147,40.4205333 C41.1154383,40.4205333 43.2944751,38.6521836 44.5001202,34.4152505 L42.460279,33.6243223 C41.4399674,36.4629477 40.5590469,36.9760989 39.8636554,36.9760989 C39.1680684,36.9760989 38.7970105,36.5108471 38.7970105,35.580147 C38.7970105,35.161224 38.8900682,34.6961684 39.0288728,34.1362957 L40.5129091,28.783936 C40.883576,27.527167 41.0229671,26.4127219 41.0229671,25.3887751 C41.0229671,21.3848607 38.611677,19.2953497 35.6907199,19.2953497 C32.9552917,19.2953497 30.1731391,21.7729632 28.7825516,24.3805331 L29.8022767,19.7001385 L21.8739924,19.7001385 L20.7610141,23.8226235 L24.4704205,23.8226235 L22.1864005,33.005557 C20.3924976,37.0094714 17.0975501,37.0744496 16.6840687,36.9813993 C16.0050992,36.8276895 15.5708949,36.5687582 15.5708949,35.6828165 C15.5708949,35.1716284 15.6635617,34.4374334 15.895424,33.5520807 L19.3731635,19.7001385 L10.5639587,19.7001385 L9.45098043,23.8226235 L13.1136625,23.8226235 L10.7490967,33.5226344 Z" id="Fill-1"></path>
            <rect id="Rectangle-9" x="0.438785818" y="0.912056571" width="50.8100364" height="51.0237098" rx="4.54475548"></rect>
        </g>
    </g>
</svg>