<?xml version="1.0" encoding="UTF-8"?>
<svg width="18px" height="19px" viewBox="0 0 18 19" version="1.1" xmlns="http://www.w3.org/2000/svg" xmlns:xlink="http://www.w3.org/1999/xlink">
    <!-- Generator: Sketch 48.2 (47327) - http://www.bohemiancoding.com/sketch -->
    <title>Page 1</title>
    <desc>Created with Sketch.</desc>
    <defs></defs>
    <g id="Artboard-2" stroke="none" stroke-width="1" fill="none" fill-rule="evenodd" transform="translate(-285.000000, -75.000000)">
        <g id="Group-2-Copy" transform="translate(48.000000, 72.000000)" class="svg-icon-fill" fill="#444444">
            <path d="M254.39023,3.93333333 L254.39023,16.0617204 C254.39023,17.5171032 252.870544,18.6629247 250.936494,18.6629247 C248.99313,18.6629247 247.482757,17.5170796 247.482757,16.0617204 C247.482757,14.6063376 248.993225,13.4605161 250.936494,13.4605161 C251.567399,13.4605161 252.161452,13.5806432 252.663409,13.807028 L252.663409,9.1312 L244.028832,9.1312 L244.028832,18.6628774 C244.028832,20.1182602 242.509146,21.2640817 240.575096,21.2640817 C238.631732,21.2640817 237.121359,20.1182366 237.121359,18.6628774 C237.121359,17.2074946 238.631827,16.0616731 240.575096,16.0616731 C241.206001,16.0616731 241.800054,16.1818002 242.302011,16.4081849 L242.302011,3.93347527 L254.39023,3.93333333 Z" id="Page-1"></path>
        </g>
    </g>
</svg>