<?xml version="1.0" encoding="UTF-8"?>
<svg width="501px" height="124px" viewBox="0 0 501 124" version="1.1" xmlns="http://www.w3.org/2000/svg" xmlns:xlink="http://www.w3.org/1999/xlink" style="background: #FFFFFF;">
    <!-- Generator: Sketch 49 (51002) - http://www.bohemiancoding.com/sketch -->
    <title>outlined</title>
    <desc>Created with Sketch.</desc>
    <defs></defs>
    <g id="outlined" stroke="none" stroke-width="1" fill="none" fill-rule="evenodd">
        <g id="Group-Copy-2-+-Path-569" transform="translate(15.000000, 22.000000)">
            <g id="Group-Copy-2" transform="translate(0.628193, 0.096743)">
                <g id="Group-4">
                    <g id="Group">
                        <rect id="Rectangle" fill="#59E3DC" x="0" y="0" width="123" height="69" rx="34.5"></rect>
                        <path d="M45.6544365,31 L45.6544365,18.676584 L53.5143197,18.676584 L53.5143197,20.0656151 L47.1620434,20.0656151 L47.1620434,24.3936327 L52.5572434,24.3936327 L52.5572434,25.7826637 L47.1620434,25.7826637 L47.1620434,31 L45.6544365,31 Z M56.0821325,20.9888126 C55.7998077,20.9888126 55.5626585,20.8928236 55.3706776,20.7008427 C55.1786967,20.5088619 55.0827077,20.277359 55.0827077,20.0063272 C55.0827077,19.7296489 55.1786967,19.4953228 55.3706776,19.3033419 C55.5626585,19.1113611 55.7998077,19.0153721 56.0821325,19.0153721 C56.2628204,19.0153721 56.4293895,19.0591318 56.5818449,19.1466525 C56.7343003,19.2341731 56.8556982,19.3541594 56.9460421,19.5066148 C57.0363861,19.6590702 57.0815573,19.8256393 57.0815573,20.0063272 C57.0815573,20.277359 56.9841567,20.5088619 56.7893526,20.7008427 C56.5945485,20.8928236 56.3588108,20.9888126 56.0821325,20.9888126 Z M55.3791473,31 L55.3791473,22.5557074 L56.7766481,22.5557074 L56.7766481,31 L55.3791473,31 Z M64.0874939,22.454071 C65.0304587,22.454071 65.7715502,22.7505076 66.3107906,23.3433897 C66.8500309,23.9362717 67.1196471,24.8199351 67.1196471,25.9944063 L67.1196471,31.0084697 L65.7136766,31.0084697 L65.7136766,26.3840126 C65.7136766,25.8984139 65.6642705,25.4834027 65.5654568,25.1389664 C65.4666431,24.7945302 65.3240713,24.5206792 65.1377369,24.3174053 C64.9514025,24.1141315 64.7368389,23.9673248 64.4940396,23.8769809 C64.2512402,23.7866369 63.9689197,23.7414656 63.6470694,23.7414656 C62.8452669,23.7414656 62.2029877,24.013905 61.7202122,24.5587918 C61.2374368,25.1036787 60.9960527,25.8447702 60.9960527,26.7820885 L60.9960527,31 L59.5900823,31 L59.5900823,22.5557074 L60.9960527,22.5557074 L60.9960527,24.0124961 L61.0214619,24.0124961 C61.3715446,23.5099579 61.8119647,23.1245904 62.3427353,22.8563818 C62.8735059,22.5881732 63.4550863,22.454071 64.0874939,22.454071 Z M76.158312,18.2276898 L77.5642825,18.2276898 L77.5642825,31 L76.2175999,31 L76.2175999,29.6617871 L76.1921908,29.6617871 C75.966331,29.9666979 75.7065961,30.2264328 75.4129783,30.4409997 C75.1193605,30.6555665 74.790457,30.8207241 74.426258,30.9364772 C74.062059,31.0522304 73.6766915,31.1101061 73.2701437,31.1101061 C72.6942011,31.1101061 72.1521457,31.0070591 71.643961,30.800962 C71.1357764,30.5948649 70.6967679,30.3083095 70.3269224,29.9412873 C69.9570769,29.574265 69.6648751,29.1225521 69.4503083,28.586135 C69.2357414,28.0497179 69.1284596,27.4653143 69.1284596,26.8329068 C69.1284596,26.2174387 69.2329182,25.6386815 69.4418386,25.0966179 C69.6507589,24.5545543 69.9359027,24.090137 70.2972784,23.703352 C70.6586542,23.316567 71.0962511,23.0116608 71.6100822,22.7886242 C72.1239133,22.5655876 72.6744385,22.454071 73.261674,22.454071 C73.6399893,22.454071 74.0041828,22.5048887 74.3542656,22.6065256 C74.7043483,22.7081625 75.0304286,22.8606156 75.3325161,23.0638895 C75.6346036,23.2671634 75.9013966,23.5156055 76.1329029,23.8092232 L76.158312,23.8092232 L76.158312,18.2276898 Z M73.405659,29.8227115 C73.7726812,29.8227115 74.1269935,29.7507197 74.4686065,29.6067341 C74.8102195,29.4627484 75.1094793,29.2623008 75.3663949,29.0053852 C75.6233105,28.7484697 75.8279929,28.4322706 75.9804483,28.0567787 C76.1329037,27.6812867 76.2091302,27.2761567 76.2091302,26.8413765 C76.2091302,26.4122428 76.1371385,26.0071127 75.9931528,25.6259743 C75.8491672,25.2448358 75.654366,24.9159323 75.4087434,24.639254 C75.1631208,24.3625757 74.8680959,24.1437773 74.5236596,23.9828521 C74.1792233,23.821927 73.8122066,23.7414656 73.4225984,23.7414656 C72.6038564,23.7414656 71.9220523,24.0266094 71.3771654,24.5969055 C70.8322785,25.1672016 70.5598392,25.9153511 70.5598392,26.8413765 C70.5598392,27.7052904 70.8223973,28.4181498 71.3475215,28.9799761 C71.8726456,29.5418025 72.5586846,29.8227115 73.405659,29.8227115 Z M35.2379518,38.676584 L36.7540284,38.676584 L36.7540284,51 L35.2464215,51 L35.2464215,41.5562826 L35.2210124,41.5562826 L31.2063738,48.5183774 L30.1815399,48.5183774 L26.1669013,41.5562826 L26.1414922,41.5562826 L26.1414922,51 L24.6338853,51 L24.6338853,38.676584 L26.1499619,38.676584 L30.6727826,46.6465733 L30.7236008,46.6465733 L35.2379518,38.676584 Z M47.0970274,46.6465733 C47.0970274,46.8611402 47.0829114,47.0531182 47.0546789,47.222513 L40.5668874,47.222513 C40.6572314,48.007376 40.9593144,48.6355392 41.4731455,49.1070217 C41.9869767,49.5785041 42.6221979,49.8142418 43.3788284,49.8142418 C43.8813665,49.8142418 44.3330795,49.7111948 44.7339807,49.5050976 C45.1348819,49.2990005 45.4764898,49.023738 45.7588146,48.6793017 L46.7413,49.5178022 C46.3629847,50.0090474 45.8844514,50.3972381 45.3056855,50.6823862 C44.7269197,50.9675342 44.0677012,51.1101061 43.3280102,51.1101061 C42.7351281,51.1101061 42.1803682,51.0042359 41.6637138,50.7924923 C41.1470594,50.5807487 40.7024045,50.2885469 40.3297358,49.9158782 C39.957067,49.5432094 39.6634537,49.0858501 39.4488868,48.5437865 C39.23432,48.0017229 39.1270381,47.4144961 39.1270381,46.7820885 C39.1270381,46.1553275 39.2314967,45.5723355 39.4404171,45.0330951 C39.6493375,44.4938548 39.9330696,44.0364955 40.2916221,43.6610035 C40.6501746,43.2855115 41.0778903,42.9904865 41.5747819,42.7759196 C42.0716736,42.5613528 42.6024362,42.454071 43.1670859,42.454071 C43.9406558,42.454071 44.6266948,42.6347561 45.2252234,42.9961319 C45.823752,43.3575076 46.2853461,43.8558034 46.6100196,44.4910342 C46.9346931,45.126265 47.0970274,45.8447709 47.0970274,46.6465733 Z M43.2433132,43.7499353 C42.5770266,43.7499353 42.0025043,43.957441 41.5197289,44.3724584 C41.0369535,44.7874759 40.7306356,45.3478822 40.6007662,46.0536942 L45.6995267,46.0536942 C45.5865967,45.3535287 45.3141574,44.794534 44.8822005,44.3766933 C44.4502435,43.9588526 43.9039532,43.7499353 43.2433132,43.7499353 Z M53.4084484,42.454071 C53.5721968,42.454071 53.6879483,42.4597174 53.7557062,42.4710104 L53.7557062,44.0209658 C53.5524324,44.0040263 53.3661008,43.9955567 53.1967059,43.9955567 C52.6715818,43.9955567 52.2142224,44.1226009 51.8246142,44.3766933 C51.435006,44.6307856 51.1385694,44.9780399 50.9352955,45.4184666 C50.7320217,45.8588933 50.6303863,46.3614239 50.6303863,46.9260735 L50.6303863,51 L49.2244158,51 L49.2244158,42.5557074 L50.6303863,42.5557074 L50.6303863,44.0294355 L50.6642651,44.0294355 C50.9804689,43.5268973 51.3743061,43.1387066 51.8457885,42.8648515 C52.3172709,42.5909964 52.8381523,42.454071 53.4084484,42.454071 Z M58.8051416,51.1101061 C58.0033392,51.1101061 57.2848334,50.929421 56.6496026,50.5680452 C56.0143718,50.2066695 55.5188992,49.6970808 55.1631699,49.0392641 C54.8074407,48.3814473 54.6295787,47.6318862 54.6295787,46.7905582 C54.6295787,45.9492303 54.8088523,45.1982576 55.1674048,44.5376176 C55.5259573,43.8769776 56.0256647,43.3631541 56.666542,42.9961319 C57.3074193,42.6291096 58.0372179,42.4456013 58.8559599,42.4456013 C59.5053069,42.4456013 60.1334702,42.5754687 60.7404685,42.8352075 C61.3474668,43.0949464 61.8542322,43.4676095 62.2607799,43.9532082 L61.2867642,44.8001783 C61.0157324,44.4726816 60.6755362,44.2143583 60.2661652,44.0252006 C59.8567942,43.836043 59.4093161,43.7414656 58.9237175,43.7414656 C58.0767431,43.7414656 57.3864693,44.0237862 56.8528754,44.5884358 C56.3192815,45.1530854 56.0524886,45.8842957 56.0524886,46.7820885 C56.0524886,47.6798814 56.3192815,48.4096801 56.8528754,48.9715064 C57.3864693,49.5333328 58.0767431,49.8142418 58.9237175,49.8142418 C59.4036696,49.8142418 59.8553825,49.7224876 60.2788697,49.5389765 C60.7023569,49.3554653 61.0496112,49.111258 61.3206431,48.8063473 L62.2946587,49.6787265 C61.9163435,50.1022137 61.4208709,50.4466448 60.8082261,50.7120301 C60.1955813,50.9774155 59.5278931,51.1101061 58.8051416,51.1101061 Z M68.7585344,42.454071 C69.7127922,42.454071 70.4623533,42.7434496 71.0072402,43.3222154 C71.552127,43.9009812 71.8245664,44.7719402 71.8245664,45.9351184 L71.8245664,51.0084697 L70.4185959,51.0084697 L70.4185959,46.3331944 C70.4185959,44.6053666 69.7297337,43.7414656 68.3519887,43.7414656 C67.5050143,43.7414656 66.8373261,44.006847 66.3489042,44.5376176 C65.8604823,45.0683882 65.616275,45.8052449 65.616275,46.7482097 L65.616275,51 L64.2103045,51 L64.2103045,38.2276898 L65.616275,38.2276898 L65.616275,43.9277991 L65.6501538,43.9277991 C65.8251952,43.6906462 66.0256428,43.4789058 66.2515027,43.2925714 C66.4773625,43.1062371 66.7229814,42.9509608 66.9883667,42.8267378 C67.253752,42.7025149 67.534661,42.6093491 67.831102,42.5472377 C68.1275431,42.4851262 68.4366841,42.454071 68.7585344,42.454071 Z M80.9055798,42.5557074 L82.3115503,42.5557074 L82.3115503,51 L80.9648678,51 L80.9648678,49.6617871 L80.9394586,49.6617871 C80.5950224,50.1191533 80.1701299,50.4748772 79.6647685,50.7289695 C79.1594071,50.9830619 78.5990008,51.1101061 77.9835327,51.1101061 C77.4075902,51.1101061 76.8655347,51.0070591 76.35735,50.800962 C75.8491654,50.5948649 75.4101569,50.3083095 75.0403114,49.9412873 C74.6704659,49.574265 74.3782641,49.1225521 74.1636973,48.586135 C73.9491304,48.0497179 73.8418486,47.4653143 73.8418486,46.8329068 C73.8418486,46.0085183 74.018299,45.263192 74.371205,44.5969055 C74.724111,43.930619 75.2167604,43.4069143 75.8491679,43.0257758 C76.4815755,42.6446374 77.1902001,42.454071 77.975063,42.454071 C78.5566521,42.454071 79.097296,42.5698224 79.5970109,42.8013287 C80.0967258,43.0328351 80.5216183,43.3687966 80.871701,43.8092232 L80.9055798,43.8092232 L80.9055798,42.5557074 Z M78.119048,49.8227115 C78.4973632,49.8227115 78.8587335,49.7507197 79.2031698,49.6067341 C79.5476061,49.4627484 79.8496891,49.2623008 80.1094279,49.0053852 C80.3691667,48.7484697 80.5752607,48.4322706 80.7277161,48.0567787 C80.8801715,47.6812867 80.956398,47.2761567 80.956398,46.8413765 C80.956398,46.4122428 80.8844063,46.0071127 80.7404207,45.6259743 C80.596435,45.2448358 80.4002222,44.9159323 80.1517764,44.639254 C79.9033306,44.3625757 79.6040708,44.1437773 79.253988,43.9828521 C78.9039052,43.821927 78.5312421,43.7414656 78.1359874,43.7414656 C77.3172455,43.7414656 76.6354413,44.0266094 76.0905544,44.5969055 C75.5456675,45.1672016 75.2732282,45.9153511 75.2732282,46.8413765 C75.2732282,47.7052904 75.5357863,48.4181498 76.0609105,48.9799761 C76.5860346,49.5418025 77.2720736,49.8227115 78.119048,49.8227115 Z M89.3937142,42.454071 C90.336679,42.454071 91.0777705,42.7505076 91.6170109,43.3433897 C92.1562512,43.9362717 92.4258674,44.8199351 92.4258674,45.9944063 L92.4258674,51.0084697 L91.0198969,51.0084697 L91.0198969,46.3840126 C91.0198969,45.8984139 90.9704908,45.4834027 90.8716771,45.1389664 C90.7728634,44.7945302 90.6302915,44.5206792 90.4439572,44.3174053 C90.2576228,44.1141315 90.0430592,43.9673248 89.8002598,43.8769809 C89.5574605,43.7866369 89.27514,43.7414656 88.9532897,43.7414656 C88.1514872,43.7414656 87.509208,44.013905 87.0264325,44.5587918 C86.5436571,45.1036787 86.302273,45.8447702 86.302273,46.7820885 L86.302273,51 L84.8963026,51 L84.8963026,42.5557074 L86.302273,42.5557074 L86.302273,44.0124961 L86.3276821,44.0124961 C86.6777649,43.5099579 87.118185,43.1245904 87.6489556,42.8563818 C88.1797262,42.5881732 88.7613066,42.454071 89.3937142,42.454071 Z M97.3482573,51.1101061 C95.8858148,51.1101061 95.1546045,50.2349124 95.1546045,48.4844986 L95.1546045,43.7753444 L94.0789524,43.7753444 L94.0789524,42.5557074 L95.1546045,42.5557074 L95.1546045,39.6675391 L96.560575,39.5150845 L96.560575,42.5557074 L99.3555766,42.5557074 L99.3555766,43.7753444 L96.560575,43.7753444 L96.560575,48.272756 C96.560575,48.8035267 96.6368016,49.1888943 96.789257,49.4288703 C96.9417124,49.6688464 97.2099169,49.7888327 97.5938786,49.7888327 C98.0399518,49.7888327 98.5142504,49.6448492 99.0167885,49.3568779 L99.3894554,50.5849846 C99.2087675,50.6866215 99.036552,50.7727293 98.8728036,50.8433105 C98.7090552,50.9138917 98.4916684,50.9760022 98.2206366,51.029644 C97.9496048,51.0832857 97.6588146,51.1101061 97.3482573,51.1101061 Z" id="Find-Merchant" fill="#4B4B4B"></path>
                    </g>
                    <g id="Group-2" transform="translate(171.371807, 0.000000)">
                        <rect id="Rectangle-Copy" fill="#59E3DC" x="0" y="0" width="123" height="69" rx="34.5"></rect>
                        <path d="M23.4899839,31.1101061 C22.6881815,31.1101061 21.9089767,30.9520066 21.1523463,30.6358028 C20.3957158,30.319599 19.7209697,29.8424773 19.1280876,29.2044232 L20.0851639,28.0440741 C20.5199441,28.5748447 21.0422371,28.9799747 21.6520587,29.2594763 C22.2618802,29.5389779 22.8801623,29.6787265 23.5069234,29.6787265 C24.2692003,29.6787265 24.8804243,29.5107458 25.3406138,29.1747793 C25.8008032,28.8388128 26.0308945,28.3800418 26.0308945,27.7984528 C26.0308945,27.5387139 25.9843116,27.3029763 25.8911444,27.0912327 C25.7979772,26.8794891 25.6935186,26.7072735 25.5777654,26.5745809 C25.4620123,26.4418882 25.2700343,26.3021395 25.0018257,26.1553306 C24.7336171,26.0085217 24.5049375,25.8970051 24.3157799,25.8207774 C24.1266222,25.7445497 23.8315973,25.6302099 23.430696,25.4777545 C23.3572916,25.449522 23.3036507,25.4297596 23.2697717,25.4184666 C22.9592144,25.2998902 22.6980679,25.1982547 22.4863243,25.1135573 C22.2745807,25.0288599 22.0289618,24.9187548 21.7494602,24.7832389 C21.4699587,24.647723 21.2370442,24.516444 21.0507099,24.3893978 C20.8643755,24.2623517 20.6709859,24.1070753 20.4705353,23.9235642 C20.2700847,23.7400531 20.1119852,23.5494867 19.996232,23.3518594 C19.8804788,23.154232 19.7844898,22.9241407 19.7082621,22.6615787 C19.6320344,22.3990166 19.5939212,22.1209308 19.5939212,21.827313 C19.5939212,21.223138 19.7590787,20.6712013 20.0893987,20.1714864 C20.4197187,19.6717715 20.8728432,19.2793459 21.4487858,18.9941978 C22.0247284,18.7090498 22.6599497,18.5664779 23.3544687,18.5664779 C24.0320482,18.5608314 24.7039712,18.6822292 25.3702577,18.9306751 C26.0365443,19.1791209 26.6632959,19.537668 27.2505315,20.0063272 L26.3442734,21.175146 C25.8643213,20.7798913 25.3632023,20.4806315 24.8409014,20.2773576 C24.3186005,20.0740838 23.8203047,19.9724484 23.345999,19.9724484 C22.9563908,19.9724484 22.5992553,20.0387937 22.2745818,20.1714864 C21.9499082,20.304179 21.6831153,20.5074498 21.4741949,20.7813049 C21.2652746,21.0551599 21.160816,21.378417 21.160816,21.7510857 C21.160816,21.9769456 21.2059873,22.1844512 21.2963312,22.3736088 C21.3866751,22.5627664 21.4911338,22.7208659 21.6097102,22.8479121 C21.7282866,22.9749583 21.9216762,23.1104721 22.1898847,23.2544578 C22.4580933,23.3984434 22.6853614,23.5085485 22.8716957,23.5847761 C23.0580301,23.6610038 23.3488203,23.7753437 23.744075,23.9277991 L23.7948932,23.9532082 C23.8570047,23.9757942 23.9473472,24.0124958 24.0659237,24.0633143 C24.4329459,24.2044767 24.7067969,24.3117585 24.8874847,24.385163 C25.0681726,24.4585674 25.3095567,24.5658492 25.6116442,24.7070116 C25.9137318,24.848174 26.1395882,24.9752183 26.2892204,25.0881482 C26.4388525,25.2010781 26.6138913,25.3492964 26.8143419,25.5328075 C27.0147925,25.7163187 27.1615992,25.9040618 27.2547664,26.0960427 C27.3479335,26.2880236 27.4298065,26.5152916 27.5003877,26.7778537 C27.5709689,27.0404158 27.606259,27.3241479 27.606259,27.6290587 C27.606259,28.0694854 27.531444,28.4802618 27.3818119,28.8614003 C27.2321797,29.2425388 27.0274973,29.5686191 26.7677585,29.8396509 C26.5080197,30.1106827 26.2045251,30.3435971 25.8572656,30.5384013 C25.5100061,30.7332054 25.1359313,30.8771889 24.7350301,30.970356 C24.3341289,31.0635232 23.9191176,31.1101061 23.4899839,31.1101061 Z M34.3894864,22.454071 C35.3437442,22.454071 36.0933054,22.7434496 36.6381922,23.3222154 C37.1830791,23.9009812 37.4555184,24.7719402 37.4555184,25.9351184 L37.4555184,31.0084697 L36.049548,31.0084697 L36.049548,26.3331944 C36.049548,24.6053666 35.3606858,23.7414656 33.9829407,23.7414656 C33.1359663,23.7414656 32.4682782,24.006847 31.9798563,24.5376176 C31.4914344,25.0683882 31.2472271,25.8052449 31.2472271,26.7482097 L31.2472271,31 L29.8412566,31 L29.8412566,18.2276898 L31.2472271,18.2276898 L31.2472271,23.9277991 L31.2811059,23.9277991 C31.4561473,23.6906462 31.6565949,23.4789058 31.8824547,23.2925714 C32.1083146,23.1062371 32.3539334,22.9509608 32.6193188,22.8267378 C32.8847041,22.7025149 33.165613,22.6093491 33.4620541,22.5472377 C33.7584951,22.4851262 34.0676361,22.454071 34.3894864,22.454071 Z M43.8322002,31.1101061 C43.1884996,31.1101061 42.5928032,30.9985895 42.0450931,30.7755529 C41.497383,30.5525163 41.0357889,30.2476101 40.6602969,29.8608251 C40.2848049,29.4740401 39.9911915,29.0166808 39.7794479,28.4887334 C39.5677043,27.9607861 39.4618341,27.3947333 39.4618341,26.7905582 C39.4618341,26.1863832 39.5677043,25.6175072 39.7794479,25.0839134 C39.9911915,24.5503195 40.2848049,24.090137 40.6602969,23.703352 C41.0357889,23.316567 41.497383,23.0116608 42.0450931,22.7886242 C42.5928032,22.5655876 43.1884996,22.454071 43.8322002,22.454071 C44.6565886,22.454071 45.3990917,22.6347561 46.0597317,22.9961319 C46.7203718,23.3575076 47.23843,23.8699195 47.613922,24.5333827 C47.989414,25.196846 48.1771572,25.9492303 48.1771572,26.7905582 C48.1771572,27.6262397 47.989414,28.3743892 47.613922,29.0350292 C47.23843,29.6956692 46.7203718,30.2066695 46.0597317,30.5680452 C45.3990917,30.929421 44.6565886,31.1101061 43.8322002,31.1101061 Z M43.8322002,29.8142418 C44.3686173,29.8142418 44.8598551,29.6871975 45.3059283,29.4331052 C45.7520015,29.1790129 46.1049022,28.8204657 46.364641,28.3574531 C46.6243798,27.8944404 46.7542473,27.3721473 46.7542473,26.7905582 C46.7542473,26.2033227 46.6243798,25.6767948 46.364641,25.2109589 C46.1049022,24.745123 45.7534131,24.3851642 45.3101631,24.1310719 C44.8669132,23.8769796 44.3742638,23.7499353 43.8322002,23.7499353 C43.2562576,23.7499353 42.7424342,23.8854492 42.2907145,24.156481 C41.8389948,24.4275128 41.4917405,24.7945296 41.2489412,25.2575422 C41.0061418,25.7205549 40.884744,26.2315551 40.884744,26.7905582 C40.884744,27.3439149 41.0075534,27.8506803 41.253176,28.3108697 C41.4987986,28.7710591 41.8474645,29.1366643 42.2991842,29.4076961 C42.7509039,29.6787279 43.2619041,29.8142418 43.8322002,29.8142418 Z M54.663945,22.454071 C55.448808,22.454071 56.1574326,22.6446374 56.7898402,23.0257758 C57.4222477,23.4069143 57.9148971,23.930619 58.2678031,24.5969055 C58.6207091,25.263192 58.7971595,26.0085183 58.7971595,26.8329068 C58.7971595,27.4653143 58.6898777,28.0497179 58.4753108,28.586135 C58.260744,29.1225521 57.9685422,29.574265 57.5986967,29.9412873 C57.2288512,30.3083095 56.7898427,30.5948649 56.2816581,30.800962 C55.7734734,31.0070591 55.2314179,31.1101061 54.6554753,31.1101061 C54.0682398,31.1101061 53.5290075,30.9915315 53.0377623,30.7543787 C52.5465172,30.5172258 52.1286827,30.1812643 51.7842465,29.7464841 L51.7503677,29.7464841 L51.7503677,34.4302292 L50.3528669,34.4302292 L50.3528669,22.5557074 L51.7588374,22.5557074 L51.7588374,23.8007535 L51.7927162,23.8007535 C52.1427989,23.3659733 52.5648682,23.0328351 53.0589366,22.8013287 C53.553005,22.5698224 54.0880024,22.454071 54.663945,22.454071 Z M54.5199601,29.8227115 C55.3669345,29.8227115 56.0529735,29.5418025 56.5780976,28.9799761 C57.1032218,28.4181498 57.3657799,27.7052904 57.3657799,26.8413765 C57.3657799,25.9153511 57.0933405,25.1672016 56.5484537,24.5969055 C56.0035668,24.0266094 55.3217626,23.7414656 54.5030207,23.7414656 C53.9835431,23.7414656 53.5092445,23.8783911 53.0801108,24.1522462 C52.6509771,24.4261012 52.3150156,24.800176 52.0722163,25.2744816 C51.829417,25.7487873 51.7080191,26.2710804 51.7080191,26.8413765 C51.7080191,27.2761567 51.7842457,27.6812867 51.9367011,28.0567787 C52.0891565,28.4322706 52.2952505,28.7484697 52.5549893,29.0053852 C52.8147281,29.2623008 53.1139879,29.4627484 53.4527777,29.6067341 C53.7915675,29.7507197 54.1472914,29.8227115 54.5199601,29.8227115 Z M71.5251139,22.5557074 L72.9310844,22.5557074 L72.9310844,31 L71.5251139,31 L71.5251139,29.6024992 L71.4997048,29.6024992 C71.1665615,30.0880979 70.7571967,30.460761 70.271598,30.7204998 C69.7859994,30.9802387 69.2693527,31.1101061 68.7216426,31.1101061 C67.7222128,31.1101061 66.9444196,30.8164927 66.3882398,30.2292571 C65.8320599,29.6420216 65.5539742,28.7611814 65.5539742,27.5867102 L65.5539742,22.5557074 L66.9599447,22.5557074 L66.9599447,27.1801645 C66.9599447,28.1174829 67.129337,28.7908174 67.4681268,29.2001884 C67.8069165,29.6095593 68.3235632,29.8142418 69.0180822,29.8142418 C69.3568719,29.8142418 69.6773058,29.74225 69.9793933,29.5982644 C70.2814809,29.4542787 70.5468622,29.2510079 70.7755453,28.9884458 C71.0042284,28.7258838 71.1863251,28.3913339 71.321841,27.9847862 C71.4573569,27.5782385 71.5251139,27.132172 71.5251139,26.6465733 L71.5251139,22.5557074 Z M78.1050685,31.1101061 C76.8120209,31.1101061 75.7081475,30.7035645 74.7934151,29.8904691 L75.5218094,28.8232867 C75.8775387,29.1564299 76.2572599,29.4076952 76.6609843,29.5770901 C77.0647088,29.746485 77.5460654,29.8311812 78.1050685,29.8311812 C78.5963136,29.8311812 78.985916,29.7238993 79.2738873,29.5093325 C79.5618586,29.2947656 79.7058421,29.0265611 79.7058421,28.7047108 C79.7058421,28.6200134 79.6973725,28.5409636 79.680433,28.4675592 C79.6634935,28.3941547 79.629615,28.3249862 79.5787966,28.2600515 C79.5279781,28.1951168 79.4799836,28.1386527 79.4348116,28.0906575 C79.3896397,28.0426622 79.3176479,27.9904329 79.2188342,27.933968 C79.1200206,27.877503 79.0353244,27.8309201 78.9647432,27.7942179 C78.894162,27.7575157 78.7882918,27.7123444 78.6471294,27.6587027 C78.505967,27.605061 78.3916271,27.5627129 78.3041065,27.5316571 C78.2165858,27.5006014 78.0824835,27.4511953 77.9017956,27.3834374 C77.8114517,27.3552049 77.7436948,27.3326192 77.6985228,27.3156798 C77.382319,27.2083963 77.1155261,27.1067609 76.898136,27.0107705 C76.6807459,26.9147801 76.4534778,26.7919706 76.216325,26.6423385 C75.9791722,26.4927063 75.7900174,26.3331952 75.648855,26.1638003 C75.5076926,25.9944054 75.3905295,25.7854882 75.2973624,25.5370424 C75.2041952,25.2885966 75.1576123,25.0147456 75.1576123,24.7154813 C75.1576123,24.0717808 75.4229936,23.5339601 75.9537642,23.1020032 C76.4845349,22.6700462 77.1508114,22.454071 77.9526138,22.454071 C79.0423876,22.454071 80.0107471,22.8013253 80.8577215,23.4958443 L80.1293272,24.6053752 C79.4517477,24.0181396 78.7035982,23.7245262 77.8848562,23.7245262 C77.5460665,23.7245262 77.2453951,23.8162804 76.982833,23.9997915 C76.7202709,24.1833027 76.5889919,24.4218635 76.5889919,24.7154813 C76.5889919,24.8735832 76.6271051,25.0175667 76.7033328,25.1474361 C76.7795605,25.2773055 76.8981352,25.3958802 77.0590603,25.5031636 C77.2199854,25.610447 77.3823198,25.7022012 77.5460682,25.7784289 C77.7098165,25.8546566 77.9243802,25.9435876 78.1897655,26.0452245 L78.5963112,26.1976791 C78.8842825,26.310609 79.0974345,26.3938936 79.2357736,26.4475353 C79.3741128,26.501177 79.5533864,26.5788152 79.7735997,26.6804521 C79.9938131,26.7820891 80.1561474,26.87102 80.2606076,26.9472477 C80.3650677,27.0234754 80.485054,27.1251108 80.6205699,27.252157 C80.7560858,27.3792032 80.8534864,27.507659 80.9127746,27.6375284 C80.9720628,27.7673978 81.0242921,27.9212625 81.0694641,28.0991272 C81.114636,28.2769918 81.1372217,28.4732046 81.1372217,28.6877714 C81.1372217,29.0209147 81.0736996,29.3328789 80.9466534,29.6236735 C80.8196072,29.914468 80.6332757,30.1713797 80.3876531,30.3944163 C80.1420305,30.6174529 79.8230083,30.7924917 79.4305768,30.9195378 C79.0381453,31.046584 78.5963136,31.1101061 78.1050685,31.1101061 Z M84.0159166,20.9888126 C83.7335918,20.9888126 83.4964425,20.8928236 83.3044617,20.7008427 C83.1124808,20.5088619 83.0164918,20.277359 83.0164918,20.0063272 C83.0164918,19.7296489 83.1124808,19.4953228 83.3044617,19.3033419 C83.4964425,19.1113611 83.7335918,19.0153721 84.0159166,19.0153721 C84.1966045,19.0153721 84.3631736,19.0591318 84.515629,19.1466525 C84.6680844,19.2341731 84.7894823,19.3541594 84.8798262,19.5066148 C84.9701701,19.6590702 85.0153414,19.8256393 85.0153414,20.0063272 C85.0153414,20.277359 84.9179408,20.5088619 84.7231367,20.7008427 C84.5283326,20.8928236 84.2925949,20.9888126 84.0159166,20.9888126 Z M83.3129314,31 L83.3129314,22.5557074 L84.7104322,22.5557074 L84.7104322,31 L83.3129314,31 Z M92.0272508,22.454071 C92.9702156,22.454071 93.7113071,22.7505076 94.2505475,23.3433897 C94.7897879,23.9362717 95.059404,24.8199351 95.059404,25.9944063 L95.059404,31.0084697 L93.6534335,31.0084697 L93.6534335,26.3840126 C93.6534335,25.8984139 93.6040274,25.4834027 93.5052138,25.1389664 C93.4064001,24.7945302 93.2638282,24.5206792 93.0774938,24.3174053 C92.8911595,24.1141315 92.6765958,23.9673248 92.4337965,23.8769809 C92.1909972,23.7866369 91.9086766,23.7414656 91.5868263,23.7414656 C90.7850239,23.7414656 90.1427446,24.013905 89.6599692,24.5587918 C89.1771938,25.1036787 88.9358097,25.8447702 88.9358097,26.7820885 L88.9358097,31 L87.5298392,31 L87.5298392,22.5557074 L88.9358097,22.5557074 L88.9358097,24.0124961 L88.9612188,24.0124961 C89.3113015,23.5099579 89.7517216,23.1245904 90.2824923,22.8563818 C90.8132629,22.5881732 91.3948433,22.454071 92.0272508,22.454071 Z M104.010875,22.5557074 L105.408376,22.5557074 L105.408376,30.3647724 C105.408376,30.9858869 105.327915,31.5462933 105.166989,32.0460082 C105.006064,32.5457231 104.763269,32.9833199 104.438595,33.3588119 C104.113922,33.7343039 103.681971,34.0236825 103.142731,34.2269564 C102.60349,34.4302302 101.975327,34.5318656 101.258222,34.5318656 C99.9708209,34.5318656 98.8245994,34.2269594 97.8195231,33.6171378 L98.1583112,32.3212735 C98.6890818,32.6261843 99.185966,32.8506291 99.6489787,32.9946148 C100.111991,33.1386004 100.625815,33.2105921 101.190464,33.2105921 C101.653477,33.2105921 102.068488,33.1456584 102.435511,33.015789 C102.802533,32.8859196 103.101793,32.7080576 103.333299,32.4821978 C103.564805,32.256338 103.739844,31.9951914 103.85842,31.6987504 C103.976997,31.4023093 104.036284,31.0790523 104.036284,30.7289695 L104.036284,29.551681 L103.993936,29.551681 C103.288124,30.4099484 102.33388,30.8390757 101.131177,30.8390757 C100.572173,30.8390757 100.044234,30.7388519 99.5473423,30.5384013 C99.0504506,30.3379506 98.6170886,30.0584533 98.2472431,29.6999008 C97.8773976,29.3413483 97.5851958,28.898105 97.370629,28.3701576 C97.1560621,27.8422102 97.0487803,27.2705111 97.0487803,26.655043 C97.0487803,25.8701801 97.2224074,25.1573206 97.5696669,24.5164433 C97.9169264,23.875566 98.3968714,23.3716238 99.0095162,23.0046016 C99.6221611,22.6375793 100.306788,22.454071 101.063419,22.454071 C101.633715,22.454071 102.171536,22.5627644 102.676897,22.7801545 C103.182258,22.9975446 103.615621,23.312332 103.976996,23.7245262 L104.010875,23.7245262 L104.010875,22.5557074 Z M101.241283,29.5262719 C102.082611,29.5262719 102.763003,29.2510093 103.282481,28.700476 C103.801958,28.1499426 104.061693,27.448376 104.061693,26.5957551 C104.061693,25.7544272 103.793489,25.0712114 103.257072,24.5460873 C102.720655,24.0209632 102.048732,23.758405 101.241283,23.758405 C100.43948,23.758405 99.7788501,24.0294328 99.2593724,24.5714964 C98.7398948,25.11356 98.4801599,25.7939526 98.4801599,26.6126945 C98.4801599,26.9627773 98.5267428,27.2930923 98.61991,27.6036496 C98.7130771,27.9142069 98.8443562,28.1852346 99.0137511,28.416741 C99.183146,28.6482473 99.382182,28.8486949 99.6108651,29.0180898 C99.8395481,29.1874847 100.093637,29.3145289 100.373138,29.3992264 C100.65264,29.4839238 100.942018,29.5262719 101.241283,29.5262719 Z M49.8531545,51.0931667 C49.1868679,51.0931667 48.5488235,51.0084705 47.9390019,50.8390757 C47.3291803,50.6696808 46.7673624,50.4127691 46.2535312,50.0683328 C45.7397001,49.7238966 45.2936336,49.3074737 44.9153184,48.8190518 C44.5370031,48.3306299 44.2419781,47.7504611 44.0302345,47.0785281 C43.8184909,46.4065951 43.7126207,45.678208 43.7126207,44.8933451 C43.7126207,44.1931796 43.7973169,43.5254914 43.9667118,42.8902606 C44.1361067,42.2550298 44.3930184,41.674861 44.7374546,41.1497369 C45.0818909,40.6246128 45.4969021,40.1700767 45.9825008,39.7861149 C46.4680994,39.4021532 47.0412102,39.1028934 47.7018502,38.8883265 C48.3624903,38.6737597 49.0795845,38.5664779 49.8531545,38.5664779 C50.4347436,38.5664779 51.0007963,38.6455276 51.5513297,38.8036295 C52.101863,38.9617314 52.6481533,39.2200547 53.1902169,39.5786072 C53.7322806,39.9371597 54.2206951,40.3846378 54.6554753,40.921055 L53.529005,41.8611919 C53.0546993,41.2683098 52.4999394,40.8109504 51.8647086,40.4891002 C51.2294778,40.1672499 50.5589665,40.0063272 49.8531545,40.0063272 C48.9327756,40.0063272 48.1253388,40.2152444 47.4308198,40.6330851 C46.7363008,41.0509258 46.2055381,41.6282714 45.8385159,42.3651391 C45.4714936,43.1020068 45.2879852,43.9447337 45.2879852,44.8933451 C45.2879852,45.4692877 45.3628002,46.0085199 45.5124323,46.5110581 C45.6620645,47.0135962 45.8738049,47.4554279 46.14766,47.8365664 C46.421515,48.2177049 46.7461837,48.5451968 47.1216757,48.8190518 C47.4971677,49.0929069 47.9164137,49.3004125 48.3794264,49.4415749 C48.842439,49.5827373 49.3336768,49.6533174 49.8531545,49.6533174 C51.3099504,49.6533174 52.5352217,49.0406818 53.529005,47.8153922 L54.6554753,48.7639987 C54.0795327,49.4811037 53.3920822,50.0485681 52.593103,50.4664088 C51.7941238,50.8842495 50.8808167,51.0931667 49.8531545,51.0931667 Z M63.1326431,42.5557074 L64.5386136,42.5557074 L64.5386136,51 L63.191931,51 L63.191931,49.6617871 L63.1665219,49.6617871 C62.8220857,50.1191533 62.3971932,50.4748772 61.8918318,50.7289695 C61.3864704,50.9830619 60.8260641,51.1101061 60.210596,51.1101061 C59.6346534,51.1101061 59.0925979,51.0070591 58.5844133,50.800962 C58.0762287,50.5948649 57.6372202,50.3083095 57.2673747,49.9412873 C56.8975292,49.574265 56.6053274,49.1225521 56.3907606,48.586135 C56.1761937,48.0497179 56.0689119,47.4653143 56.0689119,46.8329068 C56.0689119,46.0085183 56.2453622,45.263192 56.5982682,44.5969055 C56.9511742,43.930619 57.4438236,43.4069143 58.0762312,43.0257758 C58.7086387,42.6446374 59.4172634,42.454071 60.2021263,42.454071 C60.7837154,42.454071 61.3243593,42.5698224 61.8240742,42.8013287 C62.3237891,43.0328351 62.7486816,43.3687966 63.0987643,43.8092232 L63.1326431,43.8092232 L63.1326431,42.5557074 Z M60.3461113,49.8227115 C60.7244265,49.8227115 61.0857968,49.7507197 61.4302331,49.6067341 C61.7746693,49.4627484 62.0767523,49.2623008 62.3364912,49.0053852 C62.59623,48.7484697 62.802324,48.4322706 62.9547794,48.0567787 C63.1072348,47.6812867 63.1834613,47.2761567 63.1834613,46.8413765 C63.1834613,46.4122428 63.1114696,46.0071127 62.9674839,45.6259743 C62.8234983,45.2448358 62.6272855,44.9159323 62.3788397,44.639254 C62.1303938,44.3625757 61.831134,44.1437773 61.4810513,43.9828521 C61.1309685,43.821927 60.7583054,43.7414656 60.3630507,43.7414656 C59.5443087,43.7414656 58.8625046,44.0266094 58.3176177,44.5969055 C57.7727308,45.1672016 57.5002915,45.9153511 57.5002915,46.8413765 C57.5002915,47.7052904 57.7628496,48.4181498 58.2879737,48.9799761 C58.8130979,49.5418025 59.4991368,49.8227115 60.3461113,49.8227115 Z M71.3133713,42.454071 C71.4771197,42.454071 71.5928712,42.4597174 71.6606291,42.4710104 L71.6606291,44.0209658 C71.4573552,44.0040263 71.2710237,43.9955567 71.1016288,43.9955567 C70.5765047,43.9955567 70.1191453,44.1226009 69.7295371,44.3766933 C69.3399289,44.6307856 69.0434923,44.9780399 68.8402184,45.4184666 C68.6369446,45.8588933 68.5353092,46.3614239 68.5353092,46.9260735 L68.5353092,51 L67.1293387,51 L67.1293387,42.5557074 L68.5353092,42.5557074 L68.5353092,44.0294355 L68.569188,44.0294355 C68.8853918,43.5268973 69.2792289,43.1387066 69.7507114,42.8648515 C70.2221938,42.5909964 70.7430752,42.454071 71.3133713,42.454071 Z M79.5703269,38.2276898 L80.9762973,38.2276898 L80.9762973,51 L79.6296148,51 L79.6296148,49.6617871 L79.6042057,49.6617871 C79.3783458,49.9666979 79.1186109,50.2264328 78.8249931,50.4409997 C78.5313753,50.6555665 78.2024719,50.8207241 77.8382729,50.9364772 C77.4740739,51.0522304 77.0887063,51.1101061 76.6821586,51.1101061 C76.106216,51.1101061 75.5641605,51.0070591 75.0559759,50.800962 C74.5477912,50.5948649 74.1087827,50.3083095 73.7389372,49.9412873 C73.3690917,49.574265 73.07689,49.1225521 72.8623231,48.586135 C72.6477563,48.0497179 72.5404744,47.4653143 72.5404744,46.8329068 C72.5404744,46.2174387 72.6449331,45.6386815 72.8538534,45.0966179 C73.0627738,44.5545543 73.3479175,44.090137 73.7092933,43.703352 C74.070669,43.316567 74.5082659,43.0116608 75.022097,42.7886242 C75.5359282,42.5655876 76.0864533,42.454071 76.6736889,42.454071 C77.0520041,42.454071 77.4161976,42.5048887 77.7662804,42.6065256 C78.1163632,42.7081625 78.4424434,42.8606156 78.7445309,43.0638895 C79.0466185,43.2671634 79.3134114,43.5156055 79.5449178,43.8092232 L79.5703269,43.8092232 L79.5703269,38.2276898 Z M76.8176738,49.8227115 C77.1846961,49.8227115 77.5390084,49.7507197 77.8806214,49.6067341 C78.2222344,49.4627484 78.5214942,49.2623008 78.7784098,49.0053852 C79.0353253,48.7484697 79.2400077,48.4322706 79.3924631,48.0567787 C79.5449185,47.6812867 79.6211451,47.2761567 79.6211451,46.8413765 C79.6211451,46.4122428 79.5491533,46.0071127 79.4051677,45.6259743 C79.261182,45.2448358 79.0663808,44.9159323 78.8207583,44.639254 C78.5751357,44.3625757 78.2801107,44.1437773 77.9356744,43.9828521 C77.5912382,43.821927 77.2242214,43.7414656 76.8346132,43.7414656 C76.0158713,43.7414656 75.3340671,44.0266094 74.7891802,44.5969055 C74.2442934,45.1672016 73.971854,45.9153511 73.971854,46.8413765 C73.971854,47.7052904 74.2344122,48.4181498 74.7595363,48.9799761 C75.2846604,49.5418025 75.9706994,49.8227115 76.8176738,49.8227115 Z" id="Shop-using-Card" fill="#4B4B4B"></path>
                    </g>
                    <g id="Group-3" transform="translate(344.371807, 0.000000)">
                        <rect id="Rectangle-Copy-2" fill="#59E3DC" x="0" y="0" width="123" height="69" rx="34.5"></rect>
                        <path d="M44.5971294,31 L44.5971294,18.676584 L52.1351639,18.676584 L52.1351639,20.0656151 L46.113206,20.0656151 L46.113206,24.1903598 L51.0595118,24.1903598 L51.0595118,25.5793909 L46.113206,25.5793909 L46.113206,29.6109689 L52.4993611,29.6109689 L52.4993611,31 L44.5971294,31 Z M61.0527561,22.5557074 L62.4587266,22.5557074 L62.4587266,31 L61.1120441,31 L61.1120441,29.6617871 L61.086635,29.6617871 C60.7421987,30.1191533 60.3173062,30.4748772 59.8119448,30.7289695 C59.3065835,30.9830619 58.7461771,31.1101061 58.1307091,31.1101061 C57.5547665,31.1101061 57.012711,31.0070591 56.5045263,30.800962 C55.9963417,30.5948649 55.5573332,30.3083095 55.1874877,29.9412873 C54.8176422,29.574265 54.5254404,29.1225521 54.3108736,28.586135 C54.0963067,28.0497179 53.9890249,27.4653143 53.9890249,26.8329068 C53.9890249,26.0085183 54.1654753,25.263192 54.5183813,24.5969055 C54.8712873,23.930619 55.3639367,23.4069143 55.9963442,23.0257758 C56.6287518,22.6446374 57.3373764,22.454071 58.1222394,22.454071 C58.7038284,22.454071 59.2444723,22.5698224 59.7441872,22.8013287 C60.2439021,23.0328351 60.6687946,23.3687966 61.0188773,23.8092232 L61.0527561,23.8092232 L61.0527561,22.5557074 Z M58.2662243,29.8227115 C58.6445395,29.8227115 59.0059098,29.7507197 59.3503461,29.6067341 C59.6947824,29.4627484 59.9968654,29.2623008 60.2566042,29.0053852 C60.516343,28.7484697 60.722437,28.4322706 60.8748924,28.0567787 C61.0273478,27.6812867 61.1035744,27.2761567 61.1035744,26.8413765 C61.1035744,26.4122428 61.0315826,26.0071127 60.887597,25.6259743 C60.7436113,25.2448358 60.5473985,24.9159323 60.2989527,24.639254 C60.0505069,24.3625757 59.7512471,24.1437773 59.4011643,23.9828521 C59.0510816,23.821927 58.6784184,23.7414656 58.2831637,23.7414656 C57.4644218,23.7414656 56.7826176,24.0266094 56.2377307,24.5969055 C55.6928439,25.1672016 55.4204045,25.9153511 55.4204045,26.8413765 C55.4204045,27.7052904 55.6829626,28.4181498 56.2080868,28.9799761 C56.7332109,29.5418025 57.4192499,29.8227115 58.2662243,29.8227115 Z M69.2334844,22.454071 C69.3972327,22.454071 69.5129842,22.4597174 69.5807421,22.4710104 L69.5807421,24.0209658 C69.3774683,24.0040263 69.1911367,23.9955567 69.0217418,23.9955567 C68.4966177,23.9955567 68.0392584,24.1226009 67.6496501,24.3766933 C67.2600419,24.6307856 66.9636053,24.9780399 66.7603315,25.4184666 C66.5570576,25.8588933 66.4554222,26.3614239 66.4554222,26.9260735 L66.4554222,31 L65.0494517,31 L65.0494517,22.5557074 L66.4554222,22.5557074 L66.4554222,24.0294355 L66.489301,24.0294355 C66.8055048,23.5268973 67.199342,23.1387066 67.6708244,22.8648515 C68.1423068,22.5909964 68.6631883,22.454071 69.2334844,22.454071 Z M75.754151,22.454071 C76.6971159,22.454071 77.4382074,22.7505076 77.9774477,23.3433897 C78.5166881,23.9362717 78.7863043,24.8199351 78.7863043,25.9944063 L78.7863043,31.0084697 L77.3803338,31.0084697 L77.3803338,26.3840126 C77.3803338,25.8984139 77.3309277,25.4834027 77.232114,25.1389664 C77.1333003,24.7945302 76.9907284,24.5206792 76.8043941,24.3174053 C76.6180597,24.1141315 76.4034961,23.9673248 76.1606967,23.8769809 C75.9178974,23.7866369 75.6355768,23.7414656 75.3137266,23.7414656 C74.5119241,23.7414656 73.8696448,24.013905 73.3868694,24.5587918 C72.904094,25.1036787 72.6627099,25.8447702 72.6627099,26.7820885 L72.6627099,31 L71.2567394,31 L71.2567394,22.5557074 L72.6627099,22.5557074 L72.6627099,24.0124961 L72.688119,24.0124961 C73.0382018,23.5099579 73.4786219,23.1245904 74.0093925,22.8563818 C74.5401631,22.5881732 75.1217435,22.454071 75.754151,22.454071 Z M37.9583887,51 L36.1374028,51 L32.9951435,46.2993155 L30.6913846,46.2993155 L30.6913846,51 L29.1837777,51 L29.1837777,38.676584 L33.5541438,38.676584 C34.2486628,38.676584 34.8584752,38.772573 35.3835994,38.9645539 C35.9087235,39.1565347 36.3336159,39.4247393 36.6582895,39.7691755 C36.982963,40.1136118 37.2257587,40.514507 37.3866838,40.9718732 C37.5476089,41.4292394 37.6280703,41.9374164 37.6280703,42.4964195 C37.6280703,43.5184353 37.369747,44.3357533 36.8530926,44.9483981 C36.3364382,45.5610429 35.6151092,45.966173 34.6890838,46.1638003 L34.6806141,46.1807397 L37.9583887,51 Z M30.6913846,40.0656151 L30.6913846,44.9102845 L33.1475981,44.9102845 C34.1244419,44.9102845 34.8542406,44.6886628 35.337016,44.2454129 C35.8197914,43.8021629 36.0611755,43.2078782 36.0611755,42.4625407 C36.0611755,41.6889707 35.8240262,41.0960975 35.3497205,40.6839033 C34.8754149,40.2717091 34.2119615,40.0656151 33.3593406,40.0656151 L30.6913846,40.0656151 Z M47.4773298,46.6465733 C47.4773298,46.8611402 47.4632137,47.0531182 47.4349813,47.222513 L40.9471897,47.222513 C41.0375337,48.007376 41.3396167,48.6355392 41.8534478,49.1070217 C42.367279,49.5785041 43.0025002,49.8142418 43.7591307,49.8142418 C44.2616689,49.8142418 44.7133818,49.7111948 45.114283,49.5050976 C45.5151842,49.2990005 45.8567921,49.023738 46.1391169,48.6793017 L47.1216023,49.5178022 C46.7432871,50.0090474 46.2647537,50.3972381 45.6859878,50.6823862 C45.107222,50.9675342 44.4480035,51.1101061 43.7083125,51.1101061 C43.1154304,51.1101061 42.5606705,51.0042359 42.0440161,50.7924923 C41.5273617,50.5807487 41.0827068,50.2885469 40.7100381,49.9158782 C40.3373694,49.5432094 40.043756,49.0858501 39.8291891,48.5437865 C39.6146223,48.0017229 39.5073404,47.4144961 39.5073404,46.7820885 C39.5073404,46.1553275 39.6117991,45.5723355 39.8207194,45.0330951 C40.0296398,44.4938548 40.3133719,44.0364955 40.6719244,43.6610035 C41.0304769,43.2855115 41.4581926,42.9904865 41.9550842,42.7759196 C42.4519759,42.5613528 42.9827386,42.454071 43.5473882,42.454071 C44.3209581,42.454071 45.0069971,42.6347561 45.6055257,42.9961319 C46.2040543,43.3575076 46.6656484,43.8558034 46.9903219,44.4910342 C47.3149954,45.126265 47.4773298,45.8447709 47.4773298,46.6465733 Z M43.6236155,43.7499353 C42.9573289,43.7499353 42.3828066,43.957441 41.9000312,44.3724584 C41.4172558,44.7874759 41.110938,45.3478822 40.9810685,46.0536942 L46.079829,46.0536942 C45.9668991,45.3535287 45.6944597,44.794534 45.2625028,44.3766933 C44.8305458,43.9588526 44.2842555,43.7499353 43.6236155,43.7499353 Z M59.2661509,42.5557074 L60.6975305,42.5557074 L57.7670137,51 L56.4372705,51 L54.5400573,44.8509966 L54.5061785,44.8509966 L52.6004957,51 L51.3046313,51 L48.3741145,42.5557074 L49.8054941,42.5557074 L51.9567983,48.8571655 L51.9906771,48.8571655 L53.9132994,42.5557074 L55.1329365,42.5557074 L57.0809679,48.8656352 L57.1148467,48.8656352 L59.2661509,42.5557074 Z M68.5479403,42.5557074 L69.9539108,42.5557074 L69.9539108,51 L68.6072283,51 L68.6072283,49.6617871 L68.5818192,49.6617871 C68.2373829,50.1191533 67.8124904,50.4748772 67.307129,50.7289695 C66.8017676,50.9830619 66.2413613,51.1101061 65.6258933,51.1101061 C65.0499507,51.1101061 64.5078952,51.0070591 63.9997105,50.800962 C63.4915259,50.5948649 63.0525174,50.3083095 62.6826719,49.9412873 C62.3128264,49.574265 62.0206246,49.1225521 61.8060578,48.586135 C61.5914909,48.0497179 61.4842091,47.4653143 61.4842091,46.8329068 C61.4842091,46.0085183 61.6606595,45.263192 62.0135655,44.5969055 C62.3664715,43.930619 62.8591209,43.4069143 63.4915284,43.0257758 C64.123936,42.6446374 64.8325606,42.454071 65.6174236,42.454071 C66.1990126,42.454071 66.7396565,42.5698224 67.2393714,42.8013287 C67.7390863,43.0328351 68.1639788,43.3687966 68.5140615,43.8092232 L68.5479403,43.8092232 L68.5479403,42.5557074 Z M65.7614085,49.8227115 C66.1397237,49.8227115 66.501094,49.7507197 66.8455303,49.6067341 C67.1899666,49.4627484 67.4920496,49.2623008 67.7517884,49.0053852 C68.0115272,48.7484697 68.2176212,48.4322706 68.3700766,48.0567787 C68.522532,47.6812867 68.5987586,47.2761567 68.5987586,46.8413765 C68.5987586,46.4122428 68.5267668,46.0071127 68.3827812,45.6259743 C68.2387955,45.2448358 68.0425827,44.9159323 67.7941369,44.639254 C67.5456911,44.3625757 67.2464313,44.1437773 66.8963485,43.9828521 C66.5462658,43.821927 66.1736026,43.7414656 65.7783479,43.7414656 C64.959606,43.7414656 64.2778018,44.0266094 63.7329149,44.5969055 C63.1880281,45.1672016 62.9155887,45.9153511 62.9155887,46.8413765 C62.9155887,47.7052904 63.1781468,48.4181498 63.703271,48.9799761 C64.2283951,49.5418025 64.9144341,49.8227115 65.7614085,49.8227115 Z M76.7286686,42.454071 C76.8924169,42.454071 77.0081684,42.4597174 77.0759263,42.4710104 L77.0759263,44.0209658 C76.8726525,44.0040263 76.6863209,43.9955567 76.516926,43.9955567 C75.9918019,43.9955567 75.5344426,44.1226009 75.1448343,44.3766933 C74.7552261,44.6307856 74.4587895,44.9780399 74.2555157,45.4184666 C74.0522418,45.8588933 73.9506064,46.3614239 73.9506064,46.9260735 L73.9506064,51 L72.5446359,51 L72.5446359,42.5557074 L73.9506064,42.5557074 L73.9506064,44.0294355 L73.9844852,44.0294355 C74.300689,43.5268973 74.6945262,43.1387066 75.1660086,42.8648515 C75.637491,42.5909964 76.1583725,42.454071 76.7286686,42.454071 Z M84.9856241,38.2276898 L86.3915946,38.2276898 L86.3915946,51 L85.044912,51 L85.044912,49.6617871 L85.0195029,49.6617871 C84.7936431,49.9666979 84.5339081,50.2264328 84.2402903,50.4409997 C83.9466725,50.6555665 83.6177691,50.8207241 83.2535701,50.9364772 C82.8893711,51.0522304 82.5040035,51.1101061 82.0974558,51.1101061 C81.5215132,51.1101061 80.9794577,51.0070591 80.4712731,50.800962 C79.9630884,50.5948649 79.52408,50.3083095 79.1542345,49.9412873 C78.784389,49.574265 78.4921872,49.1225521 78.2776203,48.586135 C78.0630535,48.0497179 77.9557717,47.4653143 77.9557717,46.8329068 C77.9557717,46.2174387 78.0602303,45.6386815 78.2691506,45.0966179 C78.478071,44.5545543 78.7632148,44.090137 79.1245905,43.703352 C79.4859663,43.316567 79.9235631,43.0116608 80.4373943,42.7886242 C80.9512254,42.5655876 81.5017505,42.454071 82.0889861,42.454071 C82.4673013,42.454071 82.8314949,42.5048887 83.1815776,42.6065256 C83.5316604,42.7081625 83.8577406,42.8606156 84.1598282,43.0638895 C84.4619157,43.2671634 84.7287087,43.5156055 84.960215,43.8092232 L84.9856241,43.8092232 L84.9856241,38.2276898 Z M82.232971,49.8227115 C82.5999933,49.8227115 82.9543056,49.7507197 83.2959186,49.6067341 C83.6375316,49.4627484 83.9367914,49.2623008 84.193707,49.0053852 C84.4506226,48.7484697 84.655305,48.4322706 84.8077604,48.0567787 C84.9602158,47.6812867 85.0364423,47.2761567 85.0364423,46.8413765 C85.0364423,46.4122428 84.9644506,46.0071127 84.8204649,45.6259743 C84.6764793,45.2448358 84.4816781,44.9159323 84.2360555,44.639254 C83.9904329,44.3625757 83.6954079,44.1437773 83.3509717,43.9828521 C83.0065354,43.821927 82.6395187,43.7414656 82.2499104,43.7414656 C81.4311685,43.7414656 80.7493643,44.0266094 80.2044775,44.5969055 C79.6595906,45.1672016 79.3871513,45.9153511 79.3871513,46.8413765 C79.3871513,47.7052904 79.6497094,48.4181498 80.1748335,48.9799761 C80.6999577,49.5418025 81.3859966,49.8227115 82.232971,49.8227115 Z M91.6587454,51.1101061 C90.3656978,51.1101061 89.2618244,50.7035645 88.347092,49.8904691 L89.0754864,48.8232867 C89.4312156,49.1564299 89.8109368,49.4076952 90.2146613,49.5770901 C90.6183857,49.746485 91.0997423,49.8311812 91.6587454,49.8311812 C92.1499906,49.8311812 92.5395929,49.7238993 92.8275642,49.5093325 C93.1155355,49.2947656 93.259519,49.0265611 93.259519,48.7047108 C93.259519,48.6200134 93.2510494,48.5409636 93.2341099,48.4675592 C93.2171704,48.3941547 93.183292,48.3249862 93.1324735,48.2600515 C93.081655,48.1951168 93.0336605,48.1386527 92.9884886,48.0906575 C92.9433166,48.0426622 92.8713249,47.9904329 92.7725112,47.933968 C92.6736975,47.877503 92.5890013,47.8309201 92.5184201,47.7942179 C92.4478389,47.7575157 92.3419687,47.7123444 92.2008063,47.6587027 C92.0596439,47.605061 91.9453041,47.5627129 91.8577834,47.5316571 C91.7702627,47.5006014 91.6361604,47.4511953 91.4554726,47.3834374 C91.3651286,47.3552049 91.2973717,47.3326192 91.2521997,47.3156798 C90.9359959,47.2083963 90.669203,47.1067609 90.4518129,47.0107705 C90.2344228,46.9147801 90.0071548,46.7919706 89.7700019,46.6423385 C89.5328491,46.4927063 89.3436943,46.3331952 89.2025319,46.1638003 C89.0613695,45.9944054 88.9442065,45.7854882 88.8510393,45.5370424 C88.7578721,45.2885966 88.7112892,45.0147456 88.7112892,44.7154813 C88.7112892,44.0717808 88.9766705,43.5339601 89.5074412,43.1020032 C90.0382118,42.6700462 90.7044883,42.454071 91.5062908,42.454071 C92.5960645,42.454071 93.5644241,42.8013253 94.4113985,43.4958443 L93.6830041,44.6053752 C93.0054246,44.0181396 92.2572751,43.7245262 91.4385332,43.7245262 C91.0997434,43.7245262 90.799072,43.8162804 90.5365099,43.9997915 C90.2739479,44.1833027 90.1426688,44.4218635 90.1426688,44.7154813 C90.1426688,44.8735832 90.1807821,45.0175667 90.2570098,45.1474361 C90.3332375,45.2773055 90.4518121,45.3958802 90.6127372,45.5031636 C90.7736624,45.610447 90.9359967,45.7022012 91.0997451,45.7784289 C91.2634935,45.8546566 91.4780571,45.9435876 91.7434424,46.0452245 L92.1499881,46.1976791 C92.4379594,46.310609 92.6511114,46.3938936 92.7894506,46.4475353 C92.9277897,46.501177 93.1070633,46.5788152 93.3272766,46.6804521 C93.54749,46.7820891 93.7098243,46.87102 93.8142845,46.9472477 C93.9187447,47.0234754 94.0387309,47.1251108 94.1742468,47.252157 C94.3097627,47.3792032 94.4071633,47.507659 94.4664515,47.6375284 C94.5257397,47.7673978 94.577969,47.9212625 94.623141,48.0991272 C94.668313,48.2769918 94.6908986,48.4732046 94.6908986,48.6877714 C94.6908986,49.0209147 94.6273765,49.3328789 94.5003303,49.6236735 C94.3732842,49.914468 94.1869526,50.1713797 93.94133,50.3944163 C93.6957074,50.6174529 93.3766852,50.7924917 92.9842537,50.9195378 C92.5918222,51.046584 92.1499906,51.1101061 91.6587454,51.1101061 Z" id="Earn-Rewards" fill="#4B4B4B"></path>
                    </g>
                    <g id="Page-1" transform="translate(132.371807, 24.903257)" fill="#000000">
                        <polygon id="Fill-1" points="0 12 25 12 25 9 0 9"></polygon>
                        <polygon id="Fill-2" points="18.2479089 21 16 18.8051017 24.5072252 10.5 16 2.19489826 18.2479089 0 29 10.5000376"></polygon>
                    </g>
                    <g id="Page-1-Copy" transform="translate(305.371807, 24.903257)" fill="#000000">
                        <polygon id="Fill-1" points="0 12 25 12 25 9 0 9"></polygon>
                        <polygon id="Fill-2" points="18.2479089 21 16 18.8051017 24.5072252 10.5 16 2.19489826 18.2479089 0 29 10.5000376"></polygon>
                    </g>
                    <path d="M191.900162,78.1317729 C191.737401,78.1317729 191.600684,78.076435 191.490006,77.9657573 C191.379328,77.8550797 191.32399,77.7216175 191.32399,77.5653667 C191.32399,77.4058607 191.379328,77.2707709 191.490006,77.1600933 C191.600684,77.0494156 191.737401,76.9940776 191.900162,76.9940776 C192.004329,76.9940776 192.100357,77.0193052 192.188248,77.0697612 C192.276139,77.1202172 192.346125,77.1893897 192.398209,77.2772808 C192.450293,77.3651718 192.476334,77.4611995 192.476334,77.5653667 C192.476334,77.7216175 192.420182,77.8550797 192.307877,77.9657573 C192.195572,78.076435 192.059668,78.1317729 191.900162,78.1317729 Z M191.494889,83.9032573 L191.494889,79.0350933 L192.300553,79.0350933 L192.300553,83.9032573 L191.494889,83.9032573 Z M196.518724,78.9764995 C197.062347,78.9764995 197.489589,79.1473962 197.800463,79.4891948 C198.111336,79.8309934 198.266771,80.3404284 198.266771,81.0175151 L198.266771,83.9081401 L197.456224,83.9081401 L197.456224,81.2421245 C197.456224,80.9621752 197.427741,80.7229198 197.370775,80.5243511 C197.313809,80.3257824 197.231615,80.1679063 197.124193,80.0507183 C197.016771,79.9335302 196.893074,79.8488956 196.753099,79.796812 C196.613125,79.7447284 196.450366,79.718687 196.264818,79.718687 C195.802576,79.718687 195.4323,79.8757492 195.153978,80.1898784 C194.875656,80.5040076 194.736498,80.9312494 194.736498,81.4716167 L194.736498,83.9032573 L193.925951,83.9032573 L193.925951,79.0350933 L194.736498,79.0350933 L194.736498,79.874937 L194.751146,79.874937 C194.95297,79.585222 195.206874,79.3630563 195.512865,79.2084331 C195.818856,79.0538099 196.154139,78.9764995 196.518724,78.9764995 Z M201.107989,83.9667339 C200.264886,83.9667339 199.843341,83.4621816 199.843341,82.453062 L199.843341,79.7382183 L199.223224,79.7382183 L199.223224,79.0350933 L199.843341,79.0350933 L199.843341,77.3700542 L200.653888,77.2821636 L200.653888,79.0350933 L202.265216,79.0350933 L202.265216,79.7382183 L200.653888,79.7382183 L200.653888,82.3309917 C200.653888,82.6369828 200.697833,82.8591486 200.785724,82.9974956 C200.873615,83.1358426 201.028236,83.2050151 201.249591,83.2050151 C201.506754,83.2050151 201.780188,83.1220082 202.069903,82.9559917 L202.284747,83.6639995 C202.18058,83.7225936 202.081297,83.772235 201.986896,83.8129253 C201.892494,83.8536156 201.76717,83.8894225 201.610919,83.9203472 C201.454668,83.9512718 201.287027,83.9667339 201.107989,83.9667339 Z M207.440419,81.3934917 C207.440419,81.5171902 207.432281,81.6278662 207.416005,81.7255229 L203.67577,81.7255229 C203.727854,82.1779992 203.902006,82.5401375 204.198231,82.8119487 C204.494457,83.08376 204.860664,83.2196636 205.296864,83.2196636 C205.586579,83.2196636 205.846993,83.1602566 206.078114,83.0414409 C206.309235,82.9226252 206.506173,82.7639354 206.668934,82.5653667 L207.23534,83.0487651 C207.01724,83.3319697 206.741364,83.555763 206.407704,83.7201519 C206.074043,83.8845407 205.694001,83.9667339 205.267567,83.9667339 C204.925768,83.9667339 204.605947,83.9056993 204.308094,83.7836284 C204.010241,83.6615575 203.753896,83.4931021 203.539051,83.2782573 C203.324207,83.0634125 203.154937,82.7997433 203.031239,82.4872417 C202.90754,82.1747401 202.845692,81.8362019 202.845692,81.4716167 C202.845692,81.1102868 202.905913,80.7741899 203.026356,80.4633159 C203.146799,80.152442 203.310372,79.8887727 203.517079,79.6723003 C203.723786,79.4558279 203.970365,79.2857449 204.256825,79.1620464 C204.543285,79.0383478 204.849271,78.9764995 205.174794,78.9764995 C205.620759,78.9764995 206.016263,79.0806651 206.361317,79.2889995 C206.706371,79.4973339 206.972481,79.7846031 207.159657,80.1508159 C207.346832,80.5170287 207.440419,80.9312498 207.440419,81.3934917 Z M205.218739,79.7235698 C204.834622,79.7235698 204.503408,79.8431975 204.225087,80.0824565 C203.946765,80.3217155 203.770172,80.6447917 203.695301,81.0516948 L206.634755,81.0516948 C206.56965,80.648047 206.412588,80.3257846 206.163563,80.0848979 C205.914538,79.8440113 205.5996,79.7235698 205.218739,79.7235698 Z M211.263082,78.9764995 C211.806705,78.9764995 212.233947,79.1473962 212.54482,79.4891948 C212.855694,79.8309934 213.011129,80.3404284 213.011129,81.0175151 L213.011129,83.9081401 L212.200582,83.9081401 L212.200582,81.2421245 C212.200582,80.9621752 212.172099,80.7229198 212.115133,80.5243511 C212.058167,80.3257824 211.975973,80.1679063 211.868551,80.0507183 C211.761129,79.9335302 211.637432,79.8488956 211.497457,79.796812 C211.357483,79.7447284 211.194724,79.718687 211.009176,79.718687 C210.546934,79.718687 210.176658,79.8757492 209.898336,80.1898784 C209.620014,80.5040076 209.480856,80.9312494 209.480856,81.4716167 L209.480856,83.9032573 L208.670309,83.9032573 L208.670309,79.0350933 L209.480856,79.0350933 L209.480856,79.874937 L209.495504,79.874937 C209.697328,79.585222 209.951232,79.3630563 210.257223,79.2084331 C210.563214,79.0538099 210.898497,78.9764995 211.263082,78.9764995 Z M218.225394,76.5399761 L219.035941,76.5399761 L219.035941,83.9032573 L218.259574,83.9032573 L218.259574,83.1317729 L218.244925,83.1317729 C218.114716,83.3075551 217.964978,83.4572932 217.795707,83.5809917 C217.626435,83.7046902 217.436821,83.7999041 217.226859,83.8666362 C217.016897,83.9333683 216.794731,83.9667339 216.560355,83.9667339 C216.228322,83.9667339 215.915825,83.9073269 215.622855,83.7885112 C215.329885,83.6696955 215.076795,83.5044954 214.863578,83.2929058 C214.650361,83.0813162 214.481905,82.8209021 214.358207,82.5116558 C214.234508,82.2024094 214.17266,81.8654987 214.17266,81.5009136 C214.17266,81.1460941 214.232881,80.8124386 214.353324,80.499937 C214.473767,80.1874354 214.638154,79.9196972 214.846488,79.6967144 C215.054822,79.4737315 215.307098,79.297952 215.603324,79.1693706 C215.899549,79.0407892 216.216929,78.9764995 216.555472,78.9764995 C216.773572,78.9764995 216.983531,79.0057961 217.185355,79.0643901 C217.387179,79.1229842 217.575165,79.2108739 217.74932,79.328062 C217.923474,79.4452501 218.077282,79.5884778 218.210746,79.7577495 L218.225394,79.7577495 L218.225394,76.5399761 Z M216.63848,83.2245464 C216.85007,83.2245464 217.054332,83.1830429 217.251273,83.1000347 C217.448214,83.0170264 217.620739,82.9014677 217.768851,82.753355 C217.916964,82.6052423 218.034964,82.4229524 218.122855,82.20648 C218.210746,81.9900075 218.254691,81.7564487 218.254691,81.5057964 C218.254691,81.2583993 218.213188,81.0248405 218.130179,80.8051128 C218.047171,80.5853851 217.934868,80.3957711 217.793265,80.2362651 C217.651663,80.0767591 217.48158,79.9506211 217.283011,79.8578472 C217.084443,79.7650733 216.872856,79.718687 216.648246,79.718687 C216.176238,79.718687 215.783176,79.8830734 215.469047,80.2118511 C215.154917,80.5406288 214.997855,80.9719395 214.997855,81.5057964 C214.997855,82.0038457 215.149221,82.4148117 215.451957,82.7387065 C215.754693,83.0626014 216.150196,83.2245464 216.63848,83.2245464 Z M224.880089,81.3934917 C224.880089,81.5171902 224.871951,81.6278662 224.855675,81.7255229 L221.115441,81.7255229 C221.167524,82.1779992 221.341676,82.5401375 221.637902,82.8119487 C221.934127,83.08376 222.300334,83.2196636 222.736534,83.2196636 C223.026249,83.2196636 223.286663,83.1602566 223.517784,83.0414409 C223.748905,82.9226252 223.945843,82.7639354 224.108605,82.5653667 L224.675011,83.0487651 C224.456911,83.3319697 224.181035,83.555763 223.847374,83.7201519 C223.513714,83.8845407 223.133672,83.9667339 222.707237,83.9667339 C222.365439,83.9667339 222.045618,83.9056993 221.747765,83.7836284 C221.449912,83.6615575 221.193567,83.4931021 220.978722,83.2782573 C220.763877,83.0634125 220.594608,82.7997433 220.470909,82.4872417 C220.347211,82.1747401 220.285362,81.8362019 220.285362,81.4716167 C220.285362,81.1102868 220.345583,80.7741899 220.466027,80.4633159 C220.58647,80.152442 220.750042,79.8887727 220.956749,79.6723003 C221.163456,79.4558279 221.410036,79.2857449 221.696495,79.1620464 C221.982955,79.0383478 222.288942,78.9764995 222.614464,78.9764995 C223.06043,78.9764995 223.455934,79.0806651 223.800987,79.2889995 C224.146041,79.4973339 224.412152,79.7846031 224.599327,80.1508159 C224.786503,80.5170287 224.880089,80.9312498 224.880089,81.3934917 Z M222.658409,79.7235698 C222.274293,79.7235698 221.943079,79.8431975 221.664757,80.0824565 C221.386435,80.3217155 221.209842,80.6447917 221.134972,81.0516948 L224.074425,81.0516948 C224.00932,80.648047 223.852258,80.3257846 223.603234,80.0848979 C223.354209,79.8440113 223.039271,79.7235698 222.658409,79.7235698 Z M229.859979,76.5399761 L230.670526,76.5399761 L230.670526,83.9032573 L229.894159,83.9032573 L229.894159,83.1317729 L229.87951,83.1317729 C229.749301,83.3075551 229.599563,83.4572932 229.430292,83.5809917 C229.26102,83.7046902 229.071406,83.7999041 228.861444,83.8666362 C228.651482,83.9333683 228.429316,83.9667339 228.19494,83.9667339 C227.862907,83.9667339 227.55041,83.9073269 227.25744,83.7885112 C226.96447,83.6696955 226.71138,83.5044954 226.498163,83.2929058 C226.284946,83.0813162 226.11649,82.8209021 225.992792,82.5116558 C225.869093,82.2024094 225.807245,81.8654987 225.807245,81.5009136 C225.807245,81.1460941 225.867466,80.8124386 225.987909,80.499937 C226.108352,80.1874354 226.272739,79.9196972 226.481073,79.6967144 C226.689407,79.4737315 226.941683,79.297952 227.237909,79.1693706 C227.534134,79.0407892 227.851514,78.9764995 228.190057,78.9764995 C228.408157,78.9764995 228.618116,79.0057961 228.81994,79.0643901 C229.021764,79.1229842 229.20975,79.2108739 229.383905,79.328062 C229.558059,79.4452501 229.711867,79.5884778 229.845331,79.7577495 L229.859979,79.7577495 L229.859979,76.5399761 Z M228.273065,83.2245464 C228.484655,83.2245464 228.688917,83.1830429 228.885858,83.1000347 C229.082799,83.0170264 229.255323,82.9014677 229.403436,82.753355 C229.551549,82.6052423 229.669549,82.4229524 229.75744,82.20648 C229.845331,81.9900075 229.889276,81.7564487 229.889276,81.5057964 C229.889276,81.2583993 229.847773,81.0248405 229.764764,80.8051128 C229.681756,80.5853851 229.569453,80.3957711 229.42785,80.2362651 C229.286248,80.0767591 229.116165,79.9506211 228.917596,79.8578472 C228.719028,79.7650733 228.507441,79.718687 228.282831,79.718687 C227.810823,79.718687 227.417761,79.8830734 227.103632,80.2118511 C226.789502,80.5406288 226.63244,80.9719395 226.63244,81.5057964 C226.63244,82.0038457 226.783806,82.4148117 227.086542,82.7387065 C227.389278,83.0626014 227.784781,83.2245464 228.273065,83.2245464 Z M237.485775,78.9764995 C237.938251,78.9764995 238.346776,79.0863617 238.711361,79.3060894 C239.075946,79.525817 239.35996,79.8277346 239.563412,80.2118511 C239.766863,80.5959676 239.868588,81.0256508 239.868588,81.5009136 C239.868588,81.8654987 239.806739,82.2024094 239.683041,82.5116558 C239.559342,82.8209021 239.390887,83.0813162 239.17767,83.2929058 C238.964452,83.5044954 238.711363,83.6696955 238.418392,83.7885112 C238.125422,83.9073269 237.812925,83.9667339 237.480892,83.9667339 C237.126073,83.9667339 236.802997,83.8943062 236.511654,83.7494487 C236.220311,83.6045912 235.975359,83.3987014 235.776791,83.1317729 L235.762142,83.1317729 L235.762142,83.9032573 L234.985775,83.9032573 L234.985775,76.5399761 L235.796322,76.5399761 L235.796322,79.7577495 L235.815853,79.7577495 C236.017677,79.503842 236.262629,79.310159 236.550717,79.1766948 C236.838804,79.0432306 237.150487,78.9764995 237.485775,78.9764995 Z M237.402767,83.2245464 C237.891051,83.2245464 238.286555,83.0626014 238.589291,82.7387065 C238.892027,82.4148117 239.043392,82.0038457 239.043392,81.5057964 C239.043392,80.9719395 238.88633,80.5406288 238.572201,80.2118511 C238.258072,79.8830734 237.865009,79.718687 237.393002,79.718687 C237.087011,79.718687 236.809507,79.797625 236.560482,79.9555034 C236.311457,80.1133818 236.116961,80.3290372 235.976986,80.6024761 C235.837011,80.8759149 235.767025,81.1770187 235.767025,81.5057964 C235.767025,81.7564487 235.81097,81.9900075 235.898861,82.20648 C235.986752,82.4229524 236.105566,82.6052423 236.255306,82.753355 C236.405047,82.9014677 236.579199,83.0170264 236.777767,83.1000347 C236.976336,83.1830429 237.184667,83.2245464 237.402767,83.2245464 Z M245.410001,81.3934917 C245.410001,81.5171902 245.401863,81.6278662 245.385587,81.7255229 L241.645353,81.7255229 C241.697436,82.1779992 241.871588,82.5401375 242.167814,82.8119487 C242.464039,83.08376 242.830246,83.2196636 243.266447,83.2196636 C243.556161,83.2196636 243.816576,83.1602566 244.047697,83.0414409 C244.278817,82.9226252 244.475756,82.7639354 244.638517,82.5653667 L245.204923,83.0487651 C244.986823,83.3319697 244.710947,83.555763 244.377286,83.7201519 C244.043626,83.8845407 243.663584,83.9667339 243.23715,83.9667339 C242.895351,83.9667339 242.57553,83.9056993 242.277677,83.7836284 C241.979824,83.6615575 241.723479,83.4931021 241.508634,83.2782573 C241.293789,83.0634125 241.12452,82.7997433 241.000822,82.4872417 C240.877123,82.1747401 240.815275,81.8362019 240.815275,81.4716167 C240.815275,81.1102868 240.875495,80.7741899 240.995939,80.4633159 C241.116382,80.152442 241.279955,79.8887727 241.486661,79.6723003 C241.693368,79.4558279 241.939948,79.2857449 242.226407,79.1620464 C242.512867,79.0383478 242.818854,78.9764995 243.144376,78.9764995 C243.590342,78.9764995 243.985846,79.0806651 244.3309,79.2889995 C244.675953,79.4973339 244.942064,79.7846031 245.129239,80.1508159 C245.316415,80.5170287 245.410001,80.9312498 245.410001,81.3934917 Z M243.188322,79.7235698 C242.804205,79.7235698 242.472991,79.8431975 242.194669,80.0824565 C241.916347,80.3217155 241.739754,80.6447917 241.664884,81.0516948 L244.604337,81.0516948 C244.539233,80.648047 244.38217,80.3257846 244.133146,80.0848979 C243.884121,79.8440113 243.569183,79.7235698 243.188322,79.7235698 Z M249.261962,78.9764995 C249.812095,78.9764995 250.244219,79.1433273 250.558348,79.4769878 C250.872478,79.8106483 251.02954,80.3127592 251.02954,80.9833354 L251.02954,83.9081401 L250.218993,83.9081401 L250.218993,81.2128276 C250.218993,80.2167289 249.821861,79.718687 249.027587,79.718687 C248.539303,79.718687 248.154378,79.8716803 247.872801,80.1776714 C247.591225,80.4836625 247.450438,80.9084629 247.450438,81.4520854 L247.450438,83.9032573 L246.639891,83.9032573 L246.639891,76.5399761 L247.450438,76.5399761 L247.450438,79.8261089 L247.469969,79.8261089 C247.570881,79.6893894 247.68644,79.5673204 247.816649,79.4598979 C247.946858,79.3524755 248.088458,79.2629582 248.241454,79.1913433 C248.394449,79.1197283 248.556394,79.0660179 248.727294,79.0302104 C248.898193,78.994403 249.076414,78.9764995 249.261962,78.9764995 Z M256.268219,79.0350933 L257.078766,79.0350933 L257.078766,83.9032573 L256.302399,83.9032573 L256.302399,83.1317729 L256.28775,83.1317729 C256.089182,83.3954461 255.84423,83.6005222 255.552887,83.7470073 C255.261544,83.8934924 254.938468,83.9667339 254.583649,83.9667339 C254.251616,83.9667339 253.939119,83.9073269 253.646149,83.7885112 C253.353178,83.6696955 253.100089,83.5044954 252.886871,83.2929058 C252.673654,83.0813162 252.505199,82.8209021 252.3815,82.5116558 C252.257802,82.2024094 252.195953,81.8654987 252.195953,81.5009136 C252.195953,81.0256508 252.297678,80.5959676 252.501129,80.2118511 C252.704581,79.8277346 252.988595,79.525817 253.35318,79.3060894 C253.717765,79.0863617 254.12629,78.9764995 254.578766,78.9764995 C254.914054,78.9764995 255.225737,79.0432306 255.513824,79.1766948 C255.801912,79.310159 256.046864,79.503842 256.248688,79.7577495 L256.268219,79.7577495 L256.268219,79.0350933 Z M254.661774,83.2245464 C254.879874,83.2245464 255.088205,83.1830429 255.286774,83.1000347 C255.485342,83.0170264 255.659494,82.9014677 255.809235,82.753355 C255.958975,82.6052423 256.077789,82.4229524 256.16568,82.20648 C256.253571,81.9900075 256.297516,81.7564487 256.297516,81.5057964 C256.297516,81.2583993 256.256012,81.0248405 256.173004,80.8051128 C256.089996,80.5853851 255.976879,80.3957711 255.833649,80.2362651 C255.690419,80.0767591 255.517894,79.9506211 255.316071,79.8578472 C255.114247,79.7650733 254.899405,79.718687 254.671539,79.718687 C254.199532,79.718687 253.806469,79.8830734 253.49234,80.2118511 C253.178211,80.5406288 253.021149,80.9719395 253.021149,81.5057964 C253.021149,82.0038457 253.172514,82.4148117 253.47525,82.7387065 C253.777986,83.0626014 254.17349,83.2245464 254.661774,83.2245464 Z M261.907289,79.0350933 L262.786195,79.0350933 L260.808656,83.9032573 L260.032289,83.9032573 L258.044984,79.0350933 L258.914125,79.0350933 L260.413148,82.8729839 L260.437562,82.8729839 L261.907289,79.0350933 Z M264.289523,78.1317729 C264.126761,78.1317729 263.990044,78.076435 263.879366,77.9657573 C263.768689,77.8550797 263.713351,77.7216175 263.713351,77.5653667 C263.713351,77.4058607 263.768689,77.2707709 263.879366,77.1600933 C263.990044,77.0494156 264.126761,76.9940776 264.289523,76.9940776 C264.39369,76.9940776 264.489718,77.0193052 264.577609,77.0697612 C264.6655,77.1202172 264.735486,77.1893897 264.78757,77.2772808 C264.839653,77.3651718 264.865695,77.4611995 264.865695,77.5653667 C264.865695,77.7216175 264.809543,77.8550797 264.697238,77.9657573 C264.584932,78.076435 264.449029,78.1317729 264.289523,78.1317729 Z M263.884249,83.9032573 L263.884249,79.0350933 L264.689913,79.0350933 L264.689913,83.9032573 L263.884249,83.9032573 Z M268.532108,83.9667339 C268.161013,83.9667339 267.817592,83.9024442 267.501835,83.7738628 C267.186078,83.6452814 266.919967,83.4695019 266.703495,83.246519 C266.487022,83.0235362 266.317753,82.7598669 266.195682,82.4555034 C266.073611,82.1511399 266.012577,81.8248085 266.012577,81.4764995 C266.012577,81.1281905 266.073611,80.8002315 266.195682,80.4926128 C266.317753,80.1849941 266.487022,79.9196972 266.703495,79.6967144 C266.919967,79.4737315 267.186078,79.297952 267.501835,79.1693706 C267.817592,79.0407892 268.161013,78.9764995 268.532108,78.9764995 C269.007371,78.9764995 269.435427,79.0806651 269.816288,79.2889995 C270.197149,79.4973339 270.495812,79.7927411 270.712284,80.17523 C270.928756,80.5577189 271.036991,80.991471 271.036991,81.4764995 C271.036991,81.9582727 270.928756,82.3895835 270.712284,82.7704448 C270.495812,83.1513061 270.197149,83.4458995 269.816288,83.6542339 C269.435427,83.8625683 269.007371,83.9667339 268.532108,83.9667339 Z M268.532108,83.2196636 C268.841355,83.2196636 269.124555,83.1464221 269.381718,82.999937 C269.63888,82.8534519 269.842329,82.6467482 269.992069,82.3798198 C270.141809,82.1128914 270.216679,81.8117876 270.216679,81.4764995 C270.216679,81.1379561 270.141809,80.834411 269.992069,80.565855 C269.842329,80.2972989 269.639694,80.0897815 269.384159,79.9432964 C269.128624,79.7968113 268.84461,79.7235698 268.532108,79.7235698 C268.200075,79.7235698 267.903854,79.801694 267.643436,79.9579448 C267.383018,80.1141956 267.182825,80.325782 267.04285,80.5927104 C266.902876,80.8596389 266.832889,81.1542323 266.832889,81.4764995 C266.832889,81.7955115 266.90369,82.0876635 267.045292,82.3529644 C267.186894,82.6182652 267.387901,82.8290378 267.648319,82.9852886 C267.908737,83.1415394 268.203331,83.2196636 268.532108,83.2196636 Z M274.698522,78.9764995 C274.792923,78.9764995 274.859654,78.9797547 274.898717,78.9862651 L274.898717,79.8798198 C274.781529,79.8700541 274.674108,79.8651714 274.576451,79.8651714 C274.273716,79.8651714 274.010046,79.9384128 273.785436,80.0848979 C273.560825,80.2313831 273.389929,80.4315764 273.272741,80.6854839 C273.155552,80.9393914 273.096959,81.229102 273.096959,81.5546245 L273.096959,83.9032573 L272.286412,83.9032573 L272.286412,79.0350933 L273.096959,79.0350933 L273.096959,79.8847026 L273.116491,79.8847026 C273.298783,79.5949876 273.525832,79.3711943 273.797643,79.2133159 C274.069454,79.0554375 274.369744,78.9764995 274.698522,78.9764995 Z" id="intended-behavior" fill="#4B4B4B"></path>
                </g>
            </g>
        </g>
    </g>
</svg>