<?xml version="1.0" encoding="UTF-8"?>
<svg width="66px" height="94px" viewBox="0 0 66 94" version="1.1" xmlns="http://www.w3.org/2000/svg" xmlns:xlink="http://www.w3.org/1999/xlink">
    <!-- Generator: Sketch 49.3 (51167) - http://www.bohemiancoding.com/sketch -->
    <title>np_checklist_2252927_626262</title>
    <desc>Created with Sketch.</desc>
    <defs></defs>
    <g id="Enterprise-Tool" stroke="none" stroke-width="1" fill="none" fill-rule="evenodd">
        <g id="Artboard-2" transform="translate(-300.000000, -108.000000)" fill-rule="nonzero">
            <g id="np_checklist_1551564_626262" transform="translate(232.000000, 108.000000)">
                <g id="np_checklist_2252927_626262" transform="translate(68.000000, 0.000000)">
                    <path d="M45.188,15.281 L20.657,15.281 C18.0008,15.281 15.8132,13.0935 15.8132,10.4372 L15.8132,4.9684 C15.8132,2.3122 18.0007,0.1246 20.657,0.1246 L45.032,0.1246 C47.6882,0.1246 49.8758,2.3121 49.8758,4.9684 L49.8758,10.2809 C50.03205,13.0934 47.8446,15.2809 45.1883,15.2809 L45.188,15.281 Z M20.657,3.25 C19.7195,3.25 18.9382,4.03125 18.9382,4.9688 L18.9382,10.2813 C18.9382,11.2188 19.71945,12.0001 20.657,12.0001 L45.032,12.0001 C45.9695,12.0001 46.7508,11.21885 46.7508,10.2813 L46.7508,4.9688 C46.7508,4.0313 45.96955,3.25 45.032,3.25 L20.657,3.25 Z" id="Shape" fill="#626262"></path>
                    <path d="M23.469,37.469 L10.344,37.469 C9.4065,37.469 8.7815,36.844 8.7815,35.9065 L8.7815,22.4685 C8.7815,21.531 9.4065,20.906 10.344,20.906 L23.469,20.906 C24.4065,20.906 25.0315,21.531 25.0315,22.4685 L25.0315,35.9065 C25.0315,36.844 24.4065,37.469 23.469,37.469 Z M11.907,34.344 L21.907,34.344 L21.907,24.032 L11.907,24.032 L11.907,34.344 Z" id="Shape" fill="#51E3DD"></path>
                    <path d="M23.469,62 L10.344,62 C9.4065,62 8.7815,61.375 8.7815,60.4375 L8.7815,46.9995 C8.7815,46.062 9.4065,45.437 10.344,45.437 L23.469,45.437 C24.4065,45.437 25.0315,46.062 25.0315,46.9995 L25.0315,60.4375 C25.0315,61.375 24.4065,62 23.469,62 Z M11.907,58.875 L21.907,58.875 L21.907,48.563 L11.907,48.563 L11.907,58.875 Z" id="Shape" fill="#51E3DD"></path>
                    <path d="M16.281,56.844 C15.81225,56.844 15.49975,56.68775 15.1872,56.37525 C14.5622,55.75025 14.5622,54.81275 15.1872,54.18775 L18.156,51.21895 C18.781,50.59395 19.7185,50.59395 20.3435,51.21895 C20.9685,51.84395 20.9685,52.78145 20.3435,53.40645 L17.3747,56.37525 C17.0622,56.68775 16.59345,56.844 16.2809,56.844 L16.281,56.844 Z" id="Shape" fill="#51E3DD"></path>
                    <path d="M16.281,56.844 C15.81225,56.844 15.49975,56.68775 15.1872,56.37525 L13.6247,54.81275 C12.9997,54.18775 12.9997,53.25025 13.6247,52.62525 C14.2497,52.00025 15.1872,52.00025 15.8122,52.62525 L17.3747,54.18775 C17.9997,54.81275 17.9997,55.75025 17.3747,56.37525 C17.0622,56.68775 16.59345,56.844 16.2809,56.844 L16.281,56.844 Z" id="Shape" fill="#51E3DD"></path>
                    <path d="M52.219,33.406 L30.657,33.406 C29.7195,33.406 29.0945,32.781 29.0945,31.8435 C29.0945,30.906 29.7195,30.281 30.657,30.281 L52.219,30.281 C53.1565,30.281 53.7815,30.906 53.7815,31.8435 C53.7815,32.781 53.1565,33.406 52.219,33.406 Z" id="Shape" fill="#626262"></path>
                    <path d="M56.594,51.531 L30.656,51.531 C29.7185,51.531 29.0935,50.906 29.0935,49.9685 C29.0935,49.031 29.7185,48.406 30.656,48.406 L56.594,48.406 C57.5315,48.406 58.1565,49.031 58.1565,49.9685 C58.1565,50.906 57.5315,51.531 56.594,51.531 Z" id="Shape" fill="#626262"></path>
                    <path d="M52.219,59.188 L30.657,59.188 C29.7195,59.188 29.0945,58.563 29.0945,57.6255 C29.0945,56.688 29.7195,56.063 30.657,56.063 L52.219,56.063 C53.1565,56.063 53.7815,56.688 53.7815,57.6255 C53.7815,58.563 53.1565,59.188 52.219,59.188 Z" id="Shape" fill="#626262"></path>
                    <path d="M57.375,75.906 L31.437,75.906 C30.4995,75.906 29.8745,75.281 29.8745,74.3435 C29.8745,73.406 30.4995,72.781 31.437,72.781 L57.375,72.781 C58.3125,72.781 58.9375,73.406 58.9375,74.3435 C58.9375,75.281 58.3125,75.906 57.375,75.906 Z" id="Shape" fill="#626262"></path>
                    <path d="M53.156,83.719 L31.437,83.719 C30.4995,83.719 29.8745,83.094 29.8745,82.1565 C29.8745,81.219 30.4995,80.594 31.437,80.594 L52.999,80.594 C53.9365,80.594 54.5615,81.219 54.5615,82.1565 C54.5615,83.094 53.9365,83.719 53.1553,83.719 L53.156,83.719 Z" id="Shape" fill="#626262"></path>
                    <path d="M56.594,25.75 L30.656,25.75 C29.7185,25.75 29.0935,25.125 29.0935,24.1875 C29.0935,23.25 29.7185,22.625 30.656,22.625 L56.594,22.625 C57.5315,22.625 58.1565,23.25 58.1565,24.1875 C58.1565,25.125 57.5315,25.75 56.594,25.75 Z" id="Shape" fill="#626262"></path>
                    <path d="M16.281,32.312 C15.81225,32.312 15.49975,32.15575 15.1872,31.84325 C14.5622,31.21825 14.5622,30.28075 15.1872,29.65575 L18.156,26.68695 C18.781,26.06195 19.7185,26.06195 20.3435,26.68695 C20.9685,27.31195 20.9685,28.24945 20.3435,28.87445 L17.3747,31.84325 C17.0622,32.15575 16.59345,32.312 16.2809,32.312 L16.281,32.312 Z" id="Shape" fill="#51E3DD"></path>
                    <path d="M16.281,32.312 C15.81225,32.312 15.49975,32.15575 15.1872,31.84325 L13.6247,30.28075 C12.9997,29.65575 12.9997,28.71825 13.6247,28.09325 C14.2497,27.46825 15.1872,27.46825 15.8122,28.09325 L17.3747,29.65575 C17.9997,30.28075 17.9997,31.21825 17.3747,31.84325 C17.0622,32.15575 16.59345,32.312 16.2809,32.312 L16.281,32.312 Z" id="Shape" fill="#51E3DD"></path>
                    <path d="M23.469,86.688 L10.344,86.688 C9.4065,86.688 8.7815,86.063 8.7815,85.1255 L8.7815,71.6875 C8.7815,70.75 9.4065,70.125 10.344,70.125 L23.469,70.125 C24.4065,70.125 25.0315,70.75 25.0315,71.6875 L25.0315,85.1255 C25.0315,85.90675 24.4065,86.688 23.469,86.688 Z M11.907,83.563 L21.907,83.563 L21.907,73.251 L11.907,73.251 L11.907,83.563 Z" id="Shape" fill="#E56566"></path>
                    <path d="M59.875,93.875 L6.125,93.875 C2.8438,93.875 0.1875,91.2188 0.1875,87.9375 L0.1875,12.3125 C0.1875,9.0313 2.8437,6.375 6.125,6.375 L17.375,6.375 C18.3125,6.375 18.9375,7 18.9375,7.9375 L18.9375,10.75 C18.9375,11.6875 19.5625,12.3125 20.5,12.3125 L45.5,12.3125 C46.28125,12.3125 47.0625,11.53125 47.0625,10.75 L47.0625,7.7812 C47.0625,6.8437 47.6875,6.2187 48.625,6.2187 L58,6.2187 C62.375,6.2187 65.9688,9.8125 65.9688,14.1875 L65.9688,87.7815 C65.81255,91.219 63.1563,93.8753 59.875,93.8753 L59.875,93.875 Z M6.125,9.344 C4.5625,9.344 3.3125,10.594 3.3125,12.1565 L3.3125,87.7815 C3.3125,89.344 4.5625,90.594 6.125,90.594 L59.875,90.594 C61.4375,90.594 62.6875,89.344 62.6875,87.7815 L62.6875,14.3435 C62.6875,11.6873 60.5,9.4997 57.8437,9.4997 L50.0312,9.4997 L50.0312,10.7497 C50.0312,13.4059 48,15.4372 45.3437,15.4372 L20.4997,15.4372 C17.9997,15.4372 15.8122,13.2497 15.8122,10.7497 L15.8122,9.3435 L6.125,9.344 Z" id="Shape" fill="#626262"></path>
                </g>
            </g>
        </g>
    </g>
</svg>