<?xml version="1.0" encoding="UTF-8"?>
<svg width="70px" height="77px" viewBox="0 0 70 77" version="1.1" xmlns="http://www.w3.org/2000/svg" xmlns:xlink="http://www.w3.org/1999/xlink">
    <!-- Generator: Sketch 48.2 (47327) - http://www.bohemiancoding.com/sketch -->
    <title>Group 4</title>
    <desc>Created with Sketch.</desc>
    <defs></defs>
    <g id="Artboard-5-Copy-9" stroke="none" stroke-width="1" fill="none" fill-rule="evenodd" transform="translate(-894.000000, -128.000000)">
        <g id="Group-4" transform="translate(895.000000, 129.000000)">
            <g id="Group-2-Copy-4" opacity="0.748641304" transform="translate(47.000000, 6.000000)">
                <g id="noun_13585-copy-2">
                    <g id="Group">
                        <path d="M18.2462292,2.12423957 C18.3519705,1.73662668 18.484849,1.36927231 18.6467361,1.03163042 C18.1854045,1.19099739 17.7455955,1.15858377 17.2430903,0.892521964 C17.6239462,1.22341101 17.9598854,1.63938582 18.2462292,2.12423957 L18.2462292,2.12423957 Z" id="Shape"></path>
                        <path d="M11.6465744,3.02756148 C11.5856778,3.01945808 11.5286681,3.01675694 11.4599975,2.99514786 C11.2177066,2.91546438 10.9922595,2.87089565 10.7629253,2.81822351 C11.0401994,2.95868254 11.3109951,3.11534838 11.568834,3.28957159 C11.5973388,3.2017847 11.6141826,3.11129667 11.6465744,3.02756148 L11.6465744,3.02756148 Z" id="Shape"></path>
                        <path d="M0.972675614,9.49321318 C0.818490518,9.65528128 0.657827057,9.81059655 0.491980903,9.96321069 C0.661714076,9.91864196 0.832742922,9.8794755 1.00636311,9.84706188 C0.988223691,9.73091307 0.977858307,9.61341369 0.972675614,9.49321318 L0.972675614,9.49321318 Z" id="Shape"></path>
                        <path d="M2.84463528,6.7908314 C2.82649586,6.80028537 2.80965211,6.81108991 2.79021701,6.81919331 C2.80835644,6.81514161 2.82260884,6.80973934 2.84074826,6.80568764 C2.84204394,6.80163594 2.84333961,6.79623367 2.84463528,6.7908314 L2.84463528,6.7908314 Z" id="Shape"></path>
                    </g>
                </g>
            </g>
            <g id="Group-2-Copy-2">
                <g id="noun_13585-copy-2">
                    <g id="Group">
                        <path d="M42.4979955,8.25448256 C42.6779073,8.01655588 42.8739164,7.79836505 43.1002264,7.61854949 C42.8161552,7.59442789 42.5671195,7.46833772 42.285889,7.25891838 C42.1201808,7.13502107 41.9516319,7.03743824 41.7849769,6.9365661" id="Shape"></path>
                        <path d="M35.4634462,8.41574147 C35.5704463,8.03749945 35.7049067,7.67902617 35.8687211,7.34954705 C35.4018974,7.50506119 34.9568526,7.4734312 34.4483652,7.21380165 C34.8337551,7.53669119 35.1736936,7.94260946 35.4634462,8.41574147 L35.4634462,8.41574147 Z" id="Shape"></path>
                        <path d="M48.3600593,9.49944053 C48.2787712,9.42431929 48.1974831,9.33997264 48.1188173,9.24244682 C48.1568391,9.36369513 48.2014164,9.48230762 48.2315717,9.60619176 C48.276149,9.57324385 48.3141708,9.53107052 48.3600593,9.49944053 L48.3600593,9.49944053 Z" id="Shape"></path>
                        <path d="M56.792603,14.7564066 C56.7781809,14.7010541 56.766381,14.6443837 56.751959,14.5903491 C56.7401591,14.6443837 56.7178704,14.6931466 56.7034484,14.7471812 C56.7336036,14.749817 56.7637588,14.7511349 56.792603,14.7564066 L56.792603,14.7564066 Z" id="Shape"></path>
                        <path d="M52.406981,10.6962101 C52.2444049,10.5789155 52.084451,10.4576672 51.9310525,10.3324651 C52.0084073,10.476118 52.0765844,10.6263605 52.1329616,10.7818746 C52.2208051,10.7462909 52.3165153,10.7265221 52.406981,10.6962101 L52.406981,10.6962101 Z" id="Shape"></path>
                        <path d="M28.7852241,9.29722483 C28.7236025,9.28931733 28.6659142,9.2866815 28.596426,9.26559484 C28.3512507,9.18783777 28.1231197,9.14434652 27.8910554,9.09294778 C28.1716303,9.23001109 28.4456498,9.3828894 28.7065582,9.55290063 C28.7354024,9.46723606 28.7524466,9.37893565 28.7852241,9.29722483 L28.7852241,9.29722483 Z" id="Shape"></path>
                        <path d="M59.2576853,20.0465571 C59.2419521,19.7552975 59.2616186,19.4508588 59.307507,19.1358768 C59.1973748,19.3757376 59.0715094,19.6037371 58.9220443,19.8185575 C59.0413542,19.8844533 59.1527975,19.9608925 59.2576853,20.0465571 L59.2576853,20.0465571 Z" id="Shape"></path>
                        <path d="M17.9842551,15.6065641 C17.8282345,15.764714 17.6656583,15.9162744 17.4978378,16.065199 C17.6695916,16.0217078 17.8426565,15.9834882 18.0183436,15.9518582 C17.9999883,15.8385174 17.9894995,15.7238586 17.9842551,15.6065641 L17.9842551,15.6065641 Z" id="Shape"></path>
                        <path d="M19.8785,12.9695146 C19.8601446,12.97874 19.8431003,12.9892833 19.8234339,12.9971908 C19.8417893,12.9932371 19.8562113,12.9879654 19.8745667,12.9840117 C19.8758778,12.9800579 19.8771889,12.9747863 19.8785,12.9695146 L19.8785,12.9695146 Z" id="Shape"></path>
                        <path d="M60.4024922,22.7635601 C60.1887832,22.3760927 59.9776965,21.9952148 59.7797207,21.6130191 C59.7390767,21.7540361 59.6879439,21.8910994 59.6237001,22.0202553 C59.9003417,22.2482548 60.1560058,22.5012948 60.4024922,22.7635601 L60.4024922,22.7635601 Z" id="Shape"></path>
                        <path d="M57.1144047,32.7790832 C58.1058131,33.0430721 57.9741934,33.7110867 58.4400702,34.6014576 C58.4448047,34.3232758 58.4930968,34.0564484 58.7932653,33.7583966 C60.5791262,31.992794 61.5392867,30.1231098 61.684163,28.1029804 C61.0658348,30.653926 59.8064525,32.580382 57.1144047,32.7790832 L57.1144047,32.7790832 Z" id="Shape" fill="#787878"></path>
                        <path d="M47.0402937,1.48268982 C38.5219459,-0.392671522 30.0348459,-0.274396967 22.0817998,3.64569488 C13.3882747,7.93007236 9.27871166,15.731462 7.22866464,24.7742614 C6.75047815,26.8833332 5.68426432,29.1570433 7.530727,31.294501 C7.93126736,31.7590835 7.15764685,32.3939813 6.8338057,32.9087122 C5.10286531,35.6574128 3.30564164,38.3682656 1.66276331,41.1680609 C0.294487124,43.4994889 0.58708044,44.3548505 3.07649089,45.1506017 C5.06593605,45.7864457 6.04787543,46.6285605 5.06120153,48.8426602 C4.32924479,50.4862034 5.67479528,50.9943109 7.01466435,51.380359 C4.92674117,52.7390971 4.87182075,53.0872974 6.70502677,54.5311932 C7.49947917,55.1547366 7.7002228,55.6685213 7.27506293,56.6203949 C4.69001519,62.4035476 7.38869141,65.8003928 13.7471513,65.0623596 C15.25841,64.886367 16.7620935,64.6507641 18.2657769,64.4293541 C20.896276,64.0423598 21.8157198,64.6905044 22.0685431,67.4410974 C22.2645522,69.5804476 22.4473047,71.7122281 22.9576859,73.8033223 L57.928742,73.8033223 C58.4741587,72.9526917 57.6285735,72.4370146 57.3587059,71.8551038 C54.5350383,65.7521368 54.3144097,59.4599304 55.7527568,52.9974088 C56.2849168,50.6063704 57.6285735,48.7395248 59.2146376,46.9672988 C63.4558203,42.2287471 66.3732313,36.8903068 67.2008254,30.4495476 C68.9459693,16.8687901 60.4124711,4.42819934 47.0402937,1.48268982 L47.0402937,1.48268982 Z" id="Shape" stroke="#505050" stroke-width="2.48571429"></path>
                        <path d="M59.7363817,21.6130191 C62.8157133,23.7504768 61.68511,28.1029804 61.68511,28.1029804 C61.5411806,30.1231098 60.5800731,31.9918478 58.7942122,33.7583966 C58.4940437,34.0555022 58.4457516,34.3232758 58.4410171,34.6014576 C58.7033095,35.1029417 58.8661769,35.6659286 58.8661769,36.2714943 C58.8661769,38.2745922 58.0764591,39.3759648 55.2357473,39.8992114 C53.2036914,40.2739052 52.4348054,39.2680984 52.4348054,39.2680984 C52.4348054,41.881493 50.1186784,44.9452771 47.5033297,44.9452771 C45.7894336,44.9452771 44.3027944,44.0265203 43.4714128,42.6649436 C43.3284303,42.5495077 43.1882885,42.4425875 43.0415184,42.3167434 C42.729987,43.6508803 42.3815263,44.8506574 42.1902517,46.0750356 C42.0728356,46.828208 41.8380035,47.1697849 41.0284006,47.1470762 C40.2566739,47.1262599 39.7879565,47.0032543 39.5493367,46.1034215 C39.0683095,44.3094331 38.3922201,42.5674854 37.8060865,40.8009367 C37.3619886,39.4620687 36.6196159,38.5026255 35.6386234,37.8374494 C34.8413303,38.2452601 33.9408247,38.4799168 32.9835048,38.4799168 C29.75835,38.4799168 27.1439482,35.8674684 27.1439482,32.6447233 C27.1439482,31.9899554 27.2566298,31.3626272 27.4554796,30.774093 C26.3371861,31.9256141 24.7738477,32.6447233 23.0410135,32.6447233 C19.6416283,32.6447233 16.8861379,29.8912917 16.8861379,26.4944465 C16.8861379,26.2711441 16.9003414,26.0497342 16.9230671,25.8330552 C14.9658167,25.0846138 13.5719741,23.1950595 13.5719741,20.9752827 C13.5719741,18.5454502 15.2432595,16.5082893 17.4978378,15.9367866 C17.6190415,15.8308126 17.7364576,15.7210538 17.8491392,15.6075103 C17.8453516,15.5564157 17.8330418,15.5081596 17.8330418,15.4551726 C17.8330418,14.2459336 18.6862023,13.236342 19.8234339,12.9912771 C19.8376374,12.9846537 19.8499472,12.9770842 19.8632038,12.971407 C20.4228241,10.4233 22.6916059,8.51576795 25.4082733,8.51576795 C26.2993099,8.51576795 27.1401606,8.72676976 27.8910554,9.09200158 C28.0586574,9.12890325 28.2243656,9.16012773 28.4004897,9.21595332 C28.4506756,9.23203866 28.4923394,9.23393105 28.5368439,9.23866203 C29.1333934,7.70960859 30.6115104,6.62148268 32.3528668,6.62148268 C33.1217527,6.62148268 33.8328776,6.84573124 34.4483652,7.21380165 C34.9568526,7.39925615 35.4018974,7.42291107 35.8687211,7.31125989 C36.5533326,6.32626939 37.6905642,5.67717864 38.9811943,5.67717864 C40.097594,5.67717864 41.0918432,6.16920078 41.7840299,6.9365661 C41.9516319,7.02361617 42.1192339,7.10782765 42.2849421,7.21474785 C42.5661726,7.39547137 42.8161552,7.50428396 43.0992795,7.52510028 C43.6333333,7.15608367 44.2791218,6.93845849 44.97699,6.93845849 C46.4532133,6.93845849 47.6889229,7.90925604 48.1178704,9.24244682 C48.1746846,9.31246535 48.2324457,9.37396812 48.2921007,9.42695512 C48.6964287,9.15161196 49.1850311,8.98981237 49.7115097,8.98981237 C50.6773517,8.98981237 51.5058927,9.53671391 51.9301056,10.3324651 C52.0408934,10.4233 52.1564157,10.51035 52.2738317,10.5936153 C52.6118764,10.4838565 52.9660185,10.409107 53.3409925,10.409107 C55.257526,10.409107 56.8123423,11.9627616 56.8123423,13.8778632 C56.8123423,14.1229281 56.785829,14.3604234 56.7375369,14.5903491 C56.7488997,14.6291431 56.7574219,14.6698296 56.7668909,14.7095698 C58.3056098,14.9196255 59.4958681,16.2244303 59.4958681,17.8197175 C59.4958681,18.2909234 59.3860272,18.7337433 59.200434,19.1358768 C59.2013809,19.1358768 61.0753038,20.1066743 59.7363817,21.6130191 L59.7363817,21.6130191 Z" id="Path" stroke="#BEBEBE" stroke-width="2.48571429"></path>
                        <path d="M33.9588158,18.2227972 C34.2561437,17.4563781 34.6746752,16.7921482 35.2115697,16.2310537 C35.7484643,15.6680668 36.3961466,15.2299779 37.1546166,14.9148945 C37.9130867,14.5998111 38.7605657,14.4417963 39.6989475,14.4417963 C40.9090907,14.4417963 41.9194372,14.6083268 42.7280932,14.9394956 C43.537696,15.2725567 44.1901128,15.6850984 44.6843967,16.1790129 C45.1777337,16.6729275 45.5318757,17.2056361 45.7449291,17.7761925 C45.9579825,18.3476952 46.0649826,18.8794576 46.0649826,19.3733721 C46.0649826,20.1908858 45.9579825,20.8636315 45.7449291,21.3925553 C45.5309288,21.9205329 45.2676895,22.3718686 44.9523705,22.7465624 C44.6370515,23.1212562 44.287644,23.4401244 43.9041479,23.7050594 C43.5215987,23.9690482 43.1589345,24.233037 42.818049,24.4970258 C42.4771636,24.7610146 42.1741544,25.0637975 41.9109151,25.403482 C41.6467289,25.7441127 41.4800738,26.1708473 41.4128436,26.6817934 L41.4128436,27.6516447 L37.9604319,27.6516447 L37.9604319,26.5020161 C38.0115647,25.7706062 38.1517065,25.1565247 38.3818041,24.6635564 C38.6119018,24.1696418 38.8798756,23.7476382 39.1876194,23.3984917 C39.4953631,23.0493453 39.8182574,22.7475086 40.1591428,22.4910894 C40.4990813,22.2356163 40.8144003,21.9801433 41.1050998,21.7246702 C41.3948524,21.4691972 41.6296846,21.1881769 41.8077025,20.8816092 C41.9866674,20.5750416 42.0671542,20.191832 42.0510569,19.7310343 C42.0510569,18.9485299 41.8588354,18.3694577 41.4762862,17.9938177 C41.0927901,17.6191239 40.5596832,17.431777 39.8779123,17.431777 C39.417717,17.431777 39.0219112,17.5216657 38.688601,17.6995506 C38.3562377,17.8783817 38.0835294,18.1168232 37.870476,18.4158213 C37.6574226,18.712927 37.4992896,19.0630197 37.3979709,19.4623146 C37.2957053,19.8625557 37.2445725,20.293075 37.2445725,20.7519803 L33.4863108,20.7519803 C33.503355,19.8322774 33.661488,18.9892163 33.9588158,18.2227972 L33.9588158,18.2227972 Z M41.616428,29.1825906 L41.616428,33.1168754 L37.6025022,33.1168754 L37.6025022,29.1825906 L41.616428,29.1825906 L41.616428,29.1825906 Z" id="Shape" fill="#59E3DC"></path>
                    </g>
                </g>
            </g>
        </g>
    </g>
</svg>