<?xml version="1.0" encoding="UTF-8"?>
<svg width="80px" height="60px" viewBox="0 0 80 60" version="1.1" xmlns="http://www.w3.org/2000/svg" xmlns:xlink="http://www.w3.org/1999/xlink">
    <!-- Generator: Sketch 48.2 (47327) - http://www.bohemiancoding.com/sketch -->
    <title>Page 1</title>
    <desc>Created with Sketch.</desc>
    <defs>
        <polygon id="path-1" points="0.2964 0.2046 29.875 0.2046 29.875 14.6016 0.2964 14.6016"></polygon>
        <polygon id="path-3" points="0.6377 0.5 43.2367 0.5 43.2367 12.1557 0.6377 12.1557"></polygon>
    </defs>
    <g id="Artboard-5-Copy-9" stroke="none" stroke-width="1" fill="none" fill-rule="evenodd" transform="translate(-369.000000, -146.000000)">
        <g id="Page-1" transform="translate(369.000000, 145.000000)">
            <path d="M27.4795,45.1016 C27.1695,38.2646 21.5975,32.8006 14.7915,32.8006 C7.9875,32.8006 2.4175,38.1756 2.1035,44.9026 L0.0005,44.9026 C0.3165,37.0196 6.8275,30.7046 14.7865,30.7046 C22.8125,30.7046 29.3655,37.1256 29.5785,45.1016 L27.4795,45.1016 Z" id="Fill-1" fill="#4B4B4B"></path>
            <path d="M14.791,17.8975 C12.145,17.8975 9.992,20.0505 9.992,22.6965 C9.992,25.3435 12.145,27.4965 14.791,27.4965 C17.437,27.4965 19.59,25.3435 19.59,22.6965 C19.645,21.4805 19.196,20.2945 18.326,19.3855 C17.421,18.4395 16.133,17.8975 14.791,17.8975 M14.791,29.6985 C10.986,29.6985 7.891,26.6035 7.891,22.7985 C7.891,19.0585 11.051,15.8985 14.791,15.8985 C18.531,15.8985 21.691,19.0585 21.691,22.7985 C21.691,26.6035 18.596,29.6985 14.791,29.6985" id="Fill-3" fill="#4B4B4B"></path>
            <g id="Group-7" transform="translate(50.000000, 30.500000)">
                <mask id="mask-2" fill="white">
                    <use xlink:href="#path-1"></use>
                </mask>
                <g id="Clip-6"></g>
                <path d="M27.7764,14.6016 C27.4664,7.7646 21.8934,2.3006 15.0874,2.3006 C8.2834,2.3006 2.7134,7.6756 2.3984,14.4026 L0.2964,14.4026 C0.6124,6.5196 7.1234,0.2046 15.0824,0.2046 C23.1084,0.2046 29.6624,6.6256 29.8754,14.6016 L27.7764,14.6016 Z" id="Fill-5" fill="#4B4B4B" mask="url(#mask-2)"></path>
            </g>
            <path d="M65.0918,17.8975 C62.4458,17.8975 60.2928,20.0505 60.2928,22.6965 C60.2928,25.3435 62.4458,27.4965 65.0918,27.4965 C67.7378,27.4965 69.8908,25.3435 69.8908,22.6965 C69.9458,21.4805 69.4958,20.2955 68.6258,19.3855 C67.7208,18.4395 66.4328,17.8975 65.0918,17.8975 M65.0918,29.6985 C61.2868,29.6985 58.1918,26.6035 58.1918,22.7985 C58.1918,19.0585 61.3518,15.8985 65.0918,15.8985 C68.8968,15.8985 71.9918,18.9945 71.9918,22.7985 C71.9918,26.6035 68.8968,29.6985 65.0918,29.6985" id="Fill-8" fill="#4B4B4B"></path>
            <g id="Group-12" transform="translate(16.000000, 0.500000)">
                <mask id="mask-4" fill="white">
                    <use xlink:href="#path-3"></use>
                </mask>
                <g id="Clip-11"></g>
                <path d="M0.6377,10.8237 C6.3047,4.2547 14.4547,0.4997 23.0917,0.4997 C30.5617,0.4997 37.6917,3.2737 43.2367,8.3227 L41.7657,9.8567 C36.5787,5.1727 29.9717,2.6007 23.0917,2.6007 C15.1147,2.6007 7.5417,6.0757 2.2217,12.1557 L0.6377,10.8237 Z" id="Fill-10" fill="#4B4B4B" mask="url(#mask-4)"></path>
            </g>
            <polygon id="Fill-13" fill="#4B4B4B" points="53.8604 12.0093 51.7334 9.7553 58.7704 10.0233 59.0364 2.9533 61.0874 5.1323 60.9064 12.2783"></polygon>
            <path d="M39.4897,60.5 C32.0197,60.5 24.8897,57.726 19.3447,52.677 L20.8167,51.143 C26.0047,55.829 32.6127,58.402 39.4897,58.402 C47.5507,58.402 55.0867,54.965 60.2617,48.949 L61.8427,50.277 C56.2427,56.781 48.1307,60.5 39.4897,60.5" id="Fill-15" fill="#4B4B4B"></path>
            <polygon id="Fill-17" fill="#4B4B4B" points="17.4009 56.3662 17.6699 49.3152 24.7199 49.4942 26.7819 51.7462 19.7069 51.4762 19.5279 58.5562"></polygon>
        </g>
    </g>
</svg>