<?xml version="1.0" encoding="UTF-8"?>
<svg width="86px" height="66px" viewBox="0 0 86 66" version="1.1" xmlns="http://www.w3.org/2000/svg" xmlns:xlink="http://www.w3.org/1999/xlink">
    <!-- Generator: Sketch 48.2 (47327) - http://www.bohemiancoding.com/sketch -->
    <title>Page 1</title>
    <desc>Created with Sketch.</desc>
    <defs></defs>
    <g id="Artboard-5-Copy-9" stroke="none" stroke-width="1" fill="none" fill-rule="evenodd" transform="translate(-622.000000, -140.000000)">
        <g id="Page-1" transform="translate(622.000000, 140.000000)">
            <path d="M57,20 L28,20 C27.39844,20 27,19.60156 27,19 C27,18.39844 27.39844,18 28,18 L57,18 C57.60156,18 58,18.39844 58,19 C58,19.60156 57.60156,20 57,20 Z" id="Fill-1" fill="#4B4B4B"></path>
            <path d="M51,24 L33,24 C32.39844,24 32,23.60156 32,23 C32,22.39844 32.39844,22 33,22 L51,22 C51.60156,22 52,22.39844 52,23 C52,23.60156 51.60156,24 51,24 Z" id="Fill-2" fill="#4B4B4B"></path>
            <path d="M37,36 L24,36 C23.39844,36 23,35.60156 23,35 C23,34.39844 23.39844,34 24,34 L37,34 C37.60156,34 38,34.39844 38,35 C38,35.60156 37.60156,36 37,36 Z" id="Fill-3" fill="#59E3DC"></path>
            <path d="M32,39 L24,39 C23.39844,39 23,38.60156 23,38 C23,37.39844 23.39844,37 24,37 L32,37 C32.60156,37 33,37.39844 33,38 C33,38.60156 32.60156,39 32,39 Z" id="Fill-4" fill="#59E3DC"></path>
            <path d="M83,65.5 L3,65.5 C1.3008,65.5 0,64.1992 0,62.5 L0,3.5 C0,1.8008 1.3008,0.5 3,0.5 L83,0.5 C84.6992,0.5 86,1.8008 86,3.5 L86,62.5 C86,64.1992 84.6992,65.5 83,65.5 Z M3,2.5 C2.39844,2.5 2,2.89844 2,3.5 L2,62.5 C2,63.10156 2.39844,63.5 3,63.5 L83,63.5 C83.60156,63.5 84,63.10156 84,62.5 L84,3.5 C84,2.89844 83.60156,2.5 83,2.5 L3,2.5 Z" id="Fill-5" fill="#4B4B4B"></path>
            <path d="M84,10 L1,10 C0.39844,10 0,9.60156 0,9 C0,8.39844 0.39844,8 1,8 L84,8 C84.60156,8 85,8.39844 85,9 C85,9.60156 84.60156,10 84,10 Z" id="Fill-6" fill="#4B4B4B"></path>
            <path d="M6.699,5.602 C6.699,7.3325 4.1013,7.3325 4.1013,5.602 C4.1013,3.8676 6.699,3.8676 6.699,5.602" id="Fill-7" fill="#4B4B4B"></path>
            <path d="M11.5,5.602 C11.5,7.3325 8.8984,7.3325 8.8984,5.602 C8.8984,3.8676 11.5,3.8676 11.5,5.602" id="Fill-8" fill="#4B4B4B"></path>
            <path d="M16.199,5.602 C16.199,7.3325 13.6013,7.3325 13.6013,5.602 C13.6013,3.8676 16.199,3.8676 16.199,5.602" id="Fill-9" fill="#4B4B4B"></path>
            <path d="M16.898,41.199 C14.2964,41.199 12.1988,39.0974 12.1988,36.4998 C12.1988,33.8982 14.3004,31.8006 16.898,31.8006 C19.4996,31.8006 21.5972,33.9022 21.5972,36.4998 C21.60111,39.1014 19.4995,41.199 16.898,41.199 Z M16.898,33.8006 C15.398,33.8006 14.1988,34.9998 14.1988,36.4998 C14.1988,37.9998 15.398,39.199 16.898,39.199 C18.398,39.199 19.5972,37.9998 19.5972,36.4998 C19.60111,34.9998 18.398,33.8006 16.898,33.8006 Z" id="Fill-10" fill="#4B4B4B"></path>
            <path d="M72,36 L59,36 C58.39844,36 58,35.60156 58,35 C58,34.39844 58.39844,34 59,34 L72,34 C72.60156,34 73,34.39844 73,35 C73,35.60156 72.60156,36 72,36 Z" id="Fill-11" fill="#E56566"></path>
            <path d="M66,39 L59,39 C58.39844,39 58,38.60156 58,38 C58,37.39844 58.39844,37 59,37 L66,37 C66.60156,37 67,37.39844 67,38 C67,38.60156 66.60156,39 66,39 Z" id="Fill-12" fill="#E56566"></path>
            <path d="M51.602,41.199 C49.0004,41.199 46.9028,39.0974 46.9028,36.4998 C46.9028,33.8982 49.0044,31.8006 51.602,31.8006 C54.2036,31.8006 56.3012,33.9022 56.3012,36.4998 C56.19964,39.1014 54.1996,41.199 51.602,41.199 Z M51.602,33.8006 C50.102,33.8006 48.9028,34.9998 48.9028,36.4998 C48.9028,37.9998 50.102,39.199 51.602,39.199 C53.102,39.199 54.3012,37.9998 54.3012,36.4998 C54.3012,34.9998 53.0004,33.8006 51.602,33.8006 Z" id="Fill-13" fill="#4B4B4B"></path>
            <path d="M37,49 L24,49 C23.39844,49 23,48.60156 23,48 C23,47.39844 23.39844,47 24,47 L37,47 C37.60156,47 38,47.39844 38,48 C38,48.60156 37.60156,49 37,49 Z" id="Fill-14" fill="#E56566"></path>
            <path d="M32,52 L24,52 C23.39844,52 23,51.60156 23,51 C23,50.39844 23.39844,50 24,50 L32,50 C32.60156,50 33,50.39844 33,51 C33,51.60156 32.60156,52 32,52 Z" id="Fill-15" fill="#E56566"></path>
            <path d="M16.898,54.301 C14.2964,54.301 12.1988,52.1994 12.1988,49.6018 C12.1988,47.0002 14.3004,44.9026 16.898,44.9026 C19.4996,44.9026 21.5972,47.0042 21.5972,49.6018 C21.60111,52.1995 19.4995,54.301 16.898,54.301 Z M16.898,46.8987 C15.398,46.8987 14.1988,48.0979 14.1988,49.5979 C14.1988,51.0979 15.398,52.2971 16.898,52.2971 C18.398,52.2971 19.5972,51.0979 19.5972,49.5979 C19.60111,48.1018 18.398,46.8987 16.898,46.8987 Z" id="Fill-16" fill="#4B4B4B"></path>
            <path d="M72,49 L59,49 C58.39844,49 58,48.60156 58,48 C58,47.39844 58.39844,47 59,47 L72,47 C72.60156,47 73,47.39844 73,48 C73,48.60156 72.60156,49 72,49 Z" id="Fill-17" fill="#59E3DC"></path>
            <path d="M66,52 L59,52 C58.39844,52 58,51.60156 58,51 C58,50.39844 58.39844,50 59,50 L66,50 C66.60156,50 67,50.39844 67,51 C67,51.60156 66.60156,52 66,52 Z" id="Fill-18" fill="#59E3DC"></path>
            <path d="M51.602,54.301 C49.0004,54.301 46.9028,52.1994 46.9028,49.6018 C46.9028,47.0002 49.0044,44.9026 51.602,44.9026 C54.2036,44.9026 56.3012,47.0042 56.3012,49.6018 C56.3012,52.1995 54.1996,54.301 51.602,54.301 Z M51.602,46.8987 C50.102,46.8987 48.9028,48.0979 48.9028,49.5979 C48.9028,51.0979 50.102,52.2971 51.602,52.2971 C53.102,52.2971 54.3012,51.0979 54.3012,49.5979 C54.3012,48.1018 53.0004,46.8987 51.602,46.8987 Z" id="Fill-19" fill="#4B4B4B"></path>
        </g>
    </g>
</svg>