<?xml version="1.0" encoding="UTF-8"?>
<svg width="81px" height="81px" viewBox="0 0 81 81" version="1.1" xmlns="http://www.w3.org/2000/svg" xmlns:xlink="http://www.w3.org/1999/xlink">
    <!-- Generator: Sketch 48.2 (47327) - http://www.bohemiancoding.com/sketch -->
    <title>Page 1</title>
    <desc>Created with Sketch.</desc>
    <defs></defs>
    <g id="Artboard-5-Copy-9" stroke="none" stroke-width="1" fill="none" fill-rule="evenodd" transform="translate(-369.000000, -435.000000)">
        <g id="Page-1" transform="translate(369.000000, 435.000000)" fill="#4B4B4B">
            <path d="M27,44 C21.4841648,44 17,48.4870364 17,54 C17,59.5158352 21.4870364,64 27,64 C32.5129636,64 37,59.5129636 37,54 C36.9967919,48.4873646 32.5129636,44 27,44 Z M27,62.4419101 C22.3463243,62.4419101 18.554808,58.6535937 18.554808,53.9967181 C18.554808,49.3430423 22.3431244,45.554808 27,45.554808 C31.6536757,45.554808 35.4419101,49.3399245 35.4419101,53.9967181 C35.4419101,58.6535117 31.6535937,62.4419101 27,62.4419101 Z" id="Fill-1"></path>
            <path d="M53.3549588,49.9063657 L46.0411227,48.7112688 C45.6088412,47.1538512 44.9890004,45.6600615 44.1975897,44.2552042 L48.4600273,38.1750023 C48.676164,37.8667001 48.6412071,37.4503364 48.3742057,37.1865738 L43.7367309,32.555736 C43.4697376,32.2823967 43.0469846,32.2506153 42.7386388,32.4731012 L36.7470754,36.782952 C35.3326098,35.9756513 33.829206,35.3463622 32.2589971,34.9172403 L30.9844075,27.6388496 C30.9208327,27.2669847 30.5998011,27 30.2247395,27 L23.6642327,27 C23.2859894,27 22.9617763,27.2733394 22.901383,27.6483856 L21.7189864,34.8949625 C20.145604,35.3240355 18.6389455,35.9406723 17.2213878,36.7415532 L11.2456916,32.4762094 C10.9373702,32.2537235 10.5146254,32.2855048 10.250773,32.5588442 L5.61329572,37.189682 C5.34630242,37.4566585 5.31133746,37.869849 5.52429253,38.1781104 L9.729529,44.188338 C8.91582272,45.6154081 8.28650229,47.131492 7.85100425,48.7111224 L0.63570806,49.9093925 C0.273356519,49.9666006 0,50.2907935 0,50.669013 L0,57.2259356 C0,57.6009819 0.266993336,57.9188119 0.638889652,57.985556 L7.85101239,59.2600657 C8.28647788,60.8365228 8.91583086,62.35578 9.72953714,63.7860233 L5.47344403,69.7390509 C5.25412578,70.0473531 5.28590914,70.46689 5.55608404,70.7339073 L10.1935613,75.3710924 C10.4573811,75.6380689 10.8705893,75.6730317 11.1820517,75.46009 L17.2021762,71.2424256 C18.6229887,72.0465448 20.1328207,72.6694956 21.7029483,73.1017915 L22.9108139,80.3547958 C22.9680256,80.7266606 23.2922387,81 23.6673085,81 L30.2278153,81 C30.6028851,81 30.9239166,80.7330234 30.9874834,80.3643318 L32.2779401,73.0795941 C33.8481491,72.6441584 35.3515528,72.0116716 36.7596716,71.2043628 L42.8243058,75.4633601 C43.1294456,75.6763099 43.5458354,75.6413472 43.8127962,75.3743706 L48.4470975,70.7371863 C48.7140908,70.4670283 48.7490558,70.04431 48.5265559,69.7391567 L44.2037413,63.7321024 C45.0015559,62.3240719 45.618207,60.8239356 46.0441008,59.266518 L53.3611104,57.9856618 C53.729817,57.9220909 54,57.6010795 54,57.2260414 L54,50.6691188 C54,50.2908992 53.7266435,49.9667064 53.3547553,49.9063169 L53.3549588,49.9063657 Z M52.4554065,56.5776883 L45.2877934,57.8331584 C44.9858351,57.8840119 44.744262,58.109671 44.6711586,58.4084371 C44.2388772,60.1564941 43.5491391,61.8283117 42.6210257,63.3793828 C42.4621007,63.6431861 42.4748108,63.9800882 42.6559906,64.2280253 L46.8897858,70.1079867 L43.1772509,73.8234622 L37.2365441,69.6534788 C36.9854425,69.4818464 36.6516927,69.4627743 36.3910219,69.6248707 C34.8462819,70.5656189 33.1711862,71.2680476 31.4102444,71.7130357 C31.1146412,71.7861426 30.8921414,72.0276924 30.8381113,72.3264585 L29.5730421,79.4554638 L24.3157673,79.4554638 L23.1365441,72.3550178 C23.0856875,72.0498971 22.8600142,71.8051658 22.5580478,71.732067 C20.7939326,71.2998127 19.1093165,70.6037712 17.5518827,69.6692881 C17.2880629,69.5103731 16.9574947,69.5294371 16.709534,69.6978963 L10.8133369,73.8265452 L7.09762616,70.1078972 L11.2678733,64.2787892 C11.4458715,64.0277033 11.4617632,63.6939745 11.3028382,63.4301467 C10.3556027,61.8600361 9.65321149,60.169179 9.21454243,58.4020011 C9.14143093,58.1064164 8.89986594,57.8839305 8.59790768,57.8267224 L1.53835072,56.5744255 L1.53835072,51.3206532 L8.60108114,50.1478505 C8.9030394,50.096997 9.14779411,49.8713379 9.22407093,49.5725718 C9.66588903,47.8053938 10.3683047,46.1145368 11.3123667,44.5475994 C11.4712917,44.2869775 11.4617551,43.95643 11.2837568,43.7053034 L7.16754143,37.8158223 L10.8832506,34.10352 L16.7317644,38.2766766 C16.9796926,38.4578451 17.3134342,38.4705544 17.5772866,38.3148126 C19.1316283,37.3835842 20.8162444,36.6906753 22.5866252,36.2616349 C22.88541,36.1853547 23.1142649,35.9406234 23.1651215,35.6355027 L24.3221305,28.5414049 L29.5762319,28.5414049 L30.8254337,35.6704085 C30.8762904,35.9723479 31.1019637,36.2139058 31.4007485,36.2870046 C33.1585168,36.7224404 34.8399594,37.4248202 36.3910463,38.3656498 C36.6548662,38.5277462 36.9917894,38.5118556 37.2429154,38.3306871 L43.11047,34.1098502 L46.8230049,37.8189792 L42.6464133,43.7720069 C42.4715967,44.0230928 42.4588784,44.350467 42.6178034,44.6143028 C43.5427433,46.1557728 44.2356956,47.8275904 44.6742833,49.578902 C44.7505682,49.8776762 44.9953148,50.1033273 45.2972731,50.1541807 L52.4553658,51.3238102 L52.4554065,56.5776883 Z" id="Fill-2"></path>
            <path d="M63.3972905,12.5833057 C62.4731042,12.1964813 61.496727,12 60.5019572,12 C57.468444,12 54.7512197,13.8051912 53.5814064,16.5989189 C51.9848701,20.418043 53.7901854,24.8236243 57.6035585,26.4166943 C58.5277449,26.8035187 59.5010566,27 60.4958264,27 C63.5293396,27 66.2465639,25.1948088 67.4163772,22.398016 C69.0160575,18.5850222 67.2137369,14.1827417 63.3972905,12.5833843 L63.3972905,12.5833057 Z M66.0469968,21.8242121 C65.1105488,24.065356 62.9337039,25.5113008 60.5019572,25.5113008 C59.7067545,25.5113008 58.9268789,25.3547288 58.1869325,25.0446578 C55.1288958,23.7644646 53.6827226,20.2369973 54.9630485,17.1791202 C55.8994965,14.9379764 58.0763414,13.4920315 60.5080881,13.4920315 C61.3032908,13.4920315 62.0831664,13.6486035 62.8261783,13.9586745 C65.878084,15.2419329 67.3242573,18.7694002 66.0469968,21.8242121 Z" id="Fill-3"></path>
            <path d="M75.9936486,21.7931902 C76.1284187,20.6458578 76.1315559,19.4860064 76.0061893,18.3324145 L80.6447124,15.4108377 C80.9581248,15.210213 81.0834914,14.8183689 80.942455,14.4766489 L79.0651256,9.89678881 C78.9240893,9.55196314 78.5542559,9.34507095 78.1875195,9.44538329 L72.8782351,10.6773793 C72.169916,9.76830877 71.348803,8.94069185 70.4273086,8.20094854 L71.6339568,2.87813511 C71.7154431,2.51449887 71.5273973,2.15087065 71.1857744,2.00670176 L66.6224311,0.0945078342 C66.2682675,-0.0590904187 65.8796352,0.0788350344 65.6821617,0.39230708 L62.8144164,4.99415568 C61.6579148,4.85309245 60.4888966,4.84368717 59.3291856,4.96907759 L56.4802152,0.360969505 C56.2827658,0.0443596899 55.8909883,-0.0841283784 55.5462041,0.0568947197 L50.9703443,1.92519196 C50.6255842,2.06625519 50.4344012,2.42989143 50.5127583,2.79036582 L51.6630016,8.09127104 C50.7447165,8.80913021 49.9078696,9.63672306 49.1681867,10.5614423 L43.9121781,9.31692732 C43.5454819,9.2228825 43.1787857,9.42037743 43.034572,9.76206533 L41.1290001,14.323147 C40.9848265,14.6648349 41.1070639,15.056679 41.4173392,15.2573357 L45.9681658,18.1977713 C45.8302586,19.3513631 45.8239923,20.529993 45.9587623,21.7055734 L41.3609182,24.5425668 C41.0443686,24.7400537 40.9158649,25.1350355 41.0569013,25.4798853 L42.9311014,30.0660049 C43.0690087,30.4076928 43.4357049,30.5926447 43.7992399,30.5205482 L49.1053951,29.3638266 C49.8293841,30.2791566 50.6536823,31.1067735 51.5688383,31.8339978 L50.32456,37.1191741 C50.2367994,37.4828023 50.4279904,37.8527061 50.7727425,37.9969472 L55.3329566,39.8997519 C55.6714503,40.0502204 56.066349,39.9216922 56.2669676,39.6113499 L59.2256188,35.0157608 C60.3821204,35.1536942 61.5573969,35.1505565 62.7076402,35.012623 L65.6255322,39.6426393 C65.7697057,39.8714798 66.0141645,40 66.2680348,40 C66.3651909,40 66.462355,39.9811975 66.556382,39.9435763 L71.1291127,38.0626798 C71.4738728,37.9184788 71.6650558,37.5485751 71.5804323,37.1849068 L70.3455415,31.8620933 C71.2544391,31.1442341 72.0755601,30.3260305 72.796468,29.4232195 L78.1496408,30.633227 C78.5069335,30.7053316 78.8767669,30.5235094 79.0209084,30.1849593 L80.9264803,25.6238776 C81.0706538,25.279052 80.9452873,24.8809404 80.6287377,24.6834294 L75.9936486,21.7931902 Z M77.8647196,29.0156785 L72.6619868,27.8369684 C72.3642442,27.7711395 72.0633644,27.8808571 71.8847141,28.1253704 C71.082368,29.2037682 70.1264529,30.1535254 69.0451311,30.9528944 C68.8006643,31.1347085 68.6878384,31.441921 68.756784,31.7397203 L69.9540448,36.9089355 L66.5723166,38.2976595 L63.7327336,33.7929935 C63.5948344,33.5672907 63.3472304,33.4356328 63.0870937,33.4356328 C63.0494878,33.4356328 63.0118738,33.4387706 62.9711307,33.4450381 C61.6516726,33.6519303 60.2851167,33.6488005 58.953142,33.4513056 C58.6616657,33.4042872 58.360786,33.5390829 58.2009426,33.7898637 L55.326939,38.2537628 L51.9514691,36.8431306 L53.1581173,31.7084228 C53.2270709,31.4106236 53.114245,31.103411 52.8729074,30.9215969 C51.7853273,30.1128387 50.826283,29.1504823 50.023937,28.0626953 C49.8452866,27.8213197 49.5381405,27.6990671 49.2498014,27.7711636 L44.094086,28.8965075 L42.7056261,25.5015367 L47.1718053,22.7429474 C47.4319419,22.5830736 47.5698412,22.2852744 47.5259689,21.9843373 C47.3222452,20.6238613 47.3285195,19.2633852 47.5353724,17.9342066 C47.5823898,17.6395371 47.4476198,17.3417379 47.1968866,17.1787263 L42.7745958,14.3229544 L44.1849597,10.9468423 L49.2905285,12.1537201 C49.5851419,12.2289544 49.8954252,12.1129692 50.0772047,11.8684559 C50.9014548,10.7681499 51.8699668,9.80892323 52.9543375,9.0189435 C53.1988043,8.84025914 53.3147674,8.53619238 53.2489509,8.24152288 L52.1332085,3.08795642 L55.5212752,1.70549189 L58.2918564,6.18190994 C58.4485626,6.4389583 58.7557168,6.58942681 59.047193,6.53300312 C60.3760386,6.34491348 61.7457236,6.34805125 63.0776983,6.56121898 C63.3911107,6.60196986 63.682595,6.46717416 63.8424303,6.21326356 L66.6318667,1.74310501 L70.0073366,3.15686698 L68.8351892,8.32608216 C68.7662356,8.62075167 68.8790695,8.92481843 69.117262,9.10664056 C70.2173587,9.93417723 71.1701447,10.8966139 71.9473773,11.9718017 C72.1260277,12.2194448 72.4363109,12.3385677 72.7371907,12.2664712 L77.8991644,11.0689826 L79.2876242,14.4545642 L74.7775568,17.2946874 C74.5236864,17.4545612 74.3857872,17.7492307 74.4296675,18.0501677 C74.6208505,19.382476 74.6145842,20.7303529 74.4139977,22.053272 C74.3669882,22.354209 74.5048875,22.655146 74.7650241,22.8150198 L79.2719624,25.6362843 L77.8647196,29.0156785 Z" id="Fill-4"></path>
        </g>
    </g>
</svg>