<?xml version="1.0" encoding="UTF-8"?>
<svg width="100px" height="90px" viewBox="0 0 100 90" version="1.1" xmlns="http://www.w3.org/2000/svg" xmlns:xlink="http://www.w3.org/1999/xlink">
    <!-- Generator: Sketch 49.3 (51167) - http://www.bohemiancoding.com/sketch -->
    <title>Group</title>
    <desc>Created with Sketch.</desc>
    <defs></defs>
    <g id="Dashboard" stroke="none" stroke-width="1" fill="none" fill-rule="evenodd">
        <g id="Artboard-6" transform="translate(-360.000000, -123.000000)" fill-rule="nonzero">
            <g id="Group" transform="translate(360.000000, 123.000000)">
                <g id="np_interview_2554565_000000">
                    <path d="M7.582,80.848 C7.07419,80.848 6.58981,80.63316 6.2461,80.25816 C5.90626,79.88316 5.73438,79.37925 5.78126,78.87536 L7.84376,56.44936 C2.79686,50.47276 0.13286,43.51136 0.13286,36.26136 C0.13286,16.58536 19.78886,0.57736 43.94886,0.57736 C68.10886,0.57736 87.76886,16.58536 87.76886,36.26136 C87.76886,55.93736 68.10886,71.94936 43.94886,71.94936 C39.53866,71.94936 35.14026,71.39858 30.86286,70.30876 L8.34286,80.67976 C8.10458,80.78913 7.84677,80.84773 7.58114,80.84773 L7.582,80.848 Z M43.949,4.196 C21.781,4.196 3.75,18.583 3.75,36.262 C3.75,42.8636 6.2773,49.219 11.0703,54.657 C11.39843,55.02809 11.55858,55.52028 11.51171,56.0164 L9.66791,76.0824 L29.92991,66.7426 C30.31663,66.56682 30.75413,66.53166 31.16431,66.64104 C35.33621,67.76214 39.63311,68.33244 43.94931,68.33244 C66.11731,68.33244 84.15231,53.94544 84.15231,36.26644 C84.15231,18.58244 66.11731,4.19644 43.94931,4.19644 L43.949,4.196 Z" id="Shape" fill="#4B4B4B"></path>
                    <path d="M93.43,89.406 C93.16828,89.406 92.91047,89.347406 92.67609,89.23803 L74.37109,80.80053 C70.88279,81.68334 67.30079,82.12863 63.70309,82.12863 C52.54709,82.12863 42.18309,78.02703 35.28509,70.87463 C34.58978,70.15588 34.60931,69.01133 35.328059,68.31993 C36.046809,67.62462 37.191359,67.64806 37.886659,68.366806 C44.109359,74.816006 53.519659,78.511806 63.702659,78.511806 C67.206559,78.511806 70.690959,78.050866 74.073659,77.144606 C74.483819,77.035226 74.921319,77.070387 75.308059,77.250076 L91.359059,84.656276 L89.874659,68.804276 C89.83169,68.308186 89.991849,67.815996 90.319969,67.444876 C94.183269,63.062076 96.226169,57.937076 96.226169,52.628876 C96.226169,45.105476 92.105069,37.964876 84.925169,33.030876 C84.393919,32.663686 84.097049,32.042596 84.147829,31.398076 C84.19861,30.753546 84.589239,30.183276 85.171229,29.905876 C85.753219,29.628476 86.440729,29.683216 86.975929,30.050406 C95.159529,35.659806 99.850929,43.890406 99.850929,52.624406 C99.850929,58.585306 97.679029,64.315406 93.557929,69.233406 L95.229829,87.428406 C95.276704,87.936216 95.108739,88.436206 94.764989,88.811206 C94.425149,89.190116 93.940769,89.401046 93.432989,89.404956 L93.43,89.406 Z" id="Shape" fill="#4B4B4B"></path>
                    <path d="M29.945,36.875 C29.945,43.9961 19.265,43.9961 19.265,36.875 C19.265,29.7539 29.945,29.7539 29.945,36.875" id="Shape" fill="#59E3DC"></path>
                    <path d="M68.633,36.875 C68.633,43.9961 57.953,43.9961 57.953,36.875 C57.953,29.7539 68.633,29.7539 68.633,36.875" id="Shape" fill="#59E3DC"></path>
                    <path d="M49.289,36.875 C49.289,43.9961 38.605,43.9961 38.605,36.875 C38.605,29.7539 49.289,29.7539 49.289,36.875" id="Shape" fill="#59E3DC"></path>
                </g>
            </g>
        </g>
    </g>
</svg>