<?xml version="1.0" encoding="UTF-8"?>
<svg width="87px" height="74px" viewBox="0 0 87 74" version="1.1" xmlns="http://www.w3.org/2000/svg" xmlns:xlink="http://www.w3.org/1999/xlink">
    <!-- Generator: Sketch 49.3 (51167) - http://www.bohemiancoding.com/sketch -->
    <title>np_web-design_1969654_000000</title>
    <desc>Created with Sketch.</desc>
    <defs></defs>
    <g id="Dashboard" stroke="none" stroke-width="1" fill="none" fill-rule="evenodd">
        <g id="Artboard-6" transform="translate(-136.000000, -139.000000)" fill-rule="nonzero">
            <g id="np_web-design_1969654_000000" transform="translate(136.000000, 139.000000)">
                <path d="M80.2194765,0 L6.78160012,0 C3.04205717,0 0,3.0316306 0,6.75835636 L0,56.3618988 C0,60.0886245 3.04205717,63.1202551 6.78160012,63.1202551 L35.6320662,63.1202551 C34.2932596,65.0970829 31.9416003,68.2859012 28.9100404,71.3769913 L21.9672129,71.3734988 C21.2382353,71.3734988 20.6494008,71.9602704 20.6494008,72.6902812 C20.6494008,73.4167603 21.2381904,74 21.9672129,74 L65.0293777,74 C65.7583553,74 66.3471898,73.4132285 66.3471898,72.6902812 C66.3471898,71.9603061 65.7584002,71.3734988 65.0293777,71.3734988 L58.0935484,71.3734988 C55.0584894,68.2824981 52.7103292,65.0971669 51.3715226,63.1167627 L80.2183999,63.1167627 C83.9579428,63.1167627 87,60.0851321 87,56.3584063 L87,6.75844041 C87,3.03171465 83.9579428,8.40480377e-05 80.2183999,8.40480377e-05 L80.2194765,0 Z M6.78160012,2.62998828 L80.2221681,2.62998828 C82.507255,2.62998828 84.3647348,4.4845887 84.3647348,6.75486926 L84.3647348,53.0751734 L2.63490636,53.0786668 L2.63490636,6.75836262 C2.63490636,4.48110786 4.49238615,2.62999454 6.78097207,2.62999454 L6.78160012,2.62998828 Z M54.4733335,71.3732359 L32.526846,71.3732359 C35.7196333,67.8141592 37.9170634,64.4891652 38.7756868,63.1164998 L48.2169561,63.1164998 C49.0826136,64.4891652 51.2765985,67.8176463 54.4728849,71.3732359 L54.4733335,71.3732359 Z M80.2185793,60.4863327 L6.78070291,60.4863327 C4.49561608,60.4863327 2.63813629,58.6317323 2.63813629,56.3614517 L2.63813629,55.7048219 L84.3643759,55.7048219 L84.3643759,56.3614517 C84.3643759,58.6352194 82.5068961,60.4863327 80.2183102,60.4863327 L80.2185793,60.4863327 Z" id="Shape" fill="#4B4B4B"></path>
                <path d="M16.1968248,48.1548572 C16.4047444,48.6619429 16.9208316,49 17.5000409,49 C18.0755337,49 18.5952898,48.6689835 18.8032569,48.1548572 L21.9034683,40.5803043 C21.9628739,40.425357 22,40.2598532 22,40.0978653 L21.9962874,9.7890163 C21.9962874,8.2501803 20.6745368,7 19.0482494,7 L15.948038,7 C14.3218456,7 13,8.25360594 13,9.7890163 L13,40.1014712 C13,40.2634592 13.0334154,40.4254381 13.0965317,40.5768607 L16.1968248,48.1548572 Z M17.496334,44.0136124 L16.2747649,41.0239254 L18.7215148,41.0239254 L17.496334,44.0136124 Z M15.9480817,9.64447209 L19.2042684,9.78885403 L19.2042684,11.7749171 L15.8516071,11.7749171 L15.9480817,9.64447209 Z M19.2042684,14.4230672 L19.2042684,38.3755409 L15.7959084,38.3755409 L15.7959084,14.4230672 L19.2042684,14.4230672 Z" id="Shape" fill="#4B4B4B"></path>
                <path d="M42.3135018,48.9998664 L73.6892847,48.9998664 C74.4143366,48.9998664 75,48.4154835 75,47.6954791 L75,9.31097906 C75,8.75790565 74.6514218,8.26046996 74.1285457,8.07613887 C73.6056695,7.89178107 73.023522,8.04831111 72.6714814,8.47963695 L41.2956985,46.8676989 C40.974998,47.2607694 40.9087751,47.7999512 41.1283788,48.259087 C41.3445023,48.7112859 41.8081161,49 42.3135375,49 L42.3135018,48.9998664 Z M47.7514354,43.1142728 L48.298709,43.5908265 C48.5461993,43.8064939 48.8564412,43.9108502 49.1597047,43.9108502 C49.5257198,43.9108502 49.8882458,43.7612749 50.1462215,43.4621242 C50.623783,42.9194784 50.5645206,42.0915736 50.0207362,41.6150733 L49.4107199,41.082864 L52.610675,37.1661401 L53.164918,37.6531304 C53.4124083,37.8687978 53.7226502,37.9731452 54.0259138,37.9731452 C54.3919289,37.9731452 54.7544548,37.8200969 55.0124305,37.5244192 C55.489992,36.9817734 55.4307296,36.1538686 54.8869452,35.6773683 L54.2664704,35.1347225 L57.4664254,31.2249444 L58.0276468,31.7154075 C58.2751371,31.9310749 58.585379,32.0354312 58.8886426,32.0354312 C59.2546577,32.0354312 59.6171836,31.8823741 59.8751593,31.5867053 C60.3527208,31.0405866 60.2934584,30.2161546 59.749674,29.7361814 L59.12571,29.1935445 L62.325665,25.2768206 L62.8938558,25.7742385 C63.1413462,25.9899059 63.451588,26.0942622 63.7548516,26.0942622 C64.1208667,26.0942622 64.4833926,25.9446869 64.7448486,25.6455362 C65.2224101,25.1028993 65.1631477,24.2749856 64.6193633,23.7984853 L63.9849407,23.2454119 L67.1848957,19.3356338 L67.7600559,19.8365335 C68.0075463,20.0522008 68.314299,20.1565572 68.6210517,20.1565572 C68.9870668,20.1565572 69.3495927,20.0035 69.6110487,19.7078312 C70.0886102,19.1651854 70.0293478,18.3372806 69.4855634,17.8607803 L68.8441713,17.3007432 L72.3858155,12.9700313 L72.3858155,46.37403 L45.0747848,46.391423 L47.7514354,43.1142728 Z" id="Shape" fill="#4B4B4B"></path>
                <path d="M68.0996362,25.0735525 C67.5630411,24.8927207 66.9580014,25.0530813 66.5942972,25.4693334 L53.3054954,40.9050658 C52.9741697,41.2872032 52.9057527,41.8160814 53.1326322,42.2664359 C53.3595117,42.7099861 53.8348902,43 54.3570569,43 L67.6458587,43 C68.3949327,43 69,42.4267938 69,41.7136599 L69,26.2814213 C68.9963989,25.7423324 68.6362681,25.2544105 68.0996731,25.0736049 L68.0996362,25.0735525 Z M66.2882141,40.4341676 L57.2092538,40.4341676 L66.2882141,29.8880476 L66.2882141,40.4341676 Z" id="Shape" fill="#4B4B4B"></path>
                <polygon id="Shape" fill="#59E3DC" points="27 7 32 7 32 10 27 10"></polygon>
                <polygon id="Shape" fill="#59E3DC" points="35 7 40 7 40 10 35 10"></polygon>
                <polygon id="Shape" fill="#59E3DC" points="43 7 48 7 48 10 43 10"></polygon>
                <polygon id="Shape" fill="#59E3DC" points="52 7 57 7 57 10 52 10"></polygon>
                <polygon id="Shape" fill="#59E3DC" points="60 7 65 7 65 10 60 10"></polygon>
                <polygon id="Shape" fill="#E56566" points="23 46 28 46 28 49 23 49"></polygon>
                <polygon id="Shape" fill="#E56566" points="32 46 37 46 37 49 32 49"></polygon>
            </g>
        </g>
    </g>
</svg>