<?xml version="1.0" encoding="UTF-8"?>
<svg width="78px" height="70px" viewBox="0 0 78 70" version="1.1" xmlns="http://www.w3.org/2000/svg" xmlns:xlink="http://www.w3.org/1999/xlink">
    <!-- Generator: Sketch 48.2 (47327) - http://www.bohemiancoding.com/sketch -->
    <title>Page 1</title>
    <desc>Created with Sketch.</desc>
    <defs>
        <polygon id="path-1" points="0 70 78 70 78 0 0 0"></polygon>
    </defs>
    <g id="Artboard-5-Copy-9" stroke="none" stroke-width="1" fill="none" fill-rule="evenodd" transform="translate(-106.000000, -129.000000)">
        <g id="Page-1" transform="translate(106.000000, 129.000000)">
            <path d="M10.8818,13 C10.3958,13 9.9998,12.551 9.9998,12 C9.9998,11.449 10.3958,11 10.8818,11 L24.1178,11 C24.6048,11 24.9998,11.449 24.9998,12 C24.9998,12.551 24.6048,13 24.1178,13 L10.8818,13 Z" id="Fill-1" fill="#4B4B4B"></path>
            <path d="M10.8999,21 C10.4039,21 9.9999,20.551 9.9999,20 C9.9999,19.449 10.4039,19 10.8999,19 L36.0999,19 C36.5959,19 36.9999,19.449 36.9999,20 C36.9999,20.551 36.5959,21 36.0999,21 L10.8999,21 Z" id="Fill-3" fill="#4B4B4B"></path>
            <path d="M10.8999,30 C10.4039,30 9.9999,29.551 9.9999,29 C9.9999,28.449 10.4039,28 10.8999,28 L36.0999,28 C36.5959,28 36.9999,28.449 36.9999,29 C36.9999,29.551 36.5959,30 36.0999,30 L10.8999,30 Z" id="Fill-5" fill="#4B4B4B"></path>
            <mask id="mask-2" fill="white">
                <use xlink:href="#path-1"></use>
            </mask>
            <g id="Clip-8"></g>
            <path d="M11.8,50.272 L35.2,50.272 L35.2,39.727 L11.8,39.727 L11.8,50.272 Z M10.9,52 C10.404,52 10,51.612 10,51.137 L10,38.863 C10,38.388 10.404,38 10.9,38 L36.1,38 C36.596,38 37,38.388 37,38.863 L37,51.137 C37,51.612 36.596,52 36.1,52 L10.9,52 Z" id="Fill-7" fill="#4B4B4B" mask="url(#mask-2)"></path>
            <path d="M46.2617,23.9912 L55.3167,33.4122 L76.2287,33.4122 L76.2287,21.2752 L43.6587,21.2752 L46.2617,23.9912 Z M6.4297,1.7842 C3.8617,1.7842 1.7727,3.8822 1.7727,6.4602 L1.7727,55.3102 C1.7727,57.8892 3.8617,59.9882 6.4297,59.9882 L42.4647,59.9882 C45.0327,59.9882 47.1227,57.8892 47.1227,55.3102 L47.1227,48.5952 L40.4597,41.8962 C40.1997,41.6392 40.1237,41.2592 40.2637,40.9232 C40.3997,40.5872 40.7187,40.3732 41.0787,40.3732 L47.1227,40.3732 L47.1227,27.4512 L40.9307,21.0042 C40.6807,20.7452 40.6107,20.3652 40.7497,20.0322 C40.8887,19.7022 41.2087,19.4902 41.5667,19.4902 L47.1227,19.4902 L47.1227,6.4602 C47.1227,3.8822 45.0327,1.7842 42.4647,1.7842 L6.4297,1.7842 Z M55.5647,54.5542 C55.7327,54.7222 55.8247,54.9472 55.8247,55.1852 L55.8247,68.2162 L76.2287,68.2162 L76.2287,42.1562 L43.2227,42.1562 L55.5647,54.5542 Z M54.9387,70.0002 C54.4497,70.0002 54.0527,69.5992 54.0527,69.1072 L54.0527,55.5562 L48.8947,50.3752 L48.8947,55.3112 C48.8947,58.8742 46.0097,61.7722 42.4647,61.7722 L6.4297,61.7722 C2.8847,61.7722 -0.0003,58.8742 -0.0003,55.3112 L-0.0003,6.4612 C-0.0003,2.8982 2.8847,0.0002 6.4297,0.0002 L42.4647,0.0002 C46.0097,0.0002 48.8947,2.8982 48.8947,6.4612 L48.8947,19.4902 L77.1147,19.4902 C77.6027,19.4902 77.9997,19.8902 77.9997,20.3822 L77.9997,34.3042 C77.9997,34.7952 77.6027,35.1952 77.1147,35.1952 L54.9387,35.1952 C54.6947,35.1952 54.4697,35.1002 54.3037,34.9272 L48.8947,29.2922 L48.8947,40.3732 L77.1147,40.3732 C77.6027,40.3732 77.9997,40.7732 77.9997,41.2642 L77.9997,69.1072 C77.9997,69.5992 77.6027,70.0002 77.1147,70.0002 L54.9387,70.0002 Z" id="Fill-9" fill="#4B4B4B" mask="url(#mask-2)"></path>
            <path d="M60.9004,28 C60.4044,28 60.0004,27.551 60.0004,27 C60.0004,26.449 60.4044,26 60.9004,26 L72.0994,26 C72.5954,26 73.0004,26.449 73.0004,27 C73.0004,27.551 72.5954,28 72.0994,28 L60.9004,28 Z" id="Fill-10" fill="#59E3DC" mask="url(#mask-2)"></path>
            <path d="M60.9004,49 C60.4044,49 60.0004,48.552 60.0004,48 C60.0004,47.448 60.4044,47 60.9004,47 L72.0994,47 C72.5954,47 73.0004,47.448 73.0004,48 C73.0004,48.552 72.5954,49 72.0994,49 L60.9004,49 Z" id="Fill-11" fill="#59E3DC" mask="url(#mask-2)"></path>
            <path d="M60.9004,56 C60.4044,56 60.0004,55.552 60.0004,55 C60.0004,54.448 60.4044,54 60.9004,54 L72.0994,54 C72.5954,54 73.0004,54.448 73.0004,55 C73.0004,55.552 72.5954,56 72.0994,56 L60.9004,56 Z" id="Fill-12" fill="#59E3DC" mask="url(#mask-2)"></path>
            <path d="M60.9004,63 C60.4044,63 60.0004,62.552 60.0004,62 C60.0004,61.448 60.4044,61 60.9004,61 L72.0994,61 C72.5954,61 73.0004,61.448 73.0004,62 C73.0004,62.552 72.5954,63 72.0994,63 L60.9004,63 Z" id="Fill-13" fill="#59E3DC" mask="url(#mask-2)"></path>
        </g>
    </g>
</svg>