<?xml version="1.0" encoding="UTF-8"?>
<svg width="124px" height="97px" viewBox="0 0 124 97" version="1.1" xmlns="http://www.w3.org/2000/svg" xmlns:xlink="http://www.w3.org/1999/xlink">
    <!-- Generator: Sketch 48.2 (47327) - http://www.bohemiancoding.com/sketch -->
    <title>Artboard 5</title>
    <desc>Created with Sketch.</desc>
    <defs></defs>
    <g id="Icons" stroke="none" stroke-width="1" fill="none" fill-rule="evenodd">
        <g id="Artboard-5">
            <rect id="Rectangle-Copy" fill="#FFFFFF" opacity="0" x="0" y="0" width="98" height="97"></rect>
            <g id="Group-2" transform="translate(6.000000, 24.000000)">
                <g id="Page-1">
                    <path d="M54.2631136,29.1085789 C54.1878788,28.7509563 53.97219,28.4588003 53.6862743,28.2774745 C53.6812535,28.2724326 53.6812535,28.2674037 53.6762456,28.2674037 C53.2849959,27.9903732 52.7984539,27.9853313 52.3971755,28.1767408 L48.1938323,29.0380705 C47.5016302,29.1791132 47.0501952,29.8641332 47.195657,30.5592626 C47.3361109,31.2543663 48.0182714,31.7026647 48.7104991,31.5666639 L50.0346536,31.2946624 C49.3123525,32.3675432 48.6402593,33.3950861 48.0182457,34.3420755 C43.1878809,41.686015 40.7651866,45.3731361 34.5956434,45.5040176 C28.3707559,45.3730587 25.9530695,41.686015 21.1229616,34.3521334 C19.8138309,32.3574466 18.3240286,30.0958387 16.5634116,27.6226282 C16.1521044,27.0433708 15.3495476,26.90737 14.7727468,27.3254432 C14.1959075,27.7384745 14.0604744,28.5443955 14.4768024,29.1236142 C16.2123797,31.5564642 17.6820217,33.7929274 18.9811365,35.7723984 C23.9670047,43.3530853 26.971649,47.9267195 34.5956819,48.0879037 C42.1647558,47.9317613 45.1744081,43.3530853 50.1601478,35.7673695 C50.8272716,34.7549263 51.5595501,33.64683 52.3370672,32.4882379 L52.688189,34.2108458 C52.8135805,34.8203284 53.345284,35.2434305 53.9472016,35.2434305 C54.0324652,35.2434305 54.1177417,35.2333468 54.2030182,35.2182342 C54.8952202,35.0771916 55.3466552,34.3921716 55.2011934,33.6970421 L54.2631136,29.1085789 Z" id="Fill-34" fill="#505050"></path>
                    <path d="M98.5090341,28.5141316 C98.3685802,27.8190279 97.6914277,27.3657005 96.994192,27.5117721 L92.4296341,28.4486521 C91.737432,28.5896947 91.285997,29.2747147 91.4314589,29.9698442 C91.5719127,30.6649479 92.2490652,31.1182753 92.9463009,30.9722037 L94.3406952,30.6850895 C93.4629035,31.9846211 92.650318,33.2136184 91.907985,34.3469368 C87.0826282,41.6858474 84.6599339,45.3729684 78.4905191,45.50385 C72.2656316,45.3728911 69.8429373,41.6858474 65.0127009,34.3419079 C63.7787666,32.4681737 62.3792873,30.3374474 60.7491339,28.0305789 C60.3378267,27.4513216 59.5402778,27.3153208 58.9584691,27.7283521 C58.3816298,28.1363545 58.2411887,28.9422755 58.6524959,29.5265232 C60.2626175,31.8032179 61.6469959,33.9086705 62.865855,35.7724758 C67.8517232,43.3581916 70.8613755,47.9318258 78.4855368,48.09301 C86.0545978,47.9368676 89.064263,43.3581916 94.0448535,35.7775047 C94.8173112,34.6038774 95.664991,33.3143521 96.5879956,31.9595021 L96.9290758,33.6167337 C97.0544801,34.2262163 97.5861708,34.6493184 98.1880884,34.6493184 C98.2733649,34.6493184 98.3586285,34.6392476 98.443905,34.624135 C99.136107,34.4831053 99.5875549,33.7980724 99.4420802,33.1029429 L98.5090341,28.5141316 Z" id="Fill-35" fill="#4B4B4B"></path>
                    <path d="M112.658432,32.1813947 C112.658432,32.0605066 112.633354,31.9496892 112.603254,31.8388847 C112.598246,31.8137013 112.598246,31.7885179 112.593226,31.7633345 L112.568147,31.6928132 C112.553098,31.6575589 112.543069,31.6172629 112.52802,31.5870376 L110.942938,27.3912192 C110.692142,26.7263279 109.94977,26.3888597 109.287616,26.6457358 C108.625513,26.8975829 108.289441,27.6430663 108.545258,28.3079963 L109.102026,29.7837989 C107.632384,29.0332866 106.21783,28.1265674 104.893675,27.0235516 C104.346935,26.5702242 103.539345,26.6407326 103.087987,27.1948066 C102.636552,27.7438387 102.711787,28.5548145 103.258527,29.0080645 C104.753337,30.2572421 106.358451,31.2847592 108.028668,32.1260118 L106.594081,32.6750439 C105.931978,32.9268911 105.595906,33.6723745 105.846702,34.3373045 C106.04232,34.8510824 106.528875,35.1684089 107.050537,35.1684089 C107.20102,35.1684089 107.35651,35.1432255 107.506993,35.0878168 L111.860832,33.4305853 C112.096578,33.3399224 112.27716,33.1686674 112.422621,32.9671742 C112.427629,32.9621324 112.427629,32.9571034 112.43265,32.9520616 C112.477799,32.8815403 112.543005,32.8261316 112.573104,32.7505813 C112.593174,32.7102853 112.588154,32.6699892 112.598182,32.6246513 C112.603203,32.6145805 112.613232,32.6045097 112.613232,32.5944389 C112.623261,32.5642137 112.618253,32.5339884 112.623261,32.5037632 C112.643331,32.4030295 112.663388,32.2922121 112.65838,32.1813947 L112.658432,32.1813947 Z" id="Fill-36" fill="#505050"></path>
                    <path d="M59.2235568,24.5 C59.2235568,28.8015553 52.7980943,28.8015553 52.7980943,24.5 C52.7980943,20.1984447 59.2235568,20.1984447 59.2235568,24.5" id="Fill-37" fill="#59E3DC"></path>
                    <path d="M103.719875,24.5 C103.719875,28.8015553 97.2944125,28.8015553 97.2944125,24.5 C97.2944125,20.1984447 103.719875,20.1984447 103.719875,24.5" id="Fill-38" fill="#59E3DC"></path>
                    <path d="M14.7272386,24.5 C14.7272386,28.8015553 8.30177614,28.8015553 8.30177614,24.5 C8.30177614,20.1984447 14.7272386,20.1984447 14.7272386,24.5" id="Fill-39" fill="#59E3DC"></path>
                    <path d="M7.50936364,27.5276842 C5.56319545,29.0438474 3.44637159,30.1972816 1.21436477,30.9629711 C0.547241023,31.1946766 0.186090455,31.9250345 0.41682875,32.5999579 C0.602418409,33.1338774 1.09900205,33.4764003 1.63069273,33.4764003 C1.7661258,33.4764003 1.90656682,33.4512168 2.04199989,33.4058789 C4.54494989,32.5495911 6.91756466,31.2550368 9.07946011,29.5676316 C9.64124989,29.1294168 9.74157591,28.3184539 9.31019841,27.7594026 C8.87381295,27.1952579 8.06623534,27.0945242 7.50951773,27.5276971 L7.50936364,27.5276842 Z" id="Fill-40" fill="#505050"></path>
                    <path d="M15.7249773,21.6141579 C16.1262557,21.6141579 16.5225133,21.4277903 16.7733219,21.0701547 C18.4386594,18.7229258 19.8530856,16.5620258 21.1071288,14.6579889 C25.9374935,7.31404947 28.3551799,3.62692842 34.529731,3.49604684 C40.7546185,3.62700579 43.1823208,7.31907842 48.0126856,14.6631468 C48.6898381,15.6907026 49.4272401,16.80896 50.219781,17.9875389 L48.4391322,17.7457626 C47.7419093,17.6450289 47.0898094,18.1436813 46.9945299,18.8488687 C46.8992247,19.5540432 47.3907875,20.2038476 48.0930311,20.2995266 L52.7026607,20.9241089 C52.7628589,20.9341797 52.8180234,20.9341797 52.8782216,20.9341797 C53.1591165,20.9341797 53.4299826,20.8435168 53.6557001,20.6722618 C53.8964672,20.4858942 54.0519577,20.2138926 54.1171767,19.9217495 C54.1272055,19.8864953 54.1472758,19.85627 54.1522837,19.8210158 L54.7742717,15.1869053 C54.8695769,14.4817179 54.3780141,13.8319263 53.6757705,13.7362474 C52.9735268,13.6405426 52.3264477,14.1341661 52.2311682,14.8393534 L52.0606281,16.1086855 C51.3834756,15.0962424 50.7464894,14.1290855 50.1545235,13.2325145 C45.1686553,5.64679868 42.1539951,1.06310658 34.5297053,0.906951316 C26.9556235,1.06813553 23.9509792,5.64679868 18.9652394,13.2274855 C17.7262972,15.1163066 16.3168019,17.2520618 14.6816406,19.5640882 C14.2703334,20.1433455 14.4057665,20.9492408 14.9826058,21.3622592 C15.2083233,21.5335142 15.4691607,21.6141063 15.7249644,21.6141063 L15.7249773,21.6141579 Z" id="Fill-41" fill="#505050"></path>
                    <path d="M104.071716,22.2692105 C104.36264,22.2692105 104.653563,22.1735058 104.89433,21.9720255 C106.278709,20.8185526 107.758495,19.8716018 109.303385,19.1059124 L108.726545,20.8688808 C108.505836,21.5438429 108.872007,22.2741492 109.54916,22.4958097 C109.684593,22.5361058 109.820026,22.5612892 109.950438,22.5612892 C110.49217,22.5612892 110.993762,22.2137374 111.169323,21.6747761 L112.618933,17.2321524 C112.638991,17.1717147 112.628962,17.1112642 112.638991,17.0558555 C112.65404,16.9752634 112.664069,16.8997132 112.664069,16.8191211 C112.664069,16.7385289 112.649019,16.6680076 112.633983,16.5874155 C112.623941,16.5219361 112.628962,16.4614984 112.608892,16.4010479 C112.593855,16.3657937 112.568764,16.3406103 112.553727,16.310385 C112.543685,16.2902305 112.548706,16.2700889 112.538678,16.2499345 C112.518607,16.2146803 112.488508,16.1945387 112.468451,16.1643134 C112.403244,16.0585379 112.338038,15.967875 112.247741,15.8822411 C112.222663,15.8570576 112.197584,15.841945 112.167485,15.8217905 C112.057131,15.7361695 111.941768,15.6706771 111.816364,15.6203103 C111.806335,15.6152813 111.801314,15.6102395 111.791285,15.6051976 L107.372215,14.1495108 C106.70007,13.9278761 105.972813,14.2955824 105.752077,14.9755734 C105.531368,15.6505355 105.897539,16.3808418 106.574692,16.6025024 L107.773506,16.9953921 C106.193432,17.8164258 104.673582,18.7985921 103.254148,19.9873579 C102.707408,20.4406853 102.63216,21.2516482 103.083608,21.8006158 C103.334404,22.1129134 103.700575,22.2690558 104.071754,22.2690558 L104.071716,22.2692105 Z" id="Fill-42" fill="#505050"></path>
                    <path d="M1.20884318,18.0371579 C3.44097841,18.8027829 5.56268182,19.9613105 7.50384205,21.4724447 C7.7395883,21.6537705 8.01547523,21.7444463 8.28634136,21.7444463 C8.67257023,21.7444463 9.04877034,21.5731913 9.29956614,21.2457811 C9.73595159,20.6816363 9.63563841,19.8706863 9.06882784,19.4375521 C6.90192443,17.7501468 4.53444602,16.4606732 2.03136761,15.5993047 C1.35922307,15.3675992 0.631965341,15.7302637 0.401214205,16.4001839 C0.180504659,17.0751461 0.536647273,17.8054524 1.20879182,18.0371708 L1.20884318,18.0371579 Z" id="Fill-43" fill="#505050"></path>
                    <path d="M59.6704205,21.5483947 C60.0716989,21.5483947 60.4679565,21.3620271 60.7187651,21.0043916 C62.3589344,18.6823074 63.7634731,16.5466811 65.002364,14.66276 C69.8327287,7.31379158 72.2554231,3.62164158 78.4301026,3.49566 C84.6549901,3.62661895 87.0776844,7.31366263 91.9027844,14.6525732 C92.6451559,15.7859045 93.4678344,17.0301047 94.3505185,18.3346653 L92.6601412,18.1029597 C91.9629184,18.0122968 91.3108185,18.5008784 91.215539,19.2060658 C91.1202337,19.9112532 91.6117966,20.5610447 92.3140402,20.6567237 L96.9236698,21.2813189 C96.983868,21.2913897 97.0390325,21.2913897 97.0992307,21.2913897 C97.7312474,21.2913897 98.2829956,20.8229497 98.368272,20.1731711 L98.99026,15.5442184 C99.0855652,14.8390311 98.5889816,14.1892395 97.8917587,14.0935605 C97.1895151,14.0028976 96.542436,14.4914792 96.4471565,15.1966666 L96.2615668,16.5667324 C95.4640308,15.3880761 94.721685,14.259735 94.0394475,13.2220955 C89.0535793,5.64140868 86.043927,1.06777447 78.424902,0.906590263 C70.8558282,1.06273263 67.841168,5.64643763 62.8552998,13.2321534 C61.6263862,15.1008587 60.23691,17.2163692 58.6217805,19.5032508 C58.2104733,20.0825082 58.3459064,20.8884034 58.9227457,21.3014218 C59.153484,21.4726768 59.4143085,21.54824 59.6701251,21.54824 L59.6704205,21.5483947 Z" id="Fill-44" fill="#505050"></path>
                </g>
            </g>
        </g>
    </g>
</svg>