<?xml version="1.0" encoding="UTF-8"?>
<svg width="72px" height="72px" viewBox="0 0 72 72" version="1.1" xmlns="http://www.w3.org/2000/svg" xmlns:xlink="http://www.w3.org/1999/xlink">
    <!-- Generator: Sketch 48.2 (47327) - http://www.bohemiancoding.com/sketch -->
    <title>Page 1</title>
    <desc>Created with Sketch.</desc>
    <defs></defs>
    <g id="Artboard-5-Copy-7" stroke="none" stroke-width="1" fill="none" fill-rule="evenodd" transform="translate(-367.000000, -167.000000)">
        <g id="Group-5" transform="translate(112.000000, 162.000000)">
            <g id="Page-1" transform="translate(255.000000, 5.000000)">
                <path d="M63.8699365,6.96774194 L60.3861013,6.96774194 L60.3861013,3.48387097 C60.3861013,1.56196335 58.824154,0 56.9022662,0 L0,0 L0,72 L40.645112,72 C43.8473418,72 46.451504,69.3958111 46.451504,66.1935484 L46.451504,44.1286606 L44.1289472,44.1286606 L44.1289472,33.6774194 C44.1289472,33.0358074 44.6486202,32.516129 45.2902256,32.516129 L63.8706797,32.516129 C68.3531771,32.516129 72,28.8697146 72,24.3867252 L72,15.0964026 C72,10.6138591 68.353623,6.96699871 63.8706797,6.96699871 L63.8699365,6.96774194 Z M56.9022662,20.9032258 C58.824154,20.9032258 60.3861013,19.3412625 60.3861013,17.4193548 L60.3861013,13.9354839 L63.8699365,13.9354839 C64.5115419,13.9354839 65.0312149,14.4551622 65.0312149,15.0967742 L65.0312149,24.3870968 C65.0312149,25.0287087 64.5115419,25.5483871 63.8699365,25.5483871 L45.2894824,25.5483871 C44.8946477,25.5483871 44.5085087,25.5861281 44.128204,25.6412903 L44.128204,20.9032258 L56.9022662,20.9032258 Z M22.313636,2.32258065 L56.9022662,2.32258065 C57.5438716,2.32258065 58.0635446,2.84225899 58.0635446,3.48387097 L58.0635446,17.4193548 C58.0635446,18.0609668 57.5438716,18.5806452 56.9022662,18.5806452 L17.4188012,18.5806452 C16.7771958,18.5806452 16.2575228,18.0609668 16.2575228,17.4193548 L16.2575228,3.48387097 C16.2575228,2.84225899 16.7771958,2.32258065 17.4188012,2.32258065 L22.313636,2.32258065 Z M2.32154079,2.32258065 L14.1494588,2.32258065 C14.0188159,2.68838895 13.9346241,3.07450219 13.9346241,3.48387097 L13.9346241,40.6451613 C13.9346241,43.2057972 16.0191281,45.2903226 18.5797377,45.2903226 C21.1403472,45.2903226 23.2248512,43.2057972 23.2248512,40.6451613 L23.2248512,31.3548387 C23.2248512,30.7132267 23.7445242,30.1935484 24.3861296,30.1935484 C25.027735,30.1935484 25.547408,30.7132267 25.547408,31.3548387 L25.547408,33.6774194 C25.547408,36.2380552 27.631912,38.3225806 30.1925215,38.3225806 C32.753131,38.3225806 34.837635,36.2380552 34.837635,33.6774194 L34.837635,20.9028542 L41.8053053,20.9028542 L41.8053053,26.3434901 C39.0646883,27.6499324 37.1601918,30.4428263 37.1601918,33.6770477 L37.1601918,44.128289 L34.837635,44.128289 L34.837635,66.1931768 C34.837635,67.5054163 35.2905373,68.7044625 36.0279732,69.6770477 L2.32154079,69.6770477 L2.32154079,2.32258065 Z M44.1279067,66.1939222 C44.1279067,68.1158298 42.5659594,69.6777932 40.6440715,69.6777932 C38.7221837,69.6777932 37.1602364,68.1158298 37.1602364,66.1939222 L37.1602364,46.4523561 L44.1279067,46.4523561 L44.1279067,66.1939222 Z M69.6760311,24.3874684 C69.6760311,27.5897311 67.071869,30.19392 63.8696392,30.19392 L45.2891851,30.19392 C43.3672972,30.19392 41.8053499,31.7558834 41.8053499,33.677791 L41.8053499,44.1290323 L39.4827932,44.1290323 L39.4827932,33.677791 C39.4827932,30.4755283 42.0869553,27.8713394 45.2891851,27.8713394 L63.8696392,27.8713394 C65.7915271,27.8713394 67.3534744,26.309376 67.3534744,24.3874684 L67.3534744,15.0971458 C67.3534744,13.1752382 65.7915271,11.6132748 63.8696392,11.6132748 L60.3858041,11.6132748 L60.3858041,9.29069419 L63.8696392,9.29069419 C67.071869,9.29069419 69.6760311,11.8948831 69.6760311,15.0971458 L69.6760311,24.3874684 Z" id="Fill-1" fill="#000000"></path>
                <path d="M24.3865458,27.8709677 C22.4646579,27.8709677 20.9027106,29.4329311 20.9027106,31.3548387 L20.9027106,40.6451613 C20.9027106,41.9255164 19.8604958,42.9677419 18.5801539,42.9677419 C17.2998119,42.9677419 16.2575971,41.9255164 16.2575971,40.6451613 L16.2575971,20.6880619 C16.6234017,20.8187062 17.0095109,20.9028988 17.4188755,20.9028988 L32.5151229,20.9028988 L32.5151229,33.6774639 C32.5151229,34.957819 31.472908,36.0000446 30.1925661,36.0000446 C28.9122242,36.0000446 27.8700093,34.957819 27.8700093,33.6774639 L27.8700093,31.3548833 C27.8700093,29.4329757 26.308062,27.8710123 24.3861742,27.8710123 L24.3865458,27.8709677 Z" id="Path" fill="#59E3DC"></path>
                <polygon id="Fill-2" fill="#000000" points="19 7 21 7 21 5 19 5"></polygon>
                <polygon id="Fill-3" fill="#000000" points="24 7 57 7 57 5 24 5"></polygon>
            </g>
        </g>
    </g>
</svg>