<?xml version="1.0" encoding="UTF-8"?>
<svg width="68px" height="86px" viewBox="0 0 68 86" version="1.1" xmlns="http://www.w3.org/2000/svg" xmlns:xlink="http://www.w3.org/1999/xlink">
    <!-- Generator: Sketch 48.2 (47327) - http://www.bohemiancoding.com/sketch -->
    <title>Group 3</title>
    <desc>Created with Sketch.</desc>
    <defs></defs>
    <g id="Artboard-5-Copy-7" stroke="none" stroke-width="1" fill="none" fill-rule="evenodd" transform="translate(-112.000000, -162.000000)">
        <g id="Group-5" transform="translate(112.000000, 162.000000)">
            <g id="Group-3">
                <path d="M7.00037214,5e-05 C3.30507214,5e-05 0.344172136,2.89845 0.0941721357,6.53125 C0.0824521357,6.5625 0.0707321357,6.59375 0.0629221357,6.625 C0.0199521357,6.74609 -0.00348786427,6.87109 0.000422135725,7 L0.000422135725,85 C0.000422135725,85.55078 0.449642136,86 1.00042214,86 L67.0004221,86 C67.5512021,86 68.0004221,85.55078 68.0004221,85 L68.0004221,13 C68.0004221,12.44922 67.5512021,12 67.0004221,12 L64.0004221,12 L64.0004221,1 C64.0004221,0.44922 63.5512021,0 63.0004221,0 L7.00037214,5e-05 Z M7.00037214,2.00005 L62.0003721,2.00005 L62.0003721,12.00005 L7.00037214,12.00005 C4.21127214,12.00005 2.00037214,9.78915 2.00037214,7.00005 C2.00037214,4.21095 4.21127214,2.00005 7.00037214,2.00005 Z M2.00037214,11.84385 C3.27377214,13.16025 5.02767214,14.00005 7.00037214,14.00005 L66.0003721,14.00005 L66.0003721,84.00005 L2.00037214,84.00005 L2.00037214,11.84385 Z" id="Page-1" fill="#000000"></path>
                <text id="UX" font-family="Averta-Black, Averta" font-size="30" font-weight="700" letter-spacing="0.131250024" fill="#59E3DC">
                    <tspan x="13" y="62">UX</tspan>
                </text>
            </g>
        </g>
    </g>
</svg>