<?xml version="1.0" encoding="UTF-8"?>
<svg width="68px" height="86px" viewBox="0 0 68 86" version="1.1" xmlns="http://www.w3.org/2000/svg" xmlns:xlink="http://www.w3.org/1999/xlink">
    <!-- Generator: Sketch 48.2 (47327) - http://www.bohemiancoding.com/sketch -->
    <title>Group 7</title>
    <desc>Created with Sketch.</desc>
    <defs></defs>
    <g id="Artboard" stroke="none" stroke-width="1" fill="none" fill-rule="evenodd" transform="translate(-123.000000, -60.000000)">
        <g id="Group-6" transform="translate(1.000000, 38.000000)">
            <g id="Group">
                <g id="Group-7" transform="translate(122.000000, 22.000000)">
                    <path d="M7.00037214,5e-05 C3.30507214,5e-05 0.344172136,2.89845 0.0941721357,6.53125 C0.0824521357,6.5625 0.0707321357,6.59375 0.0629221357,6.625 C0.0199521357,6.74609 -0.00348786427,6.87109 0.000422135725,7 L0.000422135725,85 C0.000422135725,85.55078 0.449642136,86 1.00042214,86 L67.0004221,86 C67.5512021,86 68.0004221,85.55078 68.0004221,85 L68.0004221,13 C68.0004221,12.44922 67.5512021,12 67.0004221,12 L64.0004221,12 L64.0004221,1 C64.0004221,0.44922 63.5512021,0 63.0004221,0 L7.00037214,5e-05 Z M7.00037214,2.00005 L62.0003721,2.00005 L62.0003721,12.00005 L7.00037214,12.00005 C4.21127214,12.00005 2.00037214,9.78915 2.00037214,7.00005 C2.00037214,4.21095 4.21127214,2.00005 7.00037214,2.00005 Z M2.00037214,11.84385 C3.27377214,13.16025 5.02767214,14.00005 7.00037214,14.00005 L66.0003721,14.00005 L66.0003721,84.00005 L2.00037214,84.00005 L2.00037214,11.84385 Z" id="Page-1" fill="#000000"></path>
                    <path d="M23.3271484,62.3076172 C21.9794854,62.3076172 20.7587945,62.1049825 19.6650391,61.699707 C18.5712836,61.2944316 17.6313516,60.7060585 16.8452148,59.9345703 C16.0590781,59.1630821 15.451174,58.1914121 15.0214844,57.0195312 C14.5917947,55.8476504 14.3769531,54.5244214 14.3769531,53.0498047 L14.3769531,40.6865234 L20.1484375,40.6865234 L20.1484375,52.7275391 C20.1484375,53.508793 20.2582997,54.2143523 20.4780273,54.8442383 C20.697755,55.4741242 21.0541968,55.9916972 21.5473633,56.3969727 C22.0405298,56.8022481 22.6337856,57.0048828 23.3271484,57.0048828 C23.9521516,57.0048828 24.511228,56.8413102 25.0043945,56.5141602 C25.4975611,56.1870101 25.8881822,55.6962923 26.1762695,55.0419922 C26.4643569,54.387692 26.6083984,53.6162154 26.6083984,52.7275391 L26.6083984,40.6865234 L32.3505859,40.6865234 L32.3505859,53.0498047 C32.3505859,54.9150484 32.0087925,56.5385673 31.3251953,57.9204102 C30.6415981,59.302253 29.6162178,60.3789024 28.2490234,61.1503906 C26.8818291,61.9218789 25.2412205,62.3076172 23.3271484,62.3076172 Z M48.3753906,62 L44.5960938,55.6279297 L44.5228516,55.6279297 L40.7142578,62 L34.0785156,62 L40.7582031,51.2626953 L34.3714844,40.6865234 L40.8900391,40.6865234 L44.5228516,46.8681641 L44.5960938,46.8681641 L48.2289063,40.6865234 L54.7328125,40.6865234 L48.3460938,51.2626953 L55.0257813,62 L48.3753906,62 Z" id="UX" fill="#59E3DC"></path>
                </g>
            </g>
        </g>
    </g>
</svg>