<?xml version="1.0" encoding="UTF-8"?>
<svg width="78px" height="80px" viewBox="0 0 78 80" version="1.1" xmlns="http://www.w3.org/2000/svg" xmlns:xlink="http://www.w3.org/1999/xlink">
    <!-- Generator: Sketch 48.2 (47327) - http://www.bohemiancoding.com/sketch -->
    <title>Group 2</title>
    <desc>Created with Sketch.</desc>
    <defs></defs>
    <g id="Artboard-5-Copy-7" stroke="none" stroke-width="1" fill="none" fill-rule="evenodd" transform="translate(-622.000000, -163.000000)">
        <g id="Group-5" transform="translate(112.000000, 162.000000)">
            <g id="Group-2" transform="translate(510.000000, 1.000000)">
                <g id="noun_13585" transform="translate(0.000000, 42.000000)">
                    <g id="Group">
                        <path d="M19.4975274,1.81342935 C2.69757666,3.92077775 3.19574578,13.4710891 10.106454,19.9784616 C12.7806655,22.4965957 12.9321637,21.1676622 14.7705974,22.198867 C17.6830517,23.8325058 21.9328628,26.8314494 25.1647347,25.8294637 C26.5628382,25.396006 29.4289586,23.3027189 31.1639851,19.9784616 C31.9555773,18.4617952 32.0085678,16.1922213 32.4676613,14.5840779 C33.2220977,11.9413871 31.7949556,6.99199385 30.1562814,5.4670753 C27.3614305,2.86624102 25.6369521,3.8981588 22.194183,2.24804628 L19.4975274,1.81342935 Z" id="Path-2" fill="#FFFFFF"></path>
                        <path d="M21.8171528,4.25008425 C21.9095139,4.12758009 22.0101389,4.01523756 22.1263194,3.92265378 C21.9804861,3.910234 21.8526389,3.84531244 21.7082639,3.7374862 C21.6231944,3.67369371 21.5366667,3.62345007 21.4511111,3.57151282" id="Shape"></path>
                        <path d="M18.2058333,4.33311355 C18.2607639,4.13836355 18.3297917,3.95379212 18.4138889,3.78414927 C18.1742361,3.8642207 17.9457639,3.84793498 17.6847222,3.71425641 C17.8825694,3.88050641 18.0570833,4.08950641 18.2058333,4.33311355 L18.2058333,4.33311355 Z" id="Shape"></path>
                        <path d="M24.8265545,4.89109066 C24.7848237,4.85241209 24.7430929,4.80898352 24.7027083,4.75876923 C24.7222276,4.8211978 24.7451122,4.88226923 24.7605929,4.94605495 C24.7834776,4.92909066 24.8029968,4.90737637 24.8265545,4.89109066 L24.8265545,4.89109066 Z" id="Shape"></path>
                        <path d="M29.1555609,7.59780769 C29.1481571,7.56930769 29.1420994,7.54012912 29.1346955,7.51230769 C29.1286378,7.54012912 29.1171955,7.56523626 29.1097917,7.59305769 C29.1252724,7.59441484 29.1407532,7.59509341 29.1555609,7.59780769 L29.1555609,7.59780769 Z" id="Shape"></path>
                        <path d="M26.9041186,5.50728571 C26.8206571,5.44689286 26.7385417,5.38446429 26.6597917,5.32 C26.6995032,5.39396429 26.7345032,5.47132143 26.7634455,5.55139286 C26.8085417,5.53307143 26.8576763,5.52289286 26.9041186,5.50728571 L26.9041186,5.50728571 Z" id="Shape"></path>
                        <path d="M14.7774412,4.78697344 C14.7458066,4.78290201 14.7161912,4.78154487 14.6805182,4.77068773 C14.5546528,4.73065201 14.4375374,4.70825916 14.3184028,4.68179487 C14.4624412,4.7523663 14.6031143,4.83108059 14.7370566,4.9186163 C14.7518643,4.87450916 14.7606143,4.82904487 14.7774412,4.78697344 L14.7774412,4.78697344 Z" id="Shape"></path>
                        <path d="M30.4210577,10.3216108 C30.4129808,10.1716465 30.4230769,10.0148965 30.4466346,9.85271795 C30.3900962,9.97621795 30.3254808,10.0936108 30.24875,10.2042179 C30.31,10.2381465 30.3672115,10.2775037 30.4210577,10.3216108 L30.4210577,10.3216108 Z" id="Shape"></path>
                        <path d="M9.23255876,8.03553846 C9.15246261,8.11696703 9.06900107,8.19500275 8.98284722,8.27168132 C9.0710203,8.24928846 9.15986645,8.22960989 9.25005876,8.21332418 C9.24063568,8.15496703 9.23525107,8.09593132 9.23255876,8.03553846 L9.23255876,8.03553846 Z" id="Shape"></path>
                        <path d="M10.2050053,6.67776923 C10.1955823,6.68251923 10.1868323,6.6879478 10.1767361,6.69201923 C10.1861592,6.68998352 10.193563,6.68726923 10.2029861,6.68523352 C10.2036592,6.6831978 10.2043323,6.68048352 10.2050053,6.67776923 L10.2050053,6.67776923 Z" id="Shape"></path>
                        <path d="M31.008766,11.7205467 C30.8990545,11.5210467 30.7906891,11.3249396 30.6890545,11.1281538 C30.6681891,11.200761 30.6419391,11.2713324 30.6089583,11.3378324 C30.7509776,11.4552253 30.8822276,11.585511 31.008766,11.7205467 L31.008766,11.7205467 Z" id="Shape"></path>
                        <path d="M29.3207639,16.877359 C29.8297222,17.0132821 29.7621528,17.3572308 30.0013194,17.8156667 C30.00375,17.6724359 30.0285417,17.5350513 30.1826389,17.3815897 C31.0994444,16.4725128 31.5923611,15.5098462 31.6667361,14.4697179 C31.3493056,15.7831538 30.7027778,16.7750513 29.3207639,16.877359 L29.3207639,16.877359 Z" id="Shape" fill="#4B4B4B"></path>
                        <path d="M24.1490278,0.763410256 C19.7759722,-0.202179487 15.4189583,-0.141282051 11.3361111,1.87710256 C6.873125,4.08305128 4.76340278,8.09984615 3.71097222,12.7558205 C3.46548611,13.8417436 2.918125,15.0124359 3.86604167,16.1129744 C4.07166667,16.3521795 3.67451389,16.6790769 3.50826389,16.9441026 C2.61965278,18.359359 1.69701389,19.7551282 0.853611111,21.1966923 C0.151180556,22.3971026 0.301388889,22.8375128 1.579375,23.2472308 C2.60069444,23.5746154 3.10479167,24.0082051 2.59826389,25.1482051 C2.2225,25.9944359 2.91326389,26.2560513 3.60111111,26.4548205 C2.52923611,27.1544103 2.50104167,27.3336923 3.44215278,28.0771282 C3.85,28.3981795 3.95305556,28.6627179 3.73479167,29.1528205 C2.40770833,32.1304615 3.793125,33.8794359 7.05736111,33.4994359 C7.83319444,33.4088205 8.60513889,33.2875128 9.37708333,33.1735128 C10.7275,32.9742564 11.1995139,33.3079744 11.3293056,34.7242051 C11.4299306,35.8257179 11.52375,36.9233333 11.7857639,38 L29.7388194,38 C30.0188194,37.5620256 29.5847222,37.2965128 29.4461806,36.9968974 C27.9965972,33.8545897 27.8833333,30.6148462 28.6217361,27.2874103 C28.8949306,26.0563077 29.5847222,25.0951026 30.3989583,24.1826154 C32.57625,21.7428205 34.0739583,18.9941538 34.4988194,15.6779231 C35.3947222,8.6854359 31.0138889,2.28 24.1490278,0.763410256 L24.1490278,0.763410256 Z M30.6668056,11.1281538 C32.2476389,12.2286923 31.6672222,14.4697179 31.6672222,14.4697179 C31.5933333,15.5098462 31.0999306,16.4720256 30.183125,17.3815897 C30.0290278,17.5345641 30.0042361,17.6724359 30.0018056,17.8156667 C30.1364583,18.0738718 30.2200694,18.3637436 30.2200694,18.6755385 C30.2200694,19.7068974 29.8146528,20.2739744 28.3563194,20.5433846 C27.313125,20.7363077 26.9184028,20.2184359 26.9184028,20.2184359 C26.9184028,21.5640256 25.729375,23.1415128 24.3867361,23.1415128 C23.506875,23.1415128 22.7436806,22.6684615 22.316875,21.9674103 C22.2434722,21.9079744 22.1715278,21.8529231 22.0961806,21.7881282 C21.93625,22.4750513 21.7573611,23.0927949 21.6591667,23.7232051 C21.5988889,24.111 21.4783333,24.2868718 21.0627083,24.2751795 C20.6665278,24.2644615 20.4259028,24.2011282 20.3034028,23.7378205 C20.0564583,22.8141282 19.709375,21.9172308 19.4084722,21.0076667 C19.1804861,20.3183077 18.799375,19.8243077 18.2957639,19.4818205 C17.8864583,19.6917949 17.4241667,19.8126154 16.9327083,19.8126154 C15.2770139,19.8126154 13.9348611,18.4675128 13.9348611,16.8081795 C13.9348611,16.4710513 13.9927083,16.1480513 14.0947917,15.8450256 C13.5206944,16.4379231 12.718125,16.8081795 11.8285417,16.8081795 C10.0834028,16.8081795 8.66881944,15.3904872 8.66881944,13.6415128 C8.66881944,13.5265385 8.67611111,13.4125385 8.68777778,13.3009744 C7.68298611,12.9156154 6.96743056,11.9427179 6.96743056,10.7997949 C6.96743056,9.54871795 7.82541667,8.49982051 8.98284722,8.2055641 C9.04506944,8.151 9.10534722,8.09448718 9.16319444,8.03602564 C9.16125,8.00971795 9.15493056,7.98487179 9.15493056,7.95758974 C9.15493056,7.33497436 9.59291667,6.81515385 10.1767361,6.68897436 C10.1840278,6.6855641 10.1903472,6.68166667 10.1971528,6.67874359 C10.4844444,5.36676923 11.6491667,4.38461538 13.0438194,4.38461538 C13.50125,4.38461538 13.9329167,4.49325641 14.3184028,4.68130769 C14.4044444,4.70030769 14.4895139,4.71638462 14.5799306,4.74512821 C14.6056944,4.75341026 14.6270833,4.75438462 14.6499306,4.75682051 C14.9561806,3.96953846 15.715,3.40928205 16.6089583,3.40928205 C17.0036806,3.40928205 17.36875,3.52474359 17.6847222,3.71425641 C17.9457639,3.80974359 18.1742361,3.82192308 18.4138889,3.7644359 C18.7653472,3.25728205 19.3491667,2.92307692 20.0117361,2.92307692 C20.5848611,2.92307692 21.0952778,3.17641026 21.450625,3.57151282 C21.5366667,3.61633333 21.6227083,3.65969231 21.7077778,3.71474359 C21.8521528,3.80779487 21.9804861,3.86382051 22.1258333,3.87453846 C22.4,3.68453846 22.7315278,3.57248718 23.0897917,3.57248718 C23.8476389,3.57248718 24.4820139,4.07233333 24.7022222,4.75876923 C24.7313889,4.79482051 24.7610417,4.82648718 24.7916667,4.85376923 C24.9992361,4.712 25.2500694,4.62869231 25.5203472,4.62869231 C26.0161806,4.62869231 26.4415278,4.91028205 26.6593056,5.32 C26.7161806,5.36676923 26.7754861,5.41158974 26.8357639,5.45446154 C27.0093056,5.39794872 27.1911111,5.35946154 27.3836111,5.35946154 C28.3675,5.35946154 29.1656944,6.15941026 29.1656944,7.14546154 C29.1656944,7.27164103 29.1520833,7.39392308 29.1272917,7.51230769 C29.133125,7.53228205 29.1375,7.55323077 29.1423611,7.57369231 C29.9322917,7.68184615 30.5433333,8.35366667 30.5433333,9.17505128 C30.5433333,9.41766667 30.4869444,9.64566667 30.3916667,9.85271795 C30.3921528,9.85271795 31.3541667,10.3525641 30.6668056,11.1281538 L30.6668056,11.1281538 Z" id="Shape" fill="#4B4B4B"></path>
                        <path d="M17.4334028,9.38258974 C17.5860417,8.98797436 17.8009028,8.64597436 18.0765278,8.35707692 C18.3521528,8.06720513 18.6846528,7.84164103 19.0740278,7.67941026 C19.4634028,7.51717949 19.8984722,7.43582051 20.3802083,7.43582051 C21.0014583,7.43582051 21.5201389,7.5215641 21.9352778,7.69207692 C22.3509028,7.8635641 22.6858333,8.07597436 22.9395833,8.33028205 C23.1928472,8.58458974 23.3746528,8.85887179 23.4840278,9.15264103 C23.5934028,9.44689744 23.6483333,9.72069231 23.6483333,9.975 C23.6483333,10.3959231 23.5934028,10.7423077 23.4840278,11.014641 C23.3741667,11.2864872 23.2390278,11.5188718 23.0771528,11.7117949 C22.9152778,11.9047179 22.7359028,12.0688974 22.5390278,12.2053077 C22.3426389,12.3412308 22.1564583,12.4771538 21.9814583,12.6130769 C21.8064583,12.749 21.6509028,12.9048974 21.5157639,13.0797949 C21.3801389,13.2551795 21.2945833,13.4748974 21.2600694,13.7379744 L21.2600694,14.2373333 L19.4877083,14.2373333 L19.4877083,13.6454103 C19.5139583,13.2688205 19.5859028,12.952641 19.7040278,12.6988205 C19.8221528,12.4445128 19.9597222,12.2272308 20.1177083,12.0474615 C20.2756944,11.8676923 20.4414583,11.7122821 20.6164583,11.5802564 C20.7909722,11.4487179 20.9528472,11.3171795 21.1020833,11.185641 C21.2508333,11.0541026 21.3713889,10.9094103 21.4627778,10.7515641 C21.5546528,10.5937179 21.5959722,10.3964103 21.5877083,10.1591538 C21.5877083,9.75625641 21.4890278,9.45810256 21.2926389,9.26469231 C21.0957639,9.07176923 20.8220833,8.97530769 20.4720833,8.97530769 C20.2358333,8.97530769 20.0326389,9.02158974 19.8615278,9.11317949 C19.6909028,9.20525641 19.5509028,9.32802564 19.4415278,9.48197436 C19.3321528,9.63494872 19.2509722,9.81520513 19.1989583,10.0207949 C19.1464583,10.2268718 19.1202083,10.4485385 19.1202083,10.6848205 L17.1908333,10.6848205 C17.1995833,10.2112821 17.2807639,9.77720513 17.4334028,9.38258974 L17.4334028,9.38258974 Z M21.3645833,15.0255897 L21.3645833,17.0512821 L19.3039583,17.0512821 L19.3039583,15.0255897 L21.3645833,15.0255897 L21.3645833,15.0255897 Z" id="Shape" fill="#59E3DC"></path>
                    </g>
                </g>
                <g id="noun_13585-copy" transform="translate(43.000000, 42.000000)">
                    <g id="Group">
                        <path d="M19.4975274,1.81342935 C2.69757666,3.92077775 3.19574578,13.4710891 10.106454,19.9784616 C12.7806655,22.4965957 12.9321637,21.1676622 14.7705974,22.198867 C17.6830517,23.8325058 21.9328628,26.8314494 25.1647347,25.8294637 C26.5628382,25.396006 29.4289586,23.3027189 31.1639851,19.9784616 C31.9555773,18.4617952 32.0085678,16.1922213 32.4676613,14.5840779 C33.2220977,11.9413871 31.7949556,6.99199385 30.1562814,5.4670753 C27.3614305,2.86624102 25.6369521,3.8981588 22.194183,2.24804628 L19.4975274,1.81342935 Z" id="Path-2" fill="#FFFFFF"></path>
                        <path d="M21.8171528,4.25008425 C21.9095139,4.12758009 22.0101389,4.01523756 22.1263194,3.92265378 C21.9804861,3.910234 21.8526389,3.84531244 21.7082639,3.7374862 C21.6231944,3.67369371 21.5366667,3.62345007 21.4511111,3.57151282" id="Shape"></path>
                        <path d="M18.2058333,4.33311355 C18.2607639,4.13836355 18.3297917,3.95379212 18.4138889,3.78414927 C18.1742361,3.8642207 17.9457639,3.84793498 17.6847222,3.71425641 C17.8825694,3.88050641 18.0570833,4.08950641 18.2058333,4.33311355 L18.2058333,4.33311355 Z" id="Shape"></path>
                        <path d="M24.8265545,4.89109066 C24.7848237,4.85241209 24.7430929,4.80898352 24.7027083,4.75876923 C24.7222276,4.8211978 24.7451122,4.88226923 24.7605929,4.94605495 C24.7834776,4.92909066 24.8029968,4.90737637 24.8265545,4.89109066 L24.8265545,4.89109066 Z" id="Shape"></path>
                        <path d="M29.1555609,7.59780769 C29.1481571,7.56930769 29.1420994,7.54012912 29.1346955,7.51230769 C29.1286378,7.54012912 29.1171955,7.56523626 29.1097917,7.59305769 C29.1252724,7.59441484 29.1407532,7.59509341 29.1555609,7.59780769 L29.1555609,7.59780769 Z" id="Shape"></path>
                        <path d="M26.9041186,5.50728571 C26.8206571,5.44689286 26.7385417,5.38446429 26.6597917,5.32 C26.6995032,5.39396429 26.7345032,5.47132143 26.7634455,5.55139286 C26.8085417,5.53307143 26.8576763,5.52289286 26.9041186,5.50728571 L26.9041186,5.50728571 Z" id="Shape"></path>
                        <path d="M14.7774412,4.78697344 C14.7458066,4.78290201 14.7161912,4.78154487 14.6805182,4.77068773 C14.5546528,4.73065201 14.4375374,4.70825916 14.3184028,4.68179487 C14.4624412,4.7523663 14.6031143,4.83108059 14.7370566,4.9186163 C14.7518643,4.87450916 14.7606143,4.82904487 14.7774412,4.78697344 L14.7774412,4.78697344 Z" id="Shape"></path>
                        <path d="M30.4210577,10.3216108 C30.4129808,10.1716465 30.4230769,10.0148965 30.4466346,9.85271795 C30.3900962,9.97621795 30.3254808,10.0936108 30.24875,10.2042179 C30.31,10.2381465 30.3672115,10.2775037 30.4210577,10.3216108 L30.4210577,10.3216108 Z" id="Shape"></path>
                        <path d="M9.23255876,8.03553846 C9.15246261,8.11696703 9.06900107,8.19500275 8.98284722,8.27168132 C9.0710203,8.24928846 9.15986645,8.22960989 9.25005876,8.21332418 C9.24063568,8.15496703 9.23525107,8.09593132 9.23255876,8.03553846 L9.23255876,8.03553846 Z" id="Shape"></path>
                        <path d="M10.2050053,6.67776923 C10.1955823,6.68251923 10.1868323,6.6879478 10.1767361,6.69201923 C10.1861592,6.68998352 10.193563,6.68726923 10.2029861,6.68523352 C10.2036592,6.6831978 10.2043323,6.68048352 10.2050053,6.67776923 L10.2050053,6.67776923 Z" id="Shape"></path>
                        <path d="M31.008766,11.7205467 C30.8990545,11.5210467 30.7906891,11.3249396 30.6890545,11.1281538 C30.6681891,11.200761 30.6419391,11.2713324 30.6089583,11.3378324 C30.7509776,11.4552253 30.8822276,11.585511 31.008766,11.7205467 L31.008766,11.7205467 Z" id="Shape"></path>
                        <path d="M29.3207639,16.877359 C29.8297222,17.0132821 29.7621528,17.3572308 30.0013194,17.8156667 C30.00375,17.6724359 30.0285417,17.5350513 30.1826389,17.3815897 C31.0994444,16.4725128 31.5923611,15.5098462 31.6667361,14.4697179 C31.3493056,15.7831538 30.7027778,16.7750513 29.3207639,16.877359 L29.3207639,16.877359 Z" id="Shape" fill="#4B4B4B"></path>
                        <path d="M24.1490278,0.763410256 C19.7759722,-0.202179487 15.4189583,-0.141282051 11.3361111,1.87710256 C6.873125,4.08305128 4.76340278,8.09984615 3.71097222,12.7558205 C3.46548611,13.8417436 2.918125,15.0124359 3.86604167,16.1129744 C4.07166667,16.3521795 3.67451389,16.6790769 3.50826389,16.9441026 C2.61965278,18.359359 1.69701389,19.7551282 0.853611111,21.1966923 C0.151180556,22.3971026 0.301388889,22.8375128 1.579375,23.2472308 C2.60069444,23.5746154 3.10479167,24.0082051 2.59826389,25.1482051 C2.2225,25.9944359 2.91326389,26.2560513 3.60111111,26.4548205 C2.52923611,27.1544103 2.50104167,27.3336923 3.44215278,28.0771282 C3.85,28.3981795 3.95305556,28.6627179 3.73479167,29.1528205 C2.40770833,32.1304615 3.793125,33.8794359 7.05736111,33.4994359 C7.83319444,33.4088205 8.60513889,33.2875128 9.37708333,33.1735128 C10.7275,32.9742564 11.1995139,33.3079744 11.3293056,34.7242051 C11.4299306,35.8257179 11.52375,36.9233333 11.7857639,38 L29.7388194,38 C30.0188194,37.5620256 29.5847222,37.2965128 29.4461806,36.9968974 C27.9965972,33.8545897 27.8833333,30.6148462 28.6217361,27.2874103 C28.8949306,26.0563077 29.5847222,25.0951026 30.3989583,24.1826154 C32.57625,21.7428205 34.0739583,18.9941538 34.4988194,15.6779231 C35.3947222,8.6854359 31.0138889,2.28 24.1490278,0.763410256 L24.1490278,0.763410256 Z M30.6668056,11.1281538 C32.2476389,12.2286923 31.6672222,14.4697179 31.6672222,14.4697179 C31.5933333,15.5098462 31.0999306,16.4720256 30.183125,17.3815897 C30.0290278,17.5345641 30.0042361,17.6724359 30.0018056,17.8156667 C30.1364583,18.0738718 30.2200694,18.3637436 30.2200694,18.6755385 C30.2200694,19.7068974 29.8146528,20.2739744 28.3563194,20.5433846 C27.313125,20.7363077 26.9184028,20.2184359 26.9184028,20.2184359 C26.9184028,21.5640256 25.729375,23.1415128 24.3867361,23.1415128 C23.506875,23.1415128 22.7436806,22.6684615 22.316875,21.9674103 C22.2434722,21.9079744 22.1715278,21.8529231 22.0961806,21.7881282 C21.93625,22.4750513 21.7573611,23.0927949 21.6591667,23.7232051 C21.5988889,24.111 21.4783333,24.2868718 21.0627083,24.2751795 C20.6665278,24.2644615 20.4259028,24.2011282 20.3034028,23.7378205 C20.0564583,22.8141282 19.709375,21.9172308 19.4084722,21.0076667 C19.1804861,20.3183077 18.799375,19.8243077 18.2957639,19.4818205 C17.8864583,19.6917949 17.4241667,19.8126154 16.9327083,19.8126154 C15.2770139,19.8126154 13.9348611,18.4675128 13.9348611,16.8081795 C13.9348611,16.4710513 13.9927083,16.1480513 14.0947917,15.8450256 C13.5206944,16.4379231 12.718125,16.8081795 11.8285417,16.8081795 C10.0834028,16.8081795 8.66881944,15.3904872 8.66881944,13.6415128 C8.66881944,13.5265385 8.67611111,13.4125385 8.68777778,13.3009744 C7.68298611,12.9156154 6.96743056,11.9427179 6.96743056,10.7997949 C6.96743056,9.54871795 7.82541667,8.49982051 8.98284722,8.2055641 C9.04506944,8.151 9.10534722,8.09448718 9.16319444,8.03602564 C9.16125,8.00971795 9.15493056,7.98487179 9.15493056,7.95758974 C9.15493056,7.33497436 9.59291667,6.81515385 10.1767361,6.68897436 C10.1840278,6.6855641 10.1903472,6.68166667 10.1971528,6.67874359 C10.4844444,5.36676923 11.6491667,4.38461538 13.0438194,4.38461538 C13.50125,4.38461538 13.9329167,4.49325641 14.3184028,4.68130769 C14.4044444,4.70030769 14.4895139,4.71638462 14.5799306,4.74512821 C14.6056944,4.75341026 14.6270833,4.75438462 14.6499306,4.75682051 C14.9561806,3.96953846 15.715,3.40928205 16.6089583,3.40928205 C17.0036806,3.40928205 17.36875,3.52474359 17.6847222,3.71425641 C17.9457639,3.80974359 18.1742361,3.82192308 18.4138889,3.7644359 C18.7653472,3.25728205 19.3491667,2.92307692 20.0117361,2.92307692 C20.5848611,2.92307692 21.0952778,3.17641026 21.450625,3.57151282 C21.5366667,3.61633333 21.6227083,3.65969231 21.7077778,3.71474359 C21.8521528,3.80779487 21.9804861,3.86382051 22.1258333,3.87453846 C22.4,3.68453846 22.7315278,3.57248718 23.0897917,3.57248718 C23.8476389,3.57248718 24.4820139,4.07233333 24.7022222,4.75876923 C24.7313889,4.79482051 24.7610417,4.82648718 24.7916667,4.85376923 C24.9992361,4.712 25.2500694,4.62869231 25.5203472,4.62869231 C26.0161806,4.62869231 26.4415278,4.91028205 26.6593056,5.32 C26.7161806,5.36676923 26.7754861,5.41158974 26.8357639,5.45446154 C27.0093056,5.39794872 27.1911111,5.35946154 27.3836111,5.35946154 C28.3675,5.35946154 29.1656944,6.15941026 29.1656944,7.14546154 C29.1656944,7.27164103 29.1520833,7.39392308 29.1272917,7.51230769 C29.133125,7.53228205 29.1375,7.55323077 29.1423611,7.57369231 C29.9322917,7.68184615 30.5433333,8.35366667 30.5433333,9.17505128 C30.5433333,9.41766667 30.4869444,9.64566667 30.3916667,9.85271795 C30.3921528,9.85271795 31.3541667,10.3525641 30.6668056,11.1281538 L30.6668056,11.1281538 Z" id="Shape" fill="#4B4B4B"></path>
                        <path d="M17.4334028,9.38258974 C17.5860417,8.98797436 17.8009028,8.64597436 18.0765278,8.35707692 C18.3521528,8.06720513 18.6846528,7.84164103 19.0740278,7.67941026 C19.4634028,7.51717949 19.8984722,7.43582051 20.3802083,7.43582051 C21.0014583,7.43582051 21.5201389,7.5215641 21.9352778,7.69207692 C22.3509028,7.8635641 22.6858333,8.07597436 22.9395833,8.33028205 C23.1928472,8.58458974 23.3746528,8.85887179 23.4840278,9.15264103 C23.5934028,9.44689744 23.6483333,9.72069231 23.6483333,9.975 C23.6483333,10.3959231 23.5934028,10.7423077 23.4840278,11.014641 C23.3741667,11.2864872 23.2390278,11.5188718 23.0771528,11.7117949 C22.9152778,11.9047179 22.7359028,12.0688974 22.5390278,12.2053077 C22.3426389,12.3412308 22.1564583,12.4771538 21.9814583,12.6130769 C21.8064583,12.749 21.6509028,12.9048974 21.5157639,13.0797949 C21.3801389,13.2551795 21.2945833,13.4748974 21.2600694,13.7379744 L21.2600694,14.2373333 L19.4877083,14.2373333 L19.4877083,13.6454103 C19.5139583,13.2688205 19.5859028,12.952641 19.7040278,12.6988205 C19.8221528,12.4445128 19.9597222,12.2272308 20.1177083,12.0474615 C20.2756944,11.8676923 20.4414583,11.7122821 20.6164583,11.5802564 C20.7909722,11.4487179 20.9528472,11.3171795 21.1020833,11.185641 C21.2508333,11.0541026 21.3713889,10.9094103 21.4627778,10.7515641 C21.5546528,10.5937179 21.5959722,10.3964103 21.5877083,10.1591538 C21.5877083,9.75625641 21.4890278,9.45810256 21.2926389,9.26469231 C21.0957639,9.07176923 20.8220833,8.97530769 20.4720833,8.97530769 C20.2358333,8.97530769 20.0326389,9.02158974 19.8615278,9.11317949 C19.6909028,9.20525641 19.5509028,9.32802564 19.4415278,9.48197436 C19.3321528,9.63494872 19.2509722,9.81520513 19.1989583,10.0207949 C19.1464583,10.2268718 19.1202083,10.4485385 19.1202083,10.6848205 L17.1908333,10.6848205 C17.1995833,10.2112821 17.2807639,9.77720513 17.4334028,9.38258974 L17.4334028,9.38258974 Z M21.3645833,15.0255897 L21.3645833,17.0512821 L19.3039583,17.0512821 L19.3039583,15.0255897 L21.3645833,15.0255897 L21.3645833,15.0255897 Z" id="Shape" fill="#59E3DC"></path>
                    </g>
                </g>
                <g id="noun_13585-copy-2" transform="translate(23.000000, 0.000000)">
                    <g id="Group">
                        <path d="M19.4975274,1.81342935 C2.69757666,3.92077775 3.19574578,13.4710891 10.106454,19.9784616 C12.7806655,22.4965957 12.9321637,21.1676622 14.7705974,22.198867 C17.6830517,23.8325058 21.9328628,26.8314494 25.1647347,25.8294637 C26.5628382,25.396006 29.4289586,23.3027189 31.1639851,19.9784616 C31.9555773,18.4617952 32.0085678,16.1922213 32.4676613,14.5840779 C33.2220977,11.9413871 31.7949556,6.99199385 30.1562814,5.4670753 C27.3614305,2.86624102 25.6369521,3.8981588 22.194183,2.24804628 L19.4975274,1.81342935 Z" id="Path-2" fill="#FFFFFF"></path>
                        <path d="M21.8171528,4.25008425 C21.9095139,4.12758009 22.0101389,4.01523756 22.1263194,3.92265378 C21.9804861,3.910234 21.8526389,3.84531244 21.7082639,3.7374862 C21.6231944,3.67369371 21.5366667,3.62345007 21.4511111,3.57151282" id="Shape"></path>
                        <path d="M18.2058333,4.33311355 C18.2607639,4.13836355 18.3297917,3.95379212 18.4138889,3.78414927 C18.1742361,3.8642207 17.9457639,3.84793498 17.6847222,3.71425641 C17.8825694,3.88050641 18.0570833,4.08950641 18.2058333,4.33311355 L18.2058333,4.33311355 Z" id="Shape"></path>
                        <path d="M24.8265545,4.89109066 C24.7848237,4.85241209 24.7430929,4.80898352 24.7027083,4.75876923 C24.7222276,4.8211978 24.7451122,4.88226923 24.7605929,4.94605495 C24.7834776,4.92909066 24.8029968,4.90737637 24.8265545,4.89109066 L24.8265545,4.89109066 Z" id="Shape"></path>
                        <path d="M29.1555609,7.59780769 C29.1481571,7.56930769 29.1420994,7.54012912 29.1346955,7.51230769 C29.1286378,7.54012912 29.1171955,7.56523626 29.1097917,7.59305769 C29.1252724,7.59441484 29.1407532,7.59509341 29.1555609,7.59780769 L29.1555609,7.59780769 Z" id="Shape"></path>
                        <path d="M26.9041186,5.50728571 C26.8206571,5.44689286 26.7385417,5.38446429 26.6597917,5.32 C26.6995032,5.39396429 26.7345032,5.47132143 26.7634455,5.55139286 C26.8085417,5.53307143 26.8576763,5.52289286 26.9041186,5.50728571 L26.9041186,5.50728571 Z" id="Shape"></path>
                        <path d="M14.7774412,4.78697344 C14.7458066,4.78290201 14.7161912,4.78154487 14.6805182,4.77068773 C14.5546528,4.73065201 14.4375374,4.70825916 14.3184028,4.68179487 C14.4624412,4.7523663 14.6031143,4.83108059 14.7370566,4.9186163 C14.7518643,4.87450916 14.7606143,4.82904487 14.7774412,4.78697344 L14.7774412,4.78697344 Z" id="Shape"></path>
                        <path d="M30.4210577,10.3216108 C30.4129808,10.1716465 30.4230769,10.0148965 30.4466346,9.85271795 C30.3900962,9.97621795 30.3254808,10.0936108 30.24875,10.2042179 C30.31,10.2381465 30.3672115,10.2775037 30.4210577,10.3216108 L30.4210577,10.3216108 Z" id="Shape"></path>
                        <path d="M9.23255876,8.03553846 C9.15246261,8.11696703 9.06900107,8.19500275 8.98284722,8.27168132 C9.0710203,8.24928846 9.15986645,8.22960989 9.25005876,8.21332418 C9.24063568,8.15496703 9.23525107,8.09593132 9.23255876,8.03553846 L9.23255876,8.03553846 Z" id="Shape"></path>
                        <path d="M10.2050053,6.67776923 C10.1955823,6.68251923 10.1868323,6.6879478 10.1767361,6.69201923 C10.1861592,6.68998352 10.193563,6.68726923 10.2029861,6.68523352 C10.2036592,6.6831978 10.2043323,6.68048352 10.2050053,6.67776923 L10.2050053,6.67776923 Z" id="Shape"></path>
                        <path d="M31.008766,11.7205467 C30.8990545,11.5210467 30.7906891,11.3249396 30.6890545,11.1281538 C30.6681891,11.200761 30.6419391,11.2713324 30.6089583,11.3378324 C30.7509776,11.4552253 30.8822276,11.585511 31.008766,11.7205467 L31.008766,11.7205467 Z" id="Shape"></path>
                        <path d="M29.3207639,16.877359 C29.8297222,17.0132821 29.7621528,17.3572308 30.0013194,17.8156667 C30.00375,17.6724359 30.0285417,17.5350513 30.1826389,17.3815897 C31.0994444,16.4725128 31.5923611,15.5098462 31.6667361,14.4697179 C31.3493056,15.7831538 30.7027778,16.7750513 29.3207639,16.877359 L29.3207639,16.877359 Z" id="Shape" fill="#4B4B4B"></path>
                        <path d="M24.1490278,0.763410256 C19.7759722,-0.202179487 15.4189583,-0.141282051 11.3361111,1.87710256 C6.873125,4.08305128 4.76340278,8.09984615 3.71097222,12.7558205 C3.46548611,13.8417436 2.918125,15.0124359 3.86604167,16.1129744 C4.07166667,16.3521795 3.67451389,16.6790769 3.50826389,16.9441026 C2.61965278,18.359359 1.69701389,19.7551282 0.853611111,21.1966923 C0.151180556,22.3971026 0.301388889,22.8375128 1.579375,23.2472308 C2.60069444,23.5746154 3.10479167,24.0082051 2.59826389,25.1482051 C2.2225,25.9944359 2.91326389,26.2560513 3.60111111,26.4548205 C2.52923611,27.1544103 2.50104167,27.3336923 3.44215278,28.0771282 C3.85,28.3981795 3.95305556,28.6627179 3.73479167,29.1528205 C2.40770833,32.1304615 3.793125,33.8794359 7.05736111,33.4994359 C7.83319444,33.4088205 8.60513889,33.2875128 9.37708333,33.1735128 C10.7275,32.9742564 11.1995139,33.3079744 11.3293056,34.7242051 C11.4299306,35.8257179 11.52375,36.9233333 11.7857639,38 L29.7388194,38 C30.0188194,37.5620256 29.5847222,37.2965128 29.4461806,36.9968974 C27.9965972,33.8545897 27.8833333,30.6148462 28.6217361,27.2874103 C28.8949306,26.0563077 29.5847222,25.0951026 30.3989583,24.1826154 C32.57625,21.7428205 34.0739583,18.9941538 34.4988194,15.6779231 C35.3947222,8.6854359 31.0138889,2.28 24.1490278,0.763410256 L24.1490278,0.763410256 Z M30.6668056,11.1281538 C32.2476389,12.2286923 31.6672222,14.4697179 31.6672222,14.4697179 C31.5933333,15.5098462 31.0999306,16.4720256 30.183125,17.3815897 C30.0290278,17.5345641 30.0042361,17.6724359 30.0018056,17.8156667 C30.1364583,18.0738718 30.2200694,18.3637436 30.2200694,18.6755385 C30.2200694,19.7068974 29.8146528,20.2739744 28.3563194,20.5433846 C27.313125,20.7363077 26.9184028,20.2184359 26.9184028,20.2184359 C26.9184028,21.5640256 25.729375,23.1415128 24.3867361,23.1415128 C23.506875,23.1415128 22.7436806,22.6684615 22.316875,21.9674103 C22.2434722,21.9079744 22.1715278,21.8529231 22.0961806,21.7881282 C21.93625,22.4750513 21.7573611,23.0927949 21.6591667,23.7232051 C21.5988889,24.111 21.4783333,24.2868718 21.0627083,24.2751795 C20.6665278,24.2644615 20.4259028,24.2011282 20.3034028,23.7378205 C20.0564583,22.8141282 19.709375,21.9172308 19.4084722,21.0076667 C19.1804861,20.3183077 18.799375,19.8243077 18.2957639,19.4818205 C17.8864583,19.6917949 17.4241667,19.8126154 16.9327083,19.8126154 C15.2770139,19.8126154 13.9348611,18.4675128 13.9348611,16.8081795 C13.9348611,16.4710513 13.9927083,16.1480513 14.0947917,15.8450256 C13.5206944,16.4379231 12.718125,16.8081795 11.8285417,16.8081795 C10.0834028,16.8081795 8.66881944,15.3904872 8.66881944,13.6415128 C8.66881944,13.5265385 8.67611111,13.4125385 8.68777778,13.3009744 C7.68298611,12.9156154 6.96743056,11.9427179 6.96743056,10.7997949 C6.96743056,9.54871795 7.82541667,8.49982051 8.98284722,8.2055641 C9.04506944,8.151 9.10534722,8.09448718 9.16319444,8.03602564 C9.16125,8.00971795 9.15493056,7.98487179 9.15493056,7.95758974 C9.15493056,7.33497436 9.59291667,6.81515385 10.1767361,6.68897436 C10.1840278,6.6855641 10.1903472,6.68166667 10.1971528,6.67874359 C10.4844444,5.36676923 11.6491667,4.38461538 13.0438194,4.38461538 C13.50125,4.38461538 13.9329167,4.49325641 14.3184028,4.68130769 C14.4044444,4.70030769 14.4895139,4.71638462 14.5799306,4.74512821 C14.6056944,4.75341026 14.6270833,4.75438462 14.6499306,4.75682051 C14.9561806,3.96953846 15.715,3.40928205 16.6089583,3.40928205 C17.0036806,3.40928205 17.36875,3.52474359 17.6847222,3.71425641 C17.9457639,3.80974359 18.1742361,3.82192308 18.4138889,3.7644359 C18.7653472,3.25728205 19.3491667,2.92307692 20.0117361,2.92307692 C20.5848611,2.92307692 21.0952778,3.17641026 21.450625,3.57151282 C21.5366667,3.61633333 21.6227083,3.65969231 21.7077778,3.71474359 C21.8521528,3.80779487 21.9804861,3.86382051 22.1258333,3.87453846 C22.4,3.68453846 22.7315278,3.57248718 23.0897917,3.57248718 C23.8476389,3.57248718 24.4820139,4.07233333 24.7022222,4.75876923 C24.7313889,4.79482051 24.7610417,4.82648718 24.7916667,4.85376923 C24.9992361,4.712 25.2500694,4.62869231 25.5203472,4.62869231 C26.0161806,4.62869231 26.4415278,4.91028205 26.6593056,5.32 C26.7161806,5.36676923 26.7754861,5.41158974 26.8357639,5.45446154 C27.0093056,5.39794872 27.1911111,5.35946154 27.3836111,5.35946154 C28.3675,5.35946154 29.1656944,6.15941026 29.1656944,7.14546154 C29.1656944,7.27164103 29.1520833,7.39392308 29.1272917,7.51230769 C29.133125,7.53228205 29.1375,7.55323077 29.1423611,7.57369231 C29.9322917,7.68184615 30.5433333,8.35366667 30.5433333,9.17505128 C30.5433333,9.41766667 30.4869444,9.64566667 30.3916667,9.85271795 C30.3921528,9.85271795 31.3541667,10.3525641 30.6668056,11.1281538 L30.6668056,11.1281538 Z" id="Shape" fill="#4B4B4B"></path>
                        <path d="M17.4334028,9.38258974 C17.5860417,8.98797436 17.8009028,8.64597436 18.0765278,8.35707692 C18.3521528,8.06720513 18.6846528,7.84164103 19.0740278,7.67941026 C19.4634028,7.51717949 19.8984722,7.43582051 20.3802083,7.43582051 C21.0014583,7.43582051 21.5201389,7.5215641 21.9352778,7.69207692 C22.3509028,7.8635641 22.6858333,8.07597436 22.9395833,8.33028205 C23.1928472,8.58458974 23.3746528,8.85887179 23.4840278,9.15264103 C23.5934028,9.44689744 23.6483333,9.72069231 23.6483333,9.975 C23.6483333,10.3959231 23.5934028,10.7423077 23.4840278,11.014641 C23.3741667,11.2864872 23.2390278,11.5188718 23.0771528,11.7117949 C22.9152778,11.9047179 22.7359028,12.0688974 22.5390278,12.2053077 C22.3426389,12.3412308 22.1564583,12.4771538 21.9814583,12.6130769 C21.8064583,12.749 21.6509028,12.9048974 21.5157639,13.0797949 C21.3801389,13.2551795 21.2945833,13.4748974 21.2600694,13.7379744 L21.2600694,14.2373333 L19.4877083,14.2373333 L19.4877083,13.6454103 C19.5139583,13.2688205 19.5859028,12.952641 19.7040278,12.6988205 C19.8221528,12.4445128 19.9597222,12.2272308 20.1177083,12.0474615 C20.2756944,11.8676923 20.4414583,11.7122821 20.6164583,11.5802564 C20.7909722,11.4487179 20.9528472,11.3171795 21.1020833,11.185641 C21.2508333,11.0541026 21.3713889,10.9094103 21.4627778,10.7515641 C21.5546528,10.5937179 21.5959722,10.3964103 21.5877083,10.1591538 C21.5877083,9.75625641 21.4890278,9.45810256 21.2926389,9.26469231 C21.0957639,9.07176923 20.8220833,8.97530769 20.4720833,8.97530769 C20.2358333,8.97530769 20.0326389,9.02158974 19.8615278,9.11317949 C19.6909028,9.20525641 19.5509028,9.32802564 19.4415278,9.48197436 C19.3321528,9.63494872 19.2509722,9.81520513 19.1989583,10.0207949 C19.1464583,10.2268718 19.1202083,10.4485385 19.1202083,10.6848205 L17.1908333,10.6848205 C17.1995833,10.2112821 17.2807639,9.77720513 17.4334028,9.38258974 L17.4334028,9.38258974 Z M21.3645833,15.0255897 L21.3645833,17.0512821 L19.3039583,17.0512821 L19.3039583,15.0255897 L21.3645833,15.0255897 L21.3645833,15.0255897 Z" id="Shape" fill="#59E3DC"></path>
                    </g>
                </g>
            </g>
        </g>
    </g>
</svg>