<?xml version="1.0" encoding="UTF-8"?>
<svg width="87px" height="87px" viewBox="0 0 87 87" version="1.1" xmlns="http://www.w3.org/2000/svg" xmlns:xlink="http://www.w3.org/1999/xlink">
    <!-- Generator: Sketch 48.2 (47327) - http://www.bohemiancoding.com/sketch -->
    <title>Shape</title>
    <desc>Created with Sketch.</desc>
    <defs></defs>
    <g id="Artboard-5-Copy-5" stroke="none" stroke-width="1" fill="none" fill-rule="evenodd" transform="translate(-621.000000, -165.000000)">
        <g id="noun_1872" transform="translate(621.000000, 165.000000)" fill="#4B4B4B" fill-rule="nonzero">
            <path d="M43.5,0 C19.4752422,0 0,19.4752422 0,43.5 C0,67.5247578 19.4752422,87 43.5,87 C67.5247578,87 87,67.5247578 87,43.5 C87,19.4752422 67.5238854,0 43.5,0 Z M42.8404729,8.63928163 C45.9566512,8.63928163 48.4796041,11.1613621 48.4796041,14.2574755 C48.4796041,17.3736538 45.9566512,19.8957343 42.8404729,19.8957343 C39.7461043,19.8957343 37.2240238,17.3727814 37.222279,14.2574755 C37.222279,11.1613621 39.7443595,8.63928163 42.8404729,8.63928163 Z M67.2176764,26.8068107 L50.48174,28.9214849 L50.4887191,45.6748691 L58.596715,72.7407797 C59.0250587,74.4497924 57.9973828,76.1596775 56.3066903,76.5819144 C54.6168702,77.0041514 52.8886649,76.0733109 52.4629385,74.3642982 L44.1569099,49.7262499 L41.5990614,49.7262499 L33.9577944,74.8755189 C33.3183322,76.5164852 31.4906744,77.2711028 29.851453,76.6316407 C28.2279345,75.9982853 27.2368991,74.1505625 27.8772336,72.5095963 L34.895614,45.9487997 L34.895614,28.9214849 L19.4769869,26.8233861 C17.8944709,26.6960171 16.8196859,25.3028097 16.9487997,23.7202936 C17.0648276,22.125564 18.5042717,20.9417303 20.0859154,21.0690993 L38.8187534,22.6821491 L47.0340533,22.6821491 L66.982131,21.0376933 C68.5672643,20.9740088 69.9107454,22.2066963 69.9639613,23.8040431 C70.0276457,25.3900487 68.8036821,26.7413814 67.2176764,26.8068107 Z" id="Shape"></path>
        </g>
    </g>
</svg>