<?xml version="1.0" encoding="UTF-8"?>
<svg width="40px" height="34px" viewBox="0 0 40 34" version="1.1" xmlns="http://www.w3.org/2000/svg" xmlns:xlink="http://www.w3.org/1999/xlink">
    <!-- Generator: Sketch 49.3 (51167) - http://www.bohemiancoding.com/sketch -->
    <title>uxmature-analytics</title>
    <desc>Created with Sketch.</desc>
    <defs></defs>
    <g id="Page-1" stroke="none" stroke-width="1" fill="none" fill-rule="evenodd">
        <g id="Artboard-5" transform="translate(-518.000000, -441.000000)">
            <g id="uxmature-analytics" transform="translate(518.000000, 441.000000)">
                <path d="M4.85321174,19.9999594 C5.8400915,19.9999594 6.64213934,19.1871576 6.64213934,18.1870457 C6.64213934,17.874308 6.58104736,17.5615541 6.39463139,17.3123491 L8.55326294,15.1247744 C8.80077089,15.2501857 9.10779882,15.375601 9.41638672,15.375601 C10.2184346,15.375601 10.8967264,14.8136299 11.0815583,14.062723 L13.7962898,14.062723 C14.0437977,14.8136299 14.7220936,15.375601 15.5241414,15.375601 C16.5110212,15.375601 17.313069,14.5627993 17.313069,13.5626873 C17.313069,13.2499497 17.251977,12.9371957 17.0655611,12.6879907 L19.3479486,10.3750008 C19.5954566,10.500412 19.9024845,10.6258273 20.2110724,10.6258273 C21.1979522,10.6258273 22,9.81302559 22,8.81291367 C22,7.81280175 21.1979522,7 20.2110724,7 C19.2241926,7 18.4221448,7.81280175 18.4221448,8.81291367 C18.4221448,9.12565134 18.4832368,9.43840526 18.6696527,9.68761028 L16.3872652,12.0006002 C16.1397573,11.875189 15.8327293,11.7497737 15.5241414,11.7497737 C14.7220936,11.7497737 14.0438017,12.3117448 13.7962898,13.1245466 L11.1426343,13.1245466 C10.9577863,12.3736397 10.2795105,11.7497737 9.41478263,11.7497737 C8.42790286,11.7497737 7.62585503,12.5625754 7.62585503,13.5626873 C7.62585503,13.875425 7.68694701,14.1881789 7.87336298,14.5009044 L5.71473142,16.688479 C5.46722347,16.5011526 5.16019555,16.4376525 4.7889276,16.4376525 C3.80204784,16.4376525 3,17.2504542 3,18.2505661 C3.06422799,19.1871982 3.86629187,20 4.85317163,20 L4.85321174,19.9999594 Z M20.2160371,7.869706 C20.709497,7.869706 21.0791609,8.24435478 21.0791609,8.74440261 C21.0791609,9.24445044 20.7094649,9.61909922 20.2160371,9.61909922 C19.7225771,9.61909922 19.3529133,9.24444638 19.3529133,8.74440261 C19.3513453,8.24432633 19.7836932,7.869706 20.2160371,7.869706 Z M15.5260623,12.6847436 C15.7735703,12.6847436 15.9584062,12.7466547 16.1432782,12.9355701 C16.3281262,13.1228966 16.3907862,13.310223 16.3907862,13.5610617 C16.3907862,14.061138 16.0210903,14.4357583 15.5276624,14.4357583 C15.0953185,14.4357583 14.6645386,14.0611055 14.6645386,13.5610617 C14.6629706,13.0594005 15.0326666,12.6847802 15.5260984,12.6847802 L15.5260623,12.6847436 Z M9.41846804,12.6847436 C9.91192797,12.6847436 10.2815918,13.0593964 10.2815918,13.5594402 C10.2815918,13.997581 9.91189589,14.3722419 9.41846804,14.3722419 C9.17096009,14.3722419 8.98612415,14.3103308 8.80125212,14.1214154 C8.61640416,13.934089 8.55374417,13.7467625 8.55374417,13.4959238 C8.55530816,13.059368 8.92500409,12.684707 9.41843195,12.684707 L9.41846804,12.6847436 Z M4.85361276,17.3108048 C5.34707269,17.3108048 5.71673654,17.6854576 5.71673654,18.1855014 C5.71673654,18.6855451 5.34704061,19.060198 4.85361276,19.060198 C4.36015243,19.060198 3.99048858,18.6855451 3.99048858,18.1855014 C3.98892218,17.6870101 4.36018451,17.3108048 4.85361276,17.3108048 Z" id="Fill-1" fill="#59E3DC"></path>
                <path d="M40,29.6202911 L40,0 L0,0 L0,29.6202911 L14.5132776,29.6202911 L14.5132776,33.0872987 L11.769758,33.0872987 L11.769758,34 L28.1114149,34 L28.1114149,33.0872987 L25.3678952,33.0872987 L25.3678952,29.6202911 L40,29.6202911 Z M39.0849782,25.8490234 L0.97479117,25.8490234 L0.97479117,5.2909078 L39.0849782,5.2909078 L39.0849782,25.8490234 Z M39.0849782,0.911238475 L39.0849782,4.43849716 L0.97479117,4.44004298 L0.97479117,0.911238475 L39.0849782,0.911238475 Z M0.97479117,28.7077875 L0.97479117,26.7619224 L39.0849782,26.7619224 L39.0849782,28.7077875 L0.97479117,28.7077875 Z M24.5114545,33.0273635 L15.4880695,33.0273635 L15.4880695,29.5603563 L24.5130399,29.5603563 L24.5114545,33.0273635 Z" id="Fill-2" fill="#505050"></path>
                <polygon id="Fill-3" fill="#505050" points="31 2 32 2 32 3 31 3"></polygon>
                <polygon id="Fill-4" fill="#505050" points="33 2 34 2 34 3 33 3"></polygon>
                <polygon id="Fill-5" fill="#505050" points="36 2 37 2 37 3 36 3"></polygon>
                <polygon id="Fill-6" fill="#505050" points="4 2 28 2 28 3 4 3"></polygon>
                <path d="M18.7830707,17.6571339 L18.7830707,24.0663593 L17.8194932,24.0663593 L17.8194932,20.3333738 L14.0247776,20.3333738 L14.0247776,24.0663593 L13,24.0663593 L13,25 L38,25 L38,24.0663593 L36.9752224,24.0663593 L36.9752224,11 L33.1805068,11 L33.1805068,24.0663593 L32.1557292,24.064778 L32.1557292,15.4170959 L28.3610137,15.4170959 L28.3610137,24.064778 L27.3362361,24.064778 L27.3362361,12.3681844 L23.5415205,12.3681844 L23.5415205,24.1278673 L22.5779429,24.1278673 L22.5779429,17.6571703 L18.7830707,17.6571339 Z M14.9271551,24.1278309 L14.9271551,21.2653159 L16.9155103,21.2653159 L16.9155103,24.0646608 L14.9271551,24.0646608 L14.9271551,24.1278309 Z M34.0232897,11.9952741 L36.0116448,11.9952741 L36.0116448,24.1278309 L34.0232897,24.1278309 L34.0232897,11.9952741 Z M29.265114,16.350862 L31.2534692,16.350862 L31.2534692,24.0663593 L29.265114,24.0663593 L29.265114,16.350862 Z M24.4454642,13.30191 L26.4338194,13.30191 L26.4338194,24.1281949 L24.4454642,24.1281949 L24.4454642,13.30191 Z M19.6857223,24.1281949 L19.6857223,18.652772 L21.6740775,18.652772 L21.6740775,24.1281949 L19.6857223,24.1281949 Z" id="Fill-7" fill="#59E3DC"></path>
            </g>
        </g>
    </g>
</svg>