<svg xmlns="http://www.w3.org/2000/svg" xmlns:xlink="http://www.w3.org/1999/xlink" version="1.1" x="0px" y="0px" viewBox="0 0 90 90" enable-background="new 0 0 90 90" xml:space="preserve"><g><path d="M83.872,68.351L57,61.014l-26.417,7.2L3.75,60.877V9.916l26.833,7.337L57,10.053l0.132,0.036l26.74,7.301V68.351z    M4.75,60.113l25.833,7.063L57,59.977l25.872,7.063V18.153L57,11.089l-26.417,7.2l-0.132-0.036L4.75,11.226V60.113z"></path></g><g><g><path d="M75.151,57.758l-0.446-0.879c-0.374-0.738-3.655-7.267-3.655-9.315c0-2.262,1.84-4.102,4.102-4.102    c2.261,0,4.101,1.84,4.101,4.102c0,2.049-3.28,8.577-3.654,9.315L75.151,57.758z M75.151,44.462c-1.71,0-3.102,1.392-3.102,3.102    c0,1.337,1.949,5.606,3.102,7.965c1.152-2.359,3.101-6.628,3.101-7.965C78.252,45.854,76.861,44.462,75.151,44.462z"></path></g></g><g><g><circle cx="75.151" cy="47.678" r="1.486"></circle></g></g><g><g><path d="M4.563,31.085c-0.169-0.035-0.34-0.074-0.513-0.117l0.244-0.97c0.158,0.04,0.314,0.076,0.469,0.107L4.563,31.085z"></path></g><g><path d="M29.91,61.021c-0.32-0.001-0.67-0.019-1.045-0.052l0.089-0.996c0.345,0.031,0.666,0.047,0.959,0.048L29.91,61.021z     M30.997,60.944l-0.176-0.984c0.271-0.049,0.562-0.134,0.865-0.252l0.366,0.93C31.688,60.781,31.333,60.884,30.997,60.944z     M27.841,60.848c-0.325-0.047-0.663-0.104-1.011-0.17l0.186-0.982c0.334,0.062,0.657,0.117,0.968,0.162L27.841,60.848z     M25.829,60.47c-0.324-0.073-0.654-0.153-0.989-0.239l0.249-0.969c0.326,0.084,0.647,0.162,0.961,0.233L25.829,60.47z     M33.017,60.174l-0.491-0.871c0.267-0.15,0.536-0.32,0.806-0.51l0.573,0.82C33.607,59.82,33.311,60.008,33.017,60.174z     M23.856,59.958c-0.321-0.094-0.646-0.193-0.972-0.3l0.309-0.951c0.317,0.103,0.632,0.2,0.945,0.292L23.856,59.958z     M21.919,59.331c-0.318-0.114-0.636-0.232-0.953-0.356l0.363-0.932c0.309,0.12,0.618,0.236,0.927,0.347L21.919,59.331z     M34.733,58.984l-0.633-0.775c0.245-0.199,0.489-0.413,0.732-0.638l0.68,0.732C35.254,58.544,34.994,58.771,34.733,58.984z     M20.023,58.589c-0.313-0.134-0.624-0.273-0.932-0.417l0.423-0.906c0.298,0.14,0.6,0.273,0.903,0.403L20.023,58.589z     M18.175,57.723c-0.306-0.157-0.607-0.318-0.902-0.486l0.494-0.869c0.282,0.16,0.571,0.315,0.864,0.465L18.175,57.723z     M36.248,57.584l-0.718-0.695c0.224-0.231,0.446-0.472,0.664-0.72l0.751,0.66C36.716,57.089,36.484,57.341,36.248,57.584z     M42.449,57.515c-0.284,0-0.578-0.025-0.875-0.075l0.166-0.986c0.239,0.04,0.475,0.062,0.708,0.062l0.184-0.005l0.043,1    L42.449,57.515z M43.787,57.314l-0.297-0.955c0.272-0.085,0.537-0.208,0.785-0.366l0.538,0.844    C44.489,57.043,44.144,57.203,43.787,57.314z M40.526,57.168c-0.319-0.11-0.649-0.251-0.982-0.417l0.447-0.895    c0.287,0.144,0.574,0.267,0.862,0.366L40.526,57.168z M16.393,56.711c-0.294-0.185-0.581-0.375-0.858-0.571l0.577-0.816    c0.262,0.185,0.533,0.365,0.812,0.54L16.393,56.711z M38.629,56.228c-0.254-0.162-0.505-0.338-0.754-0.526    c-0.089,0.115-0.18,0.229-0.271,0.343l-0.778-0.627c0.205-0.255,0.405-0.515,0.601-0.778l0.706,0.521l0.253-0.327    c0.257,0.198,0.519,0.384,0.783,0.553L38.629,56.228z M45.673,56.133l-0.713-0.701c0.2-0.203,0.392-0.44,0.572-0.706l0.828,0.561    C46.146,55.602,45.916,55.887,45.673,56.133z M14.71,55.52c-0.275-0.221-0.538-0.448-0.787-0.682l0.685-0.729    c0.23,0.216,0.473,0.426,0.728,0.631L14.71,55.52z M36.976,54.959c-0.255-0.229-0.504-0.471-0.747-0.721l0.72-0.695    c0.226,0.234,0.458,0.458,0.696,0.672L36.976,54.959z M38.821,54.396l-0.829-0.559c0.184-0.273,0.361-0.549,0.531-0.826    l0.853,0.523C39.198,53.823,39.014,54.11,38.821,54.396z M46.892,54.373l-0.885-0.465c0.153-0.291,0.299-0.584,0.438-0.878    l0.904,0.428C47.204,53.766,47.051,54.07,46.892,54.373z M13.192,54.089c-0.24-0.27-0.46-0.547-0.658-0.83l0.819-0.572    c0.176,0.252,0.372,0.498,0.585,0.738L13.192,54.089z M35.535,53.471c-0.224-0.264-0.439-0.535-0.644-0.81l0.803-0.598    c0.192,0.259,0.394,0.513,0.604,0.761L35.535,53.471z M39.892,52.649l-0.875-0.484c0.16-0.289,0.311-0.578,0.452-0.867    l0.898,0.439C40.219,52.04,40.061,52.345,39.892,52.649z M47.767,52.527l-0.92-0.393c0.129-0.301,0.249-0.604,0.361-0.908    l0.938,0.348C48.027,51.894,47.901,52.211,47.767,52.527z M11.981,52.344c-0.166-0.328-0.303-0.665-0.407-1.002l0.956-0.295    c0.087,0.283,0.203,0.567,0.344,0.846L11.981,52.344z M34.302,51.81c-0.19-0.295-0.368-0.594-0.532-0.894l0.878-0.479    c0.152,0.278,0.317,0.556,0.494,0.829L34.302,51.81z M40.794,50.798l-0.923-0.387c0.128-0.306,0.243-0.607,0.345-0.905    l0.946,0.322C41.054,50.147,40.931,50.471,40.794,50.798z M48.48,50.606l-0.953-0.303c0.099-0.312,0.19-0.624,0.272-0.937    l0.967,0.252C48.681,49.949,48.585,50.277,48.48,50.606z M11.356,50.27c-0.018-0.181-0.027-0.362-0.028-0.546l0.015-0.526    l0.999,0.041l-0.012,0.386c-0.001,0.248,0.006,0.396,0.021,0.544L11.356,50.27z M33.306,49.982    c-0.146-0.328-0.274-0.656-0.381-0.979l0.949-0.314c0.097,0.292,0.212,0.589,0.345,0.888L33.306,49.982z M41.459,48.825    l-0.971-0.24c0.078-0.316,0.138-0.627,0.177-0.927l0.992,0.127C41.614,48.122,41.547,48.47,41.459,48.825z M49.001,48.619    l-0.979-0.203c0.066-0.319,0.122-0.639,0.168-0.957l0.99,0.145C49.131,47.941,49.071,48.28,49.001,48.619z M12.416,48.276    l-0.994-0.109c0.04-0.363,0.092-0.705,0.155-1.029l0.981,0.193C12.5,47.628,12.452,47.942,12.416,48.276z M32.652,47.973    c-0.073-0.375-0.113-0.739-0.119-1.082l1-0.018c0.005,0.285,0.039,0.591,0.1,0.908L32.652,47.973z M40.714,46.738    c-0.009-0.316-0.051-0.61-0.123-0.872l0.964-0.266c0.093,0.339,0.147,0.711,0.159,1.106L40.714,46.738z M49.298,46.578    l-0.996-0.082c0.026-0.323,0.042-0.646,0.047-0.967l1,0.015C49.344,45.887,49.326,46.231,49.298,46.578z M12.789,46.421    l-0.953-0.303c0.111-0.351,0.244-0.685,0.394-0.993l0.899,0.438C13,45.827,12.885,46.116,12.789,46.421z M33.621,46.006    l-0.973-0.232c0.095-0.395,0.248-0.756,0.455-1.075l0.838,0.547C33.796,45.467,33.688,45.723,33.621,46.006z M40.248,45.111    c-0.153-0.222-0.347-0.413-0.577-0.567l0.56-0.829c0.333,0.225,0.616,0.504,0.84,0.829L40.248,45.111z M13.593,44.784l-0.808-0.59    c0.215-0.295,0.46-0.569,0.728-0.815l0.678,0.735C13.971,44.317,13.77,44.542,13.593,44.784z M34.503,44.658l-0.587-0.81    c0.292-0.212,0.633-0.389,1.012-0.523l0.336,0.941C34.975,44.37,34.719,44.501,34.503,44.658z M48.328,44.563    c-0.018-0.322-0.048-0.642-0.091-0.958l0.992-0.132c0.045,0.342,0.077,0.688,0.097,1.035L48.328,44.563z M38.902,44.185    c-0.265-0.081-0.562-0.138-0.884-0.168l0.096-0.995c0.388,0.037,0.751,0.107,1.08,0.208L38.902,44.185z M36.141,44.055    l-0.146-0.989c0.333-0.049,0.69-0.077,1.064-0.082l0.014,1C36.743,43.988,36.43,44.012,36.141,44.055z M14.911,43.564    l-0.536-0.844c0.287-0.183,0.605-0.353,0.945-0.504l0.408,0.913C15.432,43.261,15.157,43.407,14.911,43.564z M16.614,42.788    l-0.314-0.949c0.319-0.105,0.651-0.201,0.994-0.289l0.248,0.969C17.221,42.6,16.911,42.689,16.614,42.788z M48.069,42.659    c-0.066-0.312-0.148-0.621-0.242-0.926l0.955-0.295c0.104,0.333,0.191,0.67,0.266,1.011L48.069,42.659z M18.497,42.297    l-0.207-0.979c0.323-0.068,0.655-0.133,0.997-0.196l0.181,0.983C19.134,42.167,18.811,42.231,18.497,42.297z M20.45,41.929    l-0.175-0.984l0.987-0.174l0.175,0.984L20.45,41.929z M22.428,41.573l-0.186-0.982c0.32-0.061,0.644-0.125,0.974-0.193    l0.204,0.979C23.084,41.447,22.753,41.512,22.428,41.573z M24.41,41.158l-0.228-0.974c0.316-0.074,0.636-0.153,0.959-0.237    l0.254,0.967C25.063,41.001,24.734,41.083,24.41,41.158z M47.504,40.829c-0.118-0.294-0.252-0.584-0.398-0.87l0.891-0.456    c0.16,0.313,0.306,0.63,0.436,0.952L47.504,40.829z M26.375,40.64l-0.285-0.959c0.31-0.092,0.623-0.19,0.937-0.296l0.319,0.947    C27.02,40.442,26.696,40.544,26.375,40.64z M28.307,39.988l-0.354-0.935c0.301-0.115,0.605-0.236,0.911-0.366l0.392,0.92    C28.937,39.743,28.621,39.869,28.307,39.988z M46.633,39.128c-0.168-0.267-0.35-0.53-0.545-0.788l0.797-0.604    c0.213,0.281,0.41,0.567,0.594,0.858L46.633,39.128z M45.477,37.599c-0.21-0.235-0.434-0.467-0.669-0.693l0.692-0.722    c0.254,0.245,0.495,0.494,0.722,0.748L45.477,37.599z M44.087,36.263c-0.18-0.149-0.367-0.296-0.56-0.441l-0.207-0.152l0.588-0.81    l0.219,0.162c0.206,0.154,0.405,0.311,0.598,0.47L44.087,36.263z M42.518,35.119c-0.275-0.178-0.552-0.347-0.831-0.506    l0.496-0.868c0.294,0.168,0.587,0.346,0.878,0.534L42.518,35.119z M40.829,34.154c-0.292-0.146-0.586-0.284-0.882-0.413    l0.399-0.917c0.312,0.136,0.622,0.281,0.931,0.435L40.829,34.154z M39.043,33.375c-0.306-0.115-0.613-0.222-0.921-0.321    l0.306-0.952c0.324,0.104,0.647,0.216,0.968,0.337L39.043,33.375z M37.183,32.776c-0.315-0.086-0.631-0.165-0.949-0.238    l0.224-0.975c0.331,0.076,0.661,0.158,0.989,0.248L37.183,32.776z M35.273,32.338c-0.322-0.062-0.646-0.117-0.969-0.167    l0.153-0.988c0.335,0.052,0.669,0.11,1.003,0.173L35.273,32.338z M33.325,32.033c-0.327-0.042-0.654-0.08-0.982-0.113l0.103-0.995    c0.336,0.035,0.672,0.073,1.008,0.116L33.325,32.033z M31.355,31.828c-0.331-0.027-0.661-0.053-0.992-0.075l0.068-0.998    c0.335,0.023,0.671,0.049,1.006,0.077L31.355,31.828z M29.369,31.688l-0.997-0.057l0.054-0.998l1.003,0.057L29.369,31.688z     M27.371,31.579l-1-0.056l0.058-0.998l0.999,0.056L27.371,31.579z M25.367,31.462c-0.335-0.023-0.67-0.047-1.004-0.074    l0.081-0.997c0.329,0.027,0.659,0.051,0.991,0.073L25.367,31.462z M6.643,31.322c-0.342-0.006-0.691-0.029-1.047-0.07l0.114-0.993    c0.323,0.037,0.641,0.058,0.951,0.063L6.643,31.322z M23.358,31.298c-0.336-0.034-0.671-0.071-1.005-0.112l0.123-0.992    c0.326,0.041,0.653,0.077,0.982,0.109L23.358,31.298z M7.694,31.286L7.608,30.29c0.32-0.028,0.632-0.073,0.937-0.133l0.193,0.981    C8.399,31.205,8.051,31.255,7.694,31.286z M21.349,31.047c-0.336-0.052-0.671-0.109-1.003-0.172l0.187-0.982    c0.321,0.061,0.644,0.116,0.968,0.166L21.349,31.047z M9.761,30.877l-0.3-0.954c0.305-0.096,0.6-0.207,0.887-0.332l0.4,0.916    C10.43,30.646,10.1,30.771,9.761,30.877z M19.348,30.666c-0.333-0.077-0.664-0.162-0.992-0.254l0.271-0.963    c0.313,0.088,0.628,0.169,0.946,0.242L19.348,30.666z M17.374,30.109c-0.325-0.11-0.646-0.228-0.966-0.356l0.372-0.929    c0.302,0.121,0.607,0.233,0.915,0.337L17.374,30.109z M11.69,30.034l-0.495-0.869c0.277-0.158,0.545-0.329,0.802-0.512    l0.578,0.816C12.291,29.671,11.996,29.86,11.69,30.034z M15.464,29.343c-0.31-0.146-0.616-0.302-0.92-0.469l0.482-0.876    c0.285,0.157,0.572,0.303,0.863,0.44L15.464,29.343z M13.4,28.821l-0.653-0.757c0.156-0.135,0.668-0.504,0.815-0.647    c-0.078-0.105,0.599,0.684,0.599,0.684C13.919,28.351,13.666,28.592,13.4,28.821z M14.854,27.32l-0.775-0.632    c0.204-0.25,0.396-0.507,0.575-0.769l0.825,0.564C15.283,26.769,15.075,27.048,14.854,27.32z M12.431,26.412    c-0.159-0.293-0.313-0.606-0.459-0.932l0.912-0.409c0.136,0.303,0.28,0.594,0.427,0.867L12.431,26.412z M16.032,25.602    l-0.867-0.498c0.162-0.282,0.311-0.567,0.445-0.853l0.904,0.428C16.368,24.988,16.207,25.296,16.032,25.602z M11.581,24.519    c-0.119-0.323-0.227-0.654-0.322-0.988l0.962-0.274c0.088,0.31,0.189,0.618,0.299,0.917L11.581,24.519z M16.921,23.717    l-0.937-0.351c0.114-0.305,0.213-0.609,0.295-0.91l0.964,0.265C17.154,23.05,17.046,23.382,16.921,23.717z M11.014,22.514    c-0.068-0.352-0.118-0.701-0.147-1.044l0.996-0.085c0.026,0.309,0.072,0.623,0.133,0.939L11.014,22.514z M17.473,21.694    l-0.986-0.166c0.054-0.321,0.088-0.633,0.1-0.934l0.999,0.041C17.572,20.976,17.534,21.332,17.473,21.694z M11.847,20.456    l-0.998-0.061c0.023-0.389,0.082-0.755,0.174-1.09l0.964,0.266C11.914,19.839,11.867,20.136,11.847,20.456z M16.554,19.677    c-0.04-0.313-0.109-0.599-0.208-0.849l0.93-0.367c0.129,0.327,0.221,0.694,0.271,1.091L16.554,19.677z M12.326,18.793    l-0.843-0.538c0.214-0.336,0.485-0.625,0.803-0.861l0.594,0.805C12.661,18.361,12.474,18.561,12.326,18.793z M15.924,18.148    c-0.177-0.184-0.391-0.317-0.635-0.396l0.31-0.951c0.402,0.131,0.753,0.351,1.045,0.653L15.924,18.148z M13.627,17.825    l-0.308-0.952c0.207-0.066,0.43-0.121,0.668-0.16c0.151-0.025,0.296-0.041,0.438-0.049l0.059,0.998    c-0.107,0.006-0.218,0.019-0.333,0.038C13.964,17.731,13.789,17.772,13.627,17.825z"></path></g><g><path d="M30.351,39.11l-0.436-0.9l0.631-0.315l0.667,0.231l-0.322,0.946l-0.271-0.093C30.529,39.023,30.44,39.067,30.351,39.11z"></path></g><g><path d="M73.759,58.978c-0.351-0.034-0.688-0.075-1.014-0.121l0.141-0.99c0.311,0.044,0.634,0.083,0.969,0.115L73.759,58.978z     M71.733,58.687c-0.352-0.069-0.686-0.146-1.005-0.229l0.254-0.967c0.3,0.078,0.614,0.15,0.944,0.216L71.733,58.687z     M69.736,58.154c-0.345-0.12-0.668-0.251-0.972-0.391l0.42-0.908c0.274,0.128,0.568,0.245,0.88,0.354L69.736,58.154z     M67.834,57.265c-0.31-0.19-0.602-0.401-0.87-0.628l0.645-0.764c0.23,0.194,0.482,0.376,0.749,0.54L67.834,57.265z M66.199,55.875    c-0.234-0.277-0.444-0.577-0.624-0.893l0.867-0.496c0.15,0.262,0.325,0.512,0.521,0.742L66.199,55.875z M65.122,54.001    c-0.118-0.324-0.215-0.673-0.288-1.035l0.98-0.197c0.062,0.313,0.146,0.613,0.247,0.891L65.122,54.001z M64.692,51.916    c-0.021-0.263-0.03-0.53-0.03-0.803l0.002-0.249l1,0.025l-0.002,0.218c0,0.251,0.008,0.493,0.026,0.73L64.692,51.916z     M65.723,49.928l-0.996-0.096c0.032-0.335,0.075-0.676,0.129-1.021l0.988,0.152C65.794,49.289,65.753,49.61,65.723,49.928z     M66.017,48.003l-0.98-0.199c0.066-0.328,0.14-0.659,0.219-0.992l0.973,0.23C66.152,47.363,66.081,47.685,66.017,48.003z     M66.467,46.085L65.5,45.829c0.086-0.323,0.174-0.648,0.266-0.973l0.963,0.271C66.639,45.448,66.551,45.767,66.467,46.085z     M67.004,44.171l-0.959-0.28l0.284-0.962l0.959,0.285L67.004,44.171z M51.907,44.143c-0.17,0-0.345-0.004-0.524-0.011l0.037-0.999    c0.339,0.012,0.66,0.013,0.958,0l0.047,0.999C52.259,44.139,52.086,44.143,51.907,44.143z M50.356,44.065    c-0.325-0.03-0.663-0.068-1.013-0.113l0.129-0.992c0.336,0.044,0.662,0.08,0.976,0.109L50.356,44.065z M53.491,44.008l-0.197-0.98    c0.322-0.065,0.578-0.158,0.761-0.275l0.541,0.842C54.308,43.779,53.937,43.918,53.491,44.008z M48.341,43.807    c-0.327-0.052-0.66-0.109-0.999-0.171l0.18-0.983c0.331,0.06,0.656,0.116,0.976,0.167L48.341,43.807z M46.35,43.445    c-0.325-0.065-0.655-0.135-0.987-0.207l0.213-0.978c0.327,0.071,0.652,0.14,0.971,0.204L46.35,43.445z M44.38,43.017    c-0.325-0.075-0.652-0.153-0.979-0.233l0.237-0.972c0.324,0.079,0.646,0.156,0.968,0.23L44.38,43.017z M55.375,42.593    l-0.914-0.404c0.121-0.274,0.215-0.561,0.278-0.853l0.977,0.213C55.638,41.907,55.523,42.258,55.375,42.593z M42.423,42.541    l-0.973-0.252l0.255-0.967l0.965,0.25L42.423,42.541z M67.573,42.256l-0.959-0.285c0.096-0.32,0.188-0.639,0.279-0.955    l0.961,0.274C67.764,41.61,67.669,41.932,67.573,42.256z M40.481,42.028l-0.969-0.269l0.271-0.963l0.96,0.267L40.481,42.028z     M38.547,41.483l-0.964-0.282l0.284-0.959l0.957,0.28L38.547,41.483z M36.621,40.914l-0.96-0.293l0.295-0.956l0.955,0.292    L36.621,40.914z M55.847,40.468l-1-0.032l0.003-0.167c0-0.248-0.017-0.499-0.047-0.753l0.992-0.12    c0.036,0.295,0.055,0.586,0.055,0.873L55.847,40.468z M34.703,40.321l-0.957-0.304l0.306-0.952l0.951,0.302L34.703,40.321z     M68.124,40.32l-0.965-0.26c0.086-0.322,0.168-0.641,0.243-0.956l0.973,0.232C68.298,39.66,68.214,39.988,68.124,40.32z     M32.792,39.708l-0.955-0.315l0.317-0.948l0.948,0.313L32.792,39.708z M54.63,38.595c-0.074-0.302-0.166-0.606-0.272-0.915    l0.945-0.326c0.116,0.336,0.216,0.67,0.298,1L54.63,38.595z M68.594,38.341l-0.98-0.194c0.064-0.326,0.12-0.646,0.165-0.959    l0.99,0.142C68.722,37.66,68.662,37.998,68.594,38.341z M54.01,36.78c-0.125-0.293-0.261-0.588-0.406-0.884l0.898-0.44    c0.153,0.313,0.297,0.625,0.428,0.934L54.01,36.78z M68.878,36.295l-0.998-0.062c0.012-0.196,0.019-0.389,0.019-0.578    c-0.001-0.122-0.004-0.246-0.009-0.367l0.998-0.046c0.007,0.134,0.01,0.271,0.011,0.409    C68.898,35.865,68.892,36.078,68.878,36.295z M53.155,35.024c-0.155-0.286-0.316-0.573-0.483-0.859l0.865-0.502    c0.171,0.295,0.338,0.59,0.497,0.885L53.155,35.024z M67.775,34.377c-0.063-0.302-0.155-0.586-0.273-0.843l0.91-0.416    c0.148,0.325,0.264,0.679,0.342,1.054L67.775,34.377z M52.165,33.316c-0.171-0.28-0.346-0.56-0.524-0.84l0.842-0.538    c0.183,0.285,0.361,0.571,0.536,0.857L52.165,33.316z M67.045,32.8c-0.179-0.217-0.393-0.415-0.636-0.59l0.584-0.812    c0.313,0.225,0.591,0.483,0.823,0.766L67.045,32.8z M65.629,31.767c-0.263-0.118-0.556-0.222-0.869-0.309l0.268-0.964    c0.362,0.101,0.702,0.222,1.012,0.361L65.629,31.767z M51.103,31.636l-0.545-0.837l0.836-0.548l0.549,0.841L51.103,31.636z     M63.761,31.147c-0.354-0.136-0.683-0.297-0.978-0.477l0.521-0.854c0.243,0.148,0.518,0.282,0.815,0.396L63.761,31.147z     M61.904,29.99c-0.269-0.264-0.502-0.56-0.694-0.88l0.857-0.516c0.149,0.248,0.33,0.478,0.538,0.684L61.904,29.99z M50.009,29.96    l-0.546-0.843l0.842-0.54l0.542,0.836L50.009,29.96z M48.925,28.265c-0.181-0.291-0.356-0.58-0.525-0.866l0.863-0.507    c0.163,0.279,0.335,0.561,0.512,0.844L48.925,28.265z M60.753,28.099c-0.105-0.324-0.187-0.68-0.24-1.058l0.99-0.141    c0.046,0.32,0.113,0.62,0.201,0.889L60.753,28.099z M47.896,26.518c-0.167-0.305-0.326-0.607-0.474-0.906l0.896-0.443    c0.142,0.286,0.293,0.575,0.454,0.868L47.896,26.518z M60.431,25.981l-0.002-0.227c0-0.266,0.009-0.536,0.025-0.809l0.998,0.06    c-0.015,0.252-0.023,0.502-0.023,0.749l0.002,0.213L60.431,25.981z M46.993,24.673c-0.14-0.333-0.261-0.66-0.361-0.981l0.953-0.3    c0.093,0.293,0.204,0.592,0.33,0.895L46.993,24.673z M61.536,24.034l-0.994-0.111c0.038-0.334,0.08-0.669,0.124-1.002l0.992,0.132    C61.614,23.379,61.572,23.707,61.536,24.034z M46.373,22.664c-0.065-0.363-0.099-0.718-0.099-1.054l1-0.027    c0,0.304,0.028,0.599,0.083,0.903L46.373,22.664z M61.795,22.062l-0.99-0.133c0.044-0.332,0.088-0.66,0.123-0.98l0.994,0.11    C61.885,21.388,61.841,21.723,61.795,22.062z M47.382,20.72l-0.969-0.25c0.096-0.369,0.241-0.722,0.435-1.048l0.861,0.509    C47.563,20.176,47.453,20.442,47.382,20.72z M62.01,20.037l-0.998-0.056c0.01-0.183,0.016-0.362,0.016-0.537    c0-0.14-0.004-0.275-0.011-0.408l0.998-0.055c0.009,0.15,0.013,0.305,0.013,0.463C62.027,19.637,62.021,19.835,62.01,20.037z     M48.246,19.244l-0.709-0.705c0.244-0.246,0.528-0.479,0.844-0.694l0.562,0.827C48.68,18.851,48.445,19.043,48.246,19.244z     M49.746,18.203l-0.447-0.895c0.294-0.147,0.613-0.287,0.958-0.42l0.359,0.933C50.303,17.942,50.013,18.069,49.746,18.203z     M60.885,18.157c-0.081-0.292-0.193-0.534-0.343-0.739l0.807-0.59c0.223,0.304,0.386,0.651,0.499,1.062L60.885,18.157z     M51.528,17.51l-0.291-0.957c0.312-0.095,0.643-0.185,0.99-0.271l0.238,0.972C52.136,17.334,51.823,17.42,51.528,17.51z     M53.42,17.043l-0.195-0.98c0.32-0.064,0.654-0.124,1.001-0.18l0.16,0.987C54.051,16.924,53.729,16.982,53.42,17.043z     M59.954,16.901c-0.22-0.125-0.486-0.224-0.792-0.291l0.216-0.977c0.404,0.089,0.765,0.224,1.072,0.399L59.954,16.901z     M55.359,16.727l-0.131-0.991c0.324-0.043,0.659-0.083,1.004-0.12l0.107,0.994C56.003,16.646,55.676,16.685,55.359,16.727z     M57.315,16.519l-0.068-0.998c0.382-0.025,0.733-0.033,1.054-0.019l-0.043,0.999C57.974,16.49,57.659,16.495,57.315,16.519z"></path></g><g><polygon points="75.703,59.074 74.846,59.062 74.906,58.063 75.75,58.076   "></polygon></g></g><g><rect x="30.333" y="17.771" width="0.5" height="49.924"></rect></g><g><rect x="56.75" y="10.571" width="0.5" height="49.924"></rect></g></svg>