<?xml version="1.0" encoding="UTF-8" standalone="no"?>
<svg width="90px" height="66px" viewBox="0 0 90 66" version="1.1" xmlns="http://www.w3.org/2000/svg" xmlns:xlink="http://www.w3.org/1999/xlink" xmlns:sketch="http://www.bohemiancoding.com/sketch/ns">
    <!-- Generator: Sketch 3.4.4 (17249) - http://www.bohemiancoding.com/sketch -->
    <title>Rectangle 250 Copy 2 + career</title>
    <desc>Created with Sketch.</desc>
    <defs></defs>
    <g id="Page-1" stroke="none" stroke-width="1" fill="none" fill-rule="evenodd" sketch:type="MSPage">
        <g id="Icons" sketch:type="MSArtboardGroup" transform="translate(-675.000000, -271.000000)">
            <g id="Rectangle-250-Copy-2-+-career" sketch:type="MSLayerGroup" transform="translate(660.000000, 257.000000)">
                <g sketch:type="MSShapeGroup">
                    <rect id="Rectangle-250-Copy-2" x="0" y="0" width="117" height="90"></rect>
                    <g id="career" transform="translate(14.500000, 13.000000)" fill="#FFFFFF">
                        <g id="Group">
                            <path d="M89.8577778,66.2752833 L60,58.0823 L30.6477778,66.1223 L0.833333333,57.9293167 L0.833333333,1.02286667 L30.6477778,9.21585 L60,1.17585 L60.1466667,1.21605 L89.8577778,9.36883333 L89.8577778,66.2752833 L89.8577778,66.2752833 Z M1.94444444,57.0761833 L30.6477778,64.9632 L60,56.9243167 L88.7466667,64.8113333 L88.7466667,10.22085 L60,2.33271667 L30.6477778,10.3727167 L30.5011111,10.3325167 L1.94444444,2.4857 L1.94444444,57.0761833 L1.94444444,57.0761833 Z" id="Shape"></path>
                            <path d="M80.1677778,54.4464333 L79.6722222,53.4648833 C79.2566667,52.6407833 75.6111111,45.3500667 75.6111111,43.0631333 C75.6111111,40.5372333 77.6555556,38.4825667 80.1688889,38.4825667 C82.6811111,38.4825667 84.7255556,40.5372333 84.7255556,43.0631333 C84.7255556,45.3511833 81.0811111,52.6407833 80.6655556,53.4648833 L80.1677778,54.4464333 L80.1677778,54.4464333 Z M80.1677778,39.5992333 C78.2677778,39.5992333 76.7211111,41.1536333 76.7211111,43.0631333 C76.7211111,44.5561167 78.8866667,49.3231667 80.1677778,51.9573833 C81.4477778,49.3231667 83.6133333,44.5561167 83.6133333,43.0631333 C83.6133333,41.1536333 82.0677778,39.5992333 80.1677778,39.5992333 L80.1677778,39.5992333 Z" id="Shape"></path>
                            <ellipse id="Oval" cx="80.1677778" cy="43.1904333" rx="1.65111111" ry="1.65936667"></ellipse>
                            <g transform="translate(1.111111, 6.700000)" id="Shape">
                                <path d="M0.625555556,17.9615833 C0.437777778,17.9225 0.247777778,17.87895 0.0555555556,17.8309333 L0.326666667,16.7477667 C0.502222222,16.7924333 0.675555556,16.8326333 0.847777778,16.86725 L0.625555556,17.9615833 L0.625555556,17.9615833 Z"></path>
                                <path d="M28.7888889,51.3901167 C28.4333333,51.389 28.0444444,51.3689 27.6277778,51.33205 L27.7266667,50.21985 C28.11,50.2544667 28.4666667,50.2723333 28.7922222,50.27345 L28.7888889,51.3901167 L28.7888889,51.3901167 Z M29.9966667,51.3041333 L29.8011111,50.2053333 C30.1022222,50.1506167 30.4255556,50.0557 30.7622222,49.9239333 L31.1688889,50.9624333 C30.7644444,51.1221167 30.37,51.2371333 29.9966667,51.3041333 L29.9966667,51.3041333 Z M26.49,51.1969333 C26.1288889,51.14445 25.7533333,51.0808 25.3666667,51.0071 L25.5733333,49.9105333 C25.9444444,49.9797667 26.3033333,50.0411833 26.6488889,50.0914333 L26.49,51.1969333 L26.49,51.1969333 Z M24.2544444,50.7748333 C23.8944444,50.6933167 23.5277778,50.6039833 23.1555556,50.50795 L23.4322222,49.4259 C23.7944444,49.5197 24.1511111,49.6068 24.5,49.6860833 L24.2544444,50.7748333 L24.2544444,50.7748333 Z M32.2411111,50.4443 L31.6955556,49.4716833 C31.9922222,49.3041833 32.2911111,49.11435 32.5911111,48.9021833 L33.2277778,49.81785 C32.8966667,50.049 32.5677778,50.2589333 32.2411111,50.4443 L32.2411111,50.4443 Z M22.0622222,50.2031 C21.7055556,50.0981333 21.3444444,49.9875833 20.9822222,49.8681 L21.3255556,48.80615 C21.6777778,48.9211667 22.0277778,49.0294833 22.3755556,49.1322167 L22.0622222,50.2031 L22.0622222,50.2031 Z M19.91,49.50295 C19.5566667,49.37565 19.2033333,49.2438833 18.8511111,49.1054167 L19.2544444,48.0646833 C19.5977778,48.1986833 19.9411111,48.3282167 20.2844444,48.4521667 L19.91,49.50295 L19.91,49.50295 Z M34.1477778,49.1154667 L33.4444444,48.25005 C33.7166667,48.0278333 33.9877778,47.7888667 34.2577778,47.5376167 L35.0133333,48.3550167 C34.7266667,48.6241333 34.4377778,48.8776167 34.1477778,49.1154667 L34.1477778,49.1154667 Z M17.8033333,48.6743833 C17.4555556,48.52475 17.11,48.3695333 16.7677778,48.2087333 L17.2377778,47.1970333 C17.5688889,47.3533667 17.9044444,47.5018833 18.2411111,47.64705 L17.8033333,48.6743833 L17.8033333,48.6743833 Z M15.75,47.70735 C15.41,47.5320333 15.0755556,47.35225 14.7477778,47.16465 L15.2966667,46.1942667 C15.61,46.3729333 15.9311111,46.5460167 16.2566667,46.7135167 L15.75,47.70735 L15.75,47.70735 Z M35.8311111,47.5521333 L35.0333333,46.77605 C35.2822222,46.5181 35.5288889,46.2489833 35.7711111,45.97205 L36.6055556,46.70905 C36.3511111,46.9993833 36.0933333,47.2807833 35.8311111,47.5521333 L35.8311111,47.5521333 Z M42.7211111,47.4750833 C42.4055556,47.4750833 42.0788889,47.4471667 41.7488889,47.3913333 L41.9333333,46.2903 C42.1988889,46.3349667 42.4611111,46.3595333 42.72,46.3595333 L42.9244444,46.35395 L42.9722222,47.4706167 L42.7211111,47.4750833 L42.7211111,47.4750833 Z M44.2077778,47.2506333 L43.8777778,46.1842167 C44.18,46.0893 44.4744444,45.95195 44.75,45.7755167 L45.3477778,46.7179833 C44.9877778,46.9480167 44.6044444,47.1266833 44.2077778,47.2506333 L44.2077778,47.2506333 Z M40.5844444,47.0876 C40.23,46.9647667 39.8633333,46.8073167 39.4933333,46.62195 L39.99,45.6225333 C40.3088889,45.7833333 40.6277778,45.9206833 40.9477778,46.0312333 L40.5844444,47.0876 L40.5844444,47.0876 Z M13.77,46.5772833 C13.4433333,46.3707 13.1244444,46.1585333 12.8166667,45.9396667 L13.4577778,45.0284667 C13.7488889,45.23505 14.05,45.43605 14.36,45.6314667 L13.77,46.5772833 L13.77,46.5772833 Z M38.4766667,46.0379333 C38.1944444,45.8570333 37.9155556,45.6605 37.6388889,45.4505667 C37.54,45.5789833 37.4388889,45.7062833 37.3377778,45.8335833 L36.4733333,45.1334333 C36.7011111,44.8486833 36.9233333,44.55835 37.1411111,44.2646667 L37.9255556,44.84645 L38.2066667,44.4813 C38.4922222,44.7024 38.7833333,44.9101 39.0766667,45.0988167 L38.4766667,46.0379333 L38.4766667,46.0379333 Z M46.3033333,45.93185 L45.5111111,45.1490667 C45.7333333,44.9223833 45.9466667,44.6577333 46.1466667,44.3607 L47.0666667,44.98715 C46.8288889,45.3389 46.5733333,45.65715 46.3033333,45.93185 L46.3033333,45.93185 Z M11.9,45.2473333 C11.5944444,45.00055 11.3022222,44.7470667 11.0255556,44.4857667 L11.7866667,43.6717167 C12.0422222,43.9129167 12.3122222,44.1474167 12.5955556,44.3763333 L11.9,45.2473333 L11.9,45.2473333 Z M36.64,44.6208833 C36.3566667,44.3651667 36.08,44.0949333 35.81,43.8157667 L36.61,43.0396833 C36.8611111,43.3009833 37.1188889,43.5511167 37.3833333,43.7900833 L36.64,44.6208833 L36.64,44.6208833 Z M38.69,43.9922 L37.7688889,43.3679833 C37.9733333,43.0631333 38.17,42.7549333 38.3588889,42.4456167 L39.3066667,43.0296333 C39.1088889,43.35235 38.9044444,43.6728333 38.69,43.9922 L38.69,43.9922 Z M47.6577778,43.9665167 L46.6744444,43.4472667 C46.8444444,43.1223167 47.0066667,42.7951333 47.1611111,42.4668333 L48.1655556,42.9447667 C48.0044444,43.2887 47.8344444,43.6281667 47.6577778,43.9665167 L47.6577778,43.9665167 Z M10.2133333,43.6493833 C9.94666667,43.3478833 9.70222222,43.0385667 9.48222222,42.72255 L10.3922222,42.0838167 C10.5877778,42.3652167 10.8055556,42.6399167 11.0422222,42.9079167 L10.2133333,43.6493833 L10.2133333,43.6493833 Z M35.0388889,42.9592833 C34.79,42.6644833 34.5511111,42.3618667 34.3233333,42.0547833 L35.2155556,41.3870167 C35.4288889,41.6762333 35.6533333,41.9598667 35.8866667,42.2368 L35.0388889,42.9592833 L35.0388889,42.9592833 Z M39.88,42.0413833 L38.9077778,41.5009167 C39.0855556,41.1782 39.2533333,40.8554833 39.41,40.5327667 L40.4077778,41.0229833 C40.2433333,41.3613333 40.0677778,41.7019167 39.88,42.0413833 L39.88,42.0413833 Z M48.63,41.90515 L47.6077778,41.4663 C47.7511111,41.1301833 47.8844444,40.7918333 48.0088889,40.4523667 L49.0511111,40.8409667 C48.9188889,41.1983 48.7788889,41.5522833 48.63,41.90515 L48.63,41.90515 Z M8.86777778,41.7008 C8.68333333,41.3345333 8.53111111,40.9582167 8.41555556,40.5819 L9.47777778,40.2524833 C9.57444444,40.5685 9.70333333,40.8856333 9.86,41.1971833 L8.86777778,41.7008 L8.86777778,41.7008 Z M33.6688889,41.1045 C33.4577778,40.7750833 33.26,40.4412 33.0777778,40.1062 L34.0533333,39.5713167 C34.2222222,39.88175 34.4055556,40.1921833 34.6022222,40.4970333 L33.6688889,41.1045 L33.6688889,41.1045 Z M40.8822222,39.9744333 L39.8566667,39.5422833 C39.9988889,39.2005833 40.1266667,38.8644667 40.24,38.5317 L41.2911111,38.8912667 C41.1711111,39.2474833 41.0344444,39.6092833 40.8822222,39.9744333 L40.8822222,39.9744333 Z M49.4222222,39.7600333 L48.3633333,39.4216833 C48.4733333,39.0732833 48.5744444,38.7248833 48.6655556,38.3753667 L49.74,38.6567667 C49.6455556,39.0263833 49.5388889,39.39265 49.4222222,39.7600333 L49.4222222,39.7600333 Z M8.17333333,39.3848333 C8.15333333,39.1827167 8.14333333,38.9806 8.14222222,38.7751333 L8.15888889,38.1877667 L9.26888889,38.23355 L9.25555556,38.6645833 C9.25444444,38.9415167 9.26222222,39.1067833 9.27888889,39.27205 L8.17333333,39.3848333 L8.17333333,39.3848333 Z M32.5622222,39.0632333 C32.4,38.6969667 32.2577778,38.3307 32.1388889,37.9700167 L33.1933333,37.6193833 C33.3011111,37.94545 33.4288889,38.2771 33.5766667,38.6109833 L32.5622222,39.0632333 L32.5622222,39.0632333 Z M41.6211111,37.77125 L40.5422222,37.50325 C40.6288889,37.1503833 40.6955556,36.8031 40.7388889,36.4681 L41.8411111,36.6099167 C41.7933333,36.9862333 41.7188889,37.3748333 41.6211111,37.77125 L41.6211111,37.77125 Z M50.0011111,37.5412167 L48.9133333,37.3145333 C48.9866667,36.9583167 49.0488889,36.6009833 49.1,36.2458833 L50.2,36.4078 C50.1455556,36.7841167 50.0788889,37.1626667 50.0011111,37.5412167 L50.0011111,37.5412167 Z M9.35111111,37.1582 L8.24666667,37.0364833 C8.29111111,36.6311333 8.34888889,36.2492333 8.41888889,35.8874333 L9.50888889,36.10295 C9.44444444,36.4346 9.39111111,36.7852333 9.35111111,37.1582 L9.35111111,37.1582 Z M31.8355556,36.81985 C31.7544444,36.4011 31.71,35.9946333 31.7033333,35.6116167 L32.8144444,35.5915167 C32.82,35.9097667 32.8577778,36.2514667 32.9255556,36.60545 L31.8355556,36.81985 L31.8355556,36.81985 Z M40.7933333,35.4407667 C40.7833333,35.0879 40.7366667,34.7596 40.6566667,34.4670333 L41.7277778,34.17 C41.8311111,34.54855 41.8911111,34.96395 41.9044444,35.4050333 L40.7933333,35.4407667 L40.7933333,35.4407667 Z M50.3311111,35.2621 L49.2244444,35.1705333 C49.2533333,34.80985 49.2711111,34.4491667 49.2766667,34.0907167 L50.3877778,34.1074667 C50.3822222,34.4904833 50.3622222,34.8746167 50.3311111,35.2621 L50.3311111,35.2621 Z M9.76555556,35.0867833 L8.70666667,34.7484333 C8.83,34.3564833 8.97777778,33.9835167 9.14444444,33.6395833 L10.1433333,34.1286833 C10,34.4234833 9.87222222,34.7462 9.76555556,35.0867833 L9.76555556,35.0867833 Z M32.9122222,34.6233667 L31.8311111,34.3643 C31.9366667,33.9232167 32.1066667,33.5201 32.3366667,33.1638833 L33.2677778,33.7747 C33.1066667,34.0214833 32.9866667,34.30735 32.9122222,34.6233667 L32.9122222,34.6233667 Z M40.2755556,33.62395 C40.1055556,33.37605 39.89,33.1627667 39.6344444,32.9908 L40.2566667,32.0650833 C40.6266667,32.3163333 40.9411111,32.6278833 41.19,32.9908 L40.2755556,33.62395 L40.2755556,33.62395 Z M10.6588889,33.2588 L9.76111111,32.5999667 C10,32.27055 10.2722222,31.9645833 10.57,31.6898833 L11.3233333,32.5106333 C11.0788889,32.7373167 10.8555556,32.9885667 10.6588889,33.2588 L10.6588889,33.2588 Z M33.8922222,33.1181 L33.24,32.2136 C33.5644444,31.9768667 33.9433333,31.7792167 34.3644444,31.6295833 L34.7377778,32.6803667 C34.4166667,32.7965 34.1322222,32.9427833 33.8922222,33.1181 L33.8922222,33.1181 Z M49.2533333,33.0120167 C49.2333333,32.65245 49.2,32.2951167 49.1522222,31.94225 L50.2544444,31.79485 C50.3044444,32.17675 50.34,32.5631167 50.3622222,32.9506 L49.2533333,33.0120167 L49.2533333,33.0120167 Z M38.78,32.5899167 C38.4855556,32.4994667 38.1555556,32.4358167 37.7977778,32.4023167 L37.9044444,31.2912333 C38.3355556,31.33255 38.7388889,31.4107167 39.1044444,31.5235 L38.78,32.5899167 L38.78,32.5899167 Z M35.7122222,32.44475 L35.55,31.3403667 C35.92,31.28565 36.3166667,31.2543833 36.7322222,31.2488 L36.7477778,32.3654667 C36.3811111,32.3699333 36.0333333,32.3967333 35.7122222,32.44475 L35.7122222,32.44475 Z M12.1233333,31.8964667 L11.5277778,30.954 C11.8466667,30.74965 12.2,30.5598167 12.5777778,30.3912 L13.0311111,31.4107167 C12.7022222,31.5581167 12.3966667,31.72115 12.1233333,31.8964667 L12.1233333,31.8964667 Z M14.0155556,31.0299333 L13.6666667,29.9702167 C14.0211111,29.8529667 14.39,29.7457667 14.7711111,29.6475 L15.0466667,30.72955 C14.69,30.82 14.3455556,30.9193833 14.0155556,31.0299333 L14.0155556,31.0299333 Z M48.9655556,30.8858833 C48.8922222,30.5374833 48.8011111,30.1924333 48.6966667,29.85185 L49.7577778,29.5224333 C49.8733333,29.8942833 49.97,30.2706 50.0533333,30.6513833 L48.9655556,30.8858833 L48.9655556,30.8858833 Z M16.1077778,30.48165 L15.8777778,29.3884333 C16.2366667,29.3125 16.6055556,29.2399167 16.9855556,29.1695667 L17.1866667,30.26725 C16.8155556,30.3364833 16.4566667,30.40795 16.1077778,30.48165 L16.1077778,30.48165 Z M18.2777778,30.0707167 L18.0833333,28.9719167 L19.18,28.7776167 L19.3744444,29.8764167 L18.2777778,30.0707167 L18.2777778,30.0707167 Z M20.4755556,29.6731833 L20.2688889,28.5766167 C20.6244444,28.5085 20.9844444,28.4370333 21.3511111,28.3611 L21.5777778,29.4543167 C21.2044444,29.5324833 20.8366667,29.6050667 20.4755556,29.6731833 L20.4755556,29.6731833 Z M22.6777778,29.2097667 L22.4244444,28.1221333 C22.7755556,28.0395 23.1311111,27.9512833 23.49,27.8574833 L23.7722222,28.9373 C23.4033333,29.03445 23.0377778,29.1260167 22.6777778,29.2097667 L22.6777778,29.2097667 Z M48.3377778,28.8423833 C48.2066667,28.5140833 48.0577778,28.19025 47.8955556,27.8708833 L48.8855556,27.3616833 C49.0633333,27.7112 49.2255556,28.0651833 49.37,28.42475 L48.3377778,28.8423833 L48.3377778,28.8423833 Z M24.8611111,28.6313333 L24.5444444,27.56045 C24.8888889,27.4577167 25.2366667,27.3482833 25.5855556,27.2299167 L25.94,28.2874 C25.5777778,28.4102333 25.2177778,28.5241333 24.8611111,28.6313333 L24.8611111,28.6313333 Z M27.0077778,27.9032667 L26.6144444,26.8591833 C26.9488889,26.7307667 27.2866667,26.59565 27.6266667,26.4504833 L28.0622222,27.4778167 C27.7077778,27.6296833 27.3566667,27.7703833 27.0077778,27.9032667 L27.0077778,27.9032667 Z M47.37,26.9429333 C47.1833333,26.6447833 46.9811111,26.3511 46.7644444,26.063 L47.65,25.3885333 C47.8866667,25.7023167 48.1055556,26.0216833 48.31,26.3466333 L47.37,26.9429333 L47.37,26.9429333 Z M46.0855556,25.23555 C45.8522222,24.9731333 45.6033333,24.7140667 45.3422222,24.4617 L46.1111111,23.6554667 C46.3933333,23.92905 46.6611111,24.2071 46.9133333,24.4907333 L46.0855556,25.23555 L46.0855556,25.23555 Z M44.5411111,23.7436833 C44.3411111,23.5773 44.1333333,23.41315 43.9188889,23.2512333 L43.6888889,23.0815 L44.3422222,22.177 L44.5855556,22.3579 C44.8144444,22.5298667 45.0355556,22.7051833 45.25,22.8827333 L44.5411111,23.7436833 L44.5411111,23.7436833 Z M42.7977778,22.4662167 C42.4922222,22.26745 42.1844444,22.0787333 41.8744444,21.9011833 L42.4255556,20.9319167 C42.7522222,21.1195167 43.0777778,21.3182833 43.4011111,21.5282167 L42.7977778,22.4662167 L42.7977778,22.4662167 Z M40.9211111,21.3886333 C40.5966667,21.2256 40.27,21.0715 39.9411111,20.92745 L40.3844444,19.9034667 C40.7311111,20.0553333 41.0755556,20.21725 41.4188889,20.3892167 L40.9211111,21.3886333 L40.9211111,21.3886333 Z M38.9366667,20.51875 C38.5966667,20.3903333 38.2555556,20.27085 37.9133333,20.1603 L38.2533333,19.0972333 C38.6133333,19.2133667 38.9722222,19.3384333 39.3288889,19.47355 L38.9366667,20.51875 L38.9366667,20.51875 Z M36.87,19.8498667 C36.52,19.7538333 36.1688889,19.6656167 35.8155556,19.5841 L36.0644444,18.49535 C36.4322222,18.5802167 36.7988889,18.6717833 37.1633333,18.7722833 L36.87,19.8498667 L36.87,19.8498667 Z M34.7477778,19.3607667 C34.39,19.2915333 34.03,19.2301167 33.6711111,19.1742833 L33.8411111,18.0710167 C34.2133333,18.1290833 34.5844444,18.19385 34.9555556,18.2642 L34.7477778,19.3607667 L34.7477778,19.3607667 Z M32.5833333,19.0201833 C32.22,18.9732833 31.8566667,18.93085 31.4922222,18.894 L31.6066667,17.7829167 C31.98,17.822 32.3533333,17.8644333 32.7266667,17.91245 L32.5833333,19.0201833 L32.5833333,19.0201833 Z M30.3944444,18.7912667 C30.0266667,18.7611167 29.66,18.7320833 29.2922222,18.7075167 L29.3677778,17.5930833 C29.74,17.6187667 30.1133333,17.6478 30.4855556,17.6790667 L30.3944444,18.7912667 L30.3944444,18.7912667 Z M28.1877778,18.6349333 L27.08,18.5712833 L27.14,17.45685 L28.2544444,17.5205 L28.1877778,18.6349333 L28.1877778,18.6349333 Z M25.9677778,18.5132167 L24.8566667,18.4506833 L24.9211111,17.33625 L26.0311111,17.3987833 L25.9677778,18.5132167 L25.9677778,18.5132167 Z M23.7411111,18.3825667 C23.3688889,18.3568833 22.9966667,18.3300833 22.6255556,18.2999333 L22.7155556,17.1866167 C23.0811111,17.2167667 23.4477778,17.2435667 23.8166667,17.2681333 L23.7411111,18.3825667 L23.7411111,18.3825667 Z M2.93666667,18.2262333 C2.55666667,18.2195333 2.16888889,18.19385 1.77333333,18.1480667 L1.9,17.0392167 C2.25888889,17.0805333 2.61222222,17.1039833 2.95666667,17.1095667 L2.93666667,18.2262333 L2.93666667,18.2262333 Z M21.5088889,18.1994333 C21.1355556,18.1614667 20.7633333,18.12015 20.3922222,18.0743667 L20.5288889,16.9666333 C20.8911111,17.0124167 21.2544444,17.0526167 21.62,17.08835 L21.5088889,18.1994333 L21.5088889,18.1994333 Z M4.10444444,18.1860333 L4.00888889,17.0738333 C4.36444444,17.0425667 4.71111111,16.9923167 5.05,16.9253167 L5.26444444,18.0207667 C4.88777778,18.0955833 4.50111111,18.1514167 4.10444444,18.1860333 L4.10444444,18.1860333 Z M19.2766667,17.91915 C18.9033333,17.8610833 18.5311111,17.7974333 18.1622222,17.7270833 L18.37,16.6305167 C18.7266667,16.6986333 19.0855556,16.76005 19.4455556,16.8158833 L19.2766667,17.91915 L19.2766667,17.91915 Z M6.40111111,17.7293167 L6.06777778,16.6640167 C6.40666667,16.5568167 6.73444444,16.4328667 7.05333333,16.2932833 L7.49777778,17.31615 C7.14444444,17.4713667 6.77777778,17.61095 6.40111111,17.7293167 L6.40111111,17.7293167 Z M17.0533333,17.4937 C16.6833333,17.4077167 16.3155556,17.3128 15.9511111,17.2100667 L16.2522222,16.1347167 C16.6,16.2329833 16.95,16.3234333 17.3033333,16.40495 L17.0533333,17.4937 L17.0533333,17.4937 Z M14.86,16.8717167 C14.4988889,16.7488833 14.1422222,16.6171167 13.7866667,16.4741833 L14.2,15.4368 C14.5355556,15.5719167 14.8744444,15.6969833 15.2166667,15.8131167 L14.86,16.8717167 L14.86,16.8717167 Z M8.54444444,16.7879667 L7.99444444,15.8175833 C8.30222222,15.64115 8.6,15.4502 8.88555556,15.24585 L9.52777778,16.15705 C9.21222222,16.3826167 8.88444444,16.5936667 8.54444444,16.7879667 L8.54444444,16.7879667 Z M12.7377778,16.01635 C12.3933333,15.8533167 12.0533333,15.6791167 11.7155556,15.4926333 L12.2511111,14.5144333 C12.5677778,14.68975 12.8866667,14.8527833 13.21,15.0057667 L12.7377778,16.01635 L12.7377778,16.01635 Z M10.4444444,15.43345 L9.71888889,14.5881333 C9.89222222,14.4373833 10.4611111,14.0253333 10.6244444,13.86565 C10.5377778,13.7484 11.29,14.62945 11.29,14.62945 C11.0211111,14.9086167 10.74,15.1777333 10.4444444,15.43345 L10.4444444,15.43345 Z M12.06,13.7573333 L11.1988889,13.0516 C11.4255556,12.7724333 11.6388889,12.48545 11.8377778,12.1928833 L12.7544444,12.8226833 C12.5366667,13.14205 12.3055556,13.4536 12.06,13.7573333 L12.06,13.7573333 Z M9.36777778,12.7434 C9.19111111,12.4162167 9.02,12.0667 8.85777778,11.7026667 L9.87111111,11.24595 C10.0222222,11.5843 10.1822222,11.90925 10.3455556,12.2141 L9.36777778,12.7434 L9.36777778,12.7434 Z M13.3688889,11.8389 L12.4055556,11.2828 C12.5855556,10.9679 12.7511111,10.64965 12.9,10.3302833 L13.9044444,10.8082167 C13.7422222,11.1532667 13.5633333,11.4972 13.3688889,11.8389 L13.3688889,11.8389 Z M8.42333333,10.62955 C8.29111111,10.2688667 8.17111111,9.89925 8.06555556,9.52628333 L9.13444444,9.22031667 C9.23222222,9.56648333 9.34444444,9.91041667 9.46666667,10.2443 L8.42333333,10.62955 L8.42333333,10.62955 Z M14.3566667,9.73398333 L13.3155556,9.34203333 C13.4422222,9.00145 13.5522222,8.66198333 13.6433333,8.32586667 L14.7144444,8.62178333 C14.6155556,8.98916667 14.4955556,9.3599 14.3566667,9.73398333 L14.3566667,9.73398333 Z M7.79333333,8.39063333 C7.71777778,7.99756667 7.66222222,7.60785 7.63,7.22483333 L8.73666667,7.12991667 C8.76555556,7.47496667 8.81666667,7.8256 8.88444444,8.17846667 L7.79333333,8.39063333 L7.79333333,8.39063333 Z M14.97,7.47496667 L13.8744444,7.2896 C13.9344444,6.93115 13.9722222,6.58275 13.9855556,6.24663333 L15.0955556,6.29241667 C15.08,6.6732 15.0377778,7.07073333 14.97,7.47496667 L14.97,7.47496667 Z M8.71888889,6.09253333 L7.61,6.02441667 C7.63555556,5.59003333 7.70111111,5.18133333 7.80333333,4.80725 L8.87444444,5.10428333 C8.79333333,5.40355 8.74111111,5.7352 8.71888889,6.09253333 L8.71888889,6.09253333 Z M13.9488889,5.22265 C13.9044444,4.87313333 13.8277778,4.55376667 13.7177778,4.2746 L14.7511111,3.86478333 C14.8944444,4.22993333 14.9966667,4.63975 15.0522222,5.08306667 L13.9488889,5.22265 L13.9488889,5.22265 Z M9.25111111,4.23551667 L8.31444444,3.63475 C8.55222222,3.25955 8.85333333,2.93683333 9.20666667,2.6733 L9.86666667,3.57221667 C9.62333333,3.75311667 9.41555556,3.97645 9.25111111,4.23551667 L9.25111111,4.23551667 Z M13.2488889,3.51526667 C13.0522222,3.3098 12.8144444,3.16128333 12.5433333,3.07306667 L12.8877778,2.01111667 C13.3344444,2.1574 13.7244444,2.40306667 14.0488889,2.7403 L13.2488889,3.51526667 L13.2488889,3.51526667 Z M10.6966667,3.15458333 L10.3544444,2.09151667 C10.5844444,2.01781667 10.8322222,1.9564 11.0966667,1.91285 C11.2644444,1.88493333 11.4255556,1.86706667 11.5833333,1.85813333 L11.6488889,2.97256667 C11.53,2.97926667 11.4066667,2.99378333 11.2788889,3.015 C11.0711111,3.04961667 10.8766667,3.0954 10.6966667,3.15458333 L10.6966667,3.15458333 Z"></path>
                                <path d="M29.2788889,26.9228333 L28.7944444,25.9178333 L29.4955556,25.5660833 L30.2366667,25.8240333 L29.8788889,26.8804 L29.5777778,26.77655 C29.4766667,26.8256833 29.3777778,26.8748167 29.2788889,26.9228333 L29.2788889,26.9228333 Z"></path>
                                <path d="M77.51,49.1087667 C77.12,49.0708 76.7455556,49.0250167 76.3833333,48.97365 L76.54,47.86815 C76.8855556,47.9172833 77.2444444,47.9608333 77.6166667,47.9965667 L77.51,49.1087667 L77.51,49.1087667 Z M75.2588889,48.7838167 C74.8677778,48.7067667 74.4966667,48.6207833 74.1422222,48.5281 L74.4244444,47.4482833 C74.7577778,47.5353833 75.1066667,47.6157833 75.4733333,47.6894833 L75.2588889,48.7838167 L75.2588889,48.7838167 Z M73.04,48.1886333 C72.6566667,48.0546333 72.2977778,47.90835 71.96,47.7520167 L72.4266667,46.7380833 C72.7311111,46.8810167 73.0577778,47.0116667 73.4044444,47.1333833 L73.04,48.1886333 L73.04,48.1886333 Z M70.9266667,47.1959167 C70.5822222,46.98375 70.2577778,46.7481333 69.96,46.49465 L70.6766667,45.6415167 C70.9322222,45.85815 71.2122222,46.0613833 71.5088889,46.2445167 L70.9266667,47.1959167 L70.9266667,47.1959167 Z M69.11,45.64375 C68.85,45.3344333 68.6166667,44.9994333 68.4166667,44.6465667 L69.38,44.0927 C69.5466667,44.3852667 69.7411111,44.6644333 69.9588889,44.9212667 L69.11,45.64375 L69.11,45.64375 Z M67.9133333,43.5511167 C67.7822222,43.1893167 67.6744444,42.7996 67.5933333,42.3953667 L68.6822222,42.1753833 C68.7511111,42.5249 68.8444444,42.8599 68.9566667,43.1703333 L67.9133333,43.5511167 L67.9133333,43.5511167 Z M67.4355556,41.2228667 C67.4122222,40.9291833 67.4022222,40.6310333 67.4022222,40.3261833 L67.4044444,40.0481333 L68.5155556,40.07605 L68.5133333,40.3194833 C68.5133333,40.5997667 68.5222222,40.87 68.5422222,41.13465 L67.4355556,41.2228667 L67.4355556,41.2228667 Z M68.5811111,39.0029333 L67.4744444,38.8957333 C67.51,38.52165 67.5577778,38.1408667 67.6177778,37.7556167 L68.7155556,37.92535 C68.66,38.2893833 68.6144444,38.6478333 68.5811111,39.0029333 L68.5811111,39.0029333 Z M68.9077778,36.85335 L67.8188889,36.6311333 C67.8922222,36.2648667 67.9744444,35.89525 68.0622222,35.5234 L69.1433333,35.7802333 C69.0577778,36.1386833 68.9788889,36.49825 68.9077778,36.85335 L68.9077778,36.85335 Z M69.4077778,34.7115833 L68.3333333,34.4257167 C68.4288889,34.0650333 68.5266667,33.7021167 68.6288889,33.3392 L69.6988889,33.6418167 C69.5988889,34.0002667 69.5011111,34.3564833 69.4077778,34.7115833 L69.4077778,34.7115833 Z M70.0044444,32.5742833 L68.9388889,32.2616167 L69.2544444,31.1873833 L70.32,31.5056333 L70.0044444,32.5742833 L70.0044444,32.5742833 Z M53.23,32.5430167 C53.0411111,32.5430167 52.8466667,32.53855 52.6477778,32.5307333 L52.6888889,31.4151833 C53.0655556,31.4285833 53.4222222,31.4297 53.7533333,31.4151833 L53.8055556,32.5307333 C53.6211111,32.53855 53.4288889,32.5430167 53.23,32.5430167 L53.23,32.5430167 Z M51.5066667,32.4559167 C51.1455556,32.4224167 50.77,32.3799833 50.3811111,32.3297333 L50.5244444,31.222 C50.8977778,31.2711333 51.26,31.3113333 51.6088889,31.3437167 L51.5066667,32.4559167 L51.5066667,32.4559167 Z M54.99,32.3922667 L54.7711111,31.2979333 C55.1288889,31.22535 55.4133333,31.1215 55.6166667,30.99085 L56.2177778,31.9310833 C55.8977778,32.13655 55.4855556,32.2917667 54.99,32.3922667 L54.99,32.3922667 Z M49.2677778,32.1678167 C48.9044444,32.10975 48.5344444,32.0461 48.1577778,31.9768667 L48.3577778,30.8791833 C48.7255556,30.9461833 49.0866667,31.0087167 49.4422222,31.0656667 L49.2677778,32.1678167 L49.2677778,32.1678167 Z M47.0555556,31.7635833 C46.6944444,31.691 46.3277778,31.6128333 45.9588889,31.5324333 L46.1955556,30.4403333 C46.5588889,30.5196167 46.92,30.5966667 47.2744444,30.6681333 L47.0555556,31.7635833 L47.0555556,31.7635833 Z M44.8666667,31.28565 C44.5055556,31.2019 44.1422222,31.1148 43.7788889,31.0254667 L44.0422222,29.9400667 C44.4022222,30.0282833 44.76,30.1142667 45.1177778,30.1969 L44.8666667,31.28565 L44.8666667,31.28565 Z M57.0833333,30.8121833 L56.0677778,30.36105 C56.2022222,30.0550833 56.3066667,29.7346 56.3766667,29.4085333 L57.4622222,29.6463833 C57.3755556,30.04615 57.2477778,30.4381 57.0833333,30.8121833 L57.0833333,30.8121833 Z M42.6922222,30.7541167 L41.6111111,30.4727167 L41.8944444,29.3929 L42.9666667,29.6720667 L42.6922222,30.7541167 L42.6922222,30.7541167 Z M70.6366667,30.4358667 L69.5711111,30.1176167 C69.6777778,29.7602833 69.78,29.4040667 69.8811111,29.0512 L70.9488889,29.3571667 C70.8488889,29.7145 70.7433333,30.0740667 70.6366667,30.4358667 L70.6366667,30.4358667 Z M40.5344444,30.1812667 L39.4577778,29.8808833 L39.7588889,28.8055333 L40.8255556,29.1036833 L40.5344444,30.1812667 L40.5344444,30.1812667 Z M38.3855556,29.5726833 L37.3144444,29.2577833 L37.63,28.1869 L38.6933333,28.4995667 L38.3855556,29.5726833 L38.3855556,29.5726833 Z M36.2455556,28.9373 L35.1788889,28.6101167 L35.5066667,27.5425833 L36.5677778,27.86865 L36.2455556,28.9373 L36.2455556,28.9373 Z M57.6077778,28.4392667 L56.4966667,28.4035333 L56.5,28.21705 C56.5,27.9401167 56.4811111,27.6598333 56.4477778,27.3762 L57.55,27.2422 C57.59,27.5716167 57.6111111,27.8965667 57.6111111,28.21705 L57.6077778,28.4392667 L57.6077778,28.4392667 Z M34.1144444,28.2751167 L33.0511111,27.93565 L33.3911111,26.8725833 L34.4477778,27.2098167 L34.1144444,28.2751167 L34.1144444,28.2751167 Z M71.2488889,28.274 L70.1766667,27.9836667 C70.2722222,27.6241 70.3633333,27.2678833 70.4466667,26.9161333 L71.5277778,27.1752 C71.4422222,27.537 71.3488889,27.9032667 71.2488889,28.274 L71.2488889,28.274 Z M31.9911111,27.5906 L30.93,27.23885 L31.2822222,26.18025 L32.3355556,26.5297667 L31.9911111,27.5906 L31.9911111,27.5906 Z M56.2555556,26.34775 C56.1733333,26.0105167 56.0711111,25.67105 55.9533333,25.326 L57.0033333,24.9619667 C57.1322222,25.3371667 57.2433333,25.7101333 57.3344444,26.0786333 L56.2555556,26.34775 L56.2555556,26.34775 Z M71.7711111,26.0641167 L70.6822222,25.8474833 C70.7533333,25.48345 70.8155556,25.1261167 70.8655556,24.7766 L71.9655556,24.9351667 C71.9133333,25.3036667 71.8466667,25.6811 71.7711111,26.0641167 L71.7711111,26.0641167 Z M55.5666667,24.321 C55.4277778,23.9938167 55.2766667,23.6644 55.1155556,23.3338667 L56.1133333,22.8425333 C56.2833333,23.19205 56.4433333,23.54045 56.5888889,23.8855 L55.5666667,24.321 L55.5666667,24.321 Z M72.0866667,23.7794167 L70.9777778,23.7101833 C70.9911111,23.4913167 70.9988889,23.2758 70.9988889,23.06475 C70.9977778,22.9285167 70.9944444,22.79005 70.9888889,22.6549333 L72.0977778,22.6035667 C72.1055556,22.7532 72.1088889,22.9061833 72.11,23.0602833 C72.1088889,23.29925 72.1022222,23.5371 72.0866667,23.7794167 L72.0866667,23.7794167 Z M54.6166667,22.3601333 C54.4444444,22.0407667 54.2655556,21.7202833 54.08,21.4009167 L55.0411111,20.84035 C55.2311111,21.1697667 55.4166667,21.4991833 55.5933333,21.8286 L54.6166667,22.3601333 L54.6166667,22.3601333 Z M70.8611111,21.63765 C70.7911111,21.3004167 70.6888889,20.9832833 70.5577778,20.6963 L71.5688889,20.2317667 C71.7333333,20.5946833 71.8622222,20.9899833 71.9488889,21.4087333 L70.8611111,21.63765 L70.8611111,21.63765 Z M53.5166667,20.4528667 C53.3266667,20.1402 53.1322222,19.8275333 52.9344444,19.5148667 L53.87,18.9141 C54.0733333,19.23235 54.2711111,19.5517167 54.4655556,19.8710833 L53.5166667,20.4528667 L53.5166667,20.4528667 Z M70.05,19.8766667 C69.8511111,19.63435 69.6133333,19.41325 69.3433333,19.2178333 L69.9922222,18.3111 C70.34,18.56235 70.6488889,18.85045 70.9066667,19.1664667 L70.05,19.8766667 L70.05,19.8766667 Z M68.4766667,18.72315 C68.1844444,18.5913833 67.8588889,18.47525 67.5111111,18.3781 L67.8088889,17.3016333 C68.2111111,17.4144167 68.5888889,17.5495333 68.9333333,17.70475 L68.4766667,18.72315 L68.4766667,18.72315 Z M52.3366667,18.5768667 L51.7311111,17.6422167 L52.66,17.0302833 L53.27,17.9694 L52.3366667,18.5768667 L52.3366667,18.5768667 Z M66.4011111,18.0308167 C66.0077778,17.87895 65.6422222,17.6991667 65.3144444,17.4981667 L65.8933333,16.5445333 C66.1633333,16.7098 66.4688889,16.8594333 66.7988889,16.9867333 L66.4011111,18.0308167 L66.4011111,18.0308167 Z M64.3377778,16.7388333 C64.0388889,16.4440333 63.78,16.1135 63.5666667,15.7561667 L64.5188889,15.1799667 C64.6844444,15.4569 64.8855556,15.7137333 65.1166667,15.9437667 L64.3377778,16.7388333 L64.3377778,16.7388333 Z M51.1211111,16.7053333 L50.5144444,15.7639833 L51.45,15.1609833 L52.0522222,16.0945167 L51.1211111,16.7053333 L51.1211111,16.7053333 Z M49.9166667,14.8125833 C49.7155556,14.4876333 49.5211111,14.1649167 49.3333333,13.84555 L50.2922222,13.2794 C50.4733333,13.59095 50.6644444,13.90585 50.8611111,14.2218667 L49.9166667,14.8125833 L49.9166667,14.8125833 Z M63.0588889,14.6272167 C62.9422222,14.2654167 62.8511111,13.8678833 62.7922222,13.4457833 L63.8922222,13.2883333 C63.9433333,13.6456667 64.0177778,13.9806667 64.1155556,14.28105 L63.0588889,14.6272167 L63.0588889,14.6272167 Z M48.7733333,12.8617667 C48.5877778,12.5211833 48.4111111,12.18395 48.2466667,11.8500667 L49.2422222,11.3553833 C49.4,11.67475 49.5677778,11.9974667 49.7466667,12.32465 L48.7733333,12.8617667 L48.7733333,12.8617667 Z M62.7011111,12.2621167 L62.6988889,12.0086333 C62.6988889,11.7116 62.7088889,11.4101 62.7266667,11.10525 L63.8355556,11.17225 C63.8188889,11.45365 63.81,11.7328167 63.81,12.0086333 L63.8122222,12.2464833 L62.7011111,12.2621167 L62.7011111,12.2621167 Z M47.77,10.8015167 C47.6144444,10.4296667 47.48,10.0645167 47.3688889,9.70606667 L48.4277778,9.37106667 C48.5311111,9.69825 48.6544444,10.0321333 48.7944444,10.3704833 L47.77,10.8015167 L47.77,10.8015167 Z M63.9288889,10.0879667 L62.8244444,9.96401667 C62.8666667,9.59105 62.9133333,9.21696667 62.9622222,8.84511667 L64.0644444,8.99251667 C64.0155556,9.35655 63.9688889,9.72281667 63.9288889,10.0879667 L63.9288889,10.0879667 Z M47.0811111,8.55813333 C47.0088889,8.15278333 46.9711111,7.75636667 46.9711111,7.38116667 L48.0822222,7.35101667 C48.0822222,7.69048333 48.1133333,8.0199 48.1744444,8.35936667 L47.0811111,8.55813333 L47.0811111,8.55813333 Z M64.2166667,7.8859 L63.1166667,7.73738333 C63.1655556,7.36665 63.2144444,7.00038333 63.2533333,6.64305 L64.3577778,6.76588333 C64.3166667,7.13326667 64.2677778,7.50735 64.2166667,7.8859 L64.2166667,7.8859 Z M48.2022222,6.38733333 L47.1255556,6.10816667 C47.2322222,5.69611667 47.3933333,5.30193333 47.6088889,4.9379 L48.5655556,5.50628333 C48.4033333,5.77986667 48.2811111,6.0769 48.2022222,6.38733333 L48.2022222,6.38733333 Z M64.4555556,5.62465 L63.3466667,5.56211667 C63.3577778,5.35776667 63.3644444,5.15788333 63.3644444,4.96246667 C63.3644444,4.80613333 63.36,4.65538333 63.3522222,4.50686667 L64.4611111,4.44545 C64.4711111,4.61295 64.4755556,4.78603333 64.4755556,4.96246667 C64.4744444,5.17798333 64.4677778,5.39908333 64.4555556,5.62465 L64.4555556,5.62465 Z M49.1622222,4.73913333 L48.3744444,3.95188333 C48.6455556,3.67718333 48.9611111,3.417 49.3122222,3.17691667 L49.9366667,4.1004 C49.6444444,4.30028333 49.3833333,4.51468333 49.1622222,4.73913333 L49.1622222,4.73913333 Z M50.8288889,3.57668333 L50.3322222,2.57726667 C50.6588889,2.41311667 51.0133333,2.25678333 51.3966667,2.10826667 L51.7955556,3.15011667 C51.4477778,3.28523333 51.1255556,3.42705 50.8288889,3.57668333 L50.8288889,3.57668333 Z M63.2055556,3.52531667 C63.1155556,3.19925 62.9911111,2.92901667 62.8244444,2.7001 L63.7211111,2.04126667 C63.9688889,2.38073333 64.15,2.76821667 64.2755556,3.22716667 L63.2055556,3.52531667 L63.2055556,3.52531667 Z M52.8088889,2.80283333 L52.4855556,1.73418333 C52.8322222,1.6281 53.2,1.5276 53.5855556,1.43156667 L53.85,2.51696667 C53.4844444,2.6063 53.1366667,2.70233333 52.8088889,2.80283333 L52.8088889,2.80283333 Z M54.9111111,2.28135 L54.6944444,1.18701667 C55.05,1.11555 55.4211111,1.04855 55.8066667,0.986016667 L55.9844444,2.08816667 C55.6122222,2.14846667 55.2544444,2.21323333 54.9111111,2.28135 L54.9111111,2.28135 Z M62.1711111,2.12278333 C61.9266667,1.9832 61.6311111,1.87265 61.2911111,1.79783333 L61.5311111,0.70685 C61.98,0.806233333 62.3811111,0.956983333 62.7222222,1.1524 L62.1711111,2.12278333 L62.1711111,2.12278333 Z M57.0655556,1.92848333 L56.92,0.821866667 C57.28,0.77385 57.6522222,0.729183333 58.0355556,0.687866667 L58.1544444,1.79783333 C57.7811111,1.83803333 57.4177778,1.88158333 57.0655556,1.92848333 L57.0655556,1.92848333 Z M59.2388889,1.69621667 L59.1633333,0.581783333 C59.5877778,0.553866667 59.9777778,0.544933333 60.3344444,0.560566667 L60.2866667,1.67611667 C59.9711111,1.66383333 59.6211111,1.66941667 59.2388889,1.69621667 L59.2388889,1.69621667 Z"></path>
                                <path d="M79.67,49.2159667 L78.7177778,49.2025667 L78.7844444,48.0870167 L79.7222222,48.1015333 L79.67,49.2159667 Z"></path>
                            </g>
                            <rect id="Rectangle-path" x="30.37" y="9.79428333" width="0.555555556" height="55.7484667"></rect>
                            <rect id="Rectangle-path" x="59.7222222" y="1.75428333" width="0.555555556" height="55.7484667"></rect>
                        </g>
                    </g>
                </g>
            </g>
        </g>
    </g>
</svg>