<?xml version="1.0" encoding="UTF-8"?>
<svg width="18px" height="16px" viewBox="0 0 18 16" version="1.1" xmlns="http://www.w3.org/2000/svg" xmlns:xlink="http://www.w3.org/1999/xlink">
    <!-- Generator: Sketch 49.3 (51167) - http://www.bohemiancoding.com/sketch -->
    <title>Shape</title>
    <desc>Created with Sketch.</desc>
    <defs></defs>
    <g id="Home-Page-Carousel" stroke="none" stroke-width="1" fill="none" fill-rule="evenodd">
        <g id="iPhone-8-Copy" transform="translate(-332.000000, -460.000000)" fill="#4A4A4A" fill-rule="nonzero">
            <g id="Group" transform="translate(332.000000, 460.000000)">
                <g id="np_next_984849_000000">
                    <path d="M17.7720762,8.51249299 L10.2966517,15.6971746 C9.8765452,16.1009418 9.19131702,16.1009418 8.77121052,15.6971746 C8.35110402,15.2934073 8.35110402,14.6348299 8.77121052,14.2310626 L14.1102547,9.09967083 L1.06811391,9.09967083 C0.457327266,9.09967083 0,8.62289122 0,8.07309924 L0,7.96285495 C0,7.37582373 0.496073472,6.93628337 1.06811391,6.93628337 L14.1102547,6.93771503 L8.77121052,1.76893737 C8.35110402,1.36517014 8.35110402,0.706592652 8.77121052,0.302825422 C9.19131702,-0.100941807 9.8765452,-0.100941807 10.2966517,0.302825422 L17.7720762,7.48750701 C18.0759746,7.77958583 18.0759746,8.22056298 17.7720762,8.51264913 L17.7720762,8.51249299 Z" id="Shape"></path>
                </g>
            </g>
        </g>
    </g>
</svg>