<?xml version="1.0" encoding="UTF-8"?>
<svg width="30px" height="27px" viewBox="0 0 30 27" version="1.1" xmlns="http://www.w3.org/2000/svg" xmlns:xlink="http://www.w3.org/1999/xlink">
    <!-- Generator: Sketch 49.3 (51167) - http://www.bohemiancoding.com/sketch -->
    <title>Shape</title>
    <desc>Created with Sketch.</desc>
    <defs></defs>
    <g id="Resume-Service" stroke="none" stroke-width="1" fill="none" fill-rule="evenodd">
        <g id="Artboard-2" transform="translate(-669.000000, -3947.000000)" fill="#1FB7AF" fill-rule="nonzero">
            <g id="Group-7" transform="translate(286.000000, 3895.000000)">
                <g id="Group-4" transform="translate(31.000000, 46.000000)">
                    <g id="Group" transform="translate(352.000000, 0.000000)">
                        <g id="Group-3">
                            <g id="np_heart_1742987_000000" transform="translate(0.000000, 6.000000)">
                                <path d="M7.79763702,0.000185934003 C5.79442966,0.000185934003 3.80203935,0.796607975 2.28291477,2.39720206 C-0.755058033,5.59687997 -0.762756299,10.7326277 2.27057781,13.9351672 L14.4223901,26.7647994 C14.7169336,27.0784002 15.2752001,27.0784002 15.5697081,26.7647994 C19.6241284,22.4939519 23.6674949,18.2183352 27.7215204,13.9474877 C30.7594932,10.7478098 30.7594932,5.60927998 27.7215204,2.40952258 C24.6835476,-0.790155336 19.7180868,-0.790155336 16.6798376,2.40952258 L15.0020103,4.16070517 L13.324183,2.39708283 C11.6864657,0.666050243 9.65854489,-0.0077230428 7.7972225,6.6703197e-05 L7.79763702,0.000185934003 Z M7.79763702,1.56509026 C9.3767686,1.56509026 10.9635984,2.2109238 12.1895967,3.50259086 L14.4349244,5.87480698 C14.729468,6.18840785 15.2877344,6.18840785 15.5822425,5.87480698 L17.8152135,3.51503061 C20.2671706,0.931696479 24.1348981,0.931696479 26.5868946,3.51503061 C29.0388517,6.09836475 29.0388517,10.271443 26.5868946,12.8547771 C22.7254442,16.9221373 18.8641516,20.9958565 15.0023854,25.0636142 L3.41787612,12.8424566 C0.967458692,10.2560224 0.965919038,6.08604423 3.41787612,3.5027101 C4.64387439,2.21104303 6.21838701,1.5652095 7.79759755,1.5652095 L7.79763702,1.56509026 Z" id="Shape"></path>
                            </g>
                        </g>
                    </g>
                </g>
            </g>
        </g>
    </g>
</svg>