<?xml version="1.0" encoding="UTF-8"?>
<svg width="18px" height="31px" viewBox="0 0 18 31" version="1.1" xmlns="http://www.w3.org/2000/svg" xmlns:xlink="http://www.w3.org/1999/xlink">
    <!-- Generator: Sketch 49.3 (51167) - http://www.bohemiancoding.com/sketch -->
    <title>Shape</title>
    <desc>Created with Sketch.</desc>
    <defs></defs>
    <g id="Resume-Service" stroke="none" stroke-width="1" fill="none" fill-rule="evenodd">
        <g id="Artboard-2" transform="translate(-1086.000000, -3946.000000)" fill="#1FB7AF" fill-rule="nonzero">
            <g id="Group-7" transform="translate(286.000000, 3895.000000)">
                <g id="Group-4" transform="translate(31.000000, 46.000000)">
                    <g id="Group-2" transform="translate(769.000000, 0.000000)">
                        <g id="np_grow_1608529_000000" transform="translate(0.000000, 5.000000)">
                            <path d="M9.98582749,23.5235726 L9.98582749,18.7387717 L10.5440875,18.7387717 C14.6492812,18.7387717 18,15.3505009 18,11.1964016 L18,9.63449539 C18,9.06976189 17.5725178,8.63732269 17.0142578,8.63732269 L15.4702556,8.63732269 C13.3026206,8.63732269 11.3650619,9.56709465 9.98582749,11.0628374 L9.98582749,7.54106765 C9.98582749,3.38827073 6.63510873,0 2.52991497,0 L0.985912783,0 C0.427652782,0 0.00017059375,0.432439203 0.00017059375,0.997172698 L0.00017059375,2.55907889 C0.00017059375,6.71187582 3.34960185,10.101449 7.45608311,10.101449 L8.01434311,10.1001772 L8.01434311,18.4399598 C7.91627101,18.3407505 7.84963323,18.2402713 7.75156114,18.1741306 C6.33959207,16.7788378 4.53281113,16.0144418 2.59512363,16.0144418 L2.52974438,16.0144418 L0.985742189,16.0144418 C0.427482188,16.0144418 0,16.446881 0,17.0116145 L0,18.5735207 C0,22.7263176 3.34943126,26.1158908 7.45591251,26.1158908 L8.01417251,26.114619 L8.01417251,29.0056546 L2.52974438,29.0056546 C1.97148438,29.0056546 1.54400219,29.4380938 1.54400219,30.0028273 C1.54400219,30.5675608 1.97148438,31 2.52974438,31 L15.470085,31 C16.028345,31 16.4558272,30.5675608 16.4558272,30.0028273 C16.4558272,29.4380938 16.028345,29.0056546 15.470085,29.0056546 L9.98565689,29.0056546 L9.98582749,23.5235726 Z M1.97178372,2.55738573 L1.97178372,1.99265224 L2.53004372,1.99265224 C5.55138779,1.99265224 8.01447186,4.48429783 8.01447186,7.54067693 L8.01447186,8.10541091 L7.45621186,8.10541042 C4.43486779,8.10668224 1.97178372,5.61503469 1.97178372,2.55738573 Z M15.4705775,10.6314727 L16.0288375,10.6314421 L16.0288375,11.1962062 C16.0288375,14.2525853 13.5657534,16.7442309 10.5444094,16.7442309 L9.98614936,16.7455027 L9.98614936,16.1807692 C9.98614936,13.1231203 12.4492334,10.6314421 15.4705775,10.6314421 L15.4705775,10.6314727 Z M7.45653373,24.0881758 C4.43518966,24.0881758 1.9721056,21.5965302 1.9721056,18.5401511 L1.9721056,17.9754176 L2.5303656,17.9754176 C3.97503716,17.942349 5.32163342,18.5401511 6.37290935,19.570373 C7.42402436,20.6336766 8.01498686,22.0289694 8.01498686,23.524875 L8.01498686,24.0896085 L7.45653373,24.0881758 Z" id="Shape"></path>
                        </g>
                    </g>
                </g>
            </g>
        </g>
    </g>
</svg>