<?xml version="1.0" encoding="UTF-8"?>
<svg width="32px" height="32px" viewBox="0 0 32 32" version="1.1" xmlns="http://www.w3.org/2000/svg" xmlns:xlink="http://www.w3.org/1999/xlink">
    <!-- Generator: Sketch 49.3 (51167) - http://www.bohemiancoding.com/sketch -->
    <title>Shape</title>
    <desc>Created with Sketch.</desc>
    <defs></defs>
    <g id="Resume-Service" stroke="none" stroke-width="1" fill="none" fill-rule="evenodd">
        <g id="Artboard-2" transform="translate(-317.000000, -3945.000000)" fill="#1FB7AF" fill-rule="nonzero">
            <g id="Group-7" transform="translate(286.000000, 3895.000000)">
                <g id="Group-4" transform="translate(31.000000, 46.000000)">
                    <g id="Group-6">
                        <g id="np_value_2771027_000000" transform="translate(0.000000, 4.000000)">
                            <path d="M31.8593542,8.27495982 C32.0468819,8.00108951 32.0468819,7.64146089 31.8593542,7.36756747 L26.7705874,0.329546565 C26.6205668,0.121888352 26.3790405,0 26.1224898,0 L5.84845911,0 C5.59642113,0 5.35939982,0.11887591 5.20785059,0.322023163 L0.14289545,7.09501077 C-0.0476318167,7.37038345 -0.0476318167,7.73455769 0.14289545,8.00991496 L15.3446739,31.7250021 C15.3896816,31.789708 15.4406884,31.8483929 15.4976979,31.9010605 L15.5532058,31.9010605 C15.5997114,31.94169 15.6537214,31.9717836 15.7137305,31.9898428 L15.7782407,31.9898428 L15.7767402,31.9898428 C15.8562517,32.0033857 15.9372648,32.0033857 16.0167763,31.9898428 C16.0962878,32.001881 16.177301,32.001881 16.2568125,31.9898428 L16.3213227,31.9898428 C16.3783322,31.9657664 16.4323385,31.9326604 16.4818474,31.8935371 L16.5373552,31.8935371 C16.5973643,31.8438781 16.6498727,31.7851932 16.6888776,31.7174787 L31.8593542,8.27495982 Z M15.9854745,2.14298299 L19.4494844,6.77336127 L12.5214645,6.77486633 L15.9854745,2.14298299 Z M10.9205193,6.24367989 L7.44748403,1.60598238 L14.3843372,1.60598238 L10.9205193,6.24367989 Z M17.5858436,1.60598238 L24.5226968,1.60598238 L21.0496615,6.24522078 L17.5858436,1.60598238 Z M20.0582161,8.37896998 L15.9852824,27.4640641 L11.9123488,8.37896998 L20.0582161,8.37896998 Z M14.2808336,27.1585824 L2.2790253,8.37896998 L10.2797188,8.37896998 L14.2808336,27.1585824 Z M21.6977591,8.37896998 L29.8828004,8.37896998 L17.6724486,27.2232998 L21.6977591,8.37896998 Z M29.4346048,6.77336127 L22.6506067,6.77486633 L26.1146166,2.15989696 L29.4346048,6.77336127 Z M5.84807505,2.14298299 L9.32111033,6.77336127 L2.38272092,6.77486633 L5.84807505,2.14298299 Z" id="Shape"></path>
                        </g>
                    </g>
                </g>
            </g>
        </g>
    </g>
</svg>