<?xml version="1.0" encoding="UTF-8"?>
<svg width="142px" height="142px" viewBox="0 0 142 142" version="1.1" xmlns="http://www.w3.org/2000/svg" xmlns:xlink="http://www.w3.org/1999/xlink">
    <!-- Generator: Sketch 40.2 (33826) - http://www.bohemiancoding.com/sketch -->
    <title>Group 3</title>
    <desc>Created with Sketch.</desc>
    <defs></defs>
    <g id="Page-1" stroke="none" stroke-width="1" fill="none" fill-rule="evenodd">
        <g id="Artboard-12" transform="translate(-895.000000, -447.000000)">
            <g id="Group-3" transform="translate(895.000000, 447.000000)">
                <g id="contact-tw-copy" fill="#FF7172">
                    <g id="twitter">
                        <circle id="Oval" cx="71" cy="71" r="71"></circle>
                    </g>
                </g>
                <g id="Group-2" transform="translate(36.000000, 38.000000)" fill="#FFFFFF">
                    <path d="M71.924283,11.1081685 C71.9105094,11.0972022 71.8994906,11.082809 71.8822736,11.0745843 L71.8574811,11.0622472 L50.1158774,0.243314607 C49.9691887,0.169977528 49.8149245,0.120629213 49.6585943,0.0808764045 C49.4623208,0.0308426966 49.2619151,0 49.0608208,0 C48.2282075,0 47.3997264,0.416033708 46.9507075,1.14117978 L34.4339623,21.3849551 L50.1420472,46.7883708 L71.9910849,11.4536067 C72.0633962,11.3357191 72.0289623,11.1904157 71.924283,11.1081685" id="Fill-53"></path>
                    <polyline id="Fill-54" points="27.5471698 16.4494382 27.5471698 39.4930449 48.1276604 49.734191 27.5471698 16.4494382"></polyline>
                    <path d="M51.6509434,51.6731685 L68.5917642,60.1028202 C70.7962264,61.2001348 72.5833491,60.431809 72.5833491,58.3879663 L72.5833491,17.8202247 L51.6509434,51.6731685" id="Fill-55"></path>
                    <path d="M23.8951038,10.8477191 L2.6610566,0.281011236 C2.27746226,0.0904719101 1.91246226,0 1.58189623,0 C0.652179245,0 0,0.716235955 0,1.91773034 L0,47.5443596 C0,48.7657303 0.898037736,50.2119101 1.99579245,50.7581685 L20.6982547,60.0644382 C21.1775755,60.3029551 21.6341698,60.4160449 22.0466887,60.4160449 C23.2091792,60.4160449 24.0245755,59.5209213 24.0245755,58.0185393 L24.0245755,11.0553933 C24.0245755,10.9676629 23.9743019,10.8867865 23.8951038,10.8477191" id="Fill-56"></path>
                </g>
            </g>
        </g>
    </g>
</svg>