<?xml version="1.0" encoding="UTF-8" standalone="no"?>
<svg width="142px" height="142px" viewBox="0 0 142 142" version="1.1" xmlns="http://www.w3.org/2000/svg" xmlns:xlink="http://www.w3.org/1999/xlink" xmlns:sketch="http://www.bohemiancoding.com/sketch/ns">
    <!-- Generator: Sketch 3.4.2 (15857) - http://www.bohemiancoding.com/sketch -->
    <title>contact-tw</title>
    <desc>Created with Sketch.</desc>
    <defs></defs>
    <g id="Page-1" stroke="none" stroke-width="1" fill="none" fill-rule="evenodd" sketch:type="MSPage">
        <g id="Artboard-12" sketch:type="MSArtboardGroup" transform="translate(-708.000000, -447.000000)">
            <g id="contact-tw" sketch:type="MSLayerGroup" transform="translate(708.000000, 447.000000)">
                <g id="twitter" sketch:type="MSShapeGroup">
                    <circle id="Oval" fill="#FF7172" cx="71" cy="71" r="71"></circle>
                    <path d="M107.240323,48.3894583 C104.573385,49.5787083 101.70824,50.3826354 98.7003542,50.7442917 C101.769625,48.8931146 104.127417,45.9621458 105.23901,42.4690937 C102.365729,44.1834479 99.1840417,45.4274271 95.7960104,46.0989687 C93.0839583,43.1916667 89.2188958,41.37525 84.9418854,41.37525 C76.7295521,41.37525 70.0710833,48.0714375 70.0710833,56.3318437 C70.0710833,57.5040833 70.2019896,58.6452604 70.4556667,59.7405833 C58.0972292,59.1156354 47.1403021,53.1619896 39.8058542,44.1124479 C38.526375,46.3223229 37.7927083,48.8916354 37.7927083,51.6325312 C37.7927083,56.8221875 40.4182292,61.4009479 44.4082813,64.0826771 C41.9706146,64.0057604 39.6771667,63.3327396 37.6736354,62.2122708 C37.6721563,62.2751354 37.6721563,62.338 37.6721563,62.4008646 C37.6721563,69.6480417 42.7982083,75.6926562 49.6008958,77.0675417 C48.3524792,77.4099687 47.0397187,77.5926458 45.6833229,77.5926458 C44.7248229,77.5926458 43.7936875,77.4987187 42.8854792,77.3241771 C44.7780729,83.2659896 50.2694792,87.5910729 56.7763333,87.711625 C51.6872604,91.723125 45.2750729,94.1141979 38.3081979,94.1141979 C37.1078542,94.1141979 35.9245208,94.0431979 34.7611562,93.9056354 C41.3419687,98.1493646 49.158625,100.626229 57.5551146,100.626229 C84.9063854,100.626229 99.8637187,77.8344896 99.8637187,58.0683854 C99.8637187,57.4197708 99.8489271,56.7755937 99.8200833,56.1328958 C102.725167,54.0228646 105.246406,51.3877292 107.240323,48.3894583 L107.240323,48.3894583 Z" id="Shape" fill="#FFFFFF"></path>
                </g>
            </g>
        </g>
    </g>
</svg>