<?xml version="1.0" encoding="UTF-8" standalone="no"?>
<svg width="185px" height="31px" viewBox="0 0 185 31" version="1.1" xmlns="http://www.w3.org/2000/svg" xmlns:xlink="http://www.w3.org/1999/xlink" xmlns:sketch="http://www.bohemiancoding.com/sketch/ns">
    <!-- Generator: Sketch 3.3.3 (12081) - http://www.bohemiancoding.com/sketch -->
    <title>Corey Malone + EMPATHETIC EXPERIENC Copy</title>
    <desc>Created with Sketch.</desc>
    <defs></defs>
    <g id="Page-1" stroke="none" stroke-width="1" fill="none" fill-rule="evenodd" sketch:type="MSPage">
        <g id="A4-Copy-8" sketch:type="MSArtboardGroup" transform="translate(-181.000000, -46.000000)" fill="#1FB7AF">
            <g id="Group" sketch:type="MSLayerGroup" transform="translate(54.000000, 7.000000)">
                <g id="Corey-Malone-+-EMPATHETIC-EXPERIENC-Copy" transform="translate(127.000000, 39.000000)" sketch:type="MSShapeGroup">
                    <path d="M0.361262435,7.12921867 L0.361262435,11.6367053 C0.361262435,15.9689008 3.14087919,18.6483512 8.07407288,18.6483512 C11.9304781,18.6483512 14.334471,17.0707308 15.3862178,14.2660725 C15.6366338,13.5398663 15.4613426,13.1642424 14.7100949,12.9138265 L12.0306445,11.962246 C11.2793967,11.6867885 10.9788976,11.8620796 10.6783985,12.638369 C10.277733,13.7151575 9.47640205,14.2660725 8.07407288,14.2660725 C6.09578708,14.2660725 5.31949772,13.4146584 5.31949772,11.6617469 L5.31949772,7.10417708 C5.31949772,5.35126562 6.09578708,4.49985148 8.07407288,4.49985148 C9.47640205,4.49985148 10.2276498,5.00068332 10.6783985,6.12755498 C10.953856,6.90384434 11.2543551,7.02905231 12.0306445,6.80367797 L14.7100949,5.85209746 C15.4613426,5.60168154 15.6366338,5.22605766 15.3862178,4.49985148 C14.334471,1.69519313 11.9304781,0.117572815 8.07407288,0.117572815 C3.14087919,0.117572815 0.361262435,2.7970232 0.361262435,7.12921867 L0.361262435,7.12921867 Z M16.6633391,7.12921867 L16.6633391,11.6367053 C16.6633391,15.9689008 19.4179142,18.6483512 24.3761495,18.6483512 C29.3093432,18.6483512 32.0639184,15.9689008 32.0639184,11.6367053 L32.0639184,7.12921867 C32.0639184,2.7970232 29.3093432,0.117572815 24.3761495,0.117572815 C19.4179142,0.117572815 16.6633391,2.7970232 16.6633391,7.12921867 L16.6633391,7.12921867 Z M27.1056831,6.90384434 L27.1056831,11.8620796 C27.1056831,13.4396999 26.1040194,14.2660725 24.3761495,14.2660725 C22.623238,14.2660725 21.6215743,13.4396999 21.6215743,11.8620796 L21.6215743,6.90384434 C21.6215743,5.32622402 22.623238,4.49985148 24.3761495,4.49985148 C26.1040194,4.49985148 27.1056831,5.32622402 27.1056831,6.90384434 L27.1056831,6.90384434 Z M42.3810544,0.4931967 L35.2442006,0.4931967 C34.4428696,0.4931967 34.1674121,0.768654216 34.1674121,1.54494358 L34.1674121,17.2209804 C34.1674121,17.9972698 34.4428696,18.2727273 35.2442006,18.2727273 L38.0739005,18.2727273 C38.8752315,18.2727273 39.1256474,17.9972698 39.1256474,17.2209804 L39.1256474,12.3629115 L39.701604,12.3629115 C40.7283093,12.3629115 41.1540164,12.7886185 41.5797235,13.6400327 L43.1823854,17.0707308 C43.5830508,17.9471866 44.1590075,18.2727273 45.4862119,18.2727273 L48.1907038,18.2727273 C49.0170764,18.2727273 49.1923675,17.7218122 48.8417852,17.0456892 L46.5880419,12.763577 C46.3877092,12.3629115 46.1623349,12.0123292 45.9119189,11.6867885 C47.6147472,10.735208 48.6164109,8.98229651 48.6164109,6.52822046 C48.6164109,2.64677364 46.1623349,0.4931967 42.3810544,0.4931967 L42.3810544,0.4931967 Z M43.4828845,6.50317887 C43.4828845,7.52988415 42.8818863,8.18096555 41.8301394,8.18096555 L39.1256474,8.18096555 L39.1256474,4.87547536 L41.8301394,4.87547536 C42.9069278,4.87547536 43.4828845,5.50151517 43.4828845,6.50317887 L43.4828845,6.50317887 Z M62.2891203,0.4931967 L51.7966931,0.4931967 C50.9953622,0.4931967 50.7199047,0.768654216 50.7199047,1.54494358 L50.7199047,17.2209804 C50.7199047,17.9972698 50.9953622,18.2727273 51.7966931,18.2727273 L62.5144947,18.2727273 C63.290784,18.2727273 63.5662415,17.9972698 63.5662415,17.2209804 L63.5662415,14.9421955 C63.5662415,14.1408645 63.290784,13.8904486 62.5144947,13.8904486 L55.6781399,13.8904486 L55.6781399,11.4864557 L60.9619159,11.4864557 C61.7632469,11.4864557 62.0387044,11.2109982 62.0387044,10.4096673 L62.0387044,8.15592396 C62.0387044,7.3796346 61.7632469,7.10417708 60.9619159,7.10417708 L55.6781399,7.10417708 L55.6781399,4.87547536 L62.2891203,4.87547536 C63.0904513,4.87547536 63.3659088,4.60001785 63.3659088,3.79868689 L63.3659088,1.54494358 C63.3659088,0.768654216 63.0904513,0.4931967 62.2891203,0.4931967 L62.2891203,0.4931967 Z M80.36915,0.4931967 L77.4893669,0.4931967 C76.2623289,0.4931967 75.9117466,0.543279885 75.4359563,1.41973562 L72.6813812,6.52822046 L70.0019308,1.41973562 C69.5261405,0.543279885 69.1755582,0.4931967 67.9234786,0.4931967 L64.9184875,0.4931967 C64.1421982,0.4931967 64.0420318,0.968986955 64.3926141,1.54494358 L70.1521803,11.3862894 L70.1521803,17.2209804 C70.1521803,17.9972698 70.4276378,18.2727273 71.2289688,18.2727273 L74.0586687,18.2727273 C74.8599997,18.2727273 75.1104156,17.9972698 75.1104156,17.2209804 L75.1104156,11.3862894 L80.8950235,1.54494358 C81.2205642,0.968986955 81.1203978,0.4931967 80.36915,0.4931967 L80.36915,0.4931967 Z M103.182041,0.468155108 L100.677881,0.468155108 C99.8515089,0.468155108 99.6261345,0.59336307 99.2755522,1.26948606 L95.1436895,9.35792039 L91.0118268,1.24444447 C90.6612445,0.618404662 90.4108285,0.468155108 89.5343728,0.468155108 L87.1804631,0.468155108 C86.3791322,0.468155108 86.1036747,0.718571031 86.1036747,1.51990199 L86.1036747,17.246022 C86.1036747,18.0223113 86.3791322,18.2727273 87.1804631,18.2727273 L89.7347056,18.2727273 C90.5360365,18.2727273 90.811494,18.0223113 90.811494,17.246022 L90.811494,13.6901159 C90.811494,11.962246 90.6862861,10.7101664 89.7847887,7.10417708 L90.0352047,7.10417708 C90.2856206,7.98063281 91.0619099,10.2844593 91.5877834,11.2360398 L93.0652373,14.0657398 C93.3406949,14.6166548 93.5911108,14.7919459 94.2672338,14.7919459 L95.9450205,14.7919459 C96.6211435,14.7919459 96.8715594,14.5665716 97.1470169,14.0657398 L98.5493461,11.2360398 C99.0752195,10.2093345 99.9767168,7.93054963 100.227133,7.10417708 L100.50259,7.10417708 C99.5510098,10.4347089 99.4007602,12.0123292 99.4007602,13.6650743 L99.4007602,17.246022 C99.4007602,18.0223113 99.6511761,18.2727273 100.452507,18.2727273 L103.182041,18.2727273 C103.983372,18.2727273 104.258829,18.0223113 104.258829,17.246022 L104.258829,1.51990199 C104.258829,0.718571031 103.983372,0.468155108 103.182041,0.468155108 L103.182041,0.468155108 Z M122.639358,17.246022 L116.85475,1.31956925 C116.604334,0.668487847 116.278793,0.4931967 115.552587,0.4931967 L112.697846,0.4931967 C111.97164,0.4931967 111.646099,0.643446254 111.395683,1.36965243 L105.636117,17.246022 C105.385701,17.922145 105.53595,18.2727273 106.31224,18.2727273 L108.941607,18.2727273 C110.193687,18.2727273 110.519227,17.9972698 110.769643,17.2209804 L111.3456,15.4179857 L116.754584,15.4179857 L117.33054,17.2209804 C117.530873,17.9972698 117.906497,18.2727273 119.20866,18.2727273 L121.913152,18.2727273 C122.6644,18.2727273 122.889774,17.922145 122.639358,17.246022 L122.639358,17.246022 Z M114.701173,8.55658944 L115.627712,11.4864557 L112.497513,11.4864557 L113.424052,8.53154785 C113.924884,6.85376116 113.899842,5.05076651 113.899842,5.05076651 L114.150258,5.05076651 C114.150258,5.05076651 114.200341,6.85376116 114.701173,8.55658944 L114.701173,8.55658944 Z M127.898092,0.4931967 L125.068392,0.4931967 C124.267061,0.4931967 123.991604,0.768654216 123.991604,1.54494358 L123.991604,17.2209804 C123.991604,17.9972698 124.267061,18.2727273 125.068392,18.2727273 L134.984863,18.2727273 C135.761152,18.2727273 136.03661,17.9972698 136.03661,17.2209804 L136.03661,14.9421955 C136.03661,14.1408645 135.761152,13.8904486 134.984863,13.8904486 L128.949839,13.8904486 L128.949839,1.54494358 C128.949839,0.768654216 128.699423,0.4931967 127.898092,0.4931967 L127.898092,0.4931967 Z M136.862982,7.12921867 L136.862982,11.6367053 C136.862982,15.9689008 139.617558,18.6483512 144.575793,18.6483512 C149.508987,18.6483512 152.263562,15.9689008 152.263562,11.6367053 L152.263562,7.12921867 C152.263562,2.7970232 149.508987,0.117572815 144.575793,0.117572815 C139.617558,0.117572815 136.862982,2.7970232 136.862982,7.12921867 L136.862982,7.12921867 Z M147.305326,6.90384434 L147.305326,11.8620796 C147.305326,13.4396999 146.303663,14.2660725 144.575793,14.2660725 C142.822881,14.2660725 141.821218,13.4396999 141.821218,11.8620796 L141.821218,6.90384434 C141.821218,5.32622402 142.822881,4.49985148 144.575793,4.49985148 C146.303663,4.49985148 147.305326,5.32622402 147.305326,6.90384434 L147.305326,6.90384434 Z M168.340264,0.4931967 L165.786022,0.4931967 C164.984691,0.4931967 164.734275,0.768654216 164.734275,1.54494358 L164.734275,5.65176473 C164.734275,8.20600715 165.059815,9.40800358 165.861146,11.9872876 L165.660814,11.9872876 C164.859483,10.0841266 164.65915,9.13254606 163.55732,7.40467619 L159.450499,0.994028547 C159.225124,0.643446254 158.974708,0.4931967 158.398752,0.4931967 L155.443844,0.4931967 C154.642513,0.4931967 154.367055,0.768654216 154.367055,1.54494358 L154.367055,17.2209804 C154.367055,17.9972698 154.642513,18.2727273 155.443844,18.2727273 L157.973045,18.2727273 C158.774376,18.2727273 159.049833,17.9972698 159.049833,17.2209804 L159.049833,13.1392008 C159.049833,10.3595841 158.749334,9.08246288 158.223461,6.67847001 L158.423793,6.67847001 C159.099916,8.93221332 159.525623,10.1091682 160.627454,11.837038 L164.483859,17.7718954 C164.709233,18.1224777 164.984691,18.2727273 165.510564,18.2727273 L168.340264,18.2727273 C169.116553,18.2727273 169.392011,17.9972698 169.392011,17.2209804 L169.392011,1.54494358 C169.392011,0.768654216 169.116553,0.4931967 168.340264,0.4931967 L168.340264,0.4931967 Z M183.465386,0.4931967 L172.972959,0.4931967 C172.171628,0.4931967 171.89617,0.768654216 171.89617,1.54494358 L171.89617,17.2209804 C171.89617,17.9972698 172.171628,18.2727273 172.972959,18.2727273 L183.69076,18.2727273 C184.467049,18.2727273 184.742507,17.9972698 184.742507,17.2209804 L184.742507,14.9421955 C184.742507,14.1408645 184.467049,13.8904486 183.69076,13.8904486 L176.854405,13.8904486 L176.854405,11.4864557 L182.138181,11.4864557 C182.939512,11.4864557 183.21497,11.2109982 183.21497,10.4096673 L183.21497,8.15592396 C183.21497,7.3796346 182.939512,7.10417708 182.138181,7.10417708 L176.854405,7.10417708 L176.854405,4.87547536 L183.465386,4.87547536 C184.266717,4.87547536 184.542174,4.60001785 184.542174,3.79868689 L184.542174,1.54494358 C184.542174,0.768654216 184.266717,0.4931967 183.465386,0.4931967 L183.465386,0.4931967 Z" id="Corey-Malone"></path>
                    <path d="M0.462765842,30.2727273 L5.05651584,30.2727273 L5.05651584,29.9088162 L0.831906467,29.9088162 L0.831906467,26.7248757 L4.18498505,26.7248757 L4.18498505,26.3609133 L0.831906467,26.3609133 L0.831906467,23.1769728 L4.83605686,23.1769728 L4.83605686,22.8130104 L0.4627146,22.8130104 L0.462765842,30.2727273 Z M13.4779148,22.813113 L10.3043821,28.2015408 L10.2837717,28.2015408 L7.105112,22.813113 L6.73079318,22.813113 L6.73079318,30.2727273 L7.0999338,30.2727273 L7.0999338,23.5565212 L7.11018771,23.5565212 L10.1504709,28.6886013 L10.4272751,28.6886013 L13.4726853,23.5565212 L13.4829392,23.5565212 L13.4829392,30.2727273 L13.8521311,30.2727273 L13.8521311,22.813113 L13.4779148,22.813113 Z M15.9980881,30.2727273 L16.3672287,30.2727273 L16.3672287,27.1452859 L18.2847604,27.1452859 C19.7663986,27.1452859 20.8071701,26.4840115 20.8071701,24.9561794 C20.8071701,23.7359646 20.1407175,22.813113 18.4693307,22.813113 L15.9980368,22.813113 L15.9980881,30.2727273 Z M16.3671774,26.7762478 L16.3671774,23.1770241 L18.5256759,23.1770241 C19.6638595,23.1770241 20.4225973,23.740989 20.4225973,24.9509499 C20.4225973,25.9814163 19.8535055,26.7761966 18.3102926,26.7761966 L16.3671774,26.7762478 Z M26.834282,30.2727273 L27.2393625,30.2727273 L24.3323289,22.813113 L23.9067917,22.813113 L21.0306223,30.2727273 L21.4304734,30.2727273 L22.2456589,28.1502712 L26.0139695,28.1502712 L26.834282,30.2727273 Z M22.3839841,27.7862576 L24.1117673,23.2847927 L24.1323777,23.2847927 L25.8754905,27.7862576 L22.3839841,27.7862576 Z M29.7543576,30.2727273 L30.1338547,30.2727273 L30.1338547,23.1770241 L32.5742844,23.1770241 L32.5742844,22.8130617 L27.3601731,22.8130617 L27.3601731,23.1770241 L29.7544089,23.1770241 L29.7543576,30.2727273 Z M34.0536349,30.2727273 L34.4227756,30.2727273 L34.4227756,26.940259 L39.1395724,26.940259 L39.1395724,30.2727273 L39.5087131,30.2727273 L39.5087131,22.813113 L39.1395724,22.813113 L39.1395724,26.5762454 L34.4227756,26.5762454 L34.4227756,22.813113 L34.0536349,22.813113 L34.0536349,30.2727273 Z M41.6546701,30.2727273 L46.2484201,30.2727273 L46.2484201,29.9088162 L42.0238107,29.9088162 L42.0238107,26.7248757 L45.3768893,26.7248757 L45.3768893,26.3609133 L42.0238107,26.3609133 L42.0238107,23.1769728 L46.0279611,23.1769728 L46.0279611,22.8130104 L41.6546188,22.8130104 L41.6546701,30.2727273 Z M49.6556076,30.2727273 L50.0351047,30.2727273 L50.0351047,23.1770241 L52.4755344,23.1770241 L52.4755344,22.8130617 L47.261423,22.8130617 L47.261423,23.1770241 L49.6556589,23.1770241 L49.6556076,30.2727273 Z M54.0215866,30.2727273 L54.3907273,30.2727273 L54.3907273,22.813113 L54.0215866,22.813113 L54.0215866,30.2727273 Z M59.9511837,30.303489 C61.2586593,30.303489 62.145571,29.7241945 62.7915671,28.903882 L62.4993308,28.6680422 C61.8994772,29.4217043 61.1099265,29.9292727 59.9512351,29.9292727 C58.1465988,29.9292727 56.6956198,28.7449977 56.6956198,26.5813723 C56.6956198,24.6280544 57.8544138,23.141238 59.9512864,23.141238 C60.8843918,23.141238 61.7969895,23.5308864 62.4993821,24.4229762 L62.7916184,24.1820094 C62.0021189,23.1873805 60.9767282,22.7669704 59.9513376,22.7669704 C57.5929392,22.7669704 56.3112009,24.4639919 56.3112009,26.5814235 C56.3112009,28.9910915 57.9569529,30.3035915 59.9513376,30.3035915 L59.9511837,30.303489 Z M67.6217599,30.2727273 L72.2155099,30.2727273 L72.2155099,29.9088162 L67.9909005,29.9088162 L67.9909005,26.7248757 L71.3439791,26.7248757 L71.3439791,26.3609133 L67.9909005,26.3609133 L67.9909005,23.1769728 L71.9950509,23.1769728 L71.9950509,22.8130104 L67.6217086,22.8130104 L67.6217599,30.2727273 Z M79.0782638,22.813113 L78.6271432,22.813113 L76.2072213,26.2276126 L76.1918404,26.2276126 L73.7565377,22.813113 L73.3053658,22.813113 L75.9611275,26.5609158 L73.3104928,30.2727786 L73.7667916,30.2727786 L76.1917892,26.9043704 L76.20717,26.9043704 L78.616838,30.2727786 L79.0782125,30.2727786 L76.4327047,26.5609158 L79.0782638,22.813113 Z M80.6397482,30.2727273 L81.0088888,30.2727273 L81.0088888,27.1452859 L82.9264205,27.1452859 C84.4080587,27.1452859 85.4488302,26.4840115 85.4488302,24.9561794 C85.4488302,23.7359646 84.7823775,22.813113 83.1109908,22.813113 L80.6396968,22.813113 L80.6397482,30.2727273 Z M81.0088375,26.7762478 L81.0088375,23.1770241 L83.167336,23.1770241 C84.3055196,23.1770241 85.0642574,23.740989 85.0642574,24.9509499 C85.0642574,25.9814163 84.4951656,26.7761966 82.9519527,26.7761966 L81.0088375,26.7762478 Z M87.0923458,30.2727273 L91.6860958,30.2727273 L91.6860958,29.9088162 L87.4614864,29.9088162 L87.4614864,26.7248757 L90.814565,26.7248757 L90.814565,26.3609133 L87.4614864,26.3609133 L87.4614864,23.1769728 L91.4656368,23.1769728 L91.4656368,22.8130104 L87.0922946,22.8130104 L87.0923458,30.2727273 Z M98.2822481,30.2727273 L96.0418722,27.155591 L96.0468966,27.1402614 C97.2568575,27.0632545 98.1797091,26.3916749 98.1797091,24.956128 C98.1797091,23.7359132 97.4773165,22.8130616 95.8366915,22.8130616 L93.3603731,22.8130616 L93.3603731,30.2726759 L93.7295138,30.2726759 L93.7295138,27.1452345 L95.5752169,27.1452345 L97.8156954,30.2726759 L98.2822481,30.2727273 Z M93.7295138,23.1821509 L95.8674532,23.1821509 C97.0415255,23.1821509 97.7951876,23.7461158 97.7951876,24.9509498 C97.7951876,26.022483 97.2209688,26.7761451 95.677756,26.7761451 L93.7294625,26.7761451 L93.7295138,23.1821509 Z M100.161655,30.2727273 L100.530796,30.2727273 L100.530796,22.813113 L100.161655,22.813113 L100.161655,30.2727273 Z M102.748479,30.2727273 L107.342229,30.2727273 L107.342229,29.9088162 L103.117619,29.9088162 L103.117619,26.7248757 L106.470698,26.7248757 L106.470698,26.3609133 L103.117619,26.3609133 L103.117619,23.1769728 L107.12177,23.1769728 L107.12177,22.8130104 L102.748427,22.8130104 L102.748479,30.2727273 Z M114.451128,22.813113 L114.451128,29.6370876 L114.43062,29.6370876 L109.370317,22.813113 L109.016455,22.813113 L109.016455,30.2727273 L109.385595,30.2727273 L109.385595,23.4846926 L109.41123,23.4846926 L114.451025,30.2727273 L114.820166,30.2727273 L114.820166,22.813113 L114.451128,22.813113 Z M120.319201,30.303489 C121.626677,30.303489 122.513588,29.7241945 123.159585,28.903882 L122.867348,28.6680422 C122.267495,29.4217043 121.477944,29.9292727 120.319253,29.9292727 C118.514616,29.9292727 117.063637,28.7449977 117.063637,26.5813723 C117.063637,24.6280544 118.222431,23.141238 120.319304,23.141238 C121.252409,23.141238 122.165007,23.5308864 122.8674,24.4229762 L123.159636,24.1820094 C122.370136,23.1873805 121.344746,22.7669704 120.319355,22.7669704 C117.960957,22.7669704 116.679218,24.4639919 116.679218,26.5814235 C116.679218,28.9910915 118.32497,30.3035915 120.319355,30.3035915 L120.319201,30.303489 Z M124.741525,30.2727273 L129.335275,30.2727273 L129.335275,29.9088162 L125.110666,29.9088162 L125.110666,26.7248757 L128.463745,26.7248757 L128.463745,26.3609133 L125.110666,26.3609133 L125.110666,23.1769728 L129.114816,23.1769728 L129.114816,22.8130104 L124.741474,22.8130104 L124.741525,30.2727273 Z M134.257805,30.2727273 L136.298383,30.2727273 C138.651655,30.2727273 140.138471,28.7603273 140.138471,26.5557375 C140.138471,24.3460207 138.626071,22.813113 136.267673,22.813113 L134.257907,22.813113 L134.257805,30.2727273 Z M134.627048,29.9088161 L134.627048,23.1770241 L136.267673,23.1770241 C138.385104,23.1770241 139.754001,24.5561745 139.754001,26.5556862 C139.754001,28.5295631 138.390231,29.9087135 136.2728,29.9087135 L134.627048,29.9088161 Z M141.987014,30.2727273 L146.580764,30.2727273 L146.580764,29.9088162 L142.356154,29.9088162 L142.356154,26.7248757 L145.709233,26.7248757 L145.709233,26.3609133 L142.356154,26.3609133 L142.356154,23.1769728 L146.360305,23.1769728 L146.360305,22.8130104 L141.986962,22.8130104 L141.987014,30.2727273 Z M150.336687,30.3188186 C151.684973,30.3188186 152.679602,29.5191677 152.679602,28.3962624 C152.679602,27.0888894 151.592739,26.694114 150.382675,26.2173074 C149.377792,25.8225832 148.449814,25.5559816 148.454941,24.5613527 C148.460068,23.6333742 149.326472,23.1463137 150.192927,23.1463137 C150.838974,23.1463137 151.608017,23.4180422 152.182236,23.8999758 L152.438532,23.5718508 C151.756647,23.0489528 150.962021,22.7720973 150.233994,22.7669704 C149.013779,22.7567165 148.070419,23.5462673 148.070419,24.5870387 C148.070419,25.7969997 149.182917,26.1609621 150.259577,26.5864992 C151.351618,27.0120363 152.294978,27.3042727 152.294978,28.4168215 C152.294978,29.3550027 151.438776,29.9446023 150.326228,29.9446023 C149.470026,29.9446023 148.577937,29.5858181 148.049758,28.8834255 L147.767827,29.1807888 C148.475295,29.9754666 149.423781,30.3189212 150.336379,30.3189212 L150.336687,30.3188186 Z M154.497485,30.2727273 L154.866626,30.2727273 L154.866626,22.813113 L154.497485,22.813113 L154.497485,30.2727273 Z M160.242614,26.6428957 L160.242614,27.0069094 L162.924011,27.0069094 L162.924011,29.1499758 C162.288269,29.7088137 161.401306,29.9396291 160.432312,29.9396291 C158.509755,29.9396291 157.171518,28.5809353 157.171518,26.5506619 C157.171518,24.5101858 158.525034,23.1412893 160.422109,23.1412893 C161.34496,23.1412893 162.175527,23.3821535 162.888173,24.0846487 L163.159902,23.828301 C162.35497,23.0438772 161.406484,22.7670217 160.427133,22.7670217 C158.27894,22.7670217 156.786997,24.3153615 156.786997,26.5507131 C156.786997,28.7963698 158.29955,30.3138967 160.432312,30.3138967 C161.575622,30.3138967 162.585632,29.9755178 163.2931,29.3346999 L163.2931,26.6430495 L160.242614,26.6428957 Z M170.745454,22.813113 L170.745454,29.6370876 L170.724946,29.6370876 L165.664643,22.813113 L165.310781,22.813113 L165.310781,30.2727273 L165.679921,30.2727273 L165.679921,23.4846926 L165.705556,23.4846926 L170.745351,30.2727273 L171.114492,30.2727273 L171.114492,22.813113 L170.745454,22.813113 Z M173.270754,30.2727273 L177.864504,30.2727273 L177.864504,29.9088162 L173.639895,29.9088162 L173.639895,26.7248757 L176.992973,26.7248757 L176.992973,26.3609133 L173.639895,26.3609133 L173.639895,23.1769728 L177.644045,23.1769728 L177.644045,22.8130104 L173.270703,22.8130104 L173.270754,30.2727273 Z M184.460656,30.2727273 L182.22028,27.155591 L182.225305,27.1402614 C183.435266,27.0632545 184.358117,26.3916749 184.358117,24.956128 C184.358117,23.7359132 183.655725,22.8130616 182.0151,22.8130616 L179.538781,22.8130616 L179.538781,30.2726759 L179.907922,30.2726759 L179.907922,27.1452345 L181.753625,27.1452345 L183.994103,30.2726759 L184.460656,30.2727273 Z M179.907922,23.1821509 L182.045861,23.1821509 C183.219934,23.1821509 183.973596,23.7461158 183.973596,24.9509498 C183.973596,26.022483 183.399377,26.7761451 181.856164,26.7761451 L179.907871,26.7761451 L179.907922,23.1821509 Z" id="EMPATHETIC-EXPERIENC"></path>
                </g>
            </g>
        </g>
    </g>
</svg>