<?xml version="1.0" encoding="UTF-8"?>
<svg width="204px" height="21px" viewBox="0 0 204 21" version="1.1" xmlns="http://www.w3.org/2000/svg" xmlns:xlink="http://www.w3.org/1999/xlink">
    <!-- Generator: Sketch 42 (36781) - http://www.bohemiancoding.com/sketch -->
    <title>COREY MALONE Copy</title>
    <desc>Created with Sketch.</desc>
    <defs></defs>
    <g id="Page-1" stroke="none" stroke-width="1" fill="none" fill-rule="evenodd">
        <path d="M9.93873727,20.1948706 C8.89942212,20.1948706 7.90342671,20.0649582 6.95072115,19.8051294 C5.9980156,19.5453006 5.11894139,19.1469024 4.31347214,18.6099229 C3.5080029,18.0729434 2.8086409,17.4298768 2.21536517,16.6807038 C1.62208944,15.9315308 1.15656984,15.0373002 0.818792421,13.997985 C0.481014997,12.9586699 0.312128818,11.8284316 0.312128818,10.6072363 C0.312128818,9.52461633 0.446371678,8.49614281 0.714861425,7.52178486 C0.983351173,6.5474269 1.38824496,5.65752665 1.92955493,4.85205741 C2.47086491,4.04658817 3.12042714,3.34722617 3.8782611,2.75395044 C4.63609506,2.16067471 5.53249094,1.69948553 6.56747561,1.37036906 C7.60246028,1.0412526 8.72620293,0.876696833 9.93873727,0.876696833 C10.8308161,0.876696833 11.7098903,0.997948448 12.5759863,1.24045532 C13.4420822,1.48296219 14.306,1.88136035 15.1677655,2.43566176 C16.029531,2.98996318 16.7938492,3.67849914 17.4607431,4.5012903 L14.7195631,6.8397377 C14.1306178,6.12953901 13.4204298,5.55142863 12.5889777,5.10538921 C11.7575255,4.65934979 10.8741209,4.43633343 9.93873727,4.43633343 C9.47104546,4.43633343 9.02068231,4.48396799 8.58763433,4.57923855 C8.15458635,4.6745091 7.74752736,4.81524758 7.36644514,5.00145822 C6.98536291,5.18766885 6.6324341,5.41285042 6.30764812,5.67700969 C5.98286213,5.94116895 5.69272434,6.2464632 5.43722603,6.59290158 C5.18172772,6.93933997 4.96304177,7.31825127 4.78116162,7.72964685 C4.59928147,8.14104243 4.4607082,8.58924036 4.36543764,9.0742541 C4.27016709,9.55926784 4.22253252,10.0702568 4.22253252,10.6072363 C4.22253252,11.7678049 4.46287055,12.8071044 4.9435538,13.7251661 C5.42423706,14.6432279 6.09978178,15.3599115 6.97020822,15.8752386 C7.84063465,16.3905657 8.83013445,16.6482254 9.93873727,16.6482254 C10.8827819,16.6482254 11.7705169,16.4317047 12.601969,15.9986567 C13.4334212,15.5656087 14.1392788,14.9853331 14.7195631,14.2578125 L17.4607431,16.6092513 C16.5946471,17.6918712 15.5207042,18.5601194 14.2388822,19.2140218 C12.9570602,19.8679243 11.5236929,20.1948706 9.93873727,20.1948706 Z M28.608827,20.2208534 C27.1970906,20.2208534 25.8914706,19.9783501 24.6919276,19.4933364 C23.4923847,19.0083227 22.4747373,18.3414388 21.6389547,17.4926647 C20.8031721,16.6438907 20.1492794,15.6197476 19.6772571,14.4202047 C19.2052348,13.2206618 18.9692272,11.9280329 18.9692272,10.5422794 C18.9692272,9.15652588 19.2052348,7.86606225 19.6772571,6.67084983 C20.1492794,5.47563741 20.8031721,4.4536595 21.6389547,3.60488546 C22.4747373,2.75611142 23.49455,2.08922754 24.6984233,1.6042138 C25.9022967,1.11920006 27.2057516,0.876696833 28.608827,0.876696833 C29.9859196,0.876696833 31.2655572,1.11270444 32.4477782,1.58472674 C33.6299992,2.05674904 34.6454814,2.71064168 35.4942555,3.54642428 C36.3430295,4.38220688 37.0099134,5.40201957 37.4949272,6.60589296 C37.9799409,7.80976634 38.2224441,9.12188204 38.2224441,10.5422794 C38.2224441,11.9626768 37.9799409,13.2769577 37.4949272,14.4851616 C37.0099134,15.6933654 36.3430295,16.7153433 35.4942555,17.5511259 C34.6454814,18.3869085 33.6299992,19.0408012 32.4477782,19.5128235 C31.2655572,19.9848458 29.9859196,20.2208534 28.608827,20.2208534 Z M28.6218184,16.739165 C29.4272877,16.739165 30.182945,16.5832701 30.8888133,16.2714755 C31.5946815,15.959681 32.2009395,15.5309699 32.7076057,14.9853295 C33.2142718,14.439689 33.61267,13.781466 33.9028121,13.0106406 C34.1929543,12.2398152 34.3380232,11.4170363 34.3380232,10.5422794 C34.3380232,9.37304987 34.0890243,8.31642865 33.5910191,7.37238405 C33.093014,6.42833945 32.4088084,5.69216893 31.538382,5.1638504 C30.6679555,4.63553186 29.6957774,4.37137656 28.6218184,4.37137656 C27.5132156,4.37137656 26.5172202,4.6463579 25.6338023,5.19632883 C24.7503844,5.74629977 24.0683441,6.49113112 23.5876608,7.43084523 C23.1069776,8.37055935 22.8666395,9.4076937 22.8666395,10.5422794 C22.8666395,11.6855261 23.1069776,12.7269908 23.5876608,13.666705 C24.0683441,14.6064191 24.7503844,15.3534156 25.6338023,15.9077171 C26.5172202,16.4620185 27.5132156,16.739165 28.6218184,16.739165 Z M55.5544223,20 L51.1243636,20 L46.8891756,13.5302955 L44.719616,13.5302955 L44.719616,20 L41.0300657,20 L41.0300657,1.0975502 L48.1753216,1.0975502 C49.2839245,1.0975502 50.2647634,1.25344513 51.1178679,1.56523968 C51.9709725,1.87703422 52.6595084,2.31873654 53.1834965,2.89035987 C53.7074845,3.4619832 54.1015523,4.12453667 54.3657116,4.87804016 C54.6298708,5.63154364 54.7619485,6.47164412 54.7619485,7.3983668 C54.7619485,8.38571619 54.6038883,9.2626252 54.2877633,10.0291201 C53.9716383,10.795615 53.529936,11.4300208 52.9626431,11.9323565 C52.3953503,12.4346921 51.7046491,12.8200991 50.8905189,13.0885888 L50.8905189,13.1405543 L55.5544223,20 Z M44.719616,4.42334205 L44.719616,10.2304864 L47.3438737,10.2304864 C48.4784594,10.2304864 49.3532032,9.96849633 49.9681313,9.44450827 C50.5830594,8.92052022 50.8905189,8.21249739 50.8905189,7.32041855 C50.8905189,6.42833971 50.5938855,5.72248209 50.0006097,5.20282452 C49.407334,4.68316694 48.5737292,4.42334205 47.4997702,4.42334205 L44.719616,4.42334205 Z M57.8293975,20 L57.8293975,1.0975502 L69.9113758,1.0975502 L69.9113758,4.4493248 L61.5189479,4.4493248 L61.5189479,8.98331448 L68.2484798,8.98331448 L68.2484798,12.2831236 L61.5189479,12.2831236 L61.5189479,16.6612168 L70.4700049,16.6612168 L70.4700049,20 L57.8293975,20 Z M83.3849158,1.0975502 L87.7110434,1.0975502 L81.4232182,11.6985117 L81.4232182,20 L77.6427283,20 L77.6427283,11.6985117 L71.3938772,1.0975502 L75.6810307,1.0975502 L79.5264776,7.99597002 L79.5784431,7.99597002 L83.3849158,1.0975502 Z M111.306349,1.0975502 L115.073847,1.0975502 L115.073847,20 L111.358314,20 L111.358314,8.25579751 L111.31934,8.25579751 L106.707402,16.4143807 L104.278015,16.4143807 L99.6660773,8.25579751 L99.6271032,8.25579751 L99.6271032,20 L95.9115701,20 L95.9115701,1.0975502 L99.6790687,1.0975502 L105.486213,11.8544082 L105.538179,11.8544082 L111.306349,1.0975502 Z M130.729938,20 L129.443792,16.21951 L122.194605,16.21951 L120.908459,20 L116.998056,20 L124.000406,1.0975502 L127.612008,1.0975502 L134.640342,20 L130.729938,20 Z M123.272889,13.0236319 L128.352517,13.0236319 L125.819199,5.60555713 L125.793216,5.60555713 L123.272889,13.0236319 Z M136.590533,20 L136.590533,1.0975502 L140.332049,1.0975502 L140.332049,16.6612168 L148.737468,16.6612168 L148.737468,20 L136.590533,20 Z M159.287949,20.2208534 C157.876212,20.2208534 156.570592,19.9783501 155.371049,19.4933364 C154.171506,19.0083227 153.153859,18.3414388 152.318076,17.4926647 C151.482294,16.6438907 150.828401,15.6197476 150.356379,14.4202047 C149.884357,13.2206618 149.648349,11.9280329 149.648349,10.5422794 C149.648349,9.15652588 149.884357,7.86606225 150.356379,6.67084983 C150.828401,5.47563741 151.482294,4.4536595 152.318076,3.60488546 C153.153859,2.75611142 154.173672,2.08922754 155.377545,1.6042138 C156.581418,1.11920006 157.884873,0.876696833 159.287949,0.876696833 C160.665041,0.876696833 161.944679,1.11270444 163.1269,1.58472674 C164.309121,2.05674904 165.324603,2.71064168 166.173377,3.54642428 C167.022151,4.38220688 167.689035,5.40201957 168.174049,6.60589296 C168.659063,7.80976634 168.901566,9.12188204 168.901566,10.5422794 C168.901566,11.9626768 168.659063,13.2769577 168.174049,14.4851616 C167.689035,15.6933654 167.022151,16.7153433 166.173377,17.5511259 C165.324603,18.3869085 164.309121,19.0408012 163.1269,19.5128235 C161.944679,19.9848458 160.665041,20.2208534 159.287949,20.2208534 Z M159.30094,16.739165 C160.106409,16.739165 160.862067,16.5832701 161.567935,16.2714755 C162.273803,15.959681 162.880061,15.5309699 163.386727,14.9853295 C163.893393,14.439689 164.291792,13.781466 164.581934,13.0106406 C164.872076,12.2398152 165.017145,11.4170363 165.017145,10.5422794 C165.017145,9.37304987 164.768146,8.31642865 164.270141,7.37238405 C163.772136,6.42833945 163.08793,5.69216893 162.217504,5.1638504 C161.347077,4.63553186 160.374899,4.37137656 159.30094,4.37137656 C158.192337,4.37137656 157.196342,4.6463579 156.312924,5.19632883 C155.429506,5.74629977 154.747466,6.49113112 154.266783,7.43084523 C153.786099,8.37055935 153.545761,9.4076937 153.545761,10.5422794 C153.545761,11.6855261 153.786099,12.7269908 154.266783,13.666705 C154.747466,14.6064191 155.429506,15.3534156 156.312924,15.9077171 C157.196342,16.4620185 158.192337,16.739165 159.30094,16.739165 Z M183.895097,1.0975502 L187.636612,1.0975502 L187.636612,20 L183.804157,20 L175.489677,7.47631505 L175.437712,7.47631505 L175.437712,20 L171.709187,20 L171.709187,1.0975502 L175.437712,1.0975502 L183.843131,13.8680713 L183.895097,13.8680713 L183.895097,1.0975502 Z M191.210725,20 L191.210725,1.0975502 L203.292703,1.0975502 L203.292703,4.4493248 L194.900275,4.4493248 L194.900275,8.98331448 L201.629807,8.98331448 L201.629807,12.2831236 L194.900275,12.2831236 L194.900275,16.6612168 L203.851332,16.6612168 L203.851332,20 L191.210725,20 Z" id="COREY-MALONE-Copy" fill="#37BFC2"></path>
    </g>
</svg>