<?xml version="1.0" encoding="UTF-8"?>
<svg width="289px" height="50px" viewBox="0 0 289 50" version="1.1" xmlns="http://www.w3.org/2000/svg" xmlns:xlink="http://www.w3.org/1999/xlink">
    <!-- Generator: Sketch 40.3 (33839) - http://www.bohemiancoding.com/sketch -->
    <title>Page-1</title>
    <desc>Created with Sketch.</desc>
    <defs></defs>
    <g id="Page-1" stroke="none" stroke-width="1" fill="none" fill-rule="evenodd">
        <g id="corey-logo-copy-3">
            <g id="Page-1">
                <g id="Artboard-26" fill="#1FB7AF">
                    <g id="Corey-Malone-+-EMPATHETIC-EXPERIENC-Copy">
                        <path d="M0.272177202,10.9969831 L0.272177202,18.0471544 C0.272177202,24.8231525 4.61978289,29.0140877 12.3358038,29.0140877 C18.3676171,29.0140877 22.1277085,26.5465277 23.7727485,22.1597544 C24.1644247,21.0238935 23.8902513,20.4363792 22.7152228,20.044703 L18.5242876,18.5563335 C17.349259,18.1254897 16.8792476,18.399663 16.4092362,19.6138592 C15.7825543,21.2980668 14.5291904,22.1597544 12.3358038,22.1597544 C9.24156191,22.1597544 8.02736573,20.8280554 8.02736573,18.0863221 L8.02736573,10.9578154 C8.02736573,8.21608212 9.24156191,6.88438308 12.3358038,6.88438308 C14.5291904,6.88438308 15.704219,7.66773546 16.4092362,9.4302783 C16.84008,10.6444745 17.3100914,10.8403126 18.5242876,10.487804 L22.7152228,8.9994345 C23.8902513,8.60775831 24.1644247,8.02024403 23.7727485,6.88438308 C22.1277085,2.49760977 18.3676171,0.0300497873 12.3358038,0.0300497873 C4.61978289,0.0300497873 0.272177202,4.220985 0.272177202,10.9969831 L0.272177202,10.9969831 L0.272177202,10.9969831 Z M25.770297,10.9969831 L25.770297,18.0471544 C25.770297,24.8231525 30.0787351,29.0140877 37.8339236,29.0140877 C45.5499445,29.0140877 49.8583826,24.8231525 49.8583826,18.0471544 L49.8583826,10.9969831 C49.8583826,4.220985 45.5499445,0.0300497873 37.8339236,0.0300497873 C30.0787351,0.0300497873 25.770297,4.220985 25.770297,10.9969831 L25.770297,10.9969831 L25.770297,10.9969831 Z M42.1031941,10.6444745 L42.1031941,18.399663 C42.1031941,20.867223 40.5364893,22.1597544 37.8339236,22.1597544 C35.0921903,22.1597544 33.5254856,20.867223 33.5254856,18.399663 L33.5254856,10.6444745 C33.5254856,8.1769145 35.0921903,6.88438308 37.8339236,6.88438308 C40.5364893,6.88438308 42.1031941,8.1769145 42.1031941,10.6444745 L42.1031941,10.6444745 L42.1031941,10.6444745 Z M65.9954416,0.61756407 L54.8326702,0.61756407 C53.5793064,0.61756407 53.1484626,1.04840788 53.1484626,2.26260406 L53.1484626,26.7815334 C53.1484626,27.9957296 53.5793064,28.4265734 54.8326702,28.4265734 L59.2586111,28.4265734 C60.5119749,28.4265734 60.9036511,27.9957296 60.9036511,26.7815334 L60.9036511,19.1830154 L61.8045064,19.1830154 C63.4103787,19.1830154 64.0762282,19.8488649 64.7420778,21.1805639 L67.2488054,26.5465277 C67.8754873,27.9173944 68.7763425,28.4265734 70.8522263,28.4265734 L75.0823291,28.4265734 C76.3748606,28.4265734 76.6490339,27.5648858 76.1006872,26.5073601 L72.5756015,19.8096973 C72.2622606,19.1830154 71.909752,18.6346687 71.5180758,18.1254897 C74.1814739,16.6371202 75.7481787,13.8953868 75.7481787,10.0569602 C75.7481787,3.98597929 71.909752,0.61756407 65.9954416,0.61756407 L65.9954416,0.61756407 L65.9954416,0.61756407 Z M67.7188168,10.0177926 C67.7188168,11.623665 66.7787939,12.642023 65.133754,12.642023 L60.9036511,12.642023 L60.9036511,7.47189736 L65.133754,7.47189736 C66.8179616,7.47189736 67.7188168,8.45108783 67.7188168,10.0177926 L67.7188168,10.0177926 L67.7188168,10.0177926 Z M97.1336985,0.61756407 L80.7224662,0.61756407 C79.4691024,0.61756407 79.0382586,1.04840788 79.0382586,2.26260406 L79.0382586,26.7815334 C79.0382586,27.9957296 79.4691024,28.4265734 80.7224662,28.4265734 L97.4862071,28.4265734 C98.7004033,28.4265734 99.1312471,27.9957296 99.1312471,26.7815334 L99.1312471,23.2172801 C99.1312471,21.9639163 98.7004033,21.5722401 97.4862071,21.5722401 L86.7934472,21.5722401 L86.7934472,17.8121487 L95.0578147,17.8121487 C96.3111785,17.8121487 96.7420223,17.3813049 96.7420223,16.1279411 L96.7420223,12.6028554 C96.7420223,11.3886592 96.3111785,10.9578154 95.0578147,10.9578154 L86.7934472,10.9578154 L86.7934472,7.47189736 L97.1336985,7.47189736 C98.3870623,7.47189736 98.8179061,7.04105355 98.8179061,5.78768975 L98.8179061,2.26260406 C98.8179061,1.04840788 98.3870623,0.61756407 97.1336985,0.61756407 L97.1336985,0.61756407 L97.1336985,0.61756407 Z M125.412719,0.61756407 L120.908443,0.61756407 C118.98923,0.61756407 118.440883,0.695899307 117.696698,2.06676597 L113.38826,10.0569602 L109.197325,2.06676597 C108.45314,0.695899307 107.904794,0.61756407 105.946413,0.61756407 L101.246299,0.61756407 C100.032102,0.61756407 99.8754318,1.36174883 100.423779,2.26260406 L109.432331,17.6554783 L109.432331,26.7815334 C109.432331,27.9957296 109.863175,28.4265734 111.116538,28.4265734 L115.542479,28.4265734 C116.795843,28.4265734 117.187519,27.9957296 117.187519,26.7815334 L117.187519,17.6554783 L126.235239,2.26260406 C126.744418,1.36174883 126.587748,0.61756407 125.412719,0.61756407 L125.412719,0.61756407 L125.412719,0.61756407 Z M161.09442,0.578396451 L157.177658,0.578396451 C155.885127,0.578396451 155.532618,0.774234545 154.984272,1.83176025 L148.521614,14.4829011 L142.058957,1.79259263 C141.510611,0.813402164 141.118934,0.578396451 139.748068,0.578396451 L136.066312,0.578396451 C134.812948,0.578396451 134.382104,0.970072639 134.382104,2.22343644 L134.382104,26.8207011 C134.382104,28.0348972 134.812948,28.4265734 136.066312,28.4265734 L140.061409,28.4265734 C141.314773,28.4265734 141.745616,28.0348972 141.745616,26.8207011 L141.745616,21.2588992 C141.745616,18.5563335 141.549778,16.5979525 140.139744,10.9578154 L140.53142,10.9578154 C140.923096,12.3286821 142.137293,15.932103 142.959813,17.4204725 L145.270702,21.8464135 C145.701546,22.7081011 146.093222,22.9822744 147.150748,22.9822744 L149.774978,22.9822744 C150.832504,22.9822744 151.22418,22.6297658 151.655024,21.8464135 L153.848411,17.4204725 C154.670931,15.8146002 156.080965,12.2503469 156.472641,10.9578154 L156.903485,10.9578154 C155.415115,16.1671087 155.18011,18.6346687 155.18011,21.2197316 L155.18011,26.8207011 C155.18011,28.0348972 155.571786,28.4265734 156.82515,28.4265734 L161.09442,28.4265734 C162.347784,28.4265734 162.778628,28.0348972 162.778628,26.8207011 L162.778628,2.22343644 C162.778628,0.970072639 162.347784,0.578396451 161.09442,0.578396451 L161.09442,0.578396451 L161.09442,0.578396451 Z M191.52766,26.8207011 L182.47994,1.91009549 C182.088264,0.891737401 181.579085,0.61756407 180.443224,0.61756407 L175.978115,0.61756407 C174.842254,0.61756407 174.333075,0.852569782 173.941399,1.98843073 L164.932847,26.8207011 C164.541171,27.8782268 164.776176,28.4265734 165.990372,28.4265734 L170.102972,28.4265734 C172.061353,28.4265734 172.570532,27.9957296 172.962209,26.7815334 L173.863064,23.9614649 L182.323269,23.9614649 L183.224125,26.7815334 C183.537466,27.9957296 184.12498,28.4265734 186.161696,28.4265734 L190.391799,28.4265734 C191.566827,28.4265734 191.919336,27.8782268 191.52766,26.8207011 L191.52766,26.8207011 L191.52766,26.8207011 Z M179.111525,13.2295373 L180.560727,17.8121487 L175.664774,17.8121487 L177.113976,13.1903697 C177.897329,10.5661392 177.858161,7.74607069 177.858161,7.74607069 L178.249837,7.74607069 C178.249837,7.74607069 178.328172,10.5661392 179.111525,13.2295373 L179.111525,13.2295373 L179.111525,13.2295373 Z M199.75286,0.61756407 L195.326919,0.61756407 C194.073555,0.61756407 193.642711,1.04840788 193.642711,2.26260406 L193.642711,26.7815334 C193.642711,27.9957296 194.073555,28.4265734 195.326919,28.4265734 L210.837296,28.4265734 C212.051492,28.4265734 212.482336,27.9957296 212.482336,26.7815334 L212.482336,23.2172801 C212.482336,21.9639163 212.051492,21.5722401 210.837296,21.5722401 L201.3979,21.5722401 L201.3979,2.26260406 C201.3979,1.04840788 201.006224,0.61756407 199.75286,0.61756407 L199.75286,0.61756407 L199.75286,0.61756407 Z M213.774867,10.9969831 L213.774867,18.0471544 C213.774867,24.8231525 218.083305,29.0140877 225.838494,29.0140877 C233.554515,29.0140877 237.862953,24.8231525 237.862953,18.0471544 L237.862953,10.9969831 C237.862953,4.220985 233.554515,0.0300497873 225.838494,0.0300497873 C218.083305,0.0300497873 213.774867,4.220985 213.774867,10.9969831 L213.774867,10.9969831 L213.774867,10.9969831 Z M230.107764,10.6444745 L230.107764,18.399663 C230.107764,20.867223 228.54106,22.1597544 225.838494,22.1597544 C223.096761,22.1597544 221.530056,20.867223 221.530056,18.399663 L221.530056,10.6444745 C221.530056,8.1769145 223.096761,6.88438308 225.838494,6.88438308 C228.54106,6.88438308 230.107764,8.1769145 230.107764,10.6444745 L230.107764,10.6444745 L230.107764,10.6444745 Z M263.008564,0.61756407 L259.013467,0.61756407 C257.760103,0.61756407 257.368427,1.04840788 257.368427,2.26260406 L257.368427,8.68609354 C257.368427,12.6811907 257.877606,14.5612364 259.13097,18.5955011 L258.817629,18.5955011 C257.564265,15.6187621 257.250924,14.1303926 255.527549,11.4278269 L249.10406,1.40091645 C248.751551,0.852569782 248.359875,0.61756407 247.45902,0.61756407 L242.837241,0.61756407 C241.583877,0.61756407 241.153033,1.04840788 241.153033,2.26260406 L241.153033,26.7815334 C241.153033,27.9957296 241.583877,28.4265734 242.837241,28.4265734 L246.79317,28.4265734 C248.046534,28.4265734 248.477378,27.9957296 248.477378,26.7815334 L248.477378,20.3972116 C248.477378,16.0496059 248.007366,14.0520573 247.184846,10.2919659 L247.498187,10.2919659 C248.555713,13.8170516 249.221562,15.6579297 250.944938,18.3604954 L256.976751,27.6432211 C257.329259,28.1915677 257.760103,28.4265734 258.582623,28.4265734 L263.008564,28.4265734 C264.22276,28.4265734 264.653604,27.9957296 264.653604,26.7815334 L264.653604,2.26260406 C264.653604,1.04840788 264.22276,0.61756407 263.008564,0.61756407 L263.008564,0.61756407 L263.008564,0.61756407 Z M286.665806,0.61756407 L270.254574,0.61756407 C269.00121,0.61756407 268.570366,1.04840788 268.570366,2.26260406 L268.570366,26.7815334 C268.570366,27.9957296 269.00121,28.4265734 270.254574,28.4265734 L287.018315,28.4265734 C288.232511,28.4265734 288.663355,27.9957296 288.663355,26.7815334 L288.663355,23.2172801 C288.663355,21.9639163 288.232511,21.5722401 287.018315,21.5722401 L276.325555,21.5722401 L276.325555,17.8121487 L284.589922,17.8121487 C285.843286,17.8121487 286.27413,17.3813049 286.27413,16.1279411 L286.27413,12.6028554 C286.27413,11.3886592 285.843286,10.9578154 284.589922,10.9578154 L276.325555,10.9578154 L276.325555,7.47189736 L286.665806,7.47189736 C287.91917,7.47189736 288.350014,7.04105355 288.350014,5.78768975 L288.350014,2.26260406 C288.350014,1.04840788 287.91917,0.61756407 286.665806,0.61756407 L286.665806,0.61756407 L286.665806,0.61756407 Z" id="Corey-Malone"></path>
                    </g>
                </g>
                <path d="M127.742188,49.125 C127.070309,49.125 126.457034,49.0182302 125.902344,48.8046875 C125.347653,48.5911448 124.872398,48.2825541 124.476562,47.8789063 C124.080727,47.4752584 123.773439,46.9713572 123.554688,46.3671875 C123.335936,45.7630178 123.226562,45.0833371 123.226562,44.328125 L123.226562,37.6328125 L125.15625,37.6328125 L125.15625,44.1796875 C125.15625,44.7838572 125.257811,45.3203102 125.460938,45.7890625 C125.664064,46.2578148 125.962238,46.6263007 126.355469,46.8945313 C126.7487,47.1627618 127.210935,47.296875 127.742188,47.296875 C128.518233,47.296875 129.147133,47.018232 129.628906,46.4609375 C130.110679,45.903643 130.351562,45.143234 130.351562,44.1796875 L130.351562,37.6328125 L132.28125,37.6328125 L132.28125,44.328125 C132.28125,45.8072991 131.877608,46.9765582 131.070312,47.8359375 C130.263017,48.6953168 129.153653,49.125 127.742188,49.125 L127.742188,49.125 Z M147.66375,49 L144.898125,44.8125 L144.866875,44.8125 L142.093438,49 L139.835625,49 L143.616875,43.3046875 L139.921563,37.6328125 L142.148125,37.6328125 L144.874688,41.7890625 L144.905938,41.7890625 L147.624688,37.6328125 L149.835625,37.6328125 L146.155938,43.3046875 L149.929375,49 L147.66375,49 Z M167.749063,49 L167.749063,37.6328125 L171.366251,37.6328125 C172.251672,37.6328125 173.064163,37.7734361 173.803751,38.0546875 C174.543338,38.3359389 175.165727,38.72656 175.670938,39.2265625 C176.176149,39.726565 176.568072,40.3281215 176.846719,41.03125 C177.125366,41.7343785 177.264688,42.5026 177.264688,43.3359375 C177.264688,44.169275 177.129273,44.9348923 176.858438,45.6328125 C176.587603,46.3307327 176.204795,46.9283829 175.710001,47.4257813 C175.215206,47.9231796 174.599327,48.3098945 173.862344,48.5859375 C173.125361,48.8619805 172.308963,49 171.413126,49 L167.749063,49 Z M169.678751,47.265625 L171.295938,47.265625 C171.884483,47.265625 172.428748,47.1666677 172.928751,46.96875 C173.428753,46.7708323 173.849322,46.4973976 174.190469,46.1484375 C174.531617,45.7994774 174.797239,45.3828149 174.987344,44.8984375 C175.177449,44.4140601 175.272501,43.893232 175.272501,43.3359375 C175.272501,42.575517 175.109742,41.8932322 174.784219,41.2890625 C174.458697,40.6848928 174.000368,40.2135434 173.409219,39.875 C172.81807,39.5364566 172.150108,39.3671875 171.405313,39.3671875 L169.678751,39.3671875 L169.678751,47.265625 Z M185.350313,49 L185.350313,37.6328125 L192.498751,37.6328125 L192.498751,39.3671875 L187.280001,39.3671875 L187.280001,42.5 L191.498751,42.5 L191.498751,44.234375 L187.280001,44.234375 L187.280001,47.265625 L192.834688,47.265625 L192.834688,49 L185.350313,49 Z M204.287501,49.125 C203.537497,49.125 202.808338,48.976564 202.100001,48.6796875 C201.391664,48.382811 200.745837,47.937503 200.162501,47.34375 L201.381251,45.84375 C201.782295,46.3281274 202.241925,46.6992175 202.760157,46.9570313 C203.278389,47.214845 203.790102,47.34375 204.295313,47.34375 C204.9099,47.34375 205.378645,47.2200533 205.701563,46.9726563 C206.024482,46.7252592 206.185938,46.3854188 206.185938,45.953125 C206.185938,45.8124993 206.169011,45.6835943 206.135157,45.5664063 C206.101303,45.4492182 206.058334,45.3450525 206.006251,45.2539063 C205.954167,45.16276 205.876043,45.0729171 205.771876,44.984375 C205.667709,44.8958329 205.564845,44.8203128 205.463282,44.7578125 C205.361719,44.6953122 205.2237,44.6263025 205.04922,44.5507813 C204.87474,44.47526 204.714585,44.4088545 204.568751,44.3515625 C204.422917,44.2942705 204.23021,44.2239588 203.990626,44.140625 C203.709374,44.0416662 203.464585,43.9505213 203.256251,43.8671875 C203.047916,43.7838538 202.81745,43.6796881 202.564845,43.5546875 C202.312239,43.4296869 202.096096,43.3033861 201.916407,43.1757813 C201.736719,43.0481764 201.555731,42.8971363 201.373438,42.7226563 C201.191146,42.5481762 201.045314,42.3632822 200.935938,42.1679688 C200.826563,41.9726553 200.73672,41.7486992 200.666407,41.4960938 C200.596094,41.2434883 200.560938,40.9739598 200.560938,40.6875 C200.560938,40.1041638 200.722395,39.5677108 201.045313,39.078125 C201.368232,38.5885392 201.804425,38.2044285 202.353907,37.9257813 C202.903389,37.647134 203.501039,37.5078125 204.146876,37.5078125 C205.464591,37.5026041 206.719787,37.9687453 207.912501,38.90625 L206.764063,40.421875 C205.831767,39.6458295 204.95938,39.2578125 204.146876,39.2578125 C203.693749,39.2578125 203.31745,39.3763009 203.01797,39.6132813 C202.718489,39.8502616 202.566147,40.1744771 202.560938,40.5859375 C202.55573,40.9713561 202.743228,41.2890613 203.123438,41.5390625 C203.368231,41.6953133 203.889059,41.9270818 204.685938,42.234375 C204.727605,42.2500001 204.7875,42.2734373 204.865626,42.3046875 C205.214586,42.4401048 205.475,42.5429684 205.646876,42.6132813 C205.818752,42.6835941 206.046614,42.7864577 206.33047,42.921875 C206.614325,43.0572923 206.827865,43.179687 206.971095,43.2890625 C207.114324,43.398438 207.279687,43.5403637 207.467188,43.7148438 C207.654689,43.8893238 207.791407,44.0677074 207.877345,44.25 C207.963283,44.4322926 208.038803,44.6497383 208.103907,44.9023438 C208.169012,45.1549492 208.201563,45.429686 208.201563,45.7265625 C208.201563,46.1796898 208.123439,46.5963523 207.967188,46.9765625 C207.810938,47.3567727 207.603908,47.677082 207.346095,47.9375 C207.088281,48.197918 206.788805,48.4192699 206.447657,48.6015625 C206.10651,48.7838551 205.753649,48.9166663 205.389063,49 C205.024478,49.0833338 204.657294,49.125 204.287501,49.125 L204.287501,49.125 Z M216.240314,49 L216.240314,37.6328125 L218.177814,37.6328125 L218.177814,49 L216.240314,49 Z M232.068126,49.1015625 C231.255622,49.1015625 230.499119,48.9687513 229.798595,48.703125 C229.098071,48.4374987 228.491306,48.0612004 227.978282,47.5742188 C227.465259,47.0872371 227.062919,46.4791703 226.771251,45.75 C226.479583,45.0208297 226.333751,44.2161502 226.333751,43.3359375 C226.333751,42.7838514 226.393646,42.2539088 226.513439,41.7460938 C226.633231,41.2382787 226.803802,40.7695334 227.025157,40.3398438 C227.246513,39.9101541 227.523854,39.5208351 227.857189,39.171875 C228.190524,38.8229149 228.564218,38.5247408 228.978282,38.2773438 C229.392347,38.0299467 229.855884,37.8398444 230.368907,37.7070313 C230.881931,37.5742181 231.424894,37.5078125 231.997814,37.5078125 C232.825943,37.5078125 233.630622,37.6666651 234.411876,37.984375 C235.19313,38.3020849 235.867603,38.7708302 236.435314,39.390625 L235.068126,40.5625 C234.22958,39.7395792 233.203549,39.328125 231.990001,39.328125 C231.479582,39.328125 231.001722,39.4218741 230.556407,39.609375 C230.111093,39.7968759 229.72568,40.0611962 229.400157,40.4023438 C229.074635,40.7434913 228.818127,41.1666641 228.630626,41.671875 C228.443125,42.1770859 228.349376,42.7317678 228.349376,43.3359375 C228.349376,44.0911496 228.499114,44.7708303 228.798595,45.375 C229.098076,45.9791697 229.532967,46.4570295 230.103282,46.8085938 C230.673598,47.160158 231.328539,47.3359375 232.068126,47.3359375 C233.005631,47.3359375 233.849372,47.0833359 234.599376,46.578125 L234.599376,44.6640625 L231.818126,44.6640625 L231.818126,42.9296875 L236.521251,42.9296875 L236.521251,47.6796875 C235.995207,48.1171897 235.337661,48.4635404 234.548595,48.71875 C233.759529,48.9739596 232.932714,49.1015625 232.068126,49.1015625 L232.068126,49.1015625 Z M252.317814,37.6328125 L254.247501,37.6328125 L254.247501,49 L252.278751,49 L246.778751,40.9609375 L246.747501,40.9609375 L246.747501,49 L244.817814,49 L244.817814,37.6328125 L246.731876,37.6328125 L252.278751,45.7890625 L252.317814,45.7890625 L252.317814,37.6328125 Z M262.848752,49 L262.848752,37.6328125 L269.997189,37.6328125 L269.997189,39.3671875 L264.778439,39.3671875 L264.778439,42.5 L268.997189,42.5 L268.997189,44.234375 L264.778439,44.234375 L264.778439,47.265625 L270.333127,47.265625 L270.333127,49 L262.848752,49 Z M286.879689,49 L284.559377,49 L281.848439,44.9453125 L280.317189,44.9453125 L280.317189,49 L278.387502,49 L278.387502,37.6328125 L282.582814,37.6328125 C283.108859,37.6328125 283.586718,37.6927077 284.016408,37.8125 C284.446098,37.9322923 284.811979,38.1015614 285.114064,38.3203125 C285.416149,38.5390636 285.668751,38.8020818 285.871877,39.109375 C286.075003,39.4166682 286.224741,39.7552065 286.321095,40.125 C286.41745,40.4947935 286.465627,40.893227 286.465627,41.3203125 C286.465627,42.2317754 286.248181,42.9752575 285.813283,43.5507813 C285.378385,44.126305 284.76511,44.5234364 283.973439,44.7421875 L283.973439,44.7734375 L286.879689,49 Z M280.317189,39.3671875 L280.317189,43.2109375 L282.160939,43.2109375 C282.916151,43.2109375 283.489062,43.0364601 283.879689,42.6875 C284.270316,42.3385399 284.465627,41.8697946 284.465627,41.28125 C284.465627,40.6822887 284.276827,40.2135434 283.89922,39.875 C283.521614,39.5364566 282.986464,39.3671875 282.293752,39.3671875 L280.317189,39.3671875 Z" id="UX-DESIGNER" fill="#595959"></path>
            </g>
        </g>
    </g>
</svg>