<?xml version="1.0" encoding="UTF-8"?>
<svg width="134px" height="92px" viewBox="0 0 134 92" version="1.1" xmlns="http://www.w3.org/2000/svg" xmlns:xlink="http://www.w3.org/1999/xlink">
    <!-- Generator: Sketch 48.2 (47327) - http://www.bohemiancoding.com/sketch -->
    <title>Artboard 3</title>
    <desc>Created with Sketch.</desc>
    <defs></defs>
    <g id="Icons" stroke="none" stroke-width="1" fill="none" fill-rule="evenodd">
        <g id="Artboard-3">
            <g id="icon-ux" transform="translate(1.000000, 1.000000)" fill="#FFFFFF" fill-rule="nonzero" stroke="#FFFFFF">
                <rect id="Rectangle-212-Copy-2" x="0" y="0" width="132" height="90"></rect>
            </g>
            <g id="Group-4" transform="translate(33.000000, 7.000000)">
                <g id="Group-2-Copy-4" opacity="0.748641304" transform="translate(47.000000, 6.000000)">
                    <g id="noun_13585-copy-2">
                        <g id="Group">
                            <path d="M19.1150972,2.12423957 C19.2258738,1.73662668 19.3650799,1.36927231 19.5346759,1.03163042 C19.0513762,1.19099739 18.5906238,1.15858377 18.0641898,0.892521964 C18.4631817,1.22341101 18.8151181,1.63938582 19.1150972,2.12423957 L19.1150972,2.12423957 Z" id="Shape"></path>
                            <path d="M12.2011732,3.02756148 C12.1373767,3.01945808 12.0776523,3.01675694 12.0057116,2.99514786 C11.7518831,2.91546438 11.5157004,2.87089565 11.2754456,2.81822351 C11.5659232,2.95868254 11.8496139,3.11534838 12.1197309,3.28957159 C12.149593,3.2017847 12.1672389,3.11129667 12.2011732,3.02756148 L12.2011732,3.02756148 Z" id="Shape"></path>
                            <path d="M1.0189935,9.49321318 C0.857466257,9.65528128 0.689152155,9.81059655 0.515408565,9.96321069 C0.69322427,9.91864196 0.872397347,9.8794755 1.05428517,9.84706188 C1.03528196,9.73091307 1.02442299,9.61341369 1.0189935,9.49321318 L1.0189935,9.49321318 Z" id="Shape"></path>
                            <path d="M2.98009411,6.7908314 C2.9610909,6.80028537 2.94344507,6.81108991 2.92308449,6.81919331 C2.9420877,6.81514161 2.95701879,6.80973934 2.97602199,6.80568764 C2.97737936,6.80163594 2.97873673,6.79623367 2.98009411,6.7908314 L2.98009411,6.7908314 Z" id="Shape"></path>
                        </g>
                    </g>
                </g>
                <g id="Group-2-Copy-2">
                    <g id="noun_13585-copy-2">
                        <g id="Group">
                            <path d="M43.122966,8.36602963 C43.3055235,8.12488772 43.5044151,7.90374836 43.7340533,7.72150286 C43.4458046,7.6970553 43.1931066,7.5692612 42.9077403,7.35701187 C42.7395953,7.23144028 42.5685677,7.13253876 42.3994618,7.03030348" id="Shape"></path>
                            <path d="M35.9849674,8.52946771 C36.0935411,8.1461143 36.2299788,7.78279679 36.3962023,7.44886525 C35.9225136,7.60648094 35.4709239,7.57442351 34.9549588,7.31128546 C35.3460162,7.63853837 35.6909538,8.04994202 35.9849674,8.52946771 L35.9849674,8.52946771 Z" id="Shape"></path>
                            <path d="M49.0712366,9.62781135 C48.9887531,9.55167496 48.9062697,9.46618848 48.8264469,9.36734475 C48.8650279,9.49023155 48.9102608,9.61044691 48.9408595,9.73600517 C48.9860924,9.70261201 49.0246734,9.65986878 49.0712366,9.62781135 L49.0712366,9.62781135 Z" id="Shape"></path>
                            <path d="M57.6277883,14.9558175 C57.6131542,14.899717 57.6011808,14.8422807 57.5865466,14.787516 C57.5745732,14.8422807 57.5519568,14.8917026 57.5373226,14.9464674 C57.5679213,14.9491388 57.59852,14.9504746 57.6277883,14.9558175 L57.6277883,14.9558175 Z" id="Shape"></path>
                            <path d="M53.1776719,10.8407534 C53.012705,10.7218738 52.8503988,10.598987 52.6947445,10.472093 C52.7732368,10.6176872 52.8424165,10.76996 52.8996228,10.9275756 C52.9887581,10.891511 53.0858758,10.8714751 53.1776719,10.8407534 L53.1776719,10.8407534 Z" id="Shape"></path>
                            <path d="M29.2085362,9.42286301 C29.1460084,9.41484865 29.0874717,9.4121772 29.0169617,9.39080558 C28.7681809,9.31199774 28.536695,9.26791877 28.301218,9.21582545 C28.585919,9.35474097 28.8639681,9.50968521 29.1287135,9.68199388 C29.1579818,9.59517168 29.1752767,9.50567803 29.2085362,9.42286301 L29.2085362,9.42286301 Z" id="Shape"></path>
                            <path d="M60.1291218,20.3174565 C60.1131573,20.022261 60.133113,19.7137083 60.1796762,19.3944697 C60.0679244,19.6375719 59.9402081,19.8686525 59.7885449,20.0863759 C59.9096094,20.1531622 60.0226916,20.2306343 60.1291218,20.3174565 L60.1291218,20.3174565 Z" id="Shape"></path>
                            <path d="M18.2487294,15.8174636 C18.0904144,15.9777507 17.9254474,16.1313592 17.755159,16.2822963 C17.9294386,16.2382173 18.1050485,16.1994813 18.2833193,16.1674238 C18.264694,16.0525514 18.2540509,15.9363432 18.2487294,15.8174636 L18.2487294,15.8174636 Z" id="Shape"></path>
                            <path d="M20.1708309,13.1447783 C20.1522056,13.1541284 20.1349106,13.1648142 20.114955,13.1728286 C20.1335803,13.1688214 20.1482144,13.1634785 20.1668397,13.1594713 C20.1681701,13.1554641 20.1695005,13.1501212 20.1708309,13.1447783 L20.1708309,13.1447783 Z" id="Shape"></path>
                            <path d="M61.2907641,23.0711758 C61.0739124,22.6784723 60.8597214,22.2924475 60.6588343,21.9050869 C60.6175925,22.0480096 60.5657078,22.1869251 60.5005192,22.3178263 C60.7812291,22.5489069 61.0406529,22.8053663 61.2907641,23.0711758 L61.2907641,23.0711758 Z" id="Shape"></path>
                            <path d="M47.7320627,1.50272617 C39.0884451,-0.397977894 30.4765348,-0.278105034 22.4065321,3.69496103 C13.5851611,8.0372355 9.4151633,15.9440493 7.33496853,25.1090487 C6.84974989,27.2466215 5.76785645,29.5510574 7.64147298,31.7173997 C8.04790365,32.1882603 7.26290636,32.8317378 6.93430284,33.3534245 C5.17790744,36.1392697 3.35425401,38.8867557 1.68721571,41.724386 C0.298817817,44.0873198 0.595713976,44.9542404 3.1217334,45.760745 C5.14043511,46.4051814 6.13681478,47.2586762 5.13563097,49.5026961 C4.39291016,51.1684494 5.75824816,51.6834232 7.11782118,52.0746882 C4.99919325,53.4517876 4.94346517,53.8046933 6.8036301,55.2681012 C7.60976562,55.9000709 7.81346137,56.4207986 7.38204915,57.3855354 C4.758986,63.2468387 7.49734863,66.6895873 13.9493153,65.9415806 C15.4827984,65.7632098 17.0085948,65.5244231 18.5343913,65.3000211 C21.2035742,64.9077971 22.1365392,65.5647004 22.3930805,68.3524636 C22.5919721,70.5207239 22.7774121,72.6813123 23.2952989,74.8006645 L58.7806353,74.8006645 C59.3340728,73.9385388 58.4760525,73.4158932 58.2022163,72.8261187 C55.3370242,66.6406791 55.113151,60.263443 56.5726503,53.71359 C57.1126362,51.2902402 58.4760525,49.398167 60.0854411,47.6019921 C64.3889941,42.7994058 67.3493083,37.3888244 68.1890728,30.861028 C69.9598806,17.0967467 61.3008898,4.48803987 47.7320627,1.50272617 L47.7320627,1.50272617 Z" id="Shape" stroke="#505050" stroke-width="2.48571429"></path>
                        </g>
                    </g>
                </g>
            </g>
            <path d="M63.712951,25.0001808 C61.9923961,25.0001808 60.2787992,25.6545446 58.9670935,26.9679422 C56.3425327,29.5947976 56.3460722,33.8481172 58.9670935,36.4771419 L69.5645012,47.1068255 C69.6779444,47.2209859 69.8327474,47.2857143 69.9946475,47.2857143 C70.1553586,47.2857143 70.3101708,47.2209859 70.4247938,47.1068255 C73.9627083,43.5655058 77.4936649,40.0278015 81.0315794,36.4864818 C83.6561402,33.8596263 83.6561402,29.6135376 81.0315794,26.9866219 C78.4070186,24.3597063 74.1554104,24.3597665 71.5307891,26.9866219 L70.0087749,28.5024538 L68.4678233,26.9677614 C67.156148,25.6543337 65.433294,25 63.712588,25 L63.712951,25.0001808 Z M63.7363912,26.2385817 C65.1373786,26.2385817 66.5372207,26.7789299 67.6168043,27.8727298 L69.5758479,29.8583946 C69.6888696,29.9735937 69.8430976,30.038911 70.0043962,30.038911 C70.1645103,30.038911 70.3187473,29.9735937 70.4329445,29.8583946 L72.3825846,27.8917011 C74.5406066,25.7029459 77.985449,25.7029459 80.1434108,27.8917011 C82.3013726,30.0804564 82.3014329,33.5791447 80.1434108,35.7678391 C76.7633073,39.1951418 73.3798884,42.6203163 69.9997849,46.047619 L59.8561589,35.7581103 C57.6993436,33.5669836 57.6981378,30.0612418 59.8561589,27.8722434 C60.9357426,26.7784434 62.3355847,26.2380952 63.7365721,26.2380952 L63.7363912,26.2385817 Z" id="Page-1" fill="#E56566"></path>
        </g>
    </g>
</svg>