<?xml version="1.0" encoding="UTF-8" standalone="no"?>
<svg width="133px" height="133px" viewBox="0 0 133 133" version="1.1" xmlns="http://www.w3.org/2000/svg" xmlns:xlink="http://www.w3.org/1999/xlink" xmlns:sketch="http://www.bohemiancoding.com/sketch/ns">
    <!-- Generator: Sketch 3.4 (15588) - http://www.bohemiancoding.com/sketch -->
    <title>Rectangle 182 Copy 2 + Shape</title>
    <desc>Created with Sketch.</desc>
    <defs></defs>
    <g id="Page-1" stroke="none" stroke-width="1" fill="none" fill-rule="evenodd" sketch:type="MSPage">
        <g id="image--resizer-copy" sketch:type="MSArtboardGroup" transform="translate(-766.000000, -5277.000000)">
            <g id="Rectangle-182-Copy-2-+-Shape" sketch:type="MSLayerGroup" transform="translate(766.000000, 5277.000000)">
                <rect id="Rectangle-182-Copy-2" fill="#FFFFFF" sketch:type="MSShapeGroup" x="0" y="0" width="133" height="133"></rect>
                <g id="Shape" transform="translate(17.000000, 17.000000)" fill="#4B4B4B" sketch:type="MSShapeGroup">
                    <path d="M49.5,0.033 C22.1798077,0.033 0.033,22.1798077 0.033,49.5 C0.033,65.0899615 7.25238462,78.9867692 18.5218846,88.0541538 L0.033,98.9682692 L49.5,98.9682692 C76.8201923,98.9682692 98.9682692,76.8214615 98.9682692,49.5 C98.9682692,22.1798077 76.8176538,0.033 49.5,0.033 L49.5,0.033 Z M49.4987308,94.5665769 L16.4505,94.5665769 L26.9115,88.4920385 C13.4754231,80.6900769 4.43342308,66.1561154 4.43342308,49.5 C4.43342308,24.6103846 24.6091154,4.43469231 49.4987308,4.43469231 C74.3883462,4.43469231 94.5653077,24.6103846 94.5653077,49.5 C94.5653077,74.3883462 74.3883462,94.5665769 49.4987308,94.5665769 L49.4987308,94.5665769 Z M42.9698077,18.7554231 L36.2530385,17.4468462 L36.9739615,19.5423462 C25.3351154,24.5405769 17.1612692,36.1070769 17.1612692,49.5545769 C17.1612692,53.9321538 18.0421154,58.1028462 19.6121538,61.9206923 C18.5447308,62.8497692 17.8669615,64.2141923 17.8669615,65.736 C17.8669615,68.5270385 20.1388846,70.7989615 22.9286538,70.7989615 C25.7184231,70.7989615 27.9903462,68.5270385 27.9903462,65.736 C27.9903462,62.9449615 25.7184231,60.6755769 22.9286538,60.6755769 C22.4831538,60.6755769 22.0541538,60.7377692 21.6416538,60.8469231 C20.2340769,57.354 19.4484231,53.5463077 19.4484231,49.5558462 C19.4484231,37.1097692 26.9800385,26.3987308 37.7202692,21.7152692 L38.478,23.9173846 L42.9698077,18.7554231 L42.9698077,18.7554231 Z M25.7019231,65.7372692 C25.7019231,67.2692308 24.4568077,68.5130769 22.9273846,68.5130769 C21.3966923,68.5130769 20.1528462,67.2705 20.1528462,65.7372692 C20.1528462,64.2078462 21.3966923,62.9627308 22.9273846,62.9627308 C24.4580769,62.9627308 25.7019231,64.2078462 25.7019231,65.7372692 L25.7019231,65.7372692 Z M82.1128846,54.2786538 C82.3413462,52.734 82.4720769,51.1614231 82.4720769,49.5558462 C82.4720769,33.2500385 70.4562692,19.7086154 54.8155385,17.2945385 C54.4525385,14.8576154 52.3532308,12.9816923 49.8160385,12.9816923 C47.025,12.9816923 44.7543462,15.2536154 44.7543462,18.0446538 C44.7543462,20.8356923 47.0262692,23.1063462 49.8160385,23.1063462 C52.0727308,23.1063462 53.988,21.6213462 54.6378462,19.5766154 C69.1007308,21.8942308 80.1849231,34.452 80.1849231,49.5571154 C80.1849231,50.9862692 80.0706923,52.3875 79.8777692,53.7646154 L77.7086538,53.2645385 L79.7140385,59.8061538 L84.3771923,54.7990385 L82.1128846,54.2786538 L82.1128846,54.2786538 Z M49.8173077,20.8179231 C48.2878846,20.8179231 47.0427692,19.5728077 47.0427692,18.0433846 C47.0427692,16.5126923 48.2878846,15.2675769 49.8173077,15.2675769 C51.348,15.2675769 52.5918462,16.5114231 52.5918462,18.0433846 C52.5918462,19.5728077 51.3467308,20.8179231 49.8173077,20.8179231 L49.8173077,20.8179231 Z M76.7072308,60.6768462 C73.9174615,60.6768462 71.6455385,62.9462308 71.6455385,65.7372692 C71.6455385,67.056 72.1557692,68.2541538 72.9858462,69.1565769 C67.4101154,75.7362692 59.0979231,79.9247308 49.8185769,79.9247308 C43.0903846,79.9247308 36.8736923,77.7175385 31.8348462,73.9986923 L33.3312692,72.2953846 L26.6221154,70.9512692 L28.8166154,77.4332308 L30.3231923,75.7185 C35.7681923,79.7889231 42.5141538,82.2080769 49.8198462,82.2080769 C59.8810385,82.2080769 68.8811538,77.6248846 74.8757308,70.4473846 C75.4456154,70.6707692 76.0637308,70.7964231 76.7097692,70.7964231 C79.4995385,70.7964231 81.7714615,68.5245 81.7714615,65.7334615 C81.7714615,62.9424231 79.497,60.6768462 76.7072308,60.6768462 L76.7072308,60.6768462 Z M76.7072308,68.5118077 C75.1778077,68.5118077 73.9326923,67.2692308 73.9326923,65.736 C73.9326923,64.2065769 75.1765385,62.9614615 76.7072308,62.9614615 C78.2379231,62.9614615 79.4817692,64.2053077 79.4817692,65.736 C79.4805,67.2692308 78.2379231,68.5118077 76.7072308,68.5118077 L76.7072308,68.5118077 Z"></path>
                </g>
            </g>
        </g>
    </g>
</svg>