<?xml version="1.0" encoding="UTF-8" standalone="no"?>
<svg width="133px" height="133px" viewBox="0 0 133 133" version="1.1" xmlns="http://www.w3.org/2000/svg" xmlns:xlink="http://www.w3.org/1999/xlink" xmlns:sketch="http://www.bohemiancoding.com/sketch/ns">
    <!-- Generator: Sketch 3.4 (15588) - http://www.bohemiancoding.com/sketch -->
    <title>Rectangle 182 + Group</title>
    <desc>Created with Sketch.</desc>
    <defs></defs>
    <g id="Page-1" stroke="none" stroke-width="1" fill="none" fill-rule="evenodd" sketch:type="MSPage">
        <g id="image--resizer-copy" sketch:type="MSArtboardGroup" transform="translate(-442.000000, -5277.000000)">
            <g id="Rectangle-182-+-Group" sketch:type="MSLayerGroup" transform="translate(442.000000, 5277.000000)">
                <rect id="Rectangle-182" fill="#FFFFFF" sketch:type="MSShapeGroup" x="0" y="0" width="133" height="133"></rect>
                <g id="Group" transform="translate(12.000000, 18.000000)" fill="#4B4B4B" sketch:type="MSShapeGroup">
                    <path d="M43.3178081,23.0153483 L43.3178081,23.0153483 L44.5917287,23.0153483 C54.2169065,23.5800304 62.1435236,31.6267499 62.426617,41.3675156 C62.5681638,46.4496542 60.869603,51.2494518 57.4724814,55.0610558 C53.2260794,59.7196829 50.5366915,65.3665036 49.4043176,71.5780064 L37.0897519,71.5780064 C36.0989247,65.3665036 33.2679901,59.5785124 29.0215881,54.9198853 C25.90756,51.3906224 24.0674524,46.8731658 24.0674524,42.0733682 C24.0674524,31.6267499 32.7018031,23.0153483 43.3178081,23.0153483 L43.3178081,23.0153483 L43.3178081,23.0153483 Z M17.1316625,42.0733682 C17.1316625,48.849553 19.6795037,54.9198853 23.9259057,59.5785124 C28.3138544,64.5194805 30.7201489,70.8721538 30.7201489,77.5071682 C30.7201489,78.2130207 31.1447891,78.4953618 31.5694293,78.4953618 L55.0661869,78.4953618 C55.6323739,78.4953618 55.9154673,78.0718502 55.9154673,77.6483387 C55.9154673,71.0133243 58.1802151,64.5194805 62.7097105,59.7196829 C67.239206,54.7787148 69.7870471,48.284871 69.5039537,41.0851746 C68.9377667,27.8151459 58.3217618,16.8038455 45.0163689,16.0979929 C44.450182,15.9568224 43.883995,15.9568224 43.3178081,15.9568224 C28.8800414,15.9568224 17.1316625,27.6739754 17.1316625,42.0733682 Z" id="Shape"></path>
                    <path d="M53.0307577,87.9405184 L33.8003126,87.9680813 C32.3705123,87.9754312 31.2325682,86.8406056 31.3110599,85.4856501 C31.31843,84.059768 32.4681664,82.9131824 33.8261081,82.977494 L53.0572903,82.807343 C54.4870905,82.799993 55.6250346,83.9348187 55.546543,85.2897742 C55.6139794,86.0736418 55.3250713,86.6454646 54.8220616,87.1470959 C54.3909105,87.5770655 53.7456578,87.9368435 53.0307577,87.9405184 L53.0307577,87.9405184 Z" id="Shape"></path>
                    <path d="M53.0307577,97.0574016 L33.8003126,97.0849644 C32.3705123,97.0923144 31.2325682,95.9574887 31.3110599,94.6025332 C31.31843,93.1766511 32.4681664,92.0300655 33.8261081,92.0943771 L53.0572903,91.9242261 C54.4870905,91.9168761 55.6250346,93.0517018 55.546543,94.4066573 C55.6139794,95.1905249 55.3250713,95.7623478 54.8220616,96.263979 C54.3909105,96.6939486 53.7456578,97.0537266 53.0307577,97.0574016 L53.0307577,97.0574016 Z" id="Shape-Copy"></path>
                    <path d="M108.287758,27.9563164 C108.429305,26.4034407 107.863118,24.9917355 106.730744,23.8623714 L85.4987345,3.81615787 C84.6494541,2.96913476 83.3755335,2.54562321 82.2431596,2.54562321 L82.2431596,2.54562321 L82.2431596,2.54562321 L39.7791398,2.54562321 L39.7791398,11.5805363 L46.8564764,11.5805363 L46.8564764,9.6041491 L77.4305707,9.6041491 L77.4305707,32.1914319 L101.210422,32.1914319 L101.210422,89.6478327 L61.5773366,89.6478327 L61.5773366,96.7063586 L108.287758,96.7063586 L108.287758,27.9563164 L108.287758,27.9563164 L108.287758,27.9563164 Z M84.5079074,25.1329061 L84.5079074,12.56873 L97.954847,25.1329061 L84.5079074,25.1329061 L84.5079074,25.1329061 Z" id="Shape"></path>
                    <rect id="Rectangle-path" x="72.0517949" y="63.2489459" width="9.76672457" height="7.05852589"></rect>
                    <rect id="Rectangle-path" x="70.0701406" y="74.9660988" width="19.8165426" height="7.05852589"></rect>
                    <path d="M15.3533118,9.03225321 L24.2686753,17.9101 L19.2678292,22.9054188 L10.3524658,14.027572 L15.3533118,9.03225321 L15.3533118,9.03225321 Z" id="Rectangle-path"></path>
                    <rect id="Rectangle-path" x="0.287601323" y="38.2617642" width="12.5976592" height="7.05852589"></rect>
                    <path d="M31.4245845,0.334878782 L35.8753375,12.0886655 L29.2544891,14.5824427 L24.8037361,2.82865598 L31.4245845,0.334878782 L31.4245845,0.334878782 Z" id="Rectangle-path"></path>
                    <path d="M4.97235939,22.0041015 L16.5962196,26.8475914 L13.8679063,33.3604932 L2.24404611,28.5170034 L4.97235939,22.0041015 L4.97235939,22.0041015 Z" id="Rectangle-path"></path>
                    <rect id="Rectangle-path" x="0.287601323" y="38.2617642" width="12.5976592" height="7.05852589"></rect>
                </g>
            </g>
        </g>
    </g>
</svg>