<?xml version="1.0" encoding="UTF-8" standalone="no"?>
<svg width="132px" height="90px" viewBox="0 0 132 90" version="1.1" xmlns="http://www.w3.org/2000/svg" xmlns:xlink="http://www.w3.org/1999/xlink" xmlns:sketch="http://www.bohemiancoding.com/sketch/ns">
    <!-- Generator: Sketch 3.4.1 (15681) - http://www.bohemiancoding.com/sketch -->
    <title>Rectangle 212 Copy + noun_13585</title>
    <desc>Created with Sketch.</desc>
    <defs></defs>
    <g id="Page-1" stroke="none" stroke-width="1" fill="none" fill-rule="evenodd" sketch:type="MSPage">
        <g id="Desktop-HD" sketch:type="MSArtboardGroup" transform="translate(-517.000000, -113.000000)">
            <g id="Rectangle-212-Copy-+-noun_13585" sketch:type="MSLayerGroup" transform="translate(517.000000, 113.000000)">
                <rect id="Rectangle-212-Copy" stroke="#FFFFFF" fill="#FFFFFF" sketch:type="MSShapeGroup" x="0" y="0" width="132" height="90"></rect>
                <g id="noun_13585" transform="translate(30.000000, 6.000000)" sketch:type="MSShapeGroup">
                    <g id="Group">
                        <path d="M44.881,8.533 C45.071,8.316 45.278,8.117 45.517,7.953 C45.217,7.931 44.954,7.816 44.657,7.625 C44.482,7.512 44.304,7.423 44.128,7.331" id="Shape"></path>
                        <path d="M37.452,8.536 C37.565,8.249 37.707,7.977 37.88,7.727 C37.387,7.845 36.917,7.821 36.38,7.624 C36.787,7.869 37.146,8.177 37.452,8.536 L37.452,8.536 Z" id="Shape"></path>
                        <path id="Shape" d="M51.001,9.963 C50.939,9.906 50.877,9.842 50.817,9.768 C50.846,9.86 50.88,9.95 50.903,10.044 C50.937,10.019 50.966,9.987 51.001,9.963 L51.001,9.963 Z"></path>
                        <path id="Shape" d="M59.951,15.546 C59.94,15.504 59.931,15.461 59.92,15.42 C59.911,15.461 59.894,15.498 59.883,15.539 C59.906,15.541 59.929,15.542 59.951,15.546 L59.951,15.546 Z"></path>
                        <path id="Shape" d="M55.206,11.196 C55.082,11.107 54.96,11.015 54.843,10.92 C54.902,11.029 54.954,11.143 54.997,11.261 C55.064,11.234 55.137,11.219 55.206,11.196 L55.206,11.196 Z"></path>
                        <path id="Shape" d="M30.137,9.765 C30.09,9.759 30.046,9.757 29.993,9.741 C29.806,9.682 29.632,9.649 29.455,9.61 C29.669,9.714 29.878,9.83 30.077,9.959 C30.099,9.894 30.112,9.827 30.137,9.765 L30.137,9.765 Z"></path>
                        <path id="Shape" d="M62.482,20.915 C62.47,20.694 62.485,20.463 62.52,20.224 C62.436,20.406 62.34,20.579 62.226,20.742 C62.317,20.792 62.402,20.85 62.482,20.915 L62.482,20.915 Z"></path>
                        <path id="Shape" d="M18.85,16.494 C18.731,16.614 18.607,16.729 18.479,16.842 C18.61,16.809 18.742,16.78 18.876,16.756 C18.862,16.67 18.854,16.583 18.85,16.494 L18.85,16.494 Z"></path>
                        <path id="Shape" d="M20.977,13.707 C20.963,13.714 20.95,13.722 20.935,13.728 C20.949,13.725 20.96,13.721 20.974,13.718 C20.975,13.715 20.976,13.711 20.977,13.707 L20.977,13.707 Z"></path>
                        <path d="M63.561,23.715 C63.398,23.421 63.237,23.132 63.086,22.842 C63.055,22.949 63.016,23.053 62.967,23.151 C63.178,23.324 63.373,23.516 63.561,23.715 L63.561,23.715 Z" id="Shape"></path>
                        <path d="M60.317,34.643 C61.364,34.922 61.225,35.628 61.717,36.569 C61.722,36.275 61.773,35.993 62.09,35.678 C63.976,33.812 64.99,31.836 65.143,29.701 C64.49,32.397 63.16,34.433 60.317,34.643 L60.317,34.643 Z" id="Shape" fill="#4B4B4B"></path>
                        <path d="M49.678,1.567 C40.682,-0.415 31.719,-0.29 23.32,3.853 C14.139,8.381 9.799,16.626 7.634,26.183 C7.129,28.412 6.003,30.815 7.953,33.074 C8.376,33.565 7.559,34.236 7.217,34.78 C5.389,37.685 3.491,40.55 1.756,43.509 C0.311,45.973 0.62,46.877 3.249,47.718 C5.35,48.39 6.387,49.28 5.345,51.62 C4.572,53.357 5.993,53.894 7.408,54.302 C5.203,55.738 5.145,56.106 7.081,57.632 C7.92,58.291 8.132,58.834 7.683,59.84 C4.953,65.952 7.803,69.542 14.518,68.762 C16.114,68.576 17.702,68.327 19.29,68.093 C22.068,67.684 23.039,68.369 23.306,71.276 C23.513,73.537 23.706,75.79 24.245,78 L61.177,78 C61.753,77.101 60.86,76.556 60.575,75.941 C57.593,69.491 57.36,62.841 58.879,56.011 C59.441,53.484 60.86,51.511 62.535,49.638 C67.014,44.63 70.095,38.988 70.969,32.181 C72.812,17.828 63.8,4.68 49.678,1.567 L49.678,1.567 Z M63.086,22.842 C66.338,25.101 65.144,29.701 65.144,29.701 C64.992,31.836 63.977,33.811 62.091,35.678 C61.774,35.992 61.723,36.275 61.718,36.569 C61.995,37.099 62.167,37.694 62.167,38.334 C62.167,40.451 61.333,41.615 58.333,42.168 C56.187,42.564 55.375,41.501 55.375,41.501 C55.375,44.263 52.929,47.501 50.167,47.501 C48.357,47.501 46.787,46.53 45.909,45.091 C45.758,44.969 45.61,44.856 45.455,44.723 C45.126,46.133 44.758,47.401 44.556,48.695 C44.432,49.491 44.184,49.852 43.329,49.828 C42.514,49.806 42.019,49.676 41.767,48.725 C41.259,46.829 40.545,44.988 39.926,43.121 C39.457,41.706 38.673,40.692 37.637,39.989 C36.795,40.42 35.844,40.668 34.833,40.668 C31.427,40.668 28.666,37.907 28.666,34.501 C28.666,33.809 28.785,33.146 28.995,32.524 C27.814,33.741 26.163,34.501 24.333,34.501 C20.743,34.501 17.833,31.591 17.833,28.001 C17.833,27.765 17.848,27.531 17.872,27.302 C15.805,26.511 14.333,24.514 14.333,22.168 C14.333,19.6 16.098,17.447 18.479,16.843 C18.607,16.731 18.731,16.615 18.85,16.495 C18.846,16.441 18.833,16.39 18.833,16.334 C18.833,15.056 19.734,13.989 20.935,13.73 C20.95,13.723 20.963,13.715 20.977,13.709 C21.568,11.016 23.964,9 26.833,9 C27.774,9 28.662,9.223 29.455,9.609 C29.632,9.648 29.807,9.681 29.993,9.74 C30.046,9.757 30.09,9.759 30.137,9.764 C30.767,8.148 32.328,6.998 34.167,6.998 C34.979,6.998 35.73,7.235 36.38,7.624 C36.917,7.82 37.387,7.845 37.88,7.727 C38.603,6.686 39.804,6 41.167,6 C42.346,6 43.396,6.52 44.127,7.331 C44.304,7.423 44.481,7.512 44.656,7.625 C44.953,7.816 45.217,7.931 45.516,7.953 C46.08,7.563 46.762,7.333 47.499,7.333 C49.058,7.333 50.363,8.359 50.816,9.768 C50.876,9.842 50.937,9.907 51,9.963 C51.427,9.672 51.943,9.501 52.499,9.501 C53.519,9.501 54.394,10.079 54.842,10.92 C54.959,11.016 55.081,11.108 55.205,11.196 C55.562,11.08 55.936,11.001 56.332,11.001 C58.356,11.001 59.998,12.643 59.998,14.667 C59.998,14.926 59.97,15.177 59.919,15.42 C59.931,15.461 59.94,15.504 59.95,15.546 C61.575,15.768 62.832,17.147 62.832,18.833 C62.832,19.331 62.716,19.799 62.52,20.224 C62.521,20.224 64.5,21.25 63.086,22.842 L63.086,22.842 Z" id="Shape" fill="#4B4B4B"></path>
                        <path d="M35.863,19.259 C36.177,18.449 36.619,17.747 37.186,17.154 C37.753,16.559 38.437,16.096 39.238,15.763 C40.039,15.43 40.934,15.263 41.925,15.263 C43.203,15.263 44.27,15.439 45.124,15.789 C45.979,16.141 46.668,16.577 47.19,17.099 C47.711,17.621 48.085,18.184 48.31,18.787 C48.535,19.391 48.648,19.953 48.648,20.475 C48.648,21.339 48.535,22.05 48.31,22.609 C48.084,23.167 47.806,23.644 47.473,24.04 C47.14,24.436 46.771,24.773 46.366,25.053 C45.962,25.332 45.579,25.611 45.219,25.89 C44.859,26.169 44.539,26.489 44.261,26.848 C43.982,27.208 43.806,27.659 43.735,28.199 L43.735,29.224 L40.089,29.224 L40.089,28.009 C40.143,27.236 40.291,26.587 40.534,26.066 C40.777,25.544 41.06,25.098 41.385,24.729 C41.71,24.36 42.051,24.041 42.411,23.77 C42.77,23.5 43.103,23.23 43.41,22.96 C43.716,22.69 43.964,22.393 44.152,22.069 C44.341,21.745 44.426,21.34 44.409,20.853 C44.409,20.026 44.206,19.414 43.802,19.017 C43.397,18.621 42.834,18.423 42.114,18.423 C41.628,18.423 41.21,18.518 40.858,18.706 C40.507,18.895 40.219,19.147 39.994,19.463 C39.769,19.777 39.602,20.147 39.495,20.569 C39.387,20.992 39.333,21.447 39.333,21.932 L35.364,21.932 C35.382,20.96 35.549,20.069 35.863,19.259 L35.863,19.259 Z M43.95,30.842 L43.95,35 L39.711,35 L39.711,30.842 L43.95,30.842 L43.95,30.842 Z" id="Shape" fill="#59E3DC"></path>
                    </g>
                </g>
            </g>
        </g>
    </g>
</svg>