<?xml version="1.0" encoding="UTF-8" standalone="no"?>
<svg width="133px" height="133px" viewBox="0 0 133 133" version="1.1" xmlns="http://www.w3.org/2000/svg" xmlns:xlink="http://www.w3.org/1999/xlink" xmlns:sketch="http://www.bohemiancoding.com/sketch/ns">
    <!-- Generator: Sketch 3.4 (15588) - http://www.bohemiancoding.com/sketch -->
    <title>Rectangle 182 Copy + Group</title>
    <desc>Created with Sketch.</desc>
    <defs></defs>
    <g id="Page-1" stroke="none" stroke-width="1" fill="none" fill-rule="evenodd" sketch:type="MSPage">
        <g id="image--resizer-copy" sketch:type="MSArtboardGroup" transform="translate(-609.000000, -5277.000000)">
            <g id="Rectangle-182-Copy-+-Group" sketch:type="MSLayerGroup" transform="translate(609.000000, 5277.000000)">
                <rect id="Rectangle-182-Copy" fill="#FFFFFF" sketch:type="MSShapeGroup" x="0" y="0" width="133" height="133"></rect>
                <g id="Group" transform="translate(12.000000, 18.000000)" fill="#4B4B4B" sketch:type="MSShapeGroup">
                    <path d="M50.072,17.2468989 C49.6595,15.7229438 48.2922,15.3320449 46.9601,16.1292584 C43.7294,18.0650337 45.6819,29.7182247 42.7768,32.1153708 C39.9828,34.4211236 32.6513,34.4310337 28.6209,34.3286292 C25.5475,34.2504494 19.9155,34.0015955 16.3251,34.4893933 C9.8505,35.3702921 9.0904,58.2593483 9.8703,60.1444719 C11.0165,62.9182022 14.3055,62.4237978 14.7917,61.0650112 C16.1524,57.267236 15.2504,46.2548989 17.7177,43.788382 C19.9122,41.5927416 19.9694,42.6531236 19.9694,45.4059326 L19.9694,57.9345169 L18.7913,68.0042921 C18.7913,68.0042921 17.5428,88.0645618 15.8004,94.498427 C15.5056,95.5885393 14.3044,97.8766742 18.7913,97.8766742 C21.857,97.8766742 22.8525,91.6773483 22.8525,91.6773483 C22.8525,91.6773483 24.6565,68.3048989 29.0301,69.5018202 C33.4026,70.7009438 31.5722,87.6615506 31.5722,93.7485618 C31.5722,96.218382 32.3356,98.8313483 34.9382,97.1928764 C38.1612,95.1624045 37.7795,86.5659326 37.7795,86.5659326 L38.3603,57.935618 C38.3603,57.935618 39.4152,46.6920449 41.2445,43.4987865 C42.5128,41.2855281 45.5323,38.5580449 47.1955,36.2842247 C49.577,33.0271011 51.1467,21.2164494 50.072,17.2468989 L50.072,17.2468989 Z" id="Shape"></path>
                    <path d="M30.0652,20.4886067 C26.9324,20.4886067 24.3826,22.7172809 24.3826,25.4557753 C24.3826,28.1942697 26.9313,30.4229438 30.0652,30.4229438 C33.1991,30.4229438 35.7489,28.1942697 35.7489,25.4557753 C35.7489,22.7172809 33.1991,20.4886067 30.0652,20.4886067 L30.0652,20.4886067 Z" id="Shape"></path>
                    <path d="M100.5158,21.052382 C99.8437,20.544764 98.8856,20.6757978 98.3752,21.3474831 C98.1343,21.6635056 97.5436,21.9905393 96.9749,22.3076629 C96.2885,22.6897528 95.5097,23.1213933 94.886,23.7589438 C94.6627,23.9879775 94.4658,24.2181124 94.2667,24.4471461 C93.8762,24.0837753 93.4813,23.7347191 93.0897,23.3944719 C92.2317,22.6523146 91.4221,21.952 90.761,21.1239551 C90.233,20.4621798 89.2716,20.3542697 88.6127,20.8861124 C87.9538,21.4135506 87.8493,22.3748315 88.3751,23.0355056 C89.2122,24.0826742 90.167,24.9085169 91.0921,25.7079326 C91.3869,25.9633933 91.674,26.2155506 91.9545,26.4677079 C91.2076,26.9577079 90.4618,27.4477079 89.7105,27.9311011 C89.001,28.3869663 88.2926,28.8439326 87.5853,29.3064045 C86.878,29.7688764 86.6811,30.7158427 87.1442,31.422764 C87.4368,31.8720225 87.9263,32.1153708 88.4246,32.1153708 C88.7106,32.1153708 88.9999,32.0349888 89.2584,31.8654157 C89.958,31.4062472 90.662,30.9547865 91.3638,30.5022247 C92.2383,29.9395506 93.1095,29.373573 93.9774,28.7998876 C94.0456,28.9144045 94.1204,29.0311236 94.1842,29.1445393 C94.4691,29.6521573 94.7925,30.2291461 95.3359,30.7797079 C95.4888,30.9338652 95.6318,31.066 95.766,31.1915281 C96.0927,31.4965393 96.2555,31.6506966 96.4381,31.9865393 C96.7164,32.4952584 97.24,32.7848539 97.7834,32.7848539 C98.0298,32.7848539 98.2784,32.7242921 98.5116,32.5976629 C99.253,32.1946517 99.5258,31.2664045 99.1232,30.5231461 C98.7019,29.7523596 98.2509,29.328427 97.8505,28.9562472 C97.7416,28.8549438 97.6272,28.7470337 97.5062,28.624809 C97.2554,28.3726517 97.0761,28.0533258 96.8495,27.6481124 C96.6867,27.3541124 96.514,27.0513034 96.3105,26.7506966 C96.3391,26.7165618 96.3732,26.6791236 96.4007,26.6460899 C96.6141,26.3983371 96.8297,26.1450787 97.0739,25.8962247 C97.3841,25.578 97.9066,25.2884045 98.4599,24.981191 C99.2662,24.5330337 100.1825,24.0254157 100.8128,23.1940674 C101.3188,22.5234831 101.1879,21.5633034 100.5158,21.052382 L100.5158,21.052382 Z" id="Shape"></path>
                    <path d="M0,1.52946067 L0,55.0561798 L6.5923,55.0561798 C6.7573,48.9174157 7.964,40.1095281 10.5545,35.5949213 C11.9614,33.1438202 13.7632,31.752 15.9137,31.4591011 C17.5076,31.244382 19.5547,31.137573 22.1727,31.137573 C22.7612,31.137573 23.3431,31.1452809 23.9162,31.1518876 C22.3179,29.6962022 21.3268,27.6811461 21.3268,25.4557753 C21.3268,21.0303596 25.2461,17.4296854 30.0641,17.4296854 C34.8821,17.4296854 38.8025,21.0303596 38.8025,25.4557753 C38.8025,27.6194831 37.862,29.5827865 36.3407,31.0285618 C39.2491,30.6806067 40.3766,30.0937079 40.7616,29.8129213 C41.2775,28.9881798 41.5261,25.8940225 41.6757,24.0298202 C42.0354,19.5460449 42.3753,15.3122247 45.3915,13.5030787 C46.3067,12.9569213 47.3066,12.6673258 48.2856,12.6673258 C50.5395,12.6673258 52.3985,14.1483371 53.0211,16.446382 C54.3015,21.1724045 52.6328,34.0258202 49.6639,38.0900674 C48.8631,39.1867865 47.839,40.3143371 46.849,41.4055506 C45.6753,42.6982697 44.4631,44.0339326 43.8966,45.0216404 C43.1563,46.3132584 42.3115,50.7331685 41.7571,55.0561798 L50.4163,55.0561798 L50.4163,50.4677978 L61.1105,50.4677978 L61.1105,55.0561798 L65.6931,55.0561798 L65.6931,50.4677978 L76.3884,50.4677978 L76.3884,55.0561798 L110,55.0561798 L110,0 L0,1.52946067 L0,1.52946067 Z M52.0564,10.0554607 C50.765,10.1886966 49.7002,10.6500674 49.5352,10.9077303 L46.706,9.75485393 C47.5607,7.60766292 50.776,7.11325843 51.7407,7.01085393 L52.3094,10.0279326 L52.0564,10.0554607 L52.0564,10.0554607 Z M60.9433,10.1369438 C60.1942,9.96957303 59.4429,9.86937079 58.7092,9.83964045 C58.1108,9.81541573 57.5091,9.80330337 56.9074,9.80330337 L56.7171,9.80330337 L56.7171,6.74438202 L56.9074,6.74438202 C57.5509,6.74438202 58.1933,6.75649438 58.8335,6.78292135 C59.7487,6.82035955 60.6826,6.94368539 61.6088,7.15179775 L60.9433,10.1369438 L60.9433,10.1369438 Z M68.1736,14.0679551 C67.177,13.1077753 66.0473,12.2786292 64.8164,11.6069438 L66.2783,8.92130337 C67.749,9.7251236 69.1009,10.7150337 70.2922,11.866809 L68.1736,14.0679551 L68.1736,14.0679551 Z M73.2512,21.2891236 C72.7177,20.4919101 72.2062,19.6748764 71.6969,18.8633483 C71.39,18.3700449 71.082,17.8789438 70.7718,17.3955506 L73.3414,15.7416629 C73.6571,16.2360674 73.9717,16.7370787 74.2863,17.239191 C74.7791,18.0242921 75.2719,18.8148989 75.7889,19.5867865 L73.2512,21.2891236 L73.2512,21.2891236 Z M80.4199,28.1105843 C80.0294,27.9344045 79.6565,27.7417079 79.3034,27.5302921 C78.2265,26.878427 77.2332,26.085618 76.2685,25.1034157 L78.4476,22.958427 C79.2308,23.7556404 80.0261,24.393191 80.8808,24.909618 C81.1294,25.0593708 81.3912,25.194809 81.6662,25.3181348 L80.4199,28.1105843 L80.4199,28.1105843 Z M105.4185,26.7738202 C105.2777,30.5958202 103.9654,32.6648315 101.3628,35.4440674 C99.7931,37.1199775 98.7877,37.5868539 96.4722,37.4756404 C94.6374,37.3875506 92.6882,37.1651236 90.9513,36.5484944 C87.7866,35.4242472 85.6724,33.106382 84.3051,30.077191 C83.3778,28.0291011 83.6198,24.6706742 84.5009,22.6578202 C85.107,21.274809 85.9661,19.804809 87.1354,18.8369213 C88.7414,17.5078652 90.4244,17.2061573 92.4286,17.2061573 C96.1345,17.2061573 99.9548,17.3955506 102.993,19.8411461 C105.2095,21.622764 105.5186,24.0925843 105.4185,26.7738202 L105.4185,26.7738202 Z" id="Shape"></path>
                    <path d="M108.4721,58.114 L41.4678,58.114 L41.4051,61.1729213 L108.471,61.1729213 C109.3158,61.1729213 109.9989,60.4891236 109.9989,59.6434607 C110,58.7977978 109.3158,58.114 108.4721,58.114 L108.4721,58.114 Z" id="Shape"></path>
                    <path d="M6.6572,58.114 L1.5279,58.114 C0.6842,58.114 0,58.7977978 0,59.6445618 C0,60.4902247 0.6842,61.1740225 1.5279,61.1740225 L7.0609,61.1740225 C6.8519,60.5761124 6.7155,59.5080225 6.6572,58.114 L6.6572,58.114 Z" id="Shape"></path>
                </g>
            </g>
        </g>
    </g>
</svg>