<?xml version="1.0" encoding="UTF-8" standalone="no"?>
<svg width="132px" height="90px" viewBox="0 0 132 90" version="1.1" xmlns="http://www.w3.org/2000/svg" xmlns:xlink="http://www.w3.org/1999/xlink" xmlns:sketch="http://www.bohemiancoding.com/sketch/ns">
    <!-- Generator: Sketch 3.4.1 (15681) - http://www.bohemiancoding.com/sketch -->
    <title>Rectangle 212 Copy 2 + Group + noun_173869 + noun_137128</title>
    <desc>Created with Sketch.</desc>
    <defs></defs>
    <g id="Page-1" stroke="none" stroke-width="1" fill="none" fill-rule="evenodd" sketch:type="MSPage">
        <g id="Desktop-HD" sketch:type="MSArtboardGroup" transform="translate(-821.000000, -113.000000)">
            <g id="Rectangle-212-Copy-2-+-Group-+-noun_173869-+-noun_137128" sketch:type="MSLayerGroup" transform="translate(821.000000, 113.000000)">
                <rect id="Rectangle-212-Copy-2" stroke="#FFFFFF" fill="#FFFFFF" sketch:type="MSShapeGroup" x="0" y="0" width="132" height="90"></rect>
                <g id="Group-+-noun_173869-+-noun_137128" transform="translate(12.000000, 13.000000)" sketch:type="MSShapeGroup">
                    <g id="Group">
                        <path d="M48.7265625,0 L0.7734375,0 C0.3465,0 0,0.341090909 0,0.761363636 L0,66.2386364 C0,66.6589091 0.3465,67 0.7734375,67 L48.7265625,67 C49.1535,67 49.5,66.6589091 49.5,66.2386364 L49.5,0.761363636 C49.5,0.341090909 49.1535,0 48.7265625,0 L48.7265625,0 Z M47.953125,65.4772727 L1.546875,65.4772727 L1.546875,1.52272727 L47.953125,1.52272727 L47.953125,65.4772727 L47.953125,65.4772727 Z" id="Shape" fill="#000000"></path>
                        <path d="M21.65625,12.1818182 L9.28125,12.1818182 L9.28125,24.3636364 L21.65625,24.3636364 L21.65625,12.1818182 L21.65625,12.1818182 Z M20.8828125,23.6022727 L10.0546875,23.6022727 L10.0546875,12.9431818 L20.8828125,12.9431818 L20.8828125,23.6022727 L20.8828125,23.6022727 Z" id="Shape" fill="#000000"></path>
                        <path d="M19.1959453,22.0795455 C19.1959453,22.0795455 19.2817969,21.6767841 19.0683281,21.2047386 C18.8548594,20.7326932 17.8145859,20.2949091 17.1231328,20.0017841 C16.4316797,19.7086591 16.5260391,19.5305 16.5012891,19.287625 C16.4981953,19.2556477 16.495875,19.2213864 16.4943281,19.1863636 C16.7016094,18.9914545 16.8717656,18.7371591 16.9862344,18.4486023 C16.9862344,18.4486023 16.9924219,18.4326136 16.9947422,18.4272841 C17.0210391,18.358 17.0450156,18.2856705 17.065125,18.2118182 C17.2236797,18.1813636 17.3157187,18.0153864 17.3512969,17.8623523 C17.386875,17.8006818 17.461125,17.6476477 17.4441094,17.4740568 C17.4232266,17.260875 17.3366016,17.1573295 17.2376016,17.1108864 C17.2646719,17.0484545 17.2894219,16.9837386 17.3087578,16.9197841 C17.4108516,16.5923977 17.3141719,15.8592045 17.1455625,15.4549205 C16.9777266,15.0506364 16.2754453,14.7430455 16.0534687,14.7521818 C15.8601094,14.7597955 15.7905,14.8450682 15.7046484,14.9044545 C15.6922734,14.8435455 15.6636562,14.7887273 15.6102891,14.7498977 C15.406875,14.6037159 14.7656953,14.539 14.4686953,14.7620795 C14.1709219,14.9859205 14.1013125,15.1069773 13.872375,15.4275114 C13.6434375,15.7480455 13.5684141,16.5345341 13.5916172,16.7020341 C13.6055391,16.8055795 13.6488516,16.9715568 13.6975781,17.1124091 C13.5993516,17.1596136 13.5150469,17.2631591 13.4941641,17.4740568 C13.4771484,17.6476477 13.5513984,17.7999205 13.5869766,17.8623523 C13.6225547,18.0184318 13.7176875,18.1866932 13.8816562,18.2133409 C13.9017656,18.2871932 13.9257422,18.3602841 13.9528125,18.4303295 C13.9543594,18.4348977 13.9566797,18.4394659 13.9582266,18.4440341 L13.9605469,18.450125 C14.0765625,18.7447727 14.2521328,19.0036364 14.4656016,19.2000682 C14.4640547,19.2305227 14.4625078,19.2602159 14.4594141,19.2883864 C14.4346641,19.5312614 14.5073672,19.7094205 13.8159141,20.0025455 C13.1244609,20.2956705 12.0841875,20.7334545 11.8707187,21.2055 C11.6557031,21.6767841 11.7415547,22.0795455 11.7415547,22.0795455 L19.1959453,22.0795455 L19.1959453,22.0795455 Z" id="Shape" fill="#59E3DC"></path>
                        <path d="M21.65625,30.4545455 L9.28125,30.4545455 L9.28125,42.6363636 L21.65625,42.6363636 L21.65625,30.4545455 L21.65625,30.4545455 Z M20.8828125,41.875 L10.0546875,41.875 L10.0546875,31.2159091 L20.8828125,31.2159091 L20.8828125,41.875 L20.8828125,41.875 Z" id="Shape" fill="#000000"></path>
                        <path d="M21.65625,48.7272727 L9.28125,48.7272727 L9.28125,60.9090909 L21.65625,60.9090909 L21.65625,48.7272727 L21.65625,48.7272727 Z M20.8828125,60.1477273 L10.0546875,60.1477273 L10.0546875,49.4886364 L20.8828125,49.4886364 L20.8828125,60.1477273 L20.8828125,60.1477273 Z" id="Shape" fill="#000000"></path>
                        <rect id="Rectangle-path" fill="#000000" x="15.46875" y="5.32954545" width="18.5625" height="1.52272727"></rect>
                        <rect id="Rectangle-path-Copy" fill="#000000" x="23.203125" y="12.1818182" width="13.8991474" height="1.52272727"></rect>
                        <rect id="Rectangle-path-Copy-6" fill="#000000" x="23.203125" y="31.2159091" width="13.8991474" height="1.52272727"></rect>
                        <rect id="Rectangle-path-Copy-11" fill="#000000" x="23.203125" y="48.7272727" width="13.8991474" height="1.52272727"></rect>
                        <rect id="Rectangle-path-Copy-2" fill="#000000" x="23.203125" y="15.2272727" width="16.0628969" height="0.761363636"></rect>
                        <rect id="Rectangle-path-Copy-7" fill="#000000" x="23.203125" y="34.2613636" width="16.0628969" height="0.761363636"></rect>
                        <rect id="Rectangle-path-Copy-12" fill="#000000" x="23.203125" y="51.7727273" width="16.0628969" height="0.761363636"></rect>
                        <rect id="Rectangle-path-Copy-3" fill="#000000" x="23.203125" y="17.5113636" width="16.0628969" height="0.761363636"></rect>
                        <rect id="Rectangle-path-Copy-8" fill="#000000" x="23.203125" y="36.5454545" width="16.0628969" height="0.761363636"></rect>
                        <rect id="Rectangle-path-Copy-13" fill="#000000" x="23.203125" y="54.0568182" width="16.0628969" height="0.761363636"></rect>
                        <rect id="Rectangle-path-Copy-4" fill="#000000" x="23.203125" y="19.7954545" width="16.0628969" height="0.761363636"></rect>
                        <rect id="Rectangle-path-Copy-9" fill="#000000" x="23.203125" y="38.8295455" width="16.0628969" height="0.761363636"></rect>
                        <rect id="Rectangle-path-Copy-14" fill="#000000" x="23.203125" y="56.3409091" width="16.0628969" height="0.761363636"></rect>
                        <rect id="Rectangle-path-Copy-5" fill="#000000" x="23.203125" y="22.0795455" width="16.0628969" height="0.761363636"></rect>
                        <rect id="Rectangle-path-Copy-10" fill="#000000" x="23.203125" y="41.1136364" width="16.0628969" height="0.761363636"></rect>
                        <rect id="Rectangle-path-Copy-15" fill="#000000" x="23.203125" y="58.625" width="16.0628969" height="0.761363636"></rect>
                        <path d="M16.9999462,38.1902068 C16.3084931,37.8970818 16.4028524,37.7189227 16.3781024,37.4760477 C16.3765556,37.4615818 16.3750087,37.4463545 16.3742352,37.4303659 C16.5211884,37.3047409 16.6511259,37.1509454 16.7586337,36.9758318 C17.1878915,37.0748091 17.6681962,37.0664341 18.0889462,36.7664568 C17.4176024,36.1055931 17.7973602,35.2262181 17.3131884,33.7666841 C16.9009462,32.5256613 15.2117587,32.5865704 14.9936493,33.0228318 C14.0980087,32.7114341 13.4220243,33.1286613 13.1729774,34.442775 C12.8868056,35.9525591 13.2727509,36.1116841 12.6014071,36.7717863 C13.0677899,37.0344568 13.4993681,37.0009568 13.8806727,36.8738091 C14.001329,37.0968886 14.1567899,37.2910363 14.3377743,37.4417863 C14.3370009,37.4532068 14.3362274,37.4646272 14.3346806,37.4760477 C14.3099306,37.7189227 14.3826337,37.8970818 13.6911806,38.1902068 C12.9997274,38.4833318 11.959454,38.9812636 11.7459852,39.4533091 C11.5332899,39.9253545 11.6183681,40.3882636 11.6183681,40.3882636 L19.0727587,40.3882636 C19.0727587,40.3882636 19.1586102,39.9253545 18.9451415,39.4533091 C18.7324462,38.9812636 17.6913993,38.4833318 16.9999462,38.1902068 L16.9999462,38.1902068 Z" id="Shape" fill="#E56566"></path>
                        <path d="M19.1959453,58.625 C19.1959453,58.625 19.2817969,58.3417727 19.0683281,57.8697273 C18.8548594,57.3976818 17.8145859,57.0824773 17.1231328,56.7893523 C16.4316797,56.4962273 16.5260391,56.3173068 16.5012891,56.0736705 C16.4943281,56.0059091 16.4920078,55.92825 16.4927812,55.852875 C16.6946484,55.6876591 16.8694453,55.4866591 16.9769531,55.2133295 C16.9769531,55.2133295 16.9831406,55.1973409 16.9854609,55.1920114 C17.0117578,55.1227273 17.0233594,54.9217273 17.0434687,54.847875 C17.2020234,54.8174205 17.2940625,54.6514432 17.3296406,54.4984091 C17.3652187,54.4367386 17.4394687,54.2837045 17.4224531,54.1101136 C17.4007969,53.8870341 17.3072109,53.7834886 17.20125,53.7408523 L17.20125,53.7020227 C17.20125,53.6624318 17.2004766,53.6236023 17.1997031,53.5847727 C17.2298672,53.3784432 17.2553906,53.1743977 17.2553906,53.0579091 C17.2553906,52.9056364 17.2221328,52.603375 17.1169453,52.3262386 L17.1192656,52.3277614 L16.9808203,52.0376818 L16.9568437,51.9211932 L16.8385078,51.8884545 C16.8323203,51.883125 16.8253594,51.8777955 16.8191719,51.8717045 C16.8338672,51.8435341 16.7178516,51.7605455 16.817625,51.7270455 C16.7750859,51.6684205 16.5647109,51.7026818 16.5647109,51.7026818 C16.5647109,51.7026818 16.533,51.5009205 16.4819531,51.4742727 C16.4548828,51.5108182 16.3504687,51.5001591 16.2638437,51.4933068 C15.9382266,51.4514318 16.1393203,51.1781023 15.8036484,51.1476477 C15.8051953,51.0182159 15.8021016,50.9146705 15.8021016,50.9146705 C15.8021016,50.9146705 15.6311719,51.0555227 15.5685234,50.9999432 C15.5298516,50.86975 15.6195703,50.7068182 15.6195703,50.7068182 C15.6195703,50.7068182 15.3736172,50.7098636 15.3148359,50.9504545 C15.2630156,50.8811705 15.3233437,50.7738182 15.3635625,50.7205227 C15.0510937,50.8248295 14.9513203,51.0555227 14.8267969,51.2032273 C14.8105547,51.2230227 14.7641484,51.1347045 14.7703359,51.0806477 C14.6489062,51.1369886 14.5746562,51.4605682 14.5197422,51.4834091 C14.4648281,51.50625 14.3534531,51.4148864 14.3449453,51.3783409 C14.2304766,51.3859545 13.9605469,51.9288068 13.9605469,51.9288068 L13.6944844,52.1907159 C13.6944844,52.1907159 13.8290625,52.1808182 13.8360234,52.2287841 C13.8429844,52.27675 13.6387969,52.6315455 13.6387969,52.6315455 C13.6387969,52.6315455 13.7493984,52.5691136 13.761,52.6048977 C13.7726016,52.6406818 13.7586797,52.6170795 13.7579062,52.6231705 L13.5970312,53.0442045 L13.7091797,53.0015682 C13.6952578,53.1553636 13.6890703,53.306875 13.6890703,53.4431591 C13.6890703,53.5741136 13.6944844,53.675375 13.7022187,53.7576023 C13.6109531,53.8086136 13.5343828,53.9121591 13.5150469,54.110875 C13.4980312,54.2844659 13.5722812,54.4367386 13.6078594,54.4991705 C13.6442109,54.65525 13.7385703,54.8235114 13.9025391,54.8501591 C13.9226484,54.9240114 13.9559062,55.1052159 13.9829766,55.1752614 C13.9845234,55.1798295 13.9868437,55.1843977 13.9883906,55.1889659 L13.9907109,55.1950568 C14.0997656,55.4721932 14.2668281,55.6731932 14.466375,55.8391705 C14.4671484,55.9191136 14.4648281,56.0005795 14.4578672,56.0729091 C14.4331172,56.3157841 14.5058203,56.4939432 13.8143672,56.7870682 C13.1229141,57.0801932 12.0826406,57.3984432 11.8691719,57.8697273 C11.6564766,58.3417727 11.7415547,58.625 11.7415547,58.625 L19.1959453,58.625 L19.1959453,58.625 Z" id="Shape" fill="#E5B465"></path>
                    </g>
                    <g id="noun_173869" transform="translate(86.694687, 5.840753) rotate(-270.000000) translate(-86.694687, -5.840753) translate(82.694687, -16.659247)" fill="#000000">
                        <path d="M4.09733824,6.43550436 L3.35969118,8.07504359 L3.35969118,35.5467123 L4.86701471,35.5467123 L4.86701471,8.07504359 L4.09733824,6.43550436 Z" id="Shape"></path>
                        <path d="M3.94641176,0.0500622665 L0.381926471,8.07003736 L0.379985294,8.07504359 L0.379985294,35.5467123 L1.88730882,35.5467123 L1.88730882,8.07504359 L1.3365,6.90158406 L3.04279412,2.93064508 L4.98202941,2.93064508 L6.86157353,6.91460025 L6.33939706,8.07504359 L6.33939706,35.5467123 L7.84672059,35.5467123 L7.84672059,8.07504359 L7.83167647,8.04200249 L3.94641176,0.0500622665 Z" id="Shape"></path>
                        <rect id="Rectangle-path" x="0.379985294" y="36.1284359" width="7.46722059" height="0.770458281"></rect>
                        <rect id="Rectangle-path" x="0.379985294" y="37.5061494" width="7.46722059" height="0.770458281"></rect>
                        <path d="M0.379985294,42.1559328 C0.379985294,43.5842092 1.50198529,44.7416488 2.88652941,44.7416488 L5.34114706,44.7416488 C6.72520588,44.7416488 7.84769118,43.5842092 7.84769118,42.1559328 L7.84769118,38.8883686 L0.380470588,38.8883686 L0.380470588,42.1559328 L0.379985294,42.1559328 Z" id="Shape"></path>
                    </g>
                    <g id="noun_137128" transform="translate(63.250000, 18.356164)" fill="#000000">
                        <g id="Group">
                            <path d="M46.6951291,46.75328 L0.054870892,46.75328 L0.054870892,0.0549392244 L46.6951291,0.0549392244 L46.6951291,46.75328 L46.6951291,46.75328 Z M2.79841549,44.0063187 L43.9515845,44.0063187 L43.9515845,2.80190044 L2.79841549,2.80190044 L2.79841549,44.0063187 L2.79841549,44.0063187 Z" id="Shape"></path>
                            <rect id="Rectangle-path" x="1.42664319" y="11.0427841" width="43.8967136" height="2.74696122"></rect>
                            <rect id="Rectangle-path" x="15.6930751" y="22.030629" width="29.6302817" height="2.74696122"></rect>
                            <rect id="Rectangle-path" x="15.1443662" y="11.0427841" width="2.7435446" height="34.3370152"></rect>
                            <rect id="Rectangle-path" x="15.6930751" y="33.0184739" width="29.6302817" height="2.74696122"></rect>
                            <rect id="Rectangle-path" x="6.91373239" y="5.54886166" width="5.4870892" height="2.74696122"></rect>
                            <rect id="Rectangle-path" x="17.8879108" y="5.54886166" width="21.9483568" height="2.74696122"></rect>
                        </g>
                    </g>
                </g>
            </g>
        </g>
    </g>
</svg>