<svg xmlns="http://www.w3.org/2000/svg" xmlns:xlink="http://www.w3.org/1999/xlink" version="1.1" x="0px" y="0px" viewBox="0 0 100 100" enable-background="new 0 0 100 100" xml:space="preserve"><path d="M38.396,32.758c-5.244,0-9.509-4.268-9.509-9.511s4.266-9.509,9.509-9.509s9.51,4.266,9.51,9.509  S43.64,32.758,38.396,32.758z M38.396,15.705c-4.159,0-7.542,3.384-7.542,7.542c0,4.16,3.383,7.544,7.542,7.544  s7.543-3.384,7.543-7.544C45.939,19.089,42.556,15.705,38.396,15.705z"></path><path d="M38.396,34.081v-0.013c-0.042,0-0.083,0.006-0.125,0.006c-0.042,0-0.083-0.006-0.125-0.006v0.013  c-7.659,0.135-13.851,6.397-13.851,14.089h1.967c0-6.648,5.375-12.06,12.008-12.127C44.904,36.11,50.28,41.521,50.28,48.17h1.968  C52.248,40.478,46.055,34.216,38.396,34.081z"></path><rect x="25.28" y="57.353" width="48.533" height="3.935"></rect><rect x="25.28" y="69.158" width="48.533" height="3.935"></rect><rect x="25.28" y="80.963" width="37.384" height="3.936"></rect><path d="M63.087,1.932h-0.423h-0.983H14.458V99h71.488V27.51v-1.375L63.087,1.932z M63.648,5.391l19.032,20.151H63.648V5.391z   M83.979,97.033H16.426V3.9h45.255v23.61h22.299V97.033z"></path></svg>