<?xml version="1.0" encoding="UTF-8" standalone="no"?>
<svg width="40px" height="55px" viewBox="0 0 40 55" version="1.1" xmlns="http://www.w3.org/2000/svg" xmlns:xlink="http://www.w3.org/1999/xlink" xmlns:sketch="http://www.bohemiancoding.com/sketch/ns">
    <!-- Generator: Sketch 3.4.4 (17249) - http://www.bohemiancoding.com/sketch -->
    <title>Rectangle 250 + resume</title>
    <desc>Created with Sketch.</desc>
    <defs></defs>
    <g id="Page-1" stroke="none" stroke-width="1" fill="none" fill-rule="evenodd" sketch:type="MSPage">
        <g id="Icons" sketch:type="MSArtboardGroup" transform="translate(-424.000000, -274.000000)">
            <g id="Rectangle-250-+-resume" sketch:type="MSLayerGroup" transform="translate(385.000000, 257.000000)">
                <rect id="Rectangle-250" sketch:type="MSShapeGroup" x="0" y="0" width="117" height="90"></rect>
                <g id="resume" transform="translate(39.000000, 17.000000)" fill="#FFFFFF" sketch:type="MSShapeGroup">
                    <g id="Group">
                        <path d="M13.499479,17.5491617 C10.5977219,17.5491617 8.23769242,15.1907064 8.23769242,12.2934757 C8.23769242,9.3962449 10.5982752,7.03889482 13.499479,7.03889482 C16.4006829,7.03889482 18.761819,9.3962449 18.761819,12.2934757 C18.761819,15.1907064 16.4012362,17.5491617 13.499479,17.5491617 L13.499479,17.5491617 Z M13.499479,8.12583987 C11.1981045,8.12583987 9.32612804,9.99580534 9.32612804,12.2934757 C9.32612804,14.5922512 11.1981045,16.4622166 13.499479,16.4622166 C15.8008536,16.4622166 17.6733834,14.5922512 17.6733834,12.2934757 C17.6733834,9.99580534 15.8014069,8.12583987 13.499479,8.12583987 L13.499479,8.12583987 Z" id="Shape"></path>
                        <path d="M13.499479,18.2802386 L13.499479,18.2730549 C13.4762384,18.2730549 13.4535511,18.2763705 13.4303105,18.2763705 C13.4070699,18.2763705 13.3843826,18.2730549 13.361142,18.2730549 L13.361142,18.2802386 C9.1230493,18.3548383 5.69671818,21.8151586 5.69671818,26.0656829 L6.78515379,26.0656829 C6.78515379,22.3920628 9.75939956,19.4014443 13.4297572,19.3644207 C17.1006681,19.4014443 20.0754673,22.3915102 20.0754673,26.0656829 L21.1644562,26.0656829 C21.1644562,21.8151586 17.7375717,18.3548383 13.499479,18.2802386 L13.499479,18.2802386 Z" id="Shape"></path>
                        <rect id="Rectangle-path" x="6.241766" y="31.1401193" width="26.8556409" height="2.1744427"></rect>
                        <rect id="Rectangle-path" x="6.241766" y="37.6634474" width="26.8556409" height="2.1744427"></rect>
                        <rect id="Rectangle-path" x="6.241766" y="44.1867755" width="20.6863635" height="2.17499529"></rect>
                        <path d="M27.1621957,0.515014129 L26.9281295,0.515014129 L26.3841884,0.515014129 L0.253433407,0.515014129 L0.253433407,54.1538462 L39.8111788,54.1538462 L39.8111788,14.649168 L39.8111788,13.8893564 L27.1621957,0.515014129 L27.1621957,0.515014129 Z M27.472624,2.42642386 L38.0039441,13.5616703 L27.472624,13.5616703 L27.472624,2.42642386 L27.472624,2.42642386 Z M38.7227432,53.0669011 L1.34242237,53.0669011 L1.34242237,1.60251177 L26.3841884,1.60251177 L26.3841884,14.649168 L38.7232965,14.649168 L38.7232965,53.0669011 L38.7227432,53.0669011 Z" id="Shape"></path>
                    </g>
                </g>
            </g>
        </g>
    </g>
</svg>